<?xml version="1.0" encoding="UTF-8"?>
<svg width="65px" height="80px" viewBox="0 0 65 80" version="1.1" xmlns="http://www.w3.org/2000/svg" xmlns:xlink="http://www.w3.org/1999/xlink">
    <title>Group</title>
    <desc>Created with Sketch.</desc>
    <defs></defs>
    <g id="New-Design-" stroke="none" stroke-width="1" fill="none" fill-rule="evenodd">
        <g id="Welcome" transform="translate(-30.000000, -109.000000)" fill="#FFFFFF">
            <g id="Group" transform="translate(30.000000, 109.000000)">
                <path d="M18.9303429,35.4641026 C16.1194286,33.6688889 12.9138857,33.611453 11.7708,35.3358974 C10.6277143,37.0601709 11.9797714,39.9135043 14.7906857,41.7088889 C17.6016,43.5042735 20.8069714,43.5617094 21.9500571,41.837265 C23.0933143,40.1128205 21.7412571,37.2594872 18.9303429,35.4641026 Z M38.8724571,29.6459829 C33.6677143,29.1140171 29.6556,29.8589744 27.4870286,32.6261538 C27.4870286,32.6261538 23.5834286,38.6929915 25.2097714,44.5468376 C26.8362857,50.4006838 30.4146857,50.8264957 32.0410286,50.5071795 C33.6677143,50.1878632 34.5351429,48.8042735 35.0772,47.5270085 C35.6196,46.2497436 38.6556,43.2697436 41.1495429,43.0567521 C43.6434857,42.8439316 48.6315429,40.8217094 48.7400571,37.8415385 C48.8482286,34.8613675 44.0772,30.1782906 38.8724571,29.6459829 Z M22.7350286,24.1931624 C20.5088571,21.7312821 17.4334286,20.8423932 15.8658857,22.2082051 C14.2981714,23.5738462 14.832,26.6769231 17.0581714,29.1388034 C19.2843429,31.6006838 22.3597714,32.4894017 23.9274857,31.1235897 C25.4950286,29.7579487 24.9612,26.6550427 22.7350286,24.1931624 Z M52.8113143,50.6617094 L40.8790286,63.4529915 C40.9409143,63.4365812 41.0034857,63.4222222 41.0648571,63.4051282 L32.7793714,72.2873504 L24.7129714,63.6581197 C24.7249714,63.6608547 24.7369714,63.6632479 24.7488,63.6659829 L12.0456,50.2678632 L12.0243429,50.2813675 C7.84491429,45.5102564 5.3124,39.2695726 5.3124,32.4389744 C5.3124,17.4473504 17.5081714,5.29401709 32.5522286,5.29401709 C47.5962857,5.29401709 59.7917143,17.4473504 59.7917143,32.4389744 C59.7917143,39.4147009 57.1503429,45.7748718 52.8113143,50.5830769 L52.8113143,50.6617094 Z M64.8,32.2873504 C64.8,14.4555556 50.2940571,0 32.4,0 C14.5059429,0 0,14.4555556 0,32.2873504 C0,40.2039316 2.8608,47.4535043 7.60611429,53.0697436 L7.58777143,53.0813675 L7.96937143,53.4940171 C8.35251429,53.9319658 8.74817143,54.3588034 9.15445714,54.7757265 L32.4759429,80 L56.1498857,54.4423932 L56.0590286,54.3435897 C61.4797714,48.5716239 64.8,40.8165812 64.8,32.2873504 Z M32.6304,26.2955556 C34.5961714,25.5815385 35.2462286,22.5 34.0824,19.4128205 C32.9185714,16.325641 30.3816,14.4017094 28.4158286,15.1157265 C26.4500571,15.8297436 25.8,18.9112821 26.9638286,21.9984615 C28.1276571,25.085641 30.6646286,27.0095726 32.6304,26.2955556 Z M45.2468571,28.8092308 C47.3106857,28.4497436 48.5084571,25.5309402 47.9225143,22.2897436 C47.3364,19.048547 45.1882286,16.7126496 43.1245714,17.0721368 C41.0607429,17.4316239 39.8628,20.3505983 40.4489143,23.5916239 C41.0348571,26.8328205 43.1832,29.1688889 45.2468571,28.8092308 Z" id="Fill-3"></path>
            </g>
        </g>
    </g>
</svg>