<?xml version="1.0" encoding="UTF-8"?>
<svg width="32px" height="32px" viewBox="0 0 32 32" version="1.1" xmlns="http://www.w3.org/2000/svg" xmlns:xlink="http://www.w3.org/1999/xlink">
    <!-- Generator: Sketch 54.1 (76490) - https://sketchapp.com -->
    <title>Artboard</title>
    <desc>Created with Sketch.</desc>
    <g id="Artboard" stroke="none" stroke-width="1" fill="none" fill-rule="evenodd">
        <path d="M16,30 C24,23.0849447 28,17.418278 28,13 C28,6.372583 22.627417,1 16,1 C9.372583,1 4,6.372583 4,13 C4,17.418278 8,23.0849447 16,30 Z" id="Oval" fill="#FFFFFF"></path>
        <path d="M10.7367935,13.906869 C9.64568055,13.1634039 8.40138461,13.1396175 7.9576729,13.8537744 C7.51396118,14.5678605 8.03878936,15.7495325 9.12990228,16.4930684 C10.2210152,17.2366043 11.4652446,17.2603906 11.9089563,16.5462337 C12.3527346,15.8320768 11.8279064,14.6504048 10.7367935,13.906869 L10.7367935,13.906869 Z M18.7737742,11.7980548 C16.6856557,11.5829038 15.0760142,11.8841982 14.2059935,13.0033707 C14.2059935,13.0033707 12.6398874,15.4570741 13.2923685,17.8246342 C13.9449185,20.1921942 15.3805558,20.3644118 16.033037,20.2352659 C16.6856557,20.10612 17.033664,19.5465337 17.2511348,19.02995 C17.4687431,18.5133663 18.6867722,17.3081196 19.6873304,17.2219762 C20.6878886,17.135902 22.6890739,16.3180239 22.7326093,15.112708 C22.7760072,13.9073922 20.8618928,12.0133441 18.7737742,11.7980548 L18.7737742,11.7980548 Z M12.341313,9.63202873 C11.4984651,8.60194112 10.3340811,8.23001669 9.74059567,8.80149288 C9.14704538,9.37289754 9.34915753,10.6712714 10.1920054,11.701359 C11.0348533,12.7314466 12.1992374,13.1032995 12.7927877,12.5318233 C13.386273,11.9604187 13.1841609,10.6621163 12.341313,9.63202873 L12.341313,9.63202873 Z M24.1982379,20.1919232 L19.4089097,25.2834873 C19.4337491,25.2769552 19.4588638,25.2712396 19.4834968,25.2644354 L16.1579051,28.8 L12.920249,25.3651385 C12.9250656,25.3662272 12.9298821,25.3671798 12.9346298,25.3682685 L7.83587543,20.0351529 L7.82734333,20.0405282 C6.14982274,18.1413896 5.13333333,15.6572882 5.13333333,12.9383716 C5.13333333,6.97096228 10.0284182,2.13333333 16.0667355,2.13333333 C22.1050527,2.13333333 27,6.97096228 27,12.9383716 C27,15.7150564 25.939818,18.2467196 24.1982379,20.1606235 L24.1982379,20.1919232 Z M29.1333333,12.9149402 C29.1333333,5.78222222 23.2832,0 16.0666667,0 C8.85013333,0 3,5.78222222 3,12.9149402 C3,16.0815726 4.15373827,18.9814017 6.06748642,21.2278974 L6.06008889,21.232547 L6.21398519,21.3976068 C6.3685037,21.5727863 6.52806914,21.7435214 6.69192099,21.9102906 L16.0972938,32 L25.6448099,21.7769573 L25.6081679,21.7374359 C27.7943111,19.4286496 29.1333333,16.3266325 29.1333333,12.9149402 L29.1333333,12.9149402 Z M16.0816709,10.6044253 C16.8419436,10.3058161 17.0933568,9.01708568 16.6432397,7.7259961 C16.1931227,6.43490652 15.2119352,5.63029892 14.4516625,5.92890806 C13.6913897,6.22751721 13.4399766,7.51624766 13.8900936,8.80733724 C14.3402106,10.0984268 15.3213981,10.9030344 16.0816709,10.6044253 L16.0816709,10.6044253 Z M21.0369735,11.7184829 C21.8868237,11.5723764 22.3800461,10.386086 22.1387646,9.0687653 C21.8974125,7.75144457 21.0128312,6.8020649 20.1630515,6.94817141 C19.3132012,7.09427792 18.8199083,8.28063775 19.0612604,9.59788902 C19.3025419,10.9152098 20.1871938,11.8646589 21.0369735,11.7184829 L21.0369735,11.7184829 Z" id="Fill-3" fill="#FE4164"></path>
    </g>
</svg>