<?xml version="1.0" encoding="UTF-8"?>
<svg width="36px" height="36px" viewBox="0 0 36 36" version="1.1" xmlns="http://www.w3.org/2000/svg" xmlns:xlink="http://www.w3.org/1999/xlink">
    <!-- Generator: Sketch 54.1 (76490) - https://sketchapp.com -->
    <title>icon/line/aboutus</title>
    <desc>Created with Sketch.</desc>
    <defs>
        <path d="M27.4873281,26.6867266 C27.2608125,26.6867266 27.0771719,26.8703672 27.0771719,27.0968828 L27.0771719,30.9531172 C27.0771719,31.0779687 26.9755625,31.1795781 26.8507109,31.1795781 L24.645875,31.1795781 L24.645875,23.1023984 C24.645875,22.8758828 24.4622344,22.6922422 24.2357188,22.6922422 C24.0092031,22.6922422 23.8255625,22.8758828 23.8255625,23.1023984 L23.8255625,31.1796328 L19.3857578,31.1796328 L20.6732656,29.7632266 C20.8139219,29.6084609 20.8802578,29.3880156 20.8506719,29.1733125 C20.850125,29.1691563 20.8494688,29.165 20.8487578,29.1608438 L19.6225,21.9165547 L19.9528672,21.4192266 C20.1355234,21.5489453 20.2762344,21.6738516 20.5401016,21.6738516 C20.8085078,21.6738516 21.0594688,21.523625 21.1829531,21.2763281 L21.1829531,21.2762734 L22.4763125,18.6840859 L25.4226563,19.8251406 C25.5292422,19.8708594 27.0770625,20.5679063 27.0770625,22.4084688 L27.0770625,25.1827656 C27.0770078,25.4092266 27.2606484,25.5929219 27.4872188,25.5929219 C27.7137344,25.5929219 27.897375,25.4092813 27.897375,25.1827656 L27.897375,22.4084688 C27.897375,19.9834063 25.8209453,19.1018984 25.7325703,19.0655313 C25.73,19.0644375 25.727375,19.0633984 25.72475,19.0624141 L20.8210313,17.1633359 L20.8210313,16.0132578 C21.5998906,15.4075391 22.1399297,14.509625 22.2755,13.4852188 C22.6638359,13.457875 23.0241719,13.3128438 23.3184453,13.0598047 C23.7027344,12.7293281 23.9232344,12.2483516 23.9232344,11.7404141 C23.9232344,11.3188828 23.7711484,10.9163828 23.5001172,10.60275 L23.5001172,9.08336719 C23.5000625,6.28041406 21.2197031,4 18.41675,4 C15.6137969,4 13.3334375,6.28041406 13.3334375,9.08336719 L13.3334375,10.6425625 C13.0595078,10.9530234 12.9105391,11.3351797 12.9105391,11.7403594 C12.9105391,12.2484609 13.1309297,12.7293828 13.5153281,13.0599141 C13.8093828,13.3128437 14.1695,13.4577109 14.5577266,13.4851094 C14.6943906,14.5287109 15.2501797,15.4600937 16.095375,16.0739609 L16.095375,17.1633359 L11.1969609,19.0623594 C11.1943906,19.0633437 11.1918203,19.0643828 11.18925,19.0654219 C11.1008203,19.1017891 9.02444531,19.9832969 9.02444531,22.4083594 L9.02444531,30.9530078 C9.02444531,31.5302344 9.49404688,31.9998359 10.0712734,31.9998359 L13.9790781,31.9998359 C14.2055938,31.9998359 14.3892344,31.8161953 14.3892344,31.5896797 C14.3892344,31.3631641 14.2055938,31.1795234 13.9790781,31.1795234 L13.0965859,31.1795234 L13.0965859,23.1023984 C13.0965859,22.8758828 12.9129453,22.6922422 12.6864297,22.6922422 C12.4599141,22.6922422 12.2762734,22.8758828 12.2762734,23.1023984 L12.2762734,31.1796328 L10.0713281,31.1796328 C9.94647656,31.1796328 9.84486719,31.0780234 9.84486719,30.9531719 L9.84486719,22.4084141 C9.84486719,20.5616719 11.4030781,19.8662109 11.4987813,19.8253047 L14.4428281,18.6839766 L15.7362969,21.2762734 C15.8600547,21.5241719 16.1113438,21.6738516 16.3792031,21.6738516 C16.6417578,21.6738516 16.7811016,21.5508594 16.9664375,21.4192266 L17.2968047,21.9165547 L16.0706563,29.1608984 C16.0699453,29.165 16.0693438,29.1691016 16.0687422,29.1732578 C16.0391016,29.3878516 16.1054375,29.6084062 16.2461484,29.7632812 L17.5336563,31.1796875 L15.8933047,31.1796875 C15.6667891,31.1796875 15.4831484,31.3633281 15.4831484,31.5898437 C15.4831484,31.8163594 15.6667891,32 15.8933047,32 L26.8507656,32 C27.4279922,32 27.8975938,31.5303437 27.8975938,30.9531719 L27.8975938,27.0969375 C27.8974844,26.8703672 27.7138438,26.6867266 27.4873281,26.6867266 Z M21.7080078,18.3865859 L20.5022031,20.8032266 C20.4722344,20.7819531 19.8332109,20.3279375 19.0520547,19.7732422 C19.3910078,19.3548281 18.9944688,19.8442812 20.5414688,17.9348125 L21.7080078,18.3865859 Z M19.2836016,20.9439922 L18.9708984,21.4146875 L17.9480781,21.4146875 L17.635375,20.9439922 L18.4595156,20.3586719 L19.2836016,20.9439922 Z M16.9156328,17.2956797 L16.9156328,16.5280859 C17.4139453,16.7289531 17.9464922,16.8220859 18.4665703,16.8220859 C19.0043125,16.8220859 19.5316641,16.7074609 20.0006641,16.5023828 L20.0006641,17.2990156 L18.4595156,19.2013203 L16.9156328,17.2956797 Z M23.1028672,11.7404141 C23.1028125,12.0090937 22.9864375,12.2633359 22.7835469,12.4378437 C22.6493984,12.5532344 22.4873594,12.6270078 22.3098984,12.6558828 L22.3098984,10.8251094 C22.7813047,10.9016719 23.1028672,11.2926875 23.1028672,11.7404141 Z M14.5238203,12.6558828 C14.0470547,12.5785 13.7308516,12.1843125 13.7308516,11.7403594 C13.7308516,11.301875 14.0943594,10.9449844 14.5238203,10.8457266 L14.5238203,12.6558828 Z M14.5458594,10.0099375 C14.4152109,10.0249219 14.2654766,10.0603047 14.1538594,10.0982578 L14.1538594,9.08336719 C14.1538594,6.73273438 16.0661719,4.82036719 18.4168047,4.82036719 C20.7674375,4.82036719 22.67975,6.73273438 22.67975,9.08336719 L22.67975,10.0700938 C22.5605313,10.0338359 22.4368828,10.0098828 22.3099531,9.99861719 C22.3099531,9.60284375 22.3133984,9.6791875 21.0186719,8.28722656 C20.7805625,8.03139844 20.3867031,7.97780469 20.0869609,8.17364063 C18.6579766,9.10710156 16.9148125,9.57604688 15.3064531,9.46054688 C14.9536641,9.43413281 14.6323203,9.6665 14.5458594,10.0099375 Z M15.3441875,12.9788125 L15.3441875,10.419875 L15.3441875,10.2850703 C17.1146953,10.3887578 18.9709531,9.86277344 20.4705391,8.90240625 C21.0643359,9.53995313 21.3858984,9.87436719 21.4895859,10.0015703 C21.4895859,10.3233516 21.4895859,12.6104375 21.4895859,12.9787578 C21.4895859,14.6438281 20.1319141,16.0016641 18.466625,16.0016641 C16.5966406,16.0017188 15.3441875,14.5510781 15.3441875,12.9788125 Z M16.4168828,20.8032266 L15.2110781,18.3865859 L16.3755391,17.9355781 L17.8652813,19.7744453 C17.1076953,20.3124062 16.485625,20.7543906 16.4168828,20.8032266 Z M16.8874688,29.2493281 L18.0746797,22.2349453 L18.8441875,22.2349453 L20.0313984,29.2493281 L18.4594609,30.9787109 L16.8874688,29.2493281 Z" id="path-1"></path>
    </defs>
    <g id="icon/line/aboutus" stroke="none" stroke-width="1" fill="none" fill-rule="evenodd">
        <mask id="mask-2" fill="white">
            <use xlink:href="#path-1"></use>
        </mask>
        <use id="Shape" fill="#000000" fill-rule="nonzero" xlink:href="#path-1"></use>
    </g>
</svg>