<?xml version="1.0" encoding="UTF-8"?>
<svg width="36px" height="36px" viewBox="0 0 36 36" version="1.1" xmlns="http://www.w3.org/2000/svg" xmlns:xlink="http://www.w3.org/1999/xlink">
    <!-- Generator: Sketch 54.1 (76490) - https://sketchapp.com -->
    <title>icon/line/accredited</title>
    <desc>Created with Sketch.</desc>
    <defs>
        <path d="M23.8287951,24.3220029 C23.8287951,27.7090034 21.0733126,30.4644859 17.6865253,30.4644859 C14.2995249,30.4644859 11.5442556,27.7090034 11.5442556,24.3220029 C11.5442556,20.9352157 14.2995249,18.1797332 17.6865253,18.1797332 C21.0733126,18.1797332 23.8287951,20.9352157 23.8287951,24.3220029 Z M17.6865253,29.6438535 C20.6208882,29.6438535 23.0081628,27.2563658 23.0081628,24.3220029 C23.0081628,21.3876401 20.6208882,19.0003655 17.6865253,19.0003655 C14.7519493,19.0003655 12.3646747,21.3876401 12.3646747,24.3220029 C12.3646747,27.2563658 14.7519493,29.6438535 17.6865253,29.6438535 Z M19.2295017,16.7913316 C22.730781,17.5077059 25.3728375,20.6119944 25.3730507,24.3222161 C25.3730507,28.1637732 22.5032895,31.4394798 18.6975511,31.9420078 C18.6794286,31.9443531 18.661306,31.9456323 18.6433967,31.9456323 C18.4406372,31.9456323 18.2643153,31.7953216 18.2370248,31.5889376 C18.2073891,31.3642178 18.3655884,31.158047 18.590095,31.1284113 C21.9890351,30.6796114 24.5522052,27.7535636 24.5522052,24.3220029 C24.5522052,20.4533687 21.3372624,17.330318 17.4551962,17.4605873 C13.75798,17.5848867 10.8206323,20.6305433 10.8206323,24.3220029 C10.8206323,27.7535636 13.3838024,30.6796114 16.7827424,31.1284113 C17.0074622,31.158047 17.1654483,31.3642178 17.1358126,31.5889376 C17.1061769,31.8134442 16.8997929,31.9716435 16.6752863,31.9420078 C12.8697612,31.4394798 10,28.1637732 10,24.3220029 C10,20.6122076 12.6420565,17.5077059 16.1433358,16.7913316 C16.0913133,16.4431652 16.1571942,16.1069383 16.3126218,15.8199622 L15.5544591,15.8199622 C14.928058,15.8199622 14.418281,15.3101852 14.418281,14.6837841 L14.418281,14.4417946 C14.418281,14.0601547 14.6082481,13.7224354 14.8977827,13.5164778 L11.5031067,4.94152047 C11.3244396,4.49016205 11.6576815,4 12.1429398,4 L15.487299,4 C15.7715034,4 16.0226608,4.1705653 16.127132,4.43472833 L17.6865253,8.37350754 L19.2457054,4.43494152 C19.3501767,4.1707785 19.6013341,4 19.8855385,4 L23.2298977,4 C23.7153691,4 24.0486111,4.49016205 23.869944,4.94152047 L22.5548855,8.26306653 C22.4715217,8.47371468 22.2331567,8.57690669 22.0225085,8.49354288 C21.8116472,8.41017908 21.7086684,8.1718141 21.7920322,7.9609527 L23.03524,4.8206323 L19.9755117,4.8206323 L18.127863,9.48815179 C18.3067434,9.93993665 19.3930312,12.6839059 19.6390716,13.3056165 L19.6761696,13.3056165 L21.0338694,9.87576147 C21.1174464,9.66511332 21.3558114,9.56192131 21.5664595,9.64528512 C21.7773209,9.72864887 21.8802997,9.9670139 21.7969359,10.1778752 L20.475268,13.5164778 C20.7648026,13.7224354 20.9545565,14.0599415 20.9545565,14.4417946 L20.9545565,14.6837841 C20.9545565,15.3101852 20.4447795,15.8197491 19.8183784,15.8197491 L19.0604288,15.8197491 C19.2156433,16.1069383 19.2817374,16.4431652 19.2295017,16.7913316 Z M12.3375975,4.8206323 L15.6968811,13.3056165 L18.7566094,13.3056165 C18.6670626,13.0796174 15.8465522,5.955318 15.3973258,4.8206323 L12.3375975,4.8206323 Z M18.4188901,16.6706567 C18.4242203,16.6346248 18.4269919,16.59774 18.4269919,16.5602157 C18.4269919,16.151925 18.094816,15.8197491 17.6865253,15.8197491 C17.2360198,15.8197491 16.8872137,16.2214303 16.9541606,16.6706567 C17.4468811,16.6239644 17.9263828,16.6239644 18.4188901,16.6706567 Z M15.5544591,14.9993299 L19.8183784,14.9993299 C19.992355,14.9993299 20.1339242,14.8577607 20.1339242,14.6837841 L20.1339242,14.4417946 C20.1339242,14.2665387 19.9908626,14.1262488 19.8183784,14.1262488 L15.5544591,14.1262488 C15.3849598,14.1262488 15.2389133,14.2639802 15.2389133,14.4417946 L15.2389133,14.6837841 C15.2389133,14.8577607 15.3804825,14.9993299 15.5544591,14.9993299 Z" id="path-1"></path>
    </defs>
    <g id="icon/line/accredited" stroke="none" stroke-width="1" fill="none" fill-rule="evenodd">
        <mask id="mask-2" fill="white">
            <use xlink:href="#path-1"></use>
        </mask>
        <use id="Combined-Shape" fill="#000000" fill-rule="nonzero" xlink:href="#path-1"></use>
    </g>
</svg>