<?xml version="1.0" encoding="UTF-8" standalone="no"?>
<!DOCTYPE svg PUBLIC "-//W3C//DTD SVG 1.1//EN" "http://www.w3.org/Graphics/SVG/1.1/DTD/svg11.dtd">
<svg width="100%" height="100%" viewBox="0 0 512 512" version="1.1" xmlns="http://www.w3.org/2000/svg" xmlns:xlink="http://www.w3.org/1999/xlink" xml:space="preserve" xmlns:serif="http://www.serif.com/" style="fill-rule:evenodd;clip-rule:evenodd;stroke-linejoin:round;stroke-miterlimit:2;">
    <g transform="matrix(0.814001,0,0,0.814001,47.6158,47.7005)">
        <path d="M150.332,230.906C141.492,230.906 133.199,233.273 126.047,237.406C118.691,233.137 110.398,230.906 101.719,230.906C74.867,230.906 53.027,252.75 53.027,279.598C53.027,306.445 74.867,328.285 101.719,328.285C110.398,328.285 118.691,326.055 126.047,321.789C133.199,325.922 141.492,328.285 150.332,328.285C177.18,328.285 199.02,306.445 199.02,279.598C199.02,252.75 177.18,230.906 150.332,230.906ZM73.027,279.598C73.027,263.777 85.898,250.906 101.719,250.906C104.617,250.906 107.441,251.332 110.133,252.152C104.777,259.973 101.641,269.426 101.641,279.598C101.641,289.77 104.777,299.223 110.133,307.039C107.441,307.863 104.617,308.289 101.719,308.289C85.898,308.285 73.027,295.414 73.027,279.598ZM150.332,308.285C134.512,308.285 121.641,295.414 121.641,279.598C121.641,263.777 134.512,250.906 150.332,250.906C166.152,250.906 179.02,263.777 179.02,279.598C179.02,295.418 166.152,308.285 150.332,308.285Z" style="fill-rule:nonzero;"/>
    </g>
    <g transform="matrix(0.814001,0,0,0.814001,47.6158,47.7005)">
        <path d="M423.066,247.281L423.066,101.781C423.066,83.703 408.359,69 390.285,69L32.789,69C14.711,69 0,83.707 0,101.781L0,353.676C0,371.754 14.711,386.465 32.789,386.465L323.895,386.465C339.504,420.336 373.773,443.91 413.453,443.91C467.793,443.91 512,399.699 512,345.359C512,294.266 472.91,252.133 423.066,247.281ZM32.789,89L390.285,89C397.332,89 403.066,94.734 403.066,101.781L403.066,127.219L20,127.219L20,101.781C20,94.734 25.738,89 32.789,89ZM32.789,366.465C25.738,366.465 20,360.727 20,353.676L20,196.211L166.309,196.211C171.832,196.211 176.309,191.734 176.309,186.211C176.309,180.688 171.832,176.211 166.309,176.211L20,176.211L20,147.219L403.066,147.219L403.066,176.211L256.758,176.211C251.234,176.211 246.758,180.688 246.758,186.211C246.758,191.734 251.234,196.211 256.758,196.211L403.066,196.211L403.066,247.359C391.324,248.594 380.191,251.902 370.039,256.906L370.039,249.598C370.039,244.074 365.562,239.598 360.039,239.598L264.559,239.598C259.035,239.598 254.559,244.074 254.559,249.598L254.559,309.598C254.559,315.117 259.035,319.598 264.559,319.598L318.328,319.598C316.098,327.813 314.902,336.449 314.902,345.359C314.902,352.602 315.695,359.664 317.184,366.465L32.789,366.465ZM326.195,299.598L274.559,299.598L274.559,259.598L350.039,259.598L350.039,269.988C340.305,278.195 332.176,288.242 326.195,299.598ZM413.453,423.91C370.141,423.91 334.902,388.672 334.902,345.363C334.902,302.051 370.141,266.813 413.453,266.813C456.762,266.813 492,302.051 492,345.363C492,388.672 456.762,423.91 413.453,423.91Z" style="fill-rule:nonzero;"/>
    </g>
    <g transform="matrix(0.814001,0,0,0.814001,47.6158,47.7005)">
        <path d="M441.926,335.359L423.449,335.359L423.449,316.887C423.449,311.363 418.973,306.887 413.449,306.887C407.93,306.887 403.449,311.363 403.449,316.887L403.449,335.359L384.977,335.359C379.453,335.359 374.977,339.84 374.977,345.359C374.977,350.883 379.453,355.359 384.977,355.359L403.449,355.359L403.449,373.836C403.449,379.359 407.93,383.836 413.449,383.836C418.973,383.836 423.449,379.359 423.449,373.836L423.449,355.359L441.926,355.359C447.449,355.359 451.926,350.883 451.926,345.359C451.926,339.84 447.449,335.359 441.926,335.359Z" style="fill-rule:nonzero;"/>
    </g>
    <g transform="matrix(0.814001,0,0,0.814001,47.6158,47.7005)">
        <path d="M211.719,196.215C207.484,196.215 203.613,193.43 202.25,189.426C200.883,185.402 202.281,180.871 205.633,178.281C208.852,175.793 213.367,175.574 216.852,177.645C220.434,179.77 222.348,184.082 221.52,188.164C220.586,192.777 216.441,196.215 211.719,196.215Z" style="fill-rule:nonzero;"/>
    </g>
</svg>
