<?xml version="1.0" encoding="UTF-8" standalone="no"?>
<!DOCTYPE svg PUBLIC "-//W3C//DTD SVG 1.1//EN" "http://www.w3.org/Graphics/SVG/1.1/DTD/svg11.dtd">
<svg width="100%" height="100%" viewBox="0 0 481 481" version="1.1" xmlns="http://www.w3.org/2000/svg" xmlns:xlink="http://www.w3.org/1999/xlink" xml:space="preserve" xmlns:serif="http://www.serif.com/" style="fill-rule:evenodd;clip-rule:evenodd;stroke-linejoin:round;stroke-miterlimit:2;">
    <g transform="matrix(0.830111,0,0,0.830111,40.7761,40.7761)">
        <g>
            <path d="M240.032,288.017C231.195,288.017 224.032,280.854 224.032,272.017C224.032,263.18 231.195,256.017 240.032,256.017C248.869,256.017 256.032,263.18 256.032,272.017L272.032,272.017C271.977,257.47 262.118,244.79 248.032,241.153L248.032,232.017L232.032,232.017L232.032,241.153C214.951,245.549 204.668,262.96 209.064,280.041C212.7,294.167 225.445,304.035 240.032,304.017C248.869,304.017 256.032,311.18 256.032,320.017C256.032,328.854 248.869,336.017 240.032,336.017C231.195,336.017 224.032,328.854 224.032,320.017L208.032,320.017C208.087,334.564 217.947,347.244 232.032,350.881L232.032,360.017L248.032,360.017L248.032,350.881C265.113,346.485 275.396,329.074 271,311.993C267.364,297.866 254.619,287.999 240.032,288.017Z" style="fill-rule:nonzero;"/>
        </g>
    </g>
    <g transform="matrix(0.830111,0,0,0.830111,40.7761,40.7761)">
        <g>
            <path d="M240.032,192.017C182.594,192.017 136.032,238.579 136.032,296.017C136.032,353.455 182.594,400.017 240.032,400.017C297.47,400.017 344.032,353.455 344.032,296.017C343.966,238.607 297.442,192.083 240.032,192.017ZM240.032,384.017C191.431,384.017 152.032,344.618 152.032,296.017C152.032,247.416 191.431,208.017 240.032,208.017C288.633,208.017 328.032,247.416 328.032,296.017C327.975,344.594 288.609,383.96 240.032,384.017Z" style="fill-rule:nonzero;"/>
        </g>
    </g>
    <g transform="matrix(0.830111,0,0,0.830111,40.7761,40.7761)">
        <g>
            <path d="M472.032,176.017C476.45,176.017 480.032,172.435 480.032,168.017L480.032,136.017C480.032,135.913 479.976,135.833 479.976,135.729C479.945,134.855 479.77,133.993 479.456,133.177C479.456,133.081 479.456,132.969 479.384,132.873C478.995,132 478.454,131.203 477.784,130.521C477.547,130.311 477.298,130.113 477.04,129.929C476.682,129.59 476.294,129.285 475.88,129.017L243.88,1.017C241.477,-0.319 238.555,-0.319 236.152,1.017L4.152,129.017C3.738,129.285 3.35,129.59 2.992,129.929C2.734,130.113 2.485,130.311 2.248,130.521C1.578,131.203 1.037,132 0.648,132.873C0.648,132.969 0.648,133.081 0.576,133.177C0.262,133.993 0.087,134.855 0.056,135.729C0.056,135.833 0,135.913 0,136.017L0,168.017C0,172.435 3.582,176.017 8,176.017L32.032,176.017L32.032,416.017L8.032,416.017C3.614,416.017 0.032,419.599 0.032,424.017L0.032,472.017C0.032,476.435 3.614,480.017 8.032,480.017L472.032,480.017C476.45,480.017 480.032,476.435 480.032,472.017L480.032,424.017C480.032,419.599 476.45,416.017 472.032,416.017L448.032,416.017L448.032,176.017L472.032,176.017ZM240.032,17.153L440.968,128.017L39.096,128.017L240.032,17.153ZM464.032,432.017L464.032,464.017L16.032,464.017L16.032,432.017L464.032,432.017ZM48.032,416.017L48.032,176.017L80.032,176.017L80.032,416.017L48.032,416.017ZM96.032,416.017L96.032,176.017L384.032,176.017L384.032,416.017L96.032,416.017ZM400.032,416.017L400.032,176.017L432.032,176.017L432.032,416.017L400.032,416.017ZM16.032,160.017L16.032,144.017L464.032,144.017L464.032,160.017L16.032,160.017Z" style="fill-rule:nonzero;"/>
        </g>
    </g>
</svg>
