<svg id="Layer_1" data-name="Layer 1" xmlns="http://www.w3.org/2000/svg" viewBox="0 0 1024 1024"><title>calendar</title><g id="Symbols"><g id="icon_line_calendar" data-name="icon/line/calendar"><g id="Icon"><path id="path-1" d="M257.49,238.71c-31.5,0-56.14,21.13-56.14,45.88V819.77c0,24.76,24.64,45.88,56.14,45.88H772.15c31.49,0,56.14-21.12,56.14-45.88V284.59c0-24.75-24.65-45.88-56.14-45.88Zm0-31.34H772.15c47.82,0,87.48,34,87.48,77.22V819.77C859.63,863,820,897,772.15,897H257.49C209.66,897,170,863,170,819.77V284.59C170,241.36,209.66,207.37,257.49,207.37ZM185.67,411.12H844c20.9,0,20.9,31.35,0,31.35H185.67C164.78,442.47,164.78,411.12,185.67,411.12ZM655.88,520.84h64.26c20.9,0,20.9,31.34,0,31.34H655.88C635,552.18,635,520.84,655.88,520.84Zm-170.84,0h67.39c20.9,0,20.9,31.34,0,31.34H485C464.14,552.18,464.14,520.84,485,520.84Zm-174,0h70.53c20.9,0,20.9,31.34,0,31.34H311.06C290.16,552.18,290.16,520.84,311.06,520.84Zm94-376.17V301.41c0,20.9-31.34,20.9-31.34,0V144.67C373.76,123.78,405.1,123.78,405.1,144.67Zm250.78,0V301.41c0,20.9-31.35,20.9-31.35,0V144.67C624.53,123.78,655.88,123.78,655.88,144.67Zm0,501.55h64.26c20.9,0,20.9,31.35,0,31.35H655.88C635,677.57,635,646.22,655.88,646.22Zm-170.84,0h67.39c20.9,0,20.9,31.35,0,31.35H485C464.14,677.57,464.14,646.22,485,646.22Zm-174,0h70.53c20.9,0,20.9,31.35,0,31.35H311.06C290.16,677.57,290.16,646.22,311.06,646.22ZM655.88,771.61h64.26c20.9,0,20.9,31.35,0,31.35H655.88C635,803,635,771.61,655.88,771.61Zm-170.84,0h67.39c20.9,0,20.9,31.35,0,31.35H485C464.14,803,464.14,771.61,485,771.61Zm-174,0h70.53c20.9,0,20.9,31.35,0,31.35H311.06C290.16,803,290.16,771.61,311.06,771.61Z"/></g></g></g></svg>