<svg id="Group_1" data-name="Group 1" xmlns="http://www.w3.org/2000/svg" width="64.795" height="54.795" viewBox="0 0 64.795 54.795">
  <path id="Path_1" data-name="Path 1" d="M56.443,5.062H50.621V2.025a2.025,2.025,0,1,0-4.05,0V5.062H18.224V2.025a2.025,2.025,0,0,0-4.05,0V5.062H8.352A8.362,8.362,0,0,0,0,13.415V46.443a8.362,8.362,0,0,0,8.352,8.352h48.09a8.362,8.362,0,0,0,8.352-8.352V13.415A8.362,8.362,0,0,0,56.443,5.062ZM8.352,9.112h5.821v2.025a2.025,2.025,0,0,0,4.05,0V9.112H46.571v2.025a2.025,2.025,0,1,0,4.05,0V9.112h5.821a4.308,4.308,0,0,1,4.3,4.3v4.809H4.05V13.415A4.308,4.308,0,0,1,8.352,9.112Zm48.09,41.634H8.352a4.308,4.308,0,0,1-4.3-4.3V22.273h56.7V46.443A4.308,4.308,0,0,1,56.443,50.745Z" fill="#52c4be"/>
</svg>
