<svg width="25" height="25" viewBox="0 0 25 25" fill="none" xmlns="http://www.w3.org/2000/svg">
<path d="M23.4375 3.125H1.56248C0.699632 3.125 0 3.82463 0 4.68748V20.3125C0 21.1754 0.699632 21.8749 1.56248 21.8749H23.4375C24.3004 21.8749 24.9999 21.1753 24.9999 20.3125V4.68748C25 3.82463 24.3004 3.125 23.4375 3.125ZM3.12501 6.25001H21.875V17.1875L15.625 10.9375L7.81249 18.75H3.12501V6.25001Z" fill="#FE4164"/>
<path d="M10.2511 8.49898C11.1664 9.41428 11.1664 10.8982 10.2511 11.8136C9.33575 12.7289 7.85178 12.7289 6.93648 11.8136C6.02117 10.8982 6.02117 9.41428 6.93648 8.49898C7.85178 7.58367 9.33575 7.58367 10.2511 8.49898Z" fill="#FE4164"/>
</svg>
