<?xml version="1.0" encoding="UTF-8"?>
<svg width="36px" height="36px" viewBox="0 0 36 36" version="1.1" xmlns="http://www.w3.org/2000/svg" xmlns:xlink="http://www.w3.org/1999/xlink">
    <!-- Generator: Sketch 50.2 (55047) - http://www.bohemiancoding.com/sketch -->
    <title>cat</title>
    <desc>Created with Sketch.</desc>
    <defs></defs>
    <g id="cat" stroke="none" stroke-width="1" fill="none" fill-rule="evenodd">
        <g transform="translate(0.000000, 3.000000)" fill="#4A4A4A" fill-rule="nonzero" id="Shape">
            <path d="M14.8097358,17.1748073 C14.7339367,16.879612 14.6582078,16.7075201 14.6497857,16.688851 C14.5311742,16.4248176 14.2222929,16.3077501 13.957698,16.4248878 C13.6930329,16.5418148 13.5730879,16.8520998 13.6883306,17.1175369 C13.6888218,17.1186599 13.7374596,17.2317268 13.7900277,17.4365949 C13.851088,17.6743092 14.0649397,17.8322239 14.2995659,17.8322239 C14.3428696,17.8322239 14.3868752,17.8268197 14.4308106,17.8155902 C14.7123901,17.7433004 14.8820958,17.4563868 14.8097358,17.1748073 Z"></path>
            <path d="M3.43889179,6.29834175 L3.43327704,6.29834175 C3.14250336,6.29834175 2.90970194,6.53395054 2.90970194,6.82472422 C2.90970194,7.1154979 3.14811811,7.35110669 3.43889179,7.35110669 C3.72966546,7.35110669 3.96527426,7.1154979 3.96527426,6.82472422 C3.96527426,6.53395054 3.72966546,6.29834175 3.43889179,6.29834175 Z"></path>
            <path d="M35.934447,9.63778234 C35.934447,6.43281492 31.333022,5.47107905 27.9732279,4.76888483 C26.7753218,4.51846715 25.64381,4.28194595 25.1571519,4.01791251 C24.2966218,3.55090598 24.4013368,3.1486094 24.6986376,2.35489481 C24.8574648,1.93091128 25.0216961,1.49239959 24.8597809,1.06083614 C24.6411567,0.477674548 24.1384965,0.0991002735 23.5151193,0.0481464502 C22.7186675,-0.0181075571 21.8888782,0.452969664 21.4491734,1.21762794 C21.0223825,1.95996759 20.7676133,3.32273672 21.216793,4.56050756 C21.5107952,5.37064528 22.2360099,6.47429386 24.0209378,7.13121919 C24.801177,7.41841346 25.8823665,7.6193512 27.027073,7.8320799 C29.0556808,8.20903994 31.5802814,8.67829237 32.1113662,9.68922745 C32.1698999,9.80060998 32.1475813,9.96336744 32.0514989,10.124651 C31.9573116,10.2829869 31.5608403,10.8006665 30.4149407,10.8159667 C30.0244351,10.8202479 29.6008727,10.7151118 29.0901413,10.4819595 C28.9846543,10.433813 28.8788865,10.3900882 28.7757857,10.3519079 C25.9135986,9.29324746 20.652862,8.3005603 14.4706051,8.68903057 C13.5790536,8.74496748 12.7089784,8.39053661 12.1439946,7.74084027 C11.155729,6.60448579 9.61672704,5.07173022 7.8437305,4.13294462 C7.02867988,1.48439857 4.85156197,0.860670435 4.74312718,0.831333385 C4.58507207,0.788240207 4.41571729,0.821647948 4.28552536,0.921239511 C4.15533342,1.02083108 4.07897287,1.17537697 4.07897287,1.33932756 L4.07897287,3.76784574 L3.1978788,4.04907435 C2.44802942,4.28833273 1.83286377,4.83724437 1.50994567,5.55487914 L1.12273872,6.41519866 L0.172372714,7.27916775 C0.031723317,7.40697342 -0.0290563125,7.60068217 0.0132648383,7.7859688 L0.44658289,9.6818581 C0.678331546,10.6956707 1.57402396,11.402848 2.60292624,11.4027779 C2.63914135,11.4027779 2.6756372,11.4018655 2.71213305,11.4001109 C2.81783065,11.3989879 3.48142349,11.3873373 4.28819236,11.2805168 C5.82242181,15.2975169 9.47327027,18.569019 10.337871,19.304621 L10.8082464,26.7315268 L9.05644553,27.4321769 C8.42576915,27.6844896 8.01820875,28.2863904 8.01820875,28.9657045 L8.01820875,29.8916464 C8.01820875,30.1824201 8.25381754,30.4180289 8.54459122,30.4180289 L12.0406832,30.4180289 C12.8813511,30.4180289 13.5866335,29.7895282 13.6813823,28.9560191 C13.8351562,27.6021634 14.1238243,25.4548036 14.4028772,23.3781195 C14.5042936,22.6239187 14.6027622,21.8910539 14.6927385,21.2118801 C19.1245982,21.1216231 23.8030154,19.6605959 24.8550083,19.3136046 C25.8374486,21.2843806 27.1689155,22.5337318 28.2370508,23.2840023 C29.233949,23.9842314 30.1414324,24.359156 30.6747631,24.5405123 L30.2627109,26.6693434 L29.0624887,27.0418117 C28.5676892,27.195375 28.1688316,27.5785112 27.9955465,28.0667836 L27.4105601,29.7156241 C27.3534301,29.8767673 27.3780648,30.0556672 27.4766738,30.195334 C27.5752828,30.3349306 27.7355838,30.4180289 27.906623,30.4180289 L31.211182,30.4180289 C31.9893156,30.4180289 32.6692614,29.8651167 32.8280184,29.103336 L34.0480326,23.247717 C34.0760361,23.1131035 34.0502785,22.9728752 33.9763042,22.8570008 L31.9194822,19.6377158 L32.3134269,16.0370491 C32.3729432,15.4935417 32.3702762,15.0475203 32.3050749,14.6335731 C32.3019166,14.61336 32.2974248,14.5866198 32.2914592,14.5545456 C35.2948572,13.0510568 35.934447,11.0585939 35.934447,9.63778234 Z M31.9728223,13.5352585 C31.9347122,13.449774 31.8930227,13.362956 31.8464203,13.2755765 C31.7097013,13.0190528 31.390924,12.9219879 31.1343301,13.0588473 C30.8778064,13.1956366 30.7807415,13.514484 30.9176009,13.7709375 C31.174265,14.2522616 31.2567316,14.7427799 31.2652941,14.7971728 C31.3156162,15.1165817 31.3161777,15.4741708 31.2671189,15.9224381 L30.8529611,19.7074089 C30.8398367,19.826652 30.8679806,19.9468778 30.9326204,20.0480836 L32.9737912,23.2429445 L31.7975019,28.8885719 C31.7400209,29.1647473 31.4934633,29.3651937 31.2113223,29.3651937 L28.6520508,29.3651937 L28.9878126,28.418758 C29.0506276,28.2418233 29.1952073,28.1028584 29.3745984,28.0472022 L30.8757711,27.5813186 C31.0611279,27.5238377 31.1996717,27.3690812 31.2365887,27.1786009 L31.7992565,24.2717766 C31.8533686,23.9919516 31.67496,23.7197768 31.3966791,23.6579444 C31.3490942,23.6474168 26.6228814,22.5354864 25.0381894,16.8570829 C24.9601445,16.5770474 24.6697919,16.4132372 24.3897564,16.4915629 C24.1097209,16.569678 23.9461213,16.8600306 24.0242364,17.1399959 C24.1428479,17.5651024 24.2781633,17.9661356 24.4263224,18.3452714 C23.2676493,18.7185116 18.8991661,20.0405739 14.8313525,20.155606 C14.8653919,19.8925551 14.8973258,19.6419971 14.9265927,19.4081429 C14.9626674,19.1196853 14.7580801,18.8566344 14.4695523,18.8204895 C14.180814,18.7846955 13.9179737,18.9890021 13.8818989,19.2775298 C13.7484083,20.3458757 13.5595423,21.7506151 13.3596573,23.2379614 C13.0799026,25.3198391 12.7905326,27.4726733 12.6354954,28.837197 C12.6013157,29.1382176 12.3456341,29.3652639 12.0408236,29.3652639 L9.07111406,29.3652639 L9.07111406,28.9657045 C9.07111406,28.7193575 9.21885207,28.5011544 9.44751262,28.4097043 L11.5532531,27.5674221 C11.7644377,27.4829202 11.897437,27.2723672 11.8831194,27.0453911 L11.3743532,19.0122331 C11.3650187,18.8654776 11.294694,18.72932 11.1805743,18.6366065 C11.1374811,18.6016547 7.00502776,15.2140677 5.34467707,11.0903874 C5.51929569,11.0491892 5.69265098,11.002657 5.86116356,10.9498082 C6.13853203,10.8628498 6.29293755,10.5675142 6.20604935,10.2900755 C6.11916115,10.012707 5.82382549,9.85858224 5.54631665,9.9451897 C4.31507296,10.3310631 2.7087642,10.3472757 2.69290255,10.3474161 C2.68462079,10.3474863 2.67633904,10.347767 2.66798711,10.3481881 C2.10110828,10.3792096 1.5993605,9.99986329 1.4730989,9.44730207 L1.10835093,7.85131041 L1.91217206,7.12055117 C1.96565252,7.07198361 2.00846496,7.01295859 2.03808275,6.94705551 L2.47020767,5.98686369 C2.67065411,5.54126338 3.05266742,5.20051846 3.51820008,5.05193824 L4.76558617,4.65385272 C4.98378925,4.58422986 5.13194837,4.38146733 5.13194837,4.15238568 L5.13194837,2.16469528 C5.85990024,2.61998103 6.94340592,3.65569118 7.08075665,5.82656268 C7.09914495,6.1167047 7.34900116,6.33645184 7.63935373,6.3186952 C7.92949575,6.30030691 8.14980436,6.05024014 8.13148625,5.76009812 C8.12615224,5.67594711 8.119204,5.59369108 8.1115539,5.51234744 C9.42512382,6.37196511 10.5680756,7.53274374 11.3499291,8.431805 C12.1286944,9.32728686 13.3195119,9.81647164 14.5369995,9.73983035 C20.5547443,9.36132626 25.6497757,10.318079 28.4108974,11.3394014 C28.4898548,11.3685981 28.5714791,11.4023568 28.6534544,11.4398352 C29.3018173,11.7356621 29.8837156,11.8753991 30.4293987,11.8686614 C31.5715785,11.8534314 32.5163298,11.4027779 32.9565961,10.6631754 C33.2413339,10.1848692 33.2738994,9.63771215 33.043765,9.19962157 C32.2751764,7.73655903 29.7052368,7.25895467 27.2198693,6.79707159 C26.1202212,6.59269482 25.0815633,6.39968792 24.3849839,6.14337475 C23.2565602,5.72802388 22.5236955,5.07467796 22.2068132,4.20144453 C21.8520314,3.22398737 22.113819,2.17438072 22.3622013,1.74246635 C22.6385872,1.26191425 23.1093837,1.072206 23.4296348,1.09747236 C23.651698,1.1156501 23.7971199,1.22464637 23.8726383,1.42481208 C23.890044,1.51331452 23.7835744,1.79770142 23.7131093,1.98579542 C23.4470405,2.69627139 22.9517497,4.0188249 24.6554743,4.94336308 C25.2777285,5.28109007 26.3723935,5.50989099 27.7583235,5.79954172 C30.7643183,6.42769147 34.881682,7.28829172 34.881682,9.63778234 C34.881682,10.7371497 34.3655465,12.2845036 31.9728223,13.5352585 Z"></path>
        </g>
    </g>
</svg>