<svg width="14" height="14" viewBox="0 0 14 14" fill="none" xmlns="http://www.w3.org/2000/svg">
<path d="M7.00016 0.333252C3.32431 0.333252 0.333496 3.32406 0.333496 6.99992C0.333496 10.6758 3.32431 13.6666 7.00016 13.6666C10.676 13.6666 13.6668 10.6758 13.6668 6.99992C13.6668 3.32406 10.676 0.333252 7.00016 0.333252ZM10.7261 5.24553L6.46549 9.47277C6.21487 9.72339 5.81386 9.7401 5.54653 9.48948L3.29089 7.43434C3.02355 7.18371 3.00685 6.766 3.24076 6.49866C3.49139 6.23133 3.9091 6.21462 4.17644 6.46525L5.96424 8.10268L9.77376 4.29315C10.0411 4.02582 10.4588 4.02582 10.7261 4.29315C10.9935 4.56049 10.9935 4.9782 10.7261 5.24553Z" fill="#8C8C8C"/>
</svg>
