<?xml version="1.0" encoding="UTF-8"?>
<svg width="36px" height="36px" viewBox="0 0 36 36" version="1.1" xmlns="http://www.w3.org/2000/svg" xmlns:xlink="http://www.w3.org/1999/xlink">
    <!-- Generator: Sketch 54.1 (76490) - https://sketchapp.com -->
    <title>icon/line/checklist</title>
    <desc>Created with Sketch.</desc>
    <defs>
        <path d="M27.9735703,5.34613281 C28.2709063,5.34613281 28.5120234,5.58725 28.5120234,5.88464062 L28.5120234,31.4614922 C28.5120234,31.7588281 28.2709063,31.9999453 27.9735703,31.9999453 L8.58892969,31.9999453 C8.29159375,31.9999453 8.05047656,31.7588281 8.05047656,31.4614922 L8.05047656,5.88458594 C8.05047656,5.58725 8.29159375,5.34613281 8.58892969,5.34613281 L13.4351172,5.34613281 L13.4351172,4.53845312 C13.4351172,4.24111719 13.6762344,4 13.9735703,4 L22.5889844,4 C22.8863203,4 23.1274375,4.24111719 23.1274375,4.53845312 L23.1274375,5.34613281 L27.9735703,5.34613281 Z M14.5120234,5.07690625 L14.5120234,6.69226562 L22.0504766,6.69226562 L22.0504766,5.07690625 L14.5120234,5.07690625 Z M27.4351172,30.9230937 L27.4351172,6.42309375 L23.1273281,6.42309375 L23.1273281,7.23077344 C23.1273281,7.52810937 22.8862109,7.76922656 22.588875,7.76922656 L13.9735156,7.76922656 C13.6761797,7.76922656 13.4350625,7.52810937 13.4350625,7.23077344 L13.4350625,6.42309375 L9.12738281,6.42309375 L9.12738281,28.7692812 L11.8197031,28.7692812 C12.1170391,28.7692812 12.3581563,29.0103984 12.3581563,29.3077344 C12.3581563,29.6050703 12.1170391,29.8461875 11.8197031,29.8461875 L9.12738281,29.8461875 L9.12738281,30.9230937 L27.4351172,30.9230937 Z M14.2143594,11.056875 C14.4803594,11.1898203 14.5881484,11.5132422 14.4551484,11.7793516 L13.3782422,13.9332188 C13.3008047,14.0880938 13.1536953,14.1962109 12.9828516,14.2239375 C12.9540859,14.2286406 12.9252656,14.2308828 12.8966094,14.2308828 C12.7549687,14.2308828 12.6177031,14.1749375 12.515875,14.0731641 L11.4389687,12.9962578 C11.2286953,12.7859844 11.2286953,12.4450078 11.4389687,12.2347344 C11.6492969,12.0245156 11.9901641,12.0245156 12.2004922,12.2347344 L12.7491172,12.7833594 L13.4919375,11.2977188 C13.6249375,11.0316641 13.9483594,10.923875 14.2143594,11.056875 Z M24.7427969,12.0769063 C25.0401328,12.0769063 25.28125,12.3180234 25.28125,12.6153594 C25.28125,12.9126953 25.0401328,13.1538125 24.7427969,13.1538125 L16.1273828,13.1538125 C15.8300469,13.1538125 15.5889297,12.9126953 15.5889297,12.6153594 C15.5889297,12.3180234 15.8300469,12.0769063 16.1273828,12.0769063 L24.7427969,12.0769063 Z M14.2143594,16.4414609 C14.4803594,16.5744062 14.5881484,16.8978828 14.4551484,17.1639375 L13.3782422,19.3178047 C13.3008047,19.4726797 13.1536953,19.5807969 12.9828516,19.6085234 C12.9540859,19.6132266 12.9252656,19.6154687 12.8966094,19.6154687 C12.7549687,19.6154687 12.6177031,19.5595234 12.515875,19.45775 L11.4389687,18.3808437 C11.2286953,18.1705156 11.2286953,17.8295937 11.4389687,17.6193203 C11.6492969,17.4091016 11.9901641,17.4091016 12.2004922,17.6193203 L12.7491172,18.1679453 L13.4919375,16.6823047 C13.6249375,16.4161953 13.9483594,16.3084062 14.2143594,16.4414609 Z M24.7427969,17.4615469 C25.0401328,17.4615469 25.28125,17.7026641 25.28125,18 C25.28125,18.2973359 25.0401328,18.5384531 24.7427969,18.5384531 L16.1273828,18.5384531 C15.8300469,18.5384531 15.5889297,18.2973359 15.5889297,18 C15.5889297,17.7026641 15.8300469,17.4615469 16.1273828,17.4615469 L24.7427969,17.4615469 Z M14.2143594,21.8261016 C14.4803594,21.9590469 14.5881484,22.2824688 14.4551484,22.5485234 L13.3782422,24.7023906 C13.3008047,24.8572656 13.1536953,24.9653828 12.9828516,24.9931094 C12.9540859,24.9978125 12.9252656,25.0000547 12.8966094,25.0000547 C12.7549687,25.0000547 12.6177031,24.9441094 12.515875,24.8423359 L11.4389687,23.7654297 C11.2286953,23.5551563 11.2286953,23.2141797 11.4389687,23.0039063 C11.6492969,22.7936875 11.9901641,22.7936875 12.2004922,23.0039063 L12.7491172,23.5525859 L13.4919375,22.0669453 C13.6249375,21.8008359 13.9483594,21.6931016 14.2143594,21.8261016 Z M24.7427969,22.8461328 C25.0401328,22.8461328 25.28125,23.08725 25.28125,23.3845859 C25.28125,23.6819219 25.0401328,23.9230391 24.7427969,23.9230391 L16.1273828,23.9230391 C15.8300469,23.9230391 15.5889297,23.6819219 15.5889297,23.3845859 C15.5889297,23.08725 15.8300469,22.8461328 16.1273828,22.8461328 L24.7427969,22.8461328 Z M13.9627969,29.2026797 C13.9697969,29.2370781 13.9735703,29.2726797 13.9735703,29.3076797 C13.9735703,29.4492656 13.9159297,29.5882266 13.8157422,29.6883047 C13.7909688,29.7130781 13.7635156,29.7357734 13.733875,29.7550781 C13.7048359,29.7749844 13.6736094,29.7911719 13.6407422,29.804625 C13.6084766,29.8180781 13.5745703,29.8288516 13.5401172,29.8358516 C13.5056641,29.8427969 13.4700625,29.8460781 13.4351172,29.8460781 C13.4001172,29.8460781 13.3645703,29.8428516 13.3301172,29.8358516 C13.2956641,29.8288516 13.2617578,29.8180781 13.2288906,29.804625 C13.1965156,29.7911719 13.1653438,29.7749844 13.13625,29.7550781 C13.1065547,29.7357188 13.0791016,29.7130781 13.0543281,29.6883047 C12.9541406,29.5882266 12.8965547,29.4493203 12.8965547,29.3076797 C12.8965547,29.2726797 12.9002734,29.2371328 12.9073281,29.2026797 C12.9137266,29.1682266 12.9245,29.1343203 12.9379531,29.102 C12.9514063,29.0691875 12.9675938,29.0380156 12.9875,29.0089219 C13.0069141,28.9792266 13.0295,28.9517734 13.0542734,28.927 C13.0790469,28.9022266 13.1065,28.8795859 13.1361953,28.8602266 C13.1652891,28.8403203 13.1964609,28.8241328 13.2288359,28.8106797 C13.2617031,28.7972266 13.2956094,28.7864531 13.3300625,28.7794531 C13.5045703,28.7444531 13.6903438,28.8015469 13.8157422,28.927 C13.8405703,28.9517734 13.8632109,28.9792266 13.8825156,29.0089219 C13.9019297,29.0379609 13.9186094,29.0691328 13.9320625,29.102 C13.9455156,29.1342656 13.9563438,29.1682266 13.9627969,29.2026797 Z" id="path-1"></path>
    </defs>
    <g id="icon/line/checklist" stroke="none" stroke-width="1" fill="none" fill-rule="evenodd">
        <mask id="mask-2" fill="white">
            <use xlink:href="#path-1"></use>
        </mask>
        <use id="Combined-Shape" fill="#000000" fill-rule="nonzero" xlink:href="#path-1"></use>
    </g>
</svg>