<?xml version="1.0" encoding="UTF-8"?>
<svg width="36px" height="36px" viewBox="0 0 36 36" version="1.1" xmlns="http://www.w3.org/2000/svg" xmlns:xlink="http://www.w3.org/1999/xlink">
    <!-- Generator: Sketch 54.1 (76490) - https://sketchapp.com -->
    <title>icon/line/coupon</title>
    <desc>Created with Sketch.</desc>
    <g id="icon/line/coupon" stroke="none" stroke-width="1" fill="none" fill-rule="evenodd">
        <path d="M31.4507751,14.8233948 C29.5760193,14.8233948 28.0507507,16.3486633 28.0507507,18.2234192 C28.0507507,20.0981751 29.5760193,21.6234436 31.4507751,21.6234436 C31.7541199,21.6234436 32,21.8693237 32,22.1726685 L32,25.8976135 C32,26.2009583 31.7541199,26.4468384 31.4507751,26.4468384 L13.9422302,26.4468384 C13.6388855,26.4468384 13.3930053,26.2009583 13.3930053,25.8976135 C13.3930053,25.5942688 13.6388855,25.3483887 13.9422302,25.3483887 L23.9620056,25.3483887 L23.9620056,24.2499389 C23.9620056,23.9465943 24.2078857,23.7009277 24.5112305,23.7009277 C24.8145752,23.7009277 25.0604553,23.9465943 25.0604553,24.2499389 L25.0604553,25.3483887 L30.9015503,25.3483887 L30.9015503,22.6885681 C28.6792297,22.4168396 26.952301,20.5179443 26.952301,18.2234192 C26.952301,15.928894 28.6792297,14.0299988 30.9015503,13.7582703 L30.9015503,11.0984497 L25.0604553,11.0984497 L25.0604553,12.1966858 C25.0604553,12.5000305 24.8145752,12.7459107 24.5112305,12.7459107 C24.2078857,12.7459107 23.9620056,12.5000305 23.9620056,12.1966858 L23.9620056,11.0984497 L5.09844973,11.0984497 L5.09844973,13.7582703 C7.32077025,14.0299988 9.04769896,15.928894 9.04769896,18.2234192 C9.04769896,20.5179443 7.32077025,22.4168396 5.09844973,22.6885681 L5.09844973,25.3483887 L9.43243411,25.3483887 C9.73577878,25.3483887 9.98165892,25.5942688 9.98165892,25.8976135 C9.98165892,26.2009583 9.73577878,26.4468384 9.43243411,26.4468384 L4.54922487,26.4468384 C4.24588014,26.4468384 4,26.2009583 4,25.8976135 L4,22.1726685 C4,21.8693237 4.24588014,21.6234436 4.54922487,21.6234436 C6.42398073,21.6234436 7.94924928,20.0981751 7.94924928,18.2234192 C7.94924928,16.3486633 6.42398073,14.8233948 4.54922487,14.8233948 C4.24588014,14.8233948 4,14.5775146 4,14.2741699 L4,10.5492249 C4,10.2458801 4.24588014,10 4.54922487,10 L31.4507751,10 C31.7541199,10 32,10.2458801 32,10.5492249 L32,14.2741699 C32,14.5775146 31.7541199,14.8233948 31.4507751,14.8233948 Z M24.5112305,20.7815552 C24.2078857,20.7815552 23.9620056,20.5356751 23.9620056,20.2323303 L23.9620056,16.2145081 C23.9620056,15.9111633 24.2078857,15.6652832 24.5112305,15.6652832 C24.8145752,15.6652832 25.0604553,15.9111633 25.0604553,16.2145081 L25.0604553,20.2323303 C25.0604553,20.5356751 24.8145752,20.7815552 24.5112305,20.7815552 Z M15.6954346,17.4447632 C15.275238,17.8651733 14.7230225,18.0751648 14.1710205,18.0751648 C13.6188049,18.0751648 13.066803,17.8651733 12.6463928,17.4447632 C12.2392273,17.0375977 12.0149231,16.4960632 12.0149231,15.9203491 C12.0149231,15.3444214 12.2392273,14.802887 12.6463928,14.3957214 C13.4869995,13.5551147 14.8548279,13.5551147 15.6954346,14.3957214 C16.1026001,14.802887 16.3269043,15.3444214 16.3269043,15.9203491 C16.3269043,16.4960632 16.1026001,17.0375977 15.6954346,17.4447632 Z M13.1133728,15.9203491 C13.1133728,16.2027588 13.2233887,16.4682922 13.4231262,16.6680298 C13.8354187,17.0805359 14.5064087,17.0805359 14.9187012,16.6680298 C15.1186523,16.4682922 15.2286682,16.2027588 15.2286682,15.9203491 C15.2286682,15.6377258 15.1186523,15.3721924 14.9187012,15.1724548 C14.7125549,14.9663086 14.4418945,14.8631286 14.1710205,14.8631286 C13.9001465,14.8631286 13.6292725,14.9663086 13.4231262,15.1724548 C13.2233887,15.3721924 13.1133728,15.6377258 13.1133728,15.9203491 Z M17.5751038,19.2656861 C18.4154968,18.425293 19.7833252,18.4250794 20.6241455,19.2656861 C21.4647522,20.1062927 21.4647522,21.4741211 20.6241455,22.3147278 C20.2037354,22.735138 19.6517334,22.945343 19.0995178,22.945343 C18.5475159,22.945343 17.9953003,22.735138 17.5751038,22.3147278 C16.7342835,21.4741211 16.7342835,20.1062927 17.5751038,19.2656861 Z M19.8474121,20.0424194 C19.6412659,19.8362732 19.3703919,19.7330932 19.0995178,19.7330932 C18.8286438,19.7330932 18.5579834,19.8362732 18.3518372,20.0424194 C17.9393311,20.4547119 17.9393311,21.1257019 18.3518372,21.5379944 C18.7641296,21.9505005 19.4351197,21.9502869 19.8474121,21.5379944 C20.2597046,21.1257019 20.2597046,20.4547119 19.8474121,20.0424194 Z M14.1562805,21.6260071 C13.9313354,21.8507385 13.5513001,21.8336487 13.3468628,21.590332 C13.1661377,21.3752136 13.1810913,21.0477295 13.3795471,20.8492737 L19.0999451,15.1288757 C19.3144226,14.9143982 19.6619873,14.9143982 19.8766785,15.1288757 C20.0909424,15.3433533 20.0909424,15.6911316 19.8766785,15.9056091 L14.1562805,21.6260071 Z M11.6773987,25.3428345 C11.9378052,25.3428345 12.1672363,25.5335999 12.2165833,25.7888794 C12.2601624,26.0133972 12.1537781,26.2485962 11.956604,26.3645935 C11.7592163,26.4808044 11.5045776,26.4611511 11.3274841,26.3152466 C11.1508178,26.1695557 11.083313,25.9208984 11.1610717,25.7059936 C11.2388306,25.4906616 11.4483948,25.3428345 11.6773987,25.3428345 Z" id="Combined-Shape" fill="#000000" fill-rule="nonzero" transform="translate(18.000000, 18.223419) rotate(-45.000000) translate(-18.000000, -18.223419) "></path>
    </g>
</svg>