<?xml version="1.0" encoding="UTF-8"?>
<svg width="36px" height="36px" viewBox="0 0 36 36" version="1.1" xmlns="http://www.w3.org/2000/svg" xmlns:xlink="http://www.w3.org/1999/xlink">
    <!-- Generator: Sketch 54.1 (76490) - https://sketchapp.com -->
    <title>icon/line/decline</title>
    <desc>Created with Sketch.</desc>
    <defs>
        <path d="M17.9984987,4 C25.7255228,4.00990885 31.9870885,10.2714745 31.9969973,17.9984987 C31.9969973,25.7296515 25.7296515,31.9969973 17.9984987,31.9969973 C10.2673458,31.9969973 4,25.7296515 4,17.9984987 C4,10.2673458 10.2673458,4 17.9984987,4 Z M18.5990349,30.7658981 C25.1863164,30.4545201 30.4572976,25.1861662 30.7719035,18.5990349 L30.7658981,17.3979625 C30.4515174,10.813008 25.1839893,5.54547989 18.5990349,5.2310992 L17.3979625,5.2310992 C10.813008,5.54547989 5.54547989,10.813008 5.2310992,17.3979625 L5.2310992,18.5990349 C5.54547989,25.1839893 10.813008,30.4515174 17.3979625,30.7658981 L18.5990349,30.7658981 Z M18.8808333,17.996875 L22.8108333,21.9266667 C23.055,22.170625 23.055,22.5664583 22.8108333,22.8104167 C22.68875,22.9325 22.52875,22.9935417 22.3689583,22.9935417 C22.2091667,22.9935417 22.0491667,22.9325 21.9270833,22.8104167 L17.9970833,18.8804167 L14.066875,22.8104167 C13.9447917,22.9325 13.7847917,22.9935417 13.625,22.9935417 C13.4652083,22.9935417 13.3052083,22.9325 13.183125,22.810625 C12.9389583,22.5666667 12.9389583,22.1708333 13.183125,21.926875 L17.1133333,17.996875 L13.183125,14.066875 C12.9389583,13.8229167 12.9389583,13.4270833 13.183125,13.183125 C13.4272917,12.9389583 13.8227083,12.9389583 14.066875,13.183125 L17.9970833,17.113125 L21.9270833,13.183125 C22.17125,12.9389583 22.5666667,12.9389583 22.8108333,13.183125 C23.055,13.4270833 23.055,13.8229167 22.8108333,14.066875 L18.8808333,17.996875 Z" id="path-1"></path>
    </defs>
    <g id="icon/line/decline" stroke="none" stroke-width="1" fill="none" fill-rule="evenodd">
        <mask id="mask-2" fill="white">
            <use xlink:href="#path-1"></use>
        </mask>
        <use id="Combined-Shape" fill="#000000" fill-rule="nonzero" xlink:href="#path-1"></use>
    </g>
</svg>