<?xml version="1.0" encoding="UTF-8"?>
<svg width="36px" height="36px" viewBox="0 0 36 36" version="1.1" xmlns="http://www.w3.org/2000/svg" xmlns:xlink="http://www.w3.org/1999/xlink">
    <!-- Generator: Sketch 50.2 (55047) - http://www.bohemiancoding.com/sketch -->
    <title>dog</title>
    <desc>Created with Sketch.</desc>
    <defs></defs>
    <g id="dog" stroke="none" stroke-width="1" fill="none" fill-rule="evenodd">
        <g transform="translate(0.000000, 3.000000)" fill="#4A4A4A" fill-rule="nonzero" id="Shape">
            <path d="M33.1281464,18.893873 C32.7093779,18.318075 32.4880495,17.637361 32.4880495,16.9253927 L32.4880495,13.8467593 C32.4880495,13.576897 32.4684294,13.3115783 32.4310479,13.0519046 C33.5648139,12.2989062 35.247254,10.7516726 35.247254,8.20229985 C35.247254,5.94475013 33.7363004,3.23765936 31.6545054,1.76546405 C31.3568995,1.55508159 30.9651173,1.58447731 30.7018638,1.83719786 C30.4406068,2.08792198 30.3951708,2.47502295 30.5915094,2.77868689 C31.9480495,4.87714176 32.4839189,6.62195309 32.1843167,7.9645181 C32.0109026,8.74161142 31.5640464,9.37902346 30.8237838,9.90621877 C29.9644238,9.0740515 28.8284549,8.51876849 27.5480546,8.39072157 L16.1754233,7.31058389 C15.6951785,7.2650102 15.2562392,7.01566293 14.9710938,6.62649669 L14.5637532,6.0704564 C14.7247068,5.24290158 14.5771086,4.33659102 14.2602269,3.67845742 C13.6436053,2.39785059 11.6196379,0.00605813361 9.518154,0.00605813361 L8.03749108,0.00605813361 C7.05868944,0.00605813361 6.12711372,0.375466599 5.41431922,1.04626721 L4.11746558,2.2667746 L0.785079041,3.20075982 C0.252582866,3.34698113 -0.0841942886,3.88656808 0.0183809281,4.42911525 L0.237368689,5.58780214 C0.343867925,6.15120857 0.742190209,6.60474248 1.2576823,6.80128761 L1.29712902,7.01807241 C1.4050051,7.61183835 1.82652728,8.09208312 2.397231,8.27141764 C3.21741968,8.52909485 4.70868434,8.90862315 6.37618562,8.90862315 C6.41941866,8.90862315 6.46313361,8.90752167 6.50657318,8.90703978 C6.50801887,9.38804182 6.5745895,10.3224401 6.94812851,11.6798062 C6.4363539,11.8698802 6.07004335,12.3617593 6.07004335,12.9388654 L6.07004335,13.4907751 C6.07004335,14.2319327 6.67303417,14.8348547 7.4141229,14.8348547 C7.64302397,14.8348547 7.85856961,14.777027 8.04747323,14.675691 C8.48751402,15.6476772 9.01553544,16.6566318 9.62575472,17.6859638 C11.7007343,21.1861882 12.063947,24.5708261 12.1271443,25.5949949 L10.8285008,26.2443167 C10.2761091,26.5205125 9.93299847,27.0757267 9.93299847,27.6933121 L9.93299847,28.666744 C9.93299847,28.9519582 10.1641713,29.1830622 10.4493167,29.1830622 L13.8479985,29.1830622 C14.6842963,29.1830622 15.393511,28.5302295 15.4624911,27.6967542 L16.1391433,19.5250204 C17.0640413,19.7499286 18.1144391,19.8461015 19.1881744,19.8461015 C21.5975905,19.8461015 24.1205966,19.3636537 25.5882483,18.7762213 C27.5322896,21.3078327 29.9466624,22.2458797 30.9033656,22.5337787 L30.9033656,25.5578888 L29.1624095,26.25423 C28.5437914,26.5017185 28.1440923,27.0921112 28.1440923,27.7583682 L28.1440923,28.6666752 C28.1440923,28.9518893 28.3752652,29.1829934 28.6604105,29.1829934 L32.1229781,29.1829934 C32.9198292,29.1829934 33.6087353,28.5886079 33.7254921,27.8003621 L34.6896303,21.2923432 C34.7094569,21.1585824 34.6759995,21.0223432 34.5964176,20.9129526 L33.1281464,18.893873 Z M33.1921698,8.18942631 C33.47346,6.92878378 33.2066267,5.48784294 32.3769378,3.81593575 C33.4912902,5.10590515 34.2146864,6.76445691 34.2146864,8.20229985 C34.2146864,10.0114788 33.1861117,11.2225548 32.1631132,11.9797527 C31.997616,11.5196787 31.7729143,11.087899 31.4966497,10.6940515 C32.3996558,10.0271749 32.9696022,9.18660887 33.1921698,8.18942631 Z M7.72563488,13.490844 C7.72563488,13.6626058 7.5859536,13.8022871 7.41419174,13.8022871 C7.24242988,13.8022871 7.1027486,13.6626058 7.1027486,13.490844 L7.1027486,12.9389342 C7.1027486,12.7672412 7.24249873,12.6275599 7.41419174,12.6275599 C7.58588475,12.6275599 7.72563488,12.7672412 7.72563488,12.9389342 L7.72563488,13.490844 Z M32.7042147,27.6492529 C32.6618766,27.934949 32.4120474,28.1504946 32.1231846,28.1504946 L29.1769352,28.1504946 L29.1769352,27.7585059 C29.1769352,27.5169378 29.3218485,27.3029067 29.5461372,27.213205 L31.6115477,26.387027 C31.8076109,26.3085467 31.9361397,26.1187481 31.9361397,25.9076084 L31.9361397,22.1366267 C31.9361397,21.8913412 31.7636206,21.6799261 31.5232917,21.6307726 C31.4852218,21.6229934 27.6871163,20.8039062 25.4754156,16.7053723 C25.3400025,16.4543728 25.0268383,16.3608159 24.7758389,16.4961601 C24.5248394,16.631642 24.4312137,16.9448062 24.5666267,17.1957369 C24.6998368,17.4426058 24.8383478,17.6779092 24.9807828,17.9035747 C22.9217058,18.6533376 18.8838909,19.1916165 16.2255405,18.4820576 L16.2754513,17.8793422 C16.2989954,17.5951606 16.0876492,17.3456757 15.8035365,17.3221316 C15.5183223,17.2976237 15.2699388,17.5099337 15.2463259,17.7940464 L14.4333656,27.6115961 C14.4083758,27.9137455 14.1512494,28.1504258 13.8479985,28.1504258 L10.9656349,28.1504258 L10.9656349,27.6933121 C10.9656349,27.4693677 11.0900331,27.2680724 11.2902958,27.1679067 L12.8875778,26.3692657 C13.0626441,26.281767 13.1731362,26.1027766 13.1729985,25.9069888 C13.1728608,25.7326798 13.1388526,21.5871953 10.5140286,17.1594569 C9.80378123,15.9612545 9.2090515,14.794513 8.74209332,13.6875268 C8.75159357,13.6230903 8.75813361,13.5577588 8.75813361,13.4907751 L8.75813361,12.9388654 C8.75813361,12.6665936 8.67621112,12.4133911 8.53652983,12.2014941 C9.56310811,11.956002 11.5448751,11.3530112 13.3241076,10.0644875 C13.5550739,9.89720041 13.6067058,9.57446711 13.4394187,9.34343192 C13.2722004,9.11253442 12.9493983,9.0609026 12.7184319,9.22812086 C10.8258848,10.5987047 8.61762621,11.1364329 7.90985722,11.2814151 C7.57252932,10.0123049 7.53521673,9.18722845 7.5390719,8.84191484 C8.20436512,8.75290158 8.71517593,8.48641254 8.73754972,8.47457165 C8.98889342,8.34149924 9.08451555,8.03074452 8.95240694,7.77891892 C8.82036716,7.52695563 8.50864865,7.42981897 8.25620347,7.56103264 C8.25214176,7.56316675 7.84308006,7.77334268 7.33812086,7.82669556 C5.44261346,8.02709587 3.62269505,7.5741127 2.70654003,7.28621367 C2.52961499,7.23065783 2.39282509,7.09228455 2.33417134,6.91584141 C3.86804946,6.93484192 5.72720806,6.89250382 6.84032126,6.63572157 C7.1181693,6.57162927 7.29144569,6.29440082 7.22735339,6.01655278 C7.16319225,5.73870474 6.88582611,5.56542835 6.60811576,5.6295895 C5.71598674,5.8354972 4.01447731,5.92251402 1.8168205,5.87425548 C1.53621877,5.86805966 1.30387557,5.67144569 1.2518307,5.39600714 L1.03284294,4.2372514 C1.02940082,4.21921469 1.04062213,4.2013845 1.06093065,4.19573942 L4.51812851,3.22664457 C4.59839878,3.20420194 4.67199133,3.16255227 4.73264151,3.1054819 L6.12181285,1.79802652 C6.64233044,1.30821265 7.32256247,1.03841917 8.03728455,1.03841917 L9.51794748,1.03841917 C11.0658695,1.03841917 12.7960173,3.01798317 13.329615,4.12620857 C13.6604717,4.81339368 13.7307598,5.90915859 13.2755048,6.55331719 C12.9755584,6.97766191 12.4725956,7.15438042 11.7812111,7.07941101 C10.6632789,6.9576976 10.3830214,6.04890872 10.0544365,4.56659357 C9.8545181,3.66482662 9.66575217,2.81317695 9.09305201,2.28198878 C8.8840464,2.08812851 8.55732024,2.10038246 8.36339113,2.30938807 C8.16953085,2.51846252 8.1817848,2.84511984 8.39085926,3.0391178 C8.7272922,3.35118052 8.8822565,4.05013768 9.04630801,4.79005609 C9.35306986,6.17358236 9.73480112,7.89540031 11.6694799,8.10598929 C11.7985594,8.12003315 11.9360377,8.12870729 12.0785416,8.12870729 C12.7560199,8.12870729 13.5471571,7.93112953 14.0959689,7.17930138 L14.1378939,7.23650943 C14.2275268,7.35884243 14.3268664,7.47229475 14.4340541,7.57672871 C14.3581209,7.67668791 14.2792963,7.77520143 14.1977868,7.87144314 C14.0136334,8.0891229 14.0407573,8.41495411 14.258437,8.5991076 C14.355436,8.68116777 14.473845,8.72123406 14.5917032,8.72123406 C14.7383376,8.72123406 14.8840082,8.65913819 14.9861015,8.53845742 C15.0945971,8.41027282 15.1986181,8.27830189 15.2985084,8.14440337 C15.5450331,8.24601479 15.8071163,8.31265426 16.077667,8.33840133 L27.4477511,9.41833248 C29.7324248,9.64675166 31.4552065,11.5505201 31.4552065,13.8466216 L31.4552065,16.925255 C31.4552065,17.8568995 31.7448266,18.7476517 32.2928123,19.5010632 L33.6372361,21.3496889 L32.7042147,27.6492529 Z"></path>
            <path d="M6.59200663,2.76519378 L6.58643039,2.76519378 C6.30128506,2.76519378 6.07293473,2.99629781 6.07293473,3.28151198 C6.07293473,3.56672616 6.3068613,3.79783019 6.59200663,3.79783019 C6.87715196,3.79783019 7.10832483,3.56672616 7.10832483,3.28151198 C7.10832483,2.99629781 6.87715196,2.76519378 6.59200663,2.76519378 Z"></path>
        </g>
    </g>
</svg>