<svg id="Layer_1" data-name="Layer 1" xmlns="http://www.w3.org/2000/svg" viewBox="0 0 1024 1024"><title>edit</title><g id="Symbols"><g id="icon_line_edit" data-name="icon/line/edit"><g id="Icon"><path id="path-1" d="M799.9,387.41a13.24,13.24,0,1,1,18.73,18.72L496.71,728.05a13.24,13.24,0,0,1-9,3.87L315,737.09a27.28,27.28,0,0,1-28.09-26.45c0-.82,0-.82,0-1.64l5.17-172.74a13.24,13.24,0,0,1,3.87-9L617.87,205.37a13.24,13.24,0,0,1,18.72,18.73L318.4,542.3l-5,167.5,168.32-4.2Zm63.21-63.22a21.86,21.86,0,0,0,0-30.92L730.73,160.89a21.86,21.86,0,0,0-30.92,0l-67,67L796.09,391.22Zm18.73-49.64a48.34,48.34,0,0,1,0,68.37l-76.39,76.39a13.25,13.25,0,0,1-18.73,0l-182-182a13.25,13.25,0,0,1,0-18.73l76.39-76.39a48.34,48.34,0,0,1,68.37,0ZM869.52,653.24a13.24,13.24,0,0,1,26.48,0V854.51A41.5,41.5,0,0,1,854.51,896h-685A41.5,41.5,0,0,1,128,854.51v-685A41.5,41.5,0,0,1,169.49,128H370.76a13.24,13.24,0,1,1,0,26.48H169.49a15,15,0,0,0-15,15v685a15,15,0,0,0,15,15h685a15,15,0,0,0,15-15Z"/></g></g></g></svg>