<svg id="Layer_1" data-name="Layer 1" xmlns="http://www.w3.org/2000/svg" viewBox="0 0 1024 1024"><title>email</title><g id="Symbols"><g id="icon_line_email" data-name="icon/line/email"><g id="Icon"><path id="path-1" d="M513,439.19l339.33-229a17.45,17.45,0,0,1,19.53,28.93L522.77,474.72a17.48,17.48,0,0,1-19.54,0L154.14,239.08a17.45,17.45,0,0,1,19.53-28.93ZM202.31,800.61H823.69a38.4,38.4,0,0,0,38.4-38.4V263a38.4,38.4,0,0,0-38.4-38.4H202.31a38.4,38.4,0,0,0-38.4,38.4v499.2A38.4,38.4,0,0,0,202.31,800.61Zm0,34.91A73.31,73.31,0,0,1,129,762.21V263a73.31,73.31,0,0,1,73.31-73.31H823.69A73.31,73.31,0,0,1,897,263v499.2a73.31,73.31,0,0,1-73.31,73.31Z"/></g></g></g></svg>