<?xml version="1.0" encoding="UTF-8"?>
<svg width="243px" height="243px" viewBox="0 0 243 243" version="1.1" xmlns="http://www.w3.org/2000/svg" xmlns:xlink="http://www.w3.org/1999/xlink">
    <!-- Generator: Sketch 54.1 (76490) - https://sketchapp.com -->
    <title>Group 5</title>
    <desc>Created with Sketch.</desc>
    <g id="New-Design-" stroke="none" stroke-width="1" fill="none" fill-rule="evenodd">
        <g id="Empty-pet-screen" transform="translate(-66.000000, -150.000000)">
            <g id="Group-5" transform="translate(66.000000, 150.000000)">
                <circle id="Oval" fill-opacity="0.1" fill="#FE4164" cx="121.5" cy="121.5" r="121.5"></circle>
                <path d="M68.7628928,125.710857 L70.918154,131.97019" id="Line-Copy" stroke="#FE4164" stroke-width="5" stroke-linecap="round" stroke-linejoin="round"></path>
                <path d="M171.762893,125.710857 L173.918154,131.97019" id="Line-Copy" stroke="#FE4164" stroke-width="5" stroke-linecap="round" stroke-linejoin="round" transform="translate(172.840523, 128.840523) scale(-1, 1) translate(-172.840523, -128.840523) "></path>
                <g id="Group-4" transform="translate(33.000000, 102.000000)" stroke="#FE4164" stroke-linecap="round" stroke-linejoin="round" stroke-width="5">
                    <path d="M0.5,21.5 L11.545361,32.545361" id="Line"></path>
                    <path d="M36,24 L38.1552611,30.2593329" id="Line-Copy"></path>
                    <path d="M18,0 L20.1552611,6.25933286" id="Line-Copy-2"></path>
                    <path d="M164.5,21.5 L175.545361,32.545361" id="Line" transform="translate(170.000000, 27.000000) scale(-1, 1) translate(-170.000000, -27.000000) "></path>
                    <path d="M139,24 L141.155261,30.2593329" id="Line-Copy" transform="translate(140.077631, 27.129666) scale(-1, 1) translate(-140.077631, -27.129666) "></path>
                    <path d="M158,0 L160.155261,6.25933286" id="Line-Copy-3" transform="translate(159.077631, 3.129666) scale(-1, 1) translate(-159.077631, -3.129666) "></path>
                </g>
                <g id="Group-2" transform="translate(33.000000, 155.000000)">
                    <path d="M88.5,51 C137.344537,51 177,59.2897196 177,69.5 C177,79.7102804 137.344537,88 88.5,88 C39.6554631,88 0,79.7102804 0,69.5 C0,59.2897196 39.6554631,51 88.5,51 Z" id="Fill-1" fill="#E43F55"></path>
                    <path d="M13.3984064,16 L0,70 L177,70 L163.601594,16 C111.783551,30.5681579 61.5662649,31.8121711 13.3984064,16 Z" id="Fill-2" fill="#E43F55"></path>
                    <path d="M88.5,0 C130.169442,0 164,6.94535038 164,15.5 C164,24.0546496 130.169442,31 88.5,31 C46.8305575,31 13,24.0546496 13,15.5 C13,6.94535038 46.8305575,0 88.5,0 Z M88,6 C122.218686,6 150,12 150,15 C150,18 122.218686,24 88,24 C53.7813143,24 26,18 26,15 C26,12 53.7813143,6 88,6 Z" id="Fill-3" fill="#E43F55"></path>
                    <path d="M104.387486,55.2076549 C107.945918,58.0286367 104.794435,61.7835703 102.773072,62.6642627 C100.751709,63.5449552 97.3128634,66.1764394 97.3128634,66.1764394 C97.3128634,66.1764394 93.9861668,68.9644651 92.6948147,70.7367373 C91.4061399,72.5125404 87.0320232,74.7806251 84.9794249,70.7535096 C82.9268266,66.7266883 86.3609128,64.2220261 83.4887626,58.8772558 C80.6133401,53.5351338 84.6950359,50.7577011 84.6950359,50.7577011 C84.6950359,50.7577011 88.2808359,47.3935325 92.9658172,51.2861754 C97.6475262,55.1811724 100.832028,52.3843192 104.387486,55.2076549 Z M87.9214825,47.6763075 C90.4360641,46.6258324 91.3841266,43.2310617 90.0422032,40.0908179 C88.7026597,36.9541051 85.5797356,35.2609864 83.0651539,36.3114615 C80.5502748,37.3616423 79.6022123,40.7567073 80.9444331,43.8966568 C82.2839766,47.0333696 85.4066034,48.7264883 87.9214825,47.6763075 Z M95.6103967,39.9842991 C92.9982423,40.7637693 91.6878516,44.0390742 92.684403,47.3017263 C93.6812518,50.5643784 96.6039733,52.5767591 99.2134504,51.7940522 C101.822928,51.0113453 103.135698,47.7392771 102.139147,44.476625 C101.142595,41.2139729 98.2222537,39.2045347 95.6103967,39.9842991 Z M80.9551424,53.2561841 C82.5166044,51.0413588 81.4917927,47.6680684 78.6681314,45.7198344 C75.8447675,43.7716003 72.2875255,43.9855205 70.7290381,46.1976975 C69.1705508,48.4098745 70.1923878,51.7858132 73.0160491,53.7340473 C75.8394129,55.6822814 79.3936803,55.4707151 80.9551424,53.2561841 Z M82.6825972,65.0353351 C83.9965576,62.6698535 82.6141772,59.4236794 79.5974527,57.7841143 C76.5807282,56.1445493 73.0672153,56.728637 71.7532549,59.0938243 C70.4392946,61.4590117 71.8216749,64.7051858 74.8383994,66.3444566 C77.8575038,67.9872585 81.3686368,67.4002282 82.6825972,65.0353351 Z" id="Fill-4" fill="#FFFFFF"></path>
                </g>
            </g>
        </g>
    </g>
</svg>