<svg fill="none" height="100" viewBox="0 0 134 100" width="134" xmlns="http://www.w3.org/2000/svg"><g fill="#fff"><path d="m1.0061.68573h2.70799 127.82591c2.754 0 2.754 0 1.79 2.47849-2.754 7.20598-5.416 14.45788-8.216 21.61798-2.524 6.3339-7.527 9.455-14.044 10.327-3.213.4131-6.38 0-9.501-1.0556-32.8633-10.786-65.7263-21.5721-98.58928-32.31222-.68847-.22949-1.37694-.45898-2.065413-.73436.045898-.0918.045898-.229494.091793-.32129z"/><path d="m4.17102 44.381h3.25876 106.89622c3.075 0 3.03 0 1.928 2.9375-2.433 6.4257-4.865 12.8515-7.298 19.2772-2.983 7.9863-12.4382 12.2548-21.1588 9.0878-27.447-10.0976-54.8481-20.3328-82.24924-30.5681-.27539-.0918-.55078-.2754-1.37694-.7344z"/><path d="m16.6118 78.0729h27.6306c6.1963 0 12.3925.1377 18.5887.1377 1.4688 0 2.0654.1377 1.377 1.8359-1.6524 4.0391-3.0752 8.124-4.7275 12.163-2.4785 6.0586-10.9697 9.5465-17.0282 4.9111-7.9863-6.1503-16.2479-11.9335-24.4177-17.9002-.3672-.2754-.7803-.5967-1.4229-1.1475z"/></g></svg>