<svg id="Layer_1" data-name="Layer 1" xmlns="http://www.w3.org/2000/svg" viewBox="0 0 1024 1024"><title>fliter</title><g id="Symbols"><g id="icon_line_filter" data-name="icon/line/filter"><g id="Icon"><path id="path-1" d="M144.7,237.19h73.46c22.26,0,22.26,33.39,0,33.39H144.7C122.43,270.58,122.43,237.19,144.7,237.19Zm293.84,0H879.3c22.27,0,22.27,33.39,0,33.39H438.54C416.28,270.58,416.28,237.19,438.54,237.19ZM328.35,347.38a93.5,93.5,0,1,0-93.5-93.49A93.49,93.49,0,0,0,328.35,347.38Zm0,33.39A126.89,126.89,0,1,1,455.23,253.89,126.89,126.89,0,0,1,328.35,380.77ZM144.7,751.42h73.46c22.26,0,22.26,33.39,0,33.39H144.7C122.43,784.81,122.43,751.42,144.7,751.42Zm293.84,0H879.3c22.27,0,22.27,33.39,0,33.39H438.54C416.28,784.81,416.28,751.42,438.54,751.42ZM328.35,861.61a93.5,93.5,0,1,0-93.5-93.5A93.5,93.5,0,0,0,328.35,861.61Zm0,33.39A126.89,126.89,0,1,1,455.23,768.11,126.89,126.89,0,0,1,328.35,895ZM144.7,494.3H585.46c22.26,0,22.26,33.4,0,33.4H144.7C122.43,527.7,122.43,494.3,144.7,494.3Zm661.14,0H879.3c22.27,0,22.27,33.4,0,33.4H805.84C783.58,527.7,783.58,494.3,805.84,494.3ZM695.65,604.5A93.5,93.5,0,1,0,602.16,511,93.5,93.5,0,0,0,695.65,604.5Zm0,33.39A126.89,126.89,0,1,1,822.54,511,126.88,126.88,0,0,1,695.65,637.89Z"/></g></g></g></svg>