<?xml version="1.0" encoding="UTF-8"?>
<svg width="60px" height="60px" viewBox="0 0 60 60" version="1.1" xmlns="http://www.w3.org/2000/svg" xmlns:xlink="http://www.w3.org/1999/xlink">
    <!-- Generator: Sketch 54.1 (76490) - https://sketchapp.com -->
    <title>giant_dog</title>
    <desc>Created with Sketch.</desc>
    <g id="giant_dog" stroke="none" stroke-width="1" fill="none" fill-rule="evenodd">
        <g id="airedale" transform="translate(30.000000, 30.500000) scale(-1, 1) translate(-30.000000, -30.500000) translate(0.000000, 5.000000)" fill="#000000" fill-rule="nonzero">
            <path d="M59.6083475,9.80415254 C60.0488136,10.3966525 59.9294492,11.2426271 59.3425424,11.6900847 C59.3393644,11.6925 59.3360593,11.6949153 59.3327542,11.6974576 C58.4088559,12.3986441 57.7886441,13.3983051 57.5860169,14.5131356 C57.4491102,15.2677119 57.4991949,15.5342797 57.5106356,15.5800424 C57.5782627,15.8502966 57.5244915,16.1364407 57.363178,16.3634746 C57.2018644,16.5906356 56.9494068,16.7358051 56.6720339,16.7609746 C56.1113136,16.8116949 55.0062712,16.8218644 53.8994492,16.3173305 C52.7008475,15.7708475 51.8641525,14.7766525 51.4801271,13.4419068 C51.2869068,12.770339 50.7414407,12.2354237 50.0565254,12.0457627 L49.2832627,11.8315678 C49.2826271,11.8313136 49.2818644,11.8310593 49.2812288,11.8309322 C47.9655508,15.792839 43.0527966,31.616822 43.0527966,46.9408475 C43.0527966,48.5708898 41.8472034,49.9179661 40.2485593,50.0741949 C40.0216525,50.0964407 39.7864831,50.1075 39.5449576,50.1075 C39.3392797,50.1075 39.1291525,50.0993644 38.9154661,50.0833475 C37.6683051,49.9895339 36.5975847,49.1630085 36.1878814,47.9778814 C35.2877542,45.3738559 33.657839,39.5520763 34.5648305,33.6352119 C32.3477542,33.8452119 30.6828814,32.9401271 28.6680508,31.8427119 C27.8885593,31.4181356 27.0052119,30.9369915 25.9858475,30.4592797 C24.7060169,29.8592797 23.4157627,29.5128814 22.1509322,29.4296186 C20.8969068,29.3468644 19.7628814,30.1395763 19.3946186,31.3571186 L18.9999153,32.6617373 C17.6879237,36.9969915 14.5545763,40.5228814 10.4037712,42.3352119 L7.66169492,43.5324153 L6.64029661,48.4108475 C6.43805085,49.3773305 5.5745339,50.0787712 4.58694915,50.0787712 L2.83271186,50.0787712 C1.75029661,50.0787712 0.852966102,49.2666102 0.74529661,48.1895339 L0.0237711864,40.9672881 C-0.122923729,39.6842797 0.416059322,38.3926271 1.43161017,37.5947034 L4.39144068,35.2690678 C6.07436441,33.9469068 6.92923729,31.8100424 6.62275424,29.6922458 L6.0190678,25.5216102 C5.80983051,24.0752542 6.23072034,22.6055085 7.17368644,21.4891525 C8.06313559,20.4361017 9.27762712,19.0389407 10.5071186,17.7488136 L10.3858475,16.1065678 C10.2049576,13.6558475 10.8062288,11.2643644 12.124322,9.19055085 C13.4425424,7.11673729 15.3526271,5.55724576 17.6483898,4.68063559 C18.0638136,4.52224576 18.5340254,4.67186441 18.7810169,5.04152542 C19.0281356,5.41144068 18.986822,5.90300847 18.6812288,6.22627119 C18.6677542,6.24038136 17.2780932,7.72398305 16.1734322,9.69851695 C15.3195763,11.2247034 14.4783051,13.3394492 14.9899576,15.1545763 C15.2009746,15.1458051 15.4133898,15.1486017 15.6263136,15.1663983 C18.4004237,15.3982627 21.2330085,15.4344915 24.0448729,15.2740678 C27.153178,15.0967373 30.2422881,14.477161 33.2265254,13.4326271 C34.2383898,13.0784746 35.1533898,12.4707203 35.8722458,11.675339 L44.8782203,1.71127119 C46.3963983,0.0313983051 48.8425424,-0.379449153 50.8262288,0.711610169 L55.9947458,3.55423729 C56.3659322,3.75838983 56.5580085,4.1829661 56.4659746,4.59648305 L56.2979237,5.35233051 L59.6083475,9.80415254 Z" id="Shape"></path>
        </g>
    </g>
</svg>