<?xml version="1.0" encoding="UTF-8"?>
<svg width="28px" height="28px" viewBox="0 0 28 28" version="1.1" xmlns="http://www.w3.org/2000/svg" xmlns:xlink="http://www.w3.org/1999/xlink">
    <!-- Generator: Sketch 54.1 (76490) - https://sketchapp.com -->
    <title>Artboard</title>
    <desc>Created with Sketch.</desc>
    <defs>
        <path d="M26.2356959,4.35355194 C30.9665496,11.0418489 25.8628304,21.349069 14.7566798,26.8241539 C14.2810874,27.0586104 13.7194135,27.0586156 13.2438165,26.824168 C2.13723786,21.3491323 -2.96665552,11.0419269 1.7642948,4.35349337 C5.05235714,-0.293832212 11.0790681,0.263151523 14.0004463,3.7388557 C16.9216859,0.263251682 22.9479972,-0.293692856 26.2356959,4.35355194 Z M23.4762479,6.20740329 C20.9436071,2.6274518 15.6762695,4.43096601 15.6762695,8.4114069 C15.6762695,10.5889087 12.324659,10.5889087 12.324659,8.4114069 C12.324659,4.43087226 7.05673631,2.62722838 4.52370132,6.20740329 C1.24858132,10.8376405 5.03111299,18.7791501 14.0002151,23.5232362 C22.9689302,18.7791213 26.7513322,10.83759 23.4762479,6.20740329 Z" id="path-1"></path>
    </defs>
    <g id="Artboard" stroke="none" stroke-width="1" fill="none" fill-rule="evenodd">
        <mask id="mask-2" fill="white">
            <use xlink:href="#path-1"></use>
        </mask>
        <use id="Icon" fill="#FE4164" fill-rule="nonzero" xlink:href="#path-1"></use>
    </g>
</svg>