<svg id="Layer_1" data-name="Layer 1" xmlns="http://www.w3.org/2000/svg" viewBox="0 0 1024 1024"><title>heart</title><g id="Symbols"><g id="icon_line_heart" data-name="icon/line/heart"><g id="Icon"><path id="path-1" d="M852.16,238c127.09,180.38-15,468.46-330.81,624.75a13.18,13.18,0,0,1-11.68,0C193.85,706.42,51.75,418.34,178.84,238c96.48-136.89,285.3-96,336.67,32.12C566.89,142,755.69,101.07,852.16,238Zm-21.54,15.21c-97.25-138-301.93-67.65-301.93,86.75,0,17.58-26.35,17.58-26.35,0,0-154.4-204.7-224.76-302-86.75-115.22,163.52,16.15,432.4,315.13,583C814.47,685.57,945.84,416.68,830.62,253.17Z"/></g></g></g></svg>