<?xml version="1.0" encoding="UTF-8"?>
<svg width="36px" height="36px" viewBox="0 0 36 36" version="1.1" xmlns="http://www.w3.org/2000/svg" xmlns:xlink="http://www.w3.org/1999/xlink">
    <!-- Generator: Sketch 54.1 (76490) - https://sketchapp.com -->
    <title>icon/solid/heart</title>
    <desc>Created with Sketch.</desc>
    <defs>
        <path d="M30.2356959,8.35355194 C34.9665496,15.0418489 29.8628304,25.349069 18.7566798,30.8241539 C18.2810874,31.0586104 17.7194135,31.0586156 17.2438165,30.824168 C6.13723786,25.3491323 1.03334448,15.0419269 5.7642948,8.35349337 C9.05235714,3.70616779 15.0790681,4.26315152 18.0004463,7.7388557 C20.9216859,4.26325168 26.9479972,3.70630714 30.2356959,8.35355194 Z M27.4762479,10.2074033 C24.9436071,6.6274518 19.6762695,8.43096601 19.6762695,12.4114069 C19.6762695,14.5889087 16.324659,14.5889087 16.324659,12.4114069 C16.324659,8.43087226 11.0567363,6.62722838 8.52370132,10.2074033 C5.24858132,14.8376405 9.03111299,22.7791501 18.0002151,27.5232362 C26.9689302,22.7791213 30.7513322,14.83759 27.4762479,10.2074033 Z" id="path-1"></path>
    </defs>
    <g id="icon/solid/heart" stroke="none" stroke-width="1" fill="none" fill-rule="evenodd">
        <mask id="mask-2" fill="white">
            <use xlink:href="#path-1"></use>
        </mask>
        <use id="Icon" fill="#FFFFFF" fill-rule="nonzero" xlink:href="#path-1"></use>
    </g>
</svg>