<?xml version="1.0" encoding="UTF-8"?>
<svg width="36px" height="36px" viewBox="0 0 36 36" version="1.1" xmlns="http://www.w3.org/2000/svg" xmlns:xlink="http://www.w3.org/1999/xlink">
    <!-- Generator: Sketch 54.1 (76490) - https://sketchapp.com -->
    <title>icon/line/heart</title>
    <desc>Created with Sketch.</desc>
    <defs>
        <path d="M30.3059514,8.11357872 C34.9515057,14.7068057 29.7574973,25.2371334 18.213739,30.9500645 C18.0792065,31.0166437 17.9213538,31.0166452 17.7868201,30.9500685 C6.24260543,25.237183 1.04842429,14.7068796 5.69404286,8.11356143 C9.22074013,3.1095799 16.1224541,4.60438963 18.0005208,9.28763885 C19.878486,4.60450233 26.7796929,3.10975333 30.3059514,8.11357872 Z M29.518811,8.6692346 C25.9640511,3.62496521 18.4821378,6.19669624 18.4821378,11.8403058 C18.4821378,12.4830272 17.5189188,12.4830272 17.5189188,11.8403058 C17.5189188,6.19659207 10.0364092,3.62475684 6.48117102,8.6692346 C2.26964185,14.6464692 7.07167314,24.4753138 18.0002703,29.9792817 C28.9284223,24.4752743 33.7302939,14.6464035 29.518811,8.6692346 Z" id="path-1"></path>
    </defs>
    <g id="icon/line/heart" stroke="none" stroke-width="1" fill="none" fill-rule="evenodd">
        <mask id="mask-2" fill="white">
            <use xlink:href="#path-1"></use>
        </mask>
        <use id="Icon" fill="#FFFFFF" fill-rule="nonzero" xlink:href="#path-1"></use>
    </g>
</svg>