<svg id="Layer_1" data-name="Layer 1" xmlns="http://www.w3.org/2000/svg" viewBox="0 0 1024 1024"><title>help</title><g id="Symbols"><g id="icon_line_help" data-name="icon/line/help"><g id="Combined-Shape"><path id="path-1" d="M512,896c-212.08,0-384-171.92-384-384S299.92,128,512,128,896,299.92,896,512,724.08,896,512,896Zm0-30.72c195.11,0,353.28-158.17,353.28-353.28S707.11,158.72,512,158.72,158.72,316.89,158.72,512,316.89,865.28,512,865.28Zm15.79-280.13V665.6a15.36,15.36,0,0,1-30.72,0V573.44a15.37,15.37,0,0,1,11.62-14.9c74.88-18.78,110.83-63.73,110.83-138.18,0-69.29-41-108-107.09-108-62.43,0-107.95,49.95-107.95,108a15.36,15.36,0,0,1-30.72,0c0-74.45,58.61-138.76,138.67-138.76,82.72,0,137.81,52.11,137.81,138.76C650.24,505.08,608.56,561,527.79,585.15ZM496.64,727a15.36,15.36,0,0,1,30.72,0v30.72a15.36,15.36,0,0,1-30.72,0Z"/></g></g></g></svg>