<?xml version="1.0" encoding="UTF-8"?>
<svg width="36px" height="36px" viewBox="0 0 36 36" version="1.1" xmlns="http://www.w3.org/2000/svg" xmlns:xlink="http://www.w3.org/1999/xlink">
    <!-- Generator: Sketch 54.1 (76490) - https://sketchapp.com -->
    <title>icon/line/history</title>
    <desc>Created with Sketch.</desc>
    <defs>
        <path d="M17.9984987,4 C25.7255228,4.00990885 31.9870885,10.2714745 31.9969973,17.9984987 C31.9969973,25.7296515 25.7296515,31.9969973 17.9984987,31.9969973 C10.2673458,31.9969973 4,25.7296515 4,17.9984987 C4,10.2673458 10.2673458,4 17.9984987,4 Z M18.5990349,30.7658981 C25.1863164,30.4545201 30.4572976,25.1861662 30.7719035,18.5990349 L30.7658981,17.3979625 C30.4515174,10.813008 25.1839893,5.54547989 18.5990349,5.2310992 L17.3979625,5.2310992 C10.813008,5.54547989 5.54547989,10.813008 5.2310992,17.3979625 L5.2310992,18.5990349 C5.54547989,25.1839893 10.813008,30.4515174 17.3979625,30.7658981 L18.5990349,30.7658981 Z M24.3341555,23.5834853 C24.5663378,23.820622 24.5622842,24.2010617 24.3251475,24.433244 C24.0880107,24.6654263 23.707571,24.6613727 23.4753887,24.4242359 L17.572118,18.418874 C17.4611689,18.3070241 17.3986381,18.1560643 17.3979625,17.9984987 L17.3979625,11.6928686 C17.3979625,11.3612225 17.6668525,11.0923324 17.9984987,11.0923324 C18.3301448,11.0923324 18.5990349,11.3612225 18.5990349,11.6928686 L18.5990349,17.7522788 L24.3341555,23.5834853 Z" id="path-1"></path>
    </defs>
    <g id="icon/line/history" stroke="none" stroke-width="1" fill="none" fill-rule="evenodd">
        <mask id="mask-2" fill="white">
            <use xlink:href="#path-1"></use>
        </mask>
        <use id="Combined-Shape" fill="#000000" fill-rule="nonzero" xlink:href="#path-1"></use>
    </g>
</svg>