<?xml version="1.0" encoding="UTF-8"?>
<svg width="36px" height="36px" viewBox="0 0 36 36" version="1.1" xmlns="http://www.w3.org/2000/svg" xmlns:xlink="http://www.w3.org/1999/xlink">
    <!-- Generator: Sketch 50.2 (55047) - http://www.bohemiancoding.com/sketch -->
    <title>horse</title>
    <desc>Created with Sketch.</desc>
    <defs></defs>
    <g id="horse" stroke="none" stroke-width="1" fill="none" fill-rule="evenodd">
        <g transform="translate(0.000000, 2.000000)" fill="#4A4A4A" fill-rule="nonzero" id="Shape">
            <path d="M5.04250895,4.97359335 L5.0369156,4.97359335 C4.75089514,4.97359335 4.52177494,5.20540665 4.52177494,5.49149616 C4.52177494,5.77758568 4.75641944,6.00939898 5.04250895,6.00939898 C5.32859847,6.00939898 5.56041176,5.77758568 5.56041176,5.49149616 C5.56041176,5.20540665 5.32852941,4.97359335 5.04250895,4.97359335 Z"></path>
            <path d="M35.1610435,21.9246215 C35.1519974,21.9174399 34.2719079,21.0819591 34.589624,18.4059898 C35.0698235,14.3620665 34.5813376,11.6477033 33.1377008,10.3379616 C32.3372992,9.61179284 31.2860256,9.35594885 30.0101893,9.57498721 C29.8938338,9.43639642 29.7692609,9.30705882 29.6352967,9.18980563 C27.8789156,7.65294629 25.2625396,7.41215601 21.4014015,8.43207928 C19.5553887,8.91973657 18.3593095,9.08159847 17.6372148,8.94100512 C17.4050563,8.89584399 17.2281407,8.82098977 17.0728389,8.71664962 C16.8522813,8.53496931 16.3874118,7.90865217 15.8958184,7.24608184 C14.1156138,4.84639642 11.1358772,0.829956522 7.42175448,0.154680307 C3.72385934,-0.517695652 1.56938363,2.21786701 1.47940665,2.33463683 C1.38749616,2.45403069 1.35214066,2.60739898 1.3825243,2.75496675 C1.41290793,2.90253453 1.50599233,3.0295243 1.63753964,3.10285934 L2.99271867,3.85858312 C2.94859335,3.94538363 2.90868031,4.03446292 2.87657033,4.12678772 L2.6049821,4.90764706 C2.56120205,5.03346292 2.49656777,5.14961125 2.41232225,5.25339898 L0.240306905,7.93779284 C-0.106618926,8.36558056 -0.0745780051,8.98188491 0.31488491,9.37134783 C0.330076726,9.3866087 0.346235294,9.40083376 0.363153453,9.41395396 L0.856058824,9.79734015 C1.16341688,10.0913708 1.57207673,10.2473632 1.98522506,10.2473632 C2.20771611,10.2473632 2.43158824,10.202133 2.64151151,10.1087724 C2.64537852,10.1071151 2.64924552,10.1052506 2.65304348,10.1035243 L6.45410486,8.30149872 L10.4244859,16.3726343 L11.5086982,29.1122148 L10.2336215,30.8972532 C10.1208568,31.05511 10.1058031,31.2627545 10.1945371,31.4352506 C10.2833402,31.6077468 10.4610153,31.7161611 10.6550563,31.7161611 L12.8723708,31.7161611 C13.1456854,31.7161611 13.3719054,31.503821 13.3892379,31.2311279 L13.7783555,25.1030256 C13.8871151,23.3901483 14.0680358,21.660491 14.3161458,19.9621841 L14.4553581,19.0091049 C15.262734,19.2540384 16.0964885,19.3774373 16.9448133,19.3774373 C18.308624,19.3774373 19.7084808,19.0620691 21.0899003,18.4353376 C22.2236931,17.9210256 23.0825141,17.3190844 23.5547724,16.9516496 C24.4225703,18.8908849 26.0027263,21.7276803 28.5363069,23.9816624 L29.3766905,29.0721637 L28.2922711,30.9379949 C28.1991867,31.0981304 28.1987724,31.2959693 28.2911662,31.4565192 C28.3835601,31.6171381 28.5547442,31.7161611 28.7400153,31.7161611 L30.9572609,31.7161611 C31.2432813,31.7161611 31.4751637,31.4843478 31.4751637,31.1982583 L31.4751637,22.329 C31.4751637,22.1328184 31.3643325,21.9534859 31.188867,21.8657877 C30.1266138,21.3346266 29.8025448,20.1823274 29.7177468,19.3091432 C29.6102992,18.2026957 29.8394885,16.8966138 30.31589,15.9005831 C30.8603785,14.7620946 31.111665,13.4757621 31.0234834,12.2784399 C30.9951023,11.892844 30.930468,11.525133 30.8335857,11.1795882 C31.0035959,11.2683223 31.1534425,11.3933095 31.2847136,11.5568286 C32.1182609,12.5952583 32.2400716,15.0267084 31.6469003,18.7835754 C31.4095627,20.2867366 31.892179,21.2253836 32.3388875,21.7481893 C32.9355115,22.4463913 33.8462609,22.8468338 34.837734,22.8468338 C35.0577391,22.8468338 35.2536445,22.7078977 35.3264962,22.5003223 C35.3990716,22.292954 35.3327801,22.0620384 35.1610435,21.9246215 Z M2.72479028,2.52322251 C2.94396675,2.32186189 3.2456624,2.07789514 3.62297187,1.84863683 L3.99130435,2.8564757 L3.74789003,3.01467775 C3.72641432,3.0286266 3.70638875,3.04437084 3.68546547,3.05907928 L2.72479028,2.52322251 Z M12.3863018,30.6804246 L11.661376,30.6804246 L12.4570128,29.5665192 L12.3863018,30.6804246 Z M29.3813862,15.4536675 C28.8199105,16.6277187 28.5601995,18.1064348 28.6867749,19.4093402 C28.8291637,20.8749361 29.4474015,22.0054143 30.439289,22.6310409 L30.439289,30.6804246 L29.6399233,30.6804246 L30.3656087,29.4317954 C30.4260307,29.3277315 30.4484041,29.2059207 30.4288619,29.0872174 L29.5280563,23.6305934 C29.508376,23.5115448 29.4478159,23.4031304 29.356734,23.3240639 C25.300312,19.7995627 23.7093836,14.4769028 23.6939156,14.4238005 C23.6139514,14.1491739 23.326688,13.9915243 23.0518542,14.0713504 C22.7772276,14.1513146 22.6194399,14.4387161 22.6994041,14.7134118 C22.7179105,14.7770793 22.8558798,15.2410512 23.1370665,15.9578286 C22.8172097,16.2240307 21.9063223,16.9323146 20.6324885,17.5055294 C18.5518312,18.4418977 16.5248286,18.5985806 14.6067238,17.9721944 L14.8399182,16.3757417 C14.8812813,16.0926905 14.6853069,15.8298031 14.4023248,15.7884399 C14.1194118,15.7469386 13.8563171,15.9430512 13.815023,16.2260332 L13.2911125,19.8125448 C13.0389974,21.5386113 12.8551074,23.2965806 12.7445524,25.0374246 L12.5124629,28.6928517 L11.4482072,16.1877775 C11.4427519,16.1234885 11.4252813,16.0609258 11.3969003,16.0030588 L7.29718159,7.66903581 C7.38805627,7.54031969 7.46097698,7.39834527 7.51159335,7.24635806 L7.91134527,6.04730946 C8.00180563,5.77592839 7.85513555,5.48265729 7.58382353,5.39219693 C7.31251151,5.30152941 7.01917136,5.4483376 6.928711,5.71971867 L6.52895908,6.91883632 C6.47661637,7.0759335 6.35977749,7.20464962 6.20848082,7.27183887 C6.20461381,7.27349616 6.20081586,7.27529156 6.19694885,7.27708696 L2.21572634,9.16446292 C1.99496164,9.26003325 1.73324808,9.21052174 1.56296164,9.04016624 C1.54776982,9.02497442 1.53168031,9.01074936 1.51469309,8.99762916 L1.03960358,8.62812276 C1.03414834,8.6158312 1.03573657,8.60112276 1.04498977,8.58979795 L3.21707417,5.90526598 C3.37665729,5.70853197 3.4998491,5.48735294 3.58319693,5.24780563 L3.85478517,4.46694629 C3.93785678,4.22808951 4.10034015,4.02072123 4.31226598,3.88295908 L4.35763427,3.85347315 C4.43967008,4.05082864 4.63067263,4.17312276 4.83465729,4.17312276 C4.89369821,4.17312276 4.95377494,4.16297187 5.01240153,4.14149616 C5.28108951,4.04330179 5.41926598,3.74588747 5.32107161,3.47726854 L4.72707161,1.85236573 C5.92618926,2.26206138 6.64407161,3.10865985 6.65187468,3.1179821 C6.74482097,3.23095396 6.88375703,3.29945524 7.02987468,3.30642967 C7.0311867,3.30649872 7.16231969,3.31312788 7.40179795,3.35607928 C7.68332992,3.40690281 7.95250128,3.21935294 8.00304859,2.93782097 C8.05359591,2.656289 7.8663913,2.38704859 7.58479028,2.33657033 C7.47237084,2.3163376 7.37700767,2.30238875 7.30008184,2.29272123 C7.04762148,2.03093862 6.48994373,1.51731714 5.67731969,1.1238491 C6.15323785,1.06529156 6.67397187,1.07123018 7.23627621,1.17349872 C9.10072634,1.51255243 10.8118082,2.86876726 12.2524757,4.39568286 C11.4181688,3.83904092 10.5816522,3.37748593 9.74651662,3.0174399 C9.48390537,2.90412276 9.17917136,3.02517391 9.06585422,3.28792327 C8.95253708,3.55053453 9.07365729,3.85526854 9.3363376,3.96851662 C11.7487289,5.00894885 13.8340128,6.83673146 15.1586701,8.18680051 C15.3364834,8.36799744 15.4868824,8.54940153 15.6323785,8.72479795 C16.6328977,9.93089003 17.4062302,10.5586573 21.6658082,9.43342711 C25.1637928,8.50948849 27.4793708,8.67970588 28.953046,9.96928389 C30.179578,11.0423095 30.3636061,13.4000793 29.3813862,15.4536675 Z M33.1262379,21.075399 C32.6885754,20.5632276 32.5307187,19.8265627 32.6699309,18.9452992 C33.0843913,16.3204297 33.4754425,12.6315115 32.0923657,10.9085524 C32.0595652,10.8676726 32.0260742,10.828243 31.9916854,10.7900563 C32.153202,10.8742327 32.3030486,10.9791253 32.4417775,11.1050793 C33.5896573,12.1464783 33.9870614,14.6959412 33.5610691,18.2837647 C33.3767647,19.836023 33.5504348,20.8918542 33.7987519,21.5848082 C33.5379361,21.4609949 33.3087468,21.2890512 33.1262379,21.075399 Z"></path>
        </g>
    </g>
</svg>