<svg id="Layer_1" data-name="Layer 1" xmlns="http://www.w3.org/2000/svg" viewBox="0 0 1024 1024"><title>invite</title><g id="Symbols"><g id="icon_line_invite" data-name="icon/line/invite"><g id="Combined-Shape"><path id="path-1" d="M203,318.92a26,26,0,0,0-25.9,26V449.09a26,26,0,0,0,25.9,26H824.56a26,26,0,0,0,25.9-26V345a26,26,0,0,0-25.9-26ZM541.89,505.51V870h231a26,26,0,0,0,25.91-26V505.51Zm-51.81,0H228.9V843.93a26,26,0,0,0,25.9,26H490.08ZM422.81,292.89q-11.24-2.38-22.07-5.22c-38.17-10-67.41-23.06-84.74-40.55-23.7-23.92-23.13-54.35,4.11-86.28,28.8-33.77,60.68-41,91.38-23.89,22.89,12.8,43.6,38.21,62.72,72.62a485.8,485.8,0,0,1,25.1,52.9c2.26,5.56,4.27,10.78,6,15.55,1.57-4.19,3.32-8.69,5.26-13.45a486.46,486.46,0,0,1,25.09-52.89c19.13-34.42,39.84-59.82,62.73-72.62,30.7-17.17,62.58-9.88,91.38,23.89,27.23,31.93,27.8,62.36,4.11,86.28-17.33,17.48-46.57,30.55-84.74,40.55q-6.23,1.64-12.6,3.11h228A51.94,51.94,0,0,1,876.37,345V449.09a51.93,51.93,0,0,1-51.71,52.06V843.93A51.94,51.94,0,0,1,772.85,896h-518A51.93,51.93,0,0,1,203,843.93V501.15a51.94,51.94,0,0,1-51.81-52.06V345A51.94,51.94,0,0,1,203,292.89Zm118-16.22a545.53,545.53,0,0,0,61.86-12.08c34-8.92,59.68-20.38,72.91-33.73,13.69-13.82,13.41-28.9-5.42-51-21.09-24.73-39.64-29-59.12-18.08-17.69,9.89-35.72,32-52.7,62.56a459.91,459.91,0,0,0-23.73,50.05c-.46,1.11-.89,2.2-1.32,3.26Q536.92,277.22,540.78,276.67Zm-71.66-2.11c2.58.36,5.08.7,7.52,1-.42-1.06-.86-2.15-1.31-3.26a462.68,462.68,0,0,0-23.73-50.05c-17-30.55-35-52.66-52.7-62.56-19.48-10.89-38-6.65-59.13,18.08-18.82,22.07-19.1,37.15-5.42,51,13.24,13.36,38.87,24.81,72.92,33.73A544.92,544.92,0,0,0,469.12,274.56Z"/></g></g></g></svg>