<?xml version="1.0" encoding="UTF-8"?>
<svg width="342px" height="228px" viewBox="0 0 342 228" version="1.1" xmlns="http://www.w3.org/2000/svg" xmlns:xlink="http://www.w3.org/1999/xlink">
    <!-- Generator: Sketch 54.1 (76490) - https://sketchapp.com -->
    <title>invite-img</title>
    <desc>Created with Sketch.</desc>
    <defs>
        <polygon id="path-1" points="0 316.473988 375 316.473988 375 0 0 0"></polygon>
    </defs>
    <g id="New-Design-" stroke="none" stroke-width="1" fill="none" fill-rule="evenodd">
        <g id="Invite-friends" transform="translate(-20.000000, -110.000000)">
            <g id="invite-img" transform="translate(0.000000, 110.000000)">
                <mask id="mask-2" fill="white">
                    <use xlink:href="#path-1"></use>
                </mask>
                <g id="Clip-26"></g>
                <path d="M281.791908,54.1916108 C281.791908,57.7820793 284.70347,60.6936416 288.295657,60.6936416 C291.886126,60.6936416 294.797688,57.7820793 294.797688,54.1916108 C294.797688,50.5994236 291.886126,47.6878613 288.295657,47.6878613 C284.70347,47.6878613 281.791908,50.5994236 281.791908,54.1916108 Z" id="Fill-1" fill="#FE4164" mask="url(#mask-2)"></path>
                <path d="M287.210983,167.991329 C284.815885,167.991329 282.875723,169.933165 282.875723,172.32659 C282.875723,174.720014 284.815885,176.66185 287.210983,176.66185 C289.604408,176.66185 291.546243,174.720014 291.546243,172.32659 C291.546243,169.933165 289.604408,167.991329 287.210983,167.991329" id="Fill-3" fill="#FE4164" mask="url(#mask-2)"></path>
                <path d="M45.5202312,102.962428 C43.1268064,102.962428 41.1849711,104.904263 41.1849711,107.297688 C41.1849711,109.691113 43.1268064,111.632948 45.5202312,111.632948 C47.9153286,111.632948 49.8554913,109.691113 49.8554913,107.297688 C49.8554913,104.904263 47.9153286,102.962428 45.5202312,102.962428" id="Fill-5" fill="#FE4164" mask="url(#mask-2)"></path>
                <path d="M187.499119,10.8381503 C183.3108,10.8381503 179.913295,14.2356556 179.913295,18.4239749 C179.913295,22.6140553 183.3108,26.0115607 187.499119,26.0115607 C191.6892,26.0115607 195.086705,22.6140553 195.086705,18.4239749 C195.086705,14.2356556 191.6892,10.8381503 187.499119,10.8381503" id="Fill-7" fill="#FE4164" mask="url(#mask-2)"></path>
                <path d="M288.810323,51.023323 C287.699694,51.6598728 286.41434,52.0231214 285.042488,52.0231214 C280.852543,52.0231214 277.456647,48.6258827 277.456647,44.4364162 C277.456647,40.2469497 280.852543,36.849711 285.042488,36.849711 C289.234162,36.849711 292.630058,40.2469497 292.630058,44.4364162" id="Stroke-9" stroke="#363636" stroke-linecap="round" stroke-linejoin="round" mask="url(#mask-2)"></path>
                <path d="M191.83526,14.0895954 C191.83526,13.069433 187.062718,12.2299064 180.841552,12.076796 C180.688432,5.85776218 179.85057,1.08381503 178.82862,1.08381503 C177.80839,1.08381503 176.968808,5.85776218 176.817408,12.076796 C170.596242,12.2299064 165.823699,13.069433 165.823699,14.0895954 C165.823699,15.1097578 170.596242,15.9492843 176.817408,16.1023947 C176.970528,22.3214286 177.80839,27.0953757 178.82862,27.0953757 C179.85057,27.0953757 180.688432,22.3214286 180.841552,16.1023947 C187.062718,15.9492843 191.83526,15.1097578 191.83526,14.0895954 Z" id="Stroke-11" stroke="#363636" mask="url(#mask-2)"></path>
                <path d="M157.364874,113.800578 C155.2347,109.219076 156.619313,103.557032 160.706803,100.139059 C164.792548,96.7228148 174.779923,96.4876887 179.913295,98.5571443 C179.913295,98.5571443 164.193655,81.9772952 147.04575,92.2052813 C147.04575,92.2052813 134.435815,101.271468 145.329388,113.800578 L157.364874,113.800578 Z" id="Fill-13" fill="#C9C8C8" mask="url(#mask-2)"></path>
                <path d="M225.678558,112.716763 C227.74912,108.13699 226.40378,102.473217 222.430823,99.0552439 C218.457866,95.6389997 208.747946,95.4038736 203.757225,97.4733292 C203.757225,97.4733292 219.039446,80.8934801 235.712551,91.1214663 C235.712551,91.1214663 247.97126,100.189382 237.380212,112.716763 L225.678558,112.716763 Z" id="Fill-15" fill="#C9C8C8" mask="url(#mask-2)"></path>
                <path d="M182.080925,153.901734 L137.974971,153.901734 C136.595559,153.901734 135.476879,152.785698 135.476879,151.409545 L135.476879,120.629784 C135.476879,119.253632 136.595559,118.135838 137.974971,118.135838 L182.080925,118.135838 L182.080925,153.901734 Z" id="Fill-17" fill="#FE4164" mask="url(#mask-2)"></path>
                <path d="M180.99711,227.601156 L144.723393,227.601156 C143.208648,227.601156 141.979769,226.367788 141.979769,224.847509 L141.979769,153.901734 L180.99711,153.901734 L180.99711,227.601156 Z" id="Fill-19" fill="#FE4164" mask="url(#mask-2)"></path>
                <path d="M237.863312,227.601156 L201.589595,227.601156 L201.589595,153.901734 L240.606936,153.901734 L240.606936,224.847509 C240.606936,226.367788 239.378058,227.601156 237.863312,227.601156" id="Fill-21" fill="#FE4164" mask="url(#mask-2)"></path>
                <path d="M245.695549,153.901734 L201.589595,153.901734 L201.589595,118.135838 L245.695549,118.135838 C247.074961,118.135838 248.193642,119.253632 248.193642,120.629784 L248.193642,151.409545 C248.193642,152.785698 247.074961,153.901734 245.695549,153.901734" id="Fill-23" fill="#FE4164" mask="url(#mask-2)"></path>
                <polygon id="Fill-25" fill="#E02E4F" mask="url(#mask-2)" points="138.728324 158.236994 177.745665 158.236994 177.745665 149.566474 138.728324 149.566474"></polygon>
                <polygon id="Fill-27" fill="#E02E4F" mask="url(#mask-2)" points="197.254335 158.236994 236.271676 158.236994 236.271676 149.566474 197.254335 149.566474"></polygon>
                <polygon id="Fill-28" fill="#C9C8C8" mask="url(#mask-2)" points="177.745665 227.601156 197.254335 227.601156 197.254335 113.800578 177.745665 113.800578"></polygon>
                <polygon id="Fill-29" fill="#FFFFFF" mask="url(#mask-2)" points="177.745665 227.601156 182.080925 227.601156 182.080925 113.800578 177.745665 113.800578"></polygon>
                <polygon id="Stroke-30" stroke="#363636" stroke-width="2" stroke-linecap="round" stroke-linejoin="round" mask="url(#mask-2)" points="138.728324 223.265896 177.745665 223.265896 177.745665 149.566474 138.728324 149.566474"></polygon>
                <polygon id="Stroke-31" stroke="#363636" stroke-width="2" stroke-linecap="round" stroke-linejoin="round" mask="url(#mask-2)" points="197.254335 223.265896 236.271676 223.265896 236.271676 149.566474 197.254335 149.566474"></polygon>
                <polygon id="Stroke-32" stroke="#363636" stroke-width="2" stroke-linecap="round" stroke-linejoin="round" mask="url(#mask-2)" points="131.141618 149.566474 177.745665 149.566474 177.745665 113.800578 131.141618 113.800578"></polygon>
                <polygon id="Stroke-33" stroke="#363636" stroke-width="2" stroke-linecap="round" stroke-linejoin="round" mask="url(#mask-2)" points="197.254335 149.566474 243.858382 149.566474 243.858382 113.800578 197.254335 113.800578"></polygon>
                <polygon id="Stroke-34" stroke="#363636" stroke-width="2" stroke-linecap="round" stroke-linejoin="round" mask="url(#mask-2)" points="177.745665 223.265896 197.254335 223.265896 197.254335 113.800578 177.745665 113.800578"></polygon>
                <path d="M187.5,112.745286 C184.405294,107.850489 181.29118,102.931069 177.416623,98.5832651 C173.542065,94.2372202 168.836489,90.4487214 163.303423,88.3574841 C157.770357,86.2662468 151.344519,86.0129767 145.964954,88.4507016 C140.588917,90.8866676 136.530865,96.2422753 136.560859,101.976029 C136.58556,106.427603 138.965696,110.634702 142.206844,113.800578" id="Stroke-35" stroke="#363636" stroke-width="2" stroke-linecap="round" stroke-linejoin="round" mask="url(#mask-2)"></path>
                <path d="M175.578035,96.7605714 C170.378507,94.5943514 160.262419,94.8404716 156.124019,98.4182635 C151.983851,101.994246 150.581393,107.921038 152.73902,112.716763" id="Stroke-36" stroke="#363636" stroke-width="2" stroke-linecap="round" stroke-linejoin="round" mask="url(#mask-2)"></path>
                <path d="M187.5,112.745286 C190.594706,107.850489 193.70882,102.931069 197.583377,98.5832651 C201.457935,94.2372202 206.163511,90.4487214 211.694813,88.3574841 C217.229643,86.2662468 223.655481,86.0129767 229.033282,88.4507016 C234.411083,90.8866676 238.469135,96.2422753 238.439141,101.976029 C238.41444,106.427603 236.034304,110.634702 232.791391,113.800578" id="Stroke-37" stroke="#363636" stroke-width="2" stroke-linecap="round" stroke-linejoin="round" mask="url(#mask-2)"></path>
                <path d="M198.33815,96.7605714 C203.537756,94.5943514 213.653997,94.8404716 217.792459,98.4182635 C221.930921,101.994246 223.335169,107.921038 221.177509,112.716763" id="Stroke-38" stroke="#363636" stroke-width="2" stroke-linecap="round" stroke-linejoin="round" mask="url(#mask-2)"></path>
                <path d="M168.856214,216.763006 L167.126445,216.763006" id="Stroke-39" stroke="#FFFFFF" stroke-width="2" stroke-linecap="round" stroke-linejoin="round" mask="url(#mask-2)"></path>
                <path d="M158.236994,216.763006 L148.482659,216.763006" id="Stroke-40" stroke="#FFFFFF" stroke-width="2" stroke-linecap="round" stroke-linejoin="round" mask="url(#mask-2)"></path>
                <path d="M234.967847,123.554913 L233.240246,123.554913" id="Stroke-41" stroke="#FFFFFF" stroke-width="2" stroke-linecap="round" stroke-linejoin="round" mask="url(#mask-2)"></path>
                <path d="M225.433526,123.554913 L215.679191,123.554913" id="Stroke-42" stroke="#FFFFFF" stroke-width="2" stroke-linecap="round" stroke-linejoin="round" mask="url(#mask-2)"></path>
                <path d="M121.387283,223.265896 L78.0346821,223.265896" id="Stroke-43" stroke="#363636" stroke-width="2" stroke-linecap="round" stroke-linejoin="round" mask="url(#mask-2)"></path>
                <path d="M62.8612717,223.265896 L56.3583815,223.265896" id="Stroke-44" stroke="#363636" stroke-width="2" stroke-linecap="round" stroke-linejoin="round" mask="url(#mask-2)"></path>
                <path d="M255.780347,223.265896 L264.450867,223.265896" id="Stroke-45" stroke="#363636" stroke-width="2" stroke-linecap="round" stroke-linejoin="round" mask="url(#mask-2)"></path>
                <path d="M280.708092,223.265896 L318.641618,223.265896" id="Stroke-46" stroke="#363636" stroke-width="2" stroke-linecap="round" stroke-linejoin="round" mask="url(#mask-2)"></path>
                <path d="M97.5433526,57.4421965 C97.5433526,56.5911639 93.5670995,55.8921015 88.3822371,55.7651617 C88.2552974,50.5820872 87.5562349,46.6040462 86.7052023,46.6040462 C85.8541697,46.6040462 85.1568951,50.5820872 85.0281675,55.7651617 C79.845093,55.8921015 75.867052,56.5911639 75.867052,57.4421965 C75.867052,58.2932291 79.845093,58.9922916 85.0281675,59.1192313 C85.1568951,64.3023058 85.8541697,68.2803468 86.7052023,68.2803468 C87.5562349,68.2803468 88.2552974,64.3023058 88.3822371,59.1192313 C93.5670995,58.9922916 97.5433526,58.2932291 97.5433526,57.4421965" id="Fill-47" fill="#FE4164" mask="url(#mask-2)"></path>
                <path d="M337.904624,198.33815 C337.904624,197.487118 333.926583,196.788055 328.743509,196.661115 C328.616569,191.478041 327.917507,187.5 327.066474,187.5 C326.215441,187.5 325.516379,191.478041 325.389439,196.661115 C320.206365,196.788055 316.228324,197.487118 316.228324,198.33815 C316.228324,199.189183 320.206365,199.888245 325.389439,200.015185 C325.518167,205.19826 326.215441,209.176301 327.066474,209.176301 C327.917507,209.176301 328.616569,205.19826 328.743509,200.015185 C333.926583,199.888245 337.904624,199.189183 337.904624,198.33815" id="Fill-48" fill="#FE4164" mask="url(#mask-2)"></path>
                <path d="M34.6820809,170.700867 C34.6820809,170.148056 32.0969804,169.694467 28.7287308,169.611191 C28.6454547,166.24117 28.1900943,163.656069 27.6372832,163.656069 C27.0844722,163.656069 26.6308836,166.24117 26.5476075,169.611191 C23.1775861,169.694467 20.5924855,170.148056 20.5924855,170.700867 C20.5924855,171.253678 23.1775861,171.707267 26.5476075,171.790543 C26.6308836,175.160564 27.0844722,177.745665 27.6372832,177.745665 C28.1900943,177.745665 28.6454547,175.160564 28.7287308,171.790543 C32.0969804,171.707267 34.6820809,171.253678 34.6820809,170.700867" id="Fill-49" fill="#FE4164" mask="url(#mask-2)"></path>
                <path d="M96.4603969,190.751445 C92.8682097,190.751445 89.9566474,193.663007 89.9566474,197.255195 C89.9566474,200.845663 92.8682097,203.757225 96.4603969,203.757225 C100.050865,203.757225 102.962428,200.845663 102.962428,197.255195 C102.962428,193.663007 100.050865,190.751445 96.4603969,190.751445" id="Fill-50" fill="#FE4164" mask="url(#mask-2)"></path>
                <path d="M98.0588783,195.170722 C96.9482491,195.807272 95.6628946,196.17052 94.2910425,196.17052 C90.1010984,196.17052 86.7052023,192.773282 86.7052023,188.583815 C86.7052023,184.394349 90.1010984,180.99711 94.2910425,180.99711 C98.4827166,180.99711 101.878613,184.394349 101.878613,188.583815" id="Stroke-51" stroke="#363636" stroke-linecap="round" stroke-linejoin="round" mask="url(#mask-2)"></path>
                <path d="M298.049133,120.303468 C298.049133,119.452436 294.07288,118.753373 288.888017,118.626433 C288.761078,113.443359 288.062015,109.465318 287.210983,109.465318 C286.35995,109.465318 285.662675,113.443359 285.533948,118.626433 C280.350873,118.753373 276.372832,119.452436 276.372832,120.303468 C276.372832,121.154501 280.350873,121.853563 285.533948,121.980503 C285.662675,127.163578 286.35995,131.141618 287.210983,131.141618 C288.062015,131.141618 288.761078,127.163578 288.888017,121.980503 C294.07288,121.853563 298.049133,121.154501 298.049133,120.303468" id="Fill-52" fill="#FE4164" mask="url(#mask-2)"></path>
                <path d="M241.690751,51.4812139 C241.690751,50.9284028 239.105651,50.4748142 235.737401,50.3915382 C235.654125,47.0215167 235.198765,44.4364162 234.645954,44.4364162 C234.093143,44.4364162 233.639554,47.0215167 233.556278,50.3915382 C230.186257,50.4748142 227.601156,50.9284028 227.601156,51.4812139 C227.601156,52.034025 230.186257,52.4876135 233.556278,52.5708896 C233.639554,55.940911 234.093143,58.5260116 234.645954,58.5260116 C235.198765,58.5260116 235.654125,55.940911 235.737401,52.5708896 C239.105651,52.4876135 241.690751,52.034025 241.690751,51.4812139" id="Fill-53" fill="#FE4164" mask="url(#mask-2)"></path>
                <path d="M354.160969,135.476879 C349.97265,135.476879 346.575145,138.874384 346.575145,143.062703 C346.575145,147.252784 349.97265,150.650289 354.160969,150.650289 C358.35105,150.650289 361.748555,147.252784 361.748555,143.062703 C361.748555,138.874384 358.35105,135.476879 354.160969,135.476879" id="Fill-54" fill="#FE4164" mask="url(#mask-2)"></path>
                <path d="M358.49711,138.728324 C358.49711,137.708161 353.724567,136.868635 347.503402,136.715524 C347.350281,130.496491 346.51242,125.722543 345.490469,125.722543 C344.470239,125.722543 343.630657,130.496491 343.479257,136.715524 C337.258092,136.868635 332.485549,137.708161 332.485549,138.728324 C332.485549,139.748486 337.258092,140.588013 343.479257,140.741123 C343.632378,146.960157 344.470239,151.734104 345.490469,151.734104 C346.51242,151.734104 347.350281,146.960157 347.503402,140.741123 C353.724567,140.588013 358.49711,139.748486 358.49711,138.728324 Z" id="Stroke-55" stroke="#363636" mask="url(#mask-2)"></path>
                <path d="M122.471098,120.303468 C122.471098,119.452436 118.494845,118.753373 113.309983,118.626433 C113.183043,113.443359 112.483981,109.465318 111.632948,109.465318 C110.781915,109.465318 110.084641,113.443359 109.955913,118.626433 C104.772839,118.753373 100.794798,119.452436 100.794798,120.303468 C100.794798,121.154501 104.772839,121.853563 109.955913,121.980503 C110.084641,127.163578 110.781915,131.141618 111.632948,131.141618 C112.483981,131.141618 113.183043,127.163578 113.309983,121.980503 C118.494845,121.853563 122.471098,121.154501 122.471098,120.303468" id="Fill-56" fill="#FE4164" mask="url(#mask-2)"></path>
                <path d="M152.817919,56.3583815 C150.422822,56.3583815 148.482659,58.3002168 148.482659,60.6936416 C148.482659,63.0870665 150.422822,65.0289017 152.817919,65.0289017 C155.211344,65.0289017 157.153179,63.0870665 157.153179,60.6936416 C157.153179,58.3002168 155.211344,56.3583815 152.817919,56.3583815" id="Fill-57" fill="#FE4164" mask="url(#mask-2)"></path>
                <path d="M327.312139,91.0404624 C324.917041,91.0404624 322.976879,92.9822977 322.976879,95.3757225 C322.976879,97.7691474 324.917041,99.7109827 327.312139,99.7109827 C329.705564,99.7109827 331.647399,97.7691474 331.647399,95.3757225 C331.647399,92.9822977 329.705564,91.0404624 327.312139,91.0404624" id="Fill-58" fill="#FE4164" mask="url(#mask-2)"></path>
            </g>
        </g>
    </g>
</svg>