<svg width="1024" height="1024" viewBox="0 0 1024 1024" fill="none" xmlns="http://www.w3.org/2000/svg">
<g clip-path="url(#clip0)">
<path d="M18.0016 606.907C18.0016 490.018 18.0016 373.129 18.0016 256.24C18.0016 206.292 31.1535 193.657 81.7661 193.583C182.622 193.583 283.552 193.066 384.703 194.175C395.49 194.175 406.204 203.263 416.991 208.065C406.352 213.09 395.786 222.325 385.072 222.399C285.399 223.508 185.577 223.877 86.0516 222.399C58.6395 222.03 46.9653 227.719 47.1131 258.752C48.2953 491.299 48.2953 723.87 47.1131 956.467C47.1131 986.022 56.5706 994.371 85.1649 994.149C222.964 992.967 360.837 993.632 498.932 993.632C508.774 992.601 518.709 992.849 528.487 994.371C536.339 998.031 543.59 1002.86 549.988 1008.7C543.043 1013.58 536.688 1021.12 529.004 1022.67C516.746 1024.15 504.369 1024.4 492.061 1023.41C356.7 1023.41 221.24 1023.41 85.6821 1023.41C27.8286 1023.41 17.9277 1013.06 17.9277 953.955C17.977 838.248 18.0016 722.565 18.0016 606.907Z" fill="black"/>
<path d="M825.439 344.759C840.216 385.471 854.994 415.764 861.274 447.757C870.288 491.277 844.797 517.285 801.056 512.113C780.406 509.772 760.366 503.635 741.946 494.011C642.971 442.386 562.452 361.325 511.493 262.006C494.203 228.461 473.958 189.005 508.094 156.125C542.23 123.246 579.543 145.116 614.639 160.115C626.904 165.361 638.431 172.528 657.641 182.281C672.419 165.583 688.009 146.594 705.594 129.822C710.766 124.871 721.849 126.127 730.198 124.576C728.573 133.073 729.755 144.23 724.805 149.697C701.53 175.114 677.369 199.793 651.952 222.993C635.032 238.362 631.19 254.986 645.746 271.02C674.167 302.742 704.042 333.085 735.37 362.049C750.148 375.348 765.664 372.762 780.146 356.433C799.619 334.201 820.604 313.34 842.95 293.999C853.146 285.28 868.145 282.103 881.002 276.413C875.165 288.235 871.47 301.978 863.047 311.51C851.335 323.492 838.766 334.604 825.439 344.759V344.759ZM628.013 203.118C622.53 198.457 616.313 194.737 609.615 192.108C583.311 186.567 556.712 182.429 530.186 177.774C534.028 204.226 531.221 234.15 542.895 256.464C588.447 342.927 658.481 414.04 744.237 460.909C762.515 470.819 782.161 477.965 802.534 482.115C828.246 487.656 841.324 473.84 834.305 448.718C826.346 424.73 817.071 401.198 806.524 378.23C758.054 415.173 725.248 406.676 665.695 348.675C604.369 288.753 593.877 249.519 628.013 203.118Z" fill="black"/>
<path d="M820.047 806.846V623.015C819.336 613.155 819.683 603.247 821.081 593.46C822.337 587.697 828.47 582.968 832.681 577.722C838.149 583.042 847.459 587.919 848.271 593.83C849.899 612.155 850.343 630.567 849.601 648.949C848.936 708.059 863.714 773.006 842.878 823.618C822.041 874.231 765.74 910.214 724.658 952.403C705.004 972.648 685.35 992.967 664.662 1012.18C659.194 1017.2 648.185 1021.86 642.496 1019.57C636.807 1017.28 633.038 1006.05 632.965 998.656C632.226 949.522 631.561 900.387 632.965 851.326C633.925 822.51 650.919 806.994 680.622 806.994C725.323 806.772 769.434 806.846 820.047 806.846ZM662.593 960.974L672.125 965.112C692.37 944.128 712.689 922.996 733.008 902.012L796.624 836.401C754.361 836.401 721.112 834.775 688.232 837.435C679.144 838.174 664.44 850.956 663.775 859.158C660.82 892.924 662.593 926.986 662.593 960.974Z" fill="black"/>
<path d="M784.579 0.000797988C861.348 -0.959733 1008.31 145.41 1006.24 221.662C1005.58 249.739 990.281 264.516 961.908 263.999C953.283 263.945 944.75 262.213 936.786 258.901C848.122 219.076 781.624 156.567 746.601 64.8736C731.972 25.8612 748.892 0.44412 784.579 0.000797988ZM772.831 31.1811C775.27 102.482 888.243 225.799 954.963 235.109C978.385 238.36 981.71 224.765 974.838 208.658C938.929 124.796 878.785 64.5041 793.372 31.3289C786.572 30.2394 779.646 30.1896 772.831 31.1811V31.1811Z" fill="black"/>
<path d="M423.419 586.147C433.045 582.246 442.133 577.131 450.461 570.926C495.533 527.333 539.126 482.262 584.862 439.259C592.768 431.871 607.028 430.762 617.889 426.699C613.308 437.56 611.314 451.007 603.629 458.913C555.824 508.491 505.655 555.927 458.367 605.874C437.236 628.041 420.759 623.016 402.435 604.988C384.111 586.959 376.944 569.892 398.888 548.538C449.132 499.625 497.897 449.234 548.288 400.764C555.677 393.893 568.385 392.932 578.655 389.238C574.887 400.321 574.222 414.359 566.907 421.97C517.403 472.878 466.569 522.53 416.104 572.773L423.419 586.147Z" fill="black"/>
</g>
<defs>
<clipPath id="clip0">
<rect width="988.46" height="1024" fill="white" transform="translate(18)"/>
</clipPath>
</defs>
</svg>
