<svg id="Layer_1" data-name="Layer 1" xmlns="http://www.w3.org/2000/svg" viewBox="0 0 1024 1024"><title>learning</title><g id="Symbols"><g id="icon_line_learning" data-name="icon/line/learning"><g id="Combined-Shape"><path id="path-1" d="M170.14,200.75V785.11l320.15,40V240.75ZM513,204a42.07,42.07,0,0,1,16.56-5.78L862,156.68c19.32-2.41,35,9.6,35,26.84V792.06c0,17.23-15.67,33.16-35,35.58L529.56,869.17A36,36,0,0,1,513,867.53a36,36,0,0,1-16.56,1.64L164,827.64c-19.32-2.42-35-18.35-35-35.58V183.52c0-17.24,15.67-29.25,35-26.84l332.45,41.54A42.07,42.07,0,0,1,513,204Zm342.86-3.25-320.15,40V825.11l320.15-40Z"/></g></g></g></svg>