<svg id="Layer_1" data-name="Layer 1" xmlns="http://www.w3.org/2000/svg" viewBox="0 0 1024 1024"><title>license</title><g id="Symbols"><g id="icon_line_license" data-name="icon/line/license"><g id="Icon"><path id="path-1" d="M512,704c-115.67,0-209.45-93.77-209.45-209.45S396.33,285.12,512,285.12s209.45,93.77,209.45,209.44S627.67,704,512,704Zm0-34.91A174.54,174.54,0,1,0,337.46,494.56,174.54,174.54,0,0,0,512,669.1ZM267.61,878.57a17.45,17.45,0,1,1-34.83-2.35C239.72,773.61,364,669.1,512.18,669.1c150.24,0,279.08,107.42,279.08,209.45a17.46,17.46,0,0,1-34.91,0c0-81.2-112-174.54-244.17-174.54C381.62,704,273.25,795.14,267.61,878.57ZM795.23,162.91H225.44a62.52,62.52,0,0,0-62.52,62.51V795.24c0,35.38,28.82,65.85,62.52,65.85H798.56c33.7,0,62.52-30.47,62.52-65.85V228.76A65.85,65.85,0,0,0,795.23,162.91Zm0-34.91A100.76,100.76,0,0,1,896,228.76V795.24C896,849.47,852,896,798.56,896H225.44C172,896,128,849.47,128,795.24V225.42A97.42,97.42,0,0,1,225.44,128Z"/></g></g></g></svg>