<svg id="Layer_1" data-name="Layer 1" xmlns="http://www.w3.org/2000/svg" viewBox="0 0 1024 1024"><title>list</title><g id="Symbols"><g id="icon_line_list" data-name="icon/line/list"><g id="Combined-Shape"><path id="path-1" d="M149.74,193.83h86.94c29,0,29,58,0,58H149.74C120.75,251.79,120.75,193.83,149.74,193.83Zm0,579.62h86.94c29,0,29,58,0,58H149.74C120.75,831.42,120.75,773.45,149.74,773.45Zm0-289.81h86.94c29,0,29,58,0,58H149.74C120.75,541.6,120.75,483.64,149.74,483.64ZM352.6,193.83H874.26c29,0,29,58,0,58H352.6C323.62,251.79,323.62,193.83,352.6,193.83Zm0,579.62H874.26c29,0,29,58,0,58H352.6C323.62,831.42,323.62,773.45,352.6,773.45Zm0-289.81H874.26c29,0,29,58,0,58H352.6C323.62,541.6,323.62,483.64,352.6,483.64Z"/></g></g></g></svg>