<?xml version="1.0" encoding="UTF-8"?>
<svg width="60px" height="60px" viewBox="0 0 60 60" version="1.1" xmlns="http://www.w3.org/2000/svg" xmlns:xlink="http://www.w3.org/1999/xlink">
    <!-- Generator: Sketch 54.1 (76490) - https://sketchapp.com -->
    <title>large_dog</title>
    <desc>Created with Sketch.</desc>
    <g id="large_dog" stroke="none" stroke-width="1" fill="none" fill-rule="evenodd">
        <g id="bernese-mountain" transform="translate(30.000000, 30.000000) scale(-1, 1) translate(-30.000000, -30.000000) translate(0.000000, 6.000000)" fill="#000000" fill-rule="nonzero">
            <path d="M59.8411017,6.67652542 C60.025678,7.15461864 60.0035593,7.69283898 59.7794492,8.15338983 L59.5933475,8.53576271 C58.4795339,10.8302542 56.2022034,12.2931356 53.650678,12.3526271 L53.0202966,12.3672458 L53.0539831,12.4705932 C54.0805932,15.6200847 54.1022034,18.9564407 53.1161441,22.1185169 L52.556822,23.913178 C51.454322,27.4511441 48.9639407,30.414661 45.6854237,32.1172881 L43.9826695,43.014661 L45.1819068,43.7932627 C46.0008051,44.325 46.5933051,45.1365254 46.8502119,46.0784746 C46.9752966,46.5376271 46.8814831,47.0177542 46.5926695,47.3958051 C46.3039831,47.7738559 45.8655508,47.9907203 45.3897458,47.9907203 L41.8161864,47.9907203 C40.330678,47.9907203 39.0197034,47.0429237 38.5540678,45.6322881 L35.1594915,35.3487712 C34.862161,34.4480085 34.8354661,33.4878814 35.0819492,32.5719915 L35.1603814,32.2808898 C34.8310169,32.2955085 34.5017797,32.3044068 34.1729237,32.3044068 C29.8425,32.3044068 25.5612712,31.0513983 21.9081356,28.6836864 L20.7489407,27.9322881 C20.3317373,29.1013983 19.7583051,30.2790254 19.0299153,31.4458475 C17.5714831,33.7824153 15.5161017,36.0366102 13.390678,37.630678 C10.796822,39.5759746 11.6152119,42.5074576 11.8613136,43.2120763 L13.8554237,45.2858898 C14.3000847,45.7492373 14.4245339,46.4294492 14.1729661,47.0195339 C13.9215254,47.6094915 13.3445339,47.9907203 12.7030932,47.9907203 C11.8642373,47.9907203 11.0304661,47.8653814 10.2254237,47.6182627 C9.42139831,47.3698729 8.66173729,47.0037712 7.96614407,46.5297458 L7.89165254,46.4782627 C7.16211864,45.9818644 6.64919492,45.1934746 6.48991525,44.3187712 L5.60389831,39.4433898 C5.00377119,39.6142373 4.43033898,39.6823729 3.89860169,39.6823729 C2.72885593,39.6823729 1.76021186,39.354661 1.14838983,39.0762712 C0.229830508,38.6580508 -0.218898305,37.6244492 0.104618644,36.6716949 L4.54372881,23.6016102 C6.00483051,19.299661 8.98245763,15.7011864 12.9320339,13.4598305 C13.0637288,13.3582627 13.1972034,13.2582203 13.3341102,13.1612288 C15.949322,11.3087288 18.9627966,10.7163559 22.2906356,11.4 C27.1119915,12.3903814 31.8774153,11.9815678 35.0260169,11.464322 C37.9144068,10.9904237 40.5269492,9.33572034 42.1937288,6.92440678 L45.9108051,1.5484322 C46.6091949,0.536822034 47.8062712,-0.0428389831 49.0344915,0.031779661 L51.0756356,0.16029661 C53.0492797,0.282966102 54.7294068,1.575 55.3549576,3.45190678 L55.6599153,4.3670339 L58.8008898,5.62271186 C59.2777119,5.81427966 59.6562712,6.19817797 59.8411017,6.67652542 Z" id="Shape"></path>
        </g>
    </g>
</svg>