<?xml version="1.0" encoding="UTF-8" standalone="no"?>
<!DOCTYPE svg PUBLIC "-//W3C//DTD SVG 1.1//EN" "http://www.w3.org/Graphics/SVG/1.1/DTD/svg11.dtd">
<svg width="100%" height="100%" viewBox="0 0 512 512" version="1.1" xmlns="http://www.w3.org/2000/svg" xmlns:xlink="http://www.w3.org/1999/xlink" xml:space="preserve" xmlns:serif="http://www.serif.com/" style="fill-rule:evenodd;clip-rule:evenodd;stroke-linejoin:round;stroke-miterlimit:2;">
    <g>
        <g transform="matrix(0.842478,0,0,0.842478,40.3256,40.3256)">
            <path d="M121.403,209.555L160.354,209.555C170.991,209.555 179.645,200.924 179.645,190.316L179.645,151.458C179.645,140.85 170.991,132.219 160.354,132.219L121.403,132.219C110.782,132.219 102.141,140.85 102.141,151.458L102.141,190.316C102.141,200.924 110.782,209.555 121.403,209.555ZM122.141,152.217L159.644,152.217L159.644,189.557L122.141,189.557L122.141,152.217Z" style="fill-rule:nonzero;"/>
        </g>
        <g transform="matrix(0.842478,0,0,0.842478,40.3256,40.3256)">
            <path d="M468.709,279.475C463.92,279.475 459.113,280.5 454.727,282.523C451.355,271.834 443.33,264.961 434.147,262.095L434.147,47.185C434.146,21.167 412.939,0 386.872,0L58.275,0C32.208,0 11,21.167 11,47.185L11,73.799C11,86.298 21.183,96.467 33.7,96.467L43.445,96.467L43.445,472.044C43.445,484.543 53.628,494.712 66.145,494.712L330.797,494.712C348.341,506.08 367.476,512.001 386.915,512C397.723,512 408.628,510.171 419.399,506.434C442.632,498.375 463.389,481.525 477.847,458.987C493.177,435.089 501.182,405.683 500.997,374.006L500.997,312.984C500.997,290.985 484.754,279.475 468.709,279.475ZM63.445,472.044L63.445,96.467L155.07,96.467C160.593,96.467 165.07,91.99 165.07,86.468C165.07,80.946 160.593,76.469 155.07,76.469L33.7,76.469C32.237,76.469 31,75.246 31,73.798L31,47.185C31,32.194 43.235,19.998 58.275,19.998L348.254,19.998C342.803,27.688 339.598,37.069 339.598,47.185L339.598,73.799C339.598,75.247 338.362,76.47 336.898,76.47L245.075,76.47C239.552,76.47 235.075,80.947 235.075,86.469C235.075,91.991 239.552,96.468 245.075,96.468L336.898,96.468C349.415,96.468 359.598,86.299 359.598,73.8L359.598,47.185C359.598,32.194 371.833,19.998 386.872,19.998C401.911,19.998 414.146,32.194 414.146,47.185L414.146,262.09C412.797,262.511 411.469,263.008 410.181,263.602C405.621,249.138 392.545,241.637 379.599,241.637C375.423,241.637 371.237,242.416 367.325,243.958L367.325,187.652C367.325,165.653 351.09,154.142 335.052,154.142C319.013,154.142 302.778,165.652 302.778,187.652L302.778,332.143C302.778,336.694 302.861,340.844 302.933,344.506C302.942,344.901 302.95,345.301 302.957,345.702L279.713,320.783C266.172,306.288 246.593,304.801 232.102,317.169C217.842,329.34 211.273,353.295 227.185,373.716L296.593,462.799C299.894,467.035 303.326,471.003 306.866,474.714L66.145,474.714C64.681,474.714 63.445,473.491 63.445,472.044ZM480.997,374.064C481.315,428.528 454.563,473.071 412.844,487.542C377.55,499.782 339.987,485.941 312.37,450.509L242.963,361.427C234.685,350.803 237.879,338.531 245.087,332.38C246.769,330.945 249.988,328.772 254.056,328.772C257.309,328.772 261.106,330.161 265.093,334.429L289.444,360.535C296.317,367.897 304.864,377.06 314.343,373.218C321.894,370.155 322.597,361.621 322.828,358.817C323.145,354.96 323.05,350.171 322.929,344.108C322.859,340.54 322.778,336.496 322.778,332.144L322.778,187.652C322.778,174.791 333.003,174.14 335.052,174.14C337.101,174.14 347.325,174.791 347.325,187.652L347.325,330.812C347.325,336.334 351.803,340.811 357.325,340.811C362.847,340.811 367.325,336.334 367.325,330.812L367.325,275.147C367.325,262.286 377.55,261.635 379.599,261.635C382.834,261.635 385.922,262.79 388.069,264.806C390.593,267.174 391.873,270.653 391.873,275.148L391.873,330.813C391.873,336.335 396.351,340.812 401.873,340.812C407.395,340.812 411.873,336.335 411.873,330.813L411.873,294.08C411.873,281.21 422.091,280.558 424.14,280.558C427.376,280.558 430.465,281.715 432.615,283.731C435.141,286.102 436.422,289.583 436.422,294.079L436.422,330.812C436.422,336.334 440.9,340.811 446.422,340.811C451.944,340.811 456.422,336.334 456.422,330.812L456.422,312.984C456.422,300.124 466.658,299.473 468.71,299.473C471.95,299.473 475.043,300.629 477.192,302.645C479.717,305.012 480.998,308.491 480.998,312.984L480.998,374.064L480.997,374.064Z" style="fill-rule:nonzero;"/>
        </g>
        <g transform="matrix(0.842478,0,0,0.842478,40.3256,40.3256)">
            <path d="M201.721,142.218C201.721,147.74 206.198,152.217 211.721,152.217L291.753,152.217C297.275,152.217 301.753,147.74 301.753,142.218C301.753,136.696 297.275,132.219 291.753,132.219L211.721,132.219C206.198,132.219 201.721,136.696 201.721,142.218Z" style="fill-rule:nonzero;"/>
        </g>
        <g transform="matrix(0.842478,0,0,0.842478,40.3256,40.3256)">
            <path d="M274.764,189.557L211.721,189.557C206.198,189.557 201.721,194.034 201.721,199.556C201.721,205.078 206.198,209.555 211.721,209.555L274.764,209.555C280.286,209.555 284.764,205.078 284.764,199.556C284.764,194.034 280.286,189.557 274.764,189.557Z" style="fill-rule:nonzero;"/>
        </g>
        <g transform="matrix(0.842478,0,0,0.842478,40.3256,40.3256)">
            <path d="M112.141,266.92L264.877,266.92C270.399,266.92 274.877,262.443 274.877,256.921C274.877,251.399 270.399,246.922 264.877,246.922L112.141,246.922C106.618,246.922 102.141,251.399 102.141,256.921C102.141,262.443 106.618,266.92 112.141,266.92Z" style="fill-rule:nonzero;"/>
        </g>
        <g transform="matrix(0.842478,0,0,0.842478,40.3256,40.3256)">
            <path d="M112.141,324.258L194.532,324.258C200.055,324.258 204.532,319.781 204.532,314.259C204.532,308.737 200.055,304.26 194.532,304.26L112.141,304.26C106.618,304.26 102.141,308.737 102.141,314.259C102.141,319.781 106.618,324.258 112.141,324.258Z" style="fill-rule:nonzero;"/>
        </g>
        <g transform="matrix(0.842478,0,0,0.842478,40.3256,40.3256)">
            <path d="M112.141,381.624L184.702,381.624C190.225,381.624 194.702,377.147 194.702,371.625C194.702,366.103 190.225,361.626 184.702,361.626L112.141,361.626C106.618,361.626 102.141,366.103 102.141,371.625C102.141,377.147 106.618,381.624 112.141,381.624Z" style="fill-rule:nonzero;"/>
        </g>
        <g transform="matrix(0.842478,0,0,0.842478,40.3256,40.3256)">
            <path d="M218.596,418.964L112.141,418.964C106.618,418.964 102.141,423.441 102.141,428.963C102.141,434.485 106.618,438.962 112.141,438.962L218.596,438.962C224.119,438.962 228.596,434.485 228.596,428.963C228.596,423.441 224.119,418.964 218.596,418.964Z" style="fill-rule:nonzero;"/>
        </g>
        <g transform="matrix(0.842478,0,0,0.842478,40.3256,40.3256)">
            <path d="M200.072,96.467L200.129,96.467C205.652,96.467 210.101,91.99 210.101,86.468C210.101,80.946 205.596,76.469 200.073,76.469C194.55,76.469 190.073,80.946 190.073,86.468C190.073,91.99 194.549,96.467 200.072,96.467Z" style="fill-rule:nonzero;"/>
        </g>
    </g>
</svg>
