<svg width="37" height="37" viewBox="0 0 37 37" fill="none" xmlns="http://www.w3.org/2000/svg">
<path d="M18.5 0C11.6995 0 6.16666 5.53287 6.16666 12.3334C6.16666 14.3749 6.67707 16.399 7.64738 18.1944L17.8256 36.6025C17.9611 36.848 18.2193 37 18.5 37C18.7808 37 19.039 36.848 19.1745 36.6025L29.3564 18.1883C30.323 16.399 30.8334 14.3748 30.8334 12.3333C30.8334 5.53287 25.3005 0 18.5 0ZM18.5 18.5C15.0998 18.5 12.3334 15.7336 12.3334 12.3334C12.3334 8.93312 15.0998 6.16671 18.5 6.16671C21.9003 6.16671 24.6667 8.93312 24.6667 12.3334C24.6667 15.7336 21.9003 18.5 18.5 18.5Z" fill="#7A7A7A"/>
</svg>
