<?xml version="1.0" encoding="UTF-8"?>
<svg width="60px" height="60px" viewBox="0 0 60 60" version="1.1" xmlns="http://www.w3.org/2000/svg" xmlns:xlink="http://www.w3.org/1999/xlink">
    <!-- Generator: Sketch 54.1 (76490) - https://sketchapp.com -->
    <title>medium_dog</title>
    <desc>Created with Sketch.</desc>
    <g id="medium_dog" stroke="none" stroke-width="1" fill="none" fill-rule="evenodd">
        <g id="bichon" transform="translate(30.000000, 30.500000) scale(-1, 1) translate(-30.000000, -30.500000) translate(0.000000, 12.000000)" fill="#000000" fill-rule="nonzero">
            <path d="M59.5368908,4.01684874 C59.9084874,4.48184874 60.0655462,5.0852521 59.967479,5.67214286 L59.7443697,7.01130252 C59.3948319,9.10840336 57.7557983,10.7786975 55.6655042,11.167437 L54.3742437,11.4076891 C54.3422269,11.4136134 54.3102101,11.4182773 54.2781933,11.4236975 L53.892605,16.7131513 C53.5783613,20.734916 51.342479,24.3935294 47.9111345,26.5051261 C47.9009244,26.5114286 47.8907143,26.517479 47.8802521,26.5234034 L47.822521,26.5560504 L46.7335714,32.4671849 L48.287521,34.4093697 C48.6613866,34.8767647 48.732479,35.5021008 48.4733193,36.0415966 C48.2141597,36.5810924 47.6812185,36.9161345 47.0827311,36.9161345 L44.6286555,36.9161345 C43.4514706,36.9161345 42.3441176,36.2890336 41.7384454,35.2797479 L41.6160504,35.0757983 C41.0707563,34.1669748 40.7016807,33.1773529 40.5189076,32.1340336 L39.8039496,28.0547899 C37.1261345,27.9833193 33.5538655,26.2981513 30.6214286,24.9142437 C29.5593277,24.4130672 28.6420588,23.9802101 27.9680672,23.7234454 C26.0987395,23.0112605 24.0878571,23.8478571 23.410084,24.1805042 C23.0464286,24.9214286 22.5823109,25.6131933 22.0289496,26.2280672 L19.842605,28.6571849 C19.4972269,29.0410084 19.2723529,29.5135714 19.1926891,30.0236975 L18.7689076,32.7363025 L20.0402521,34.4562605 C20.3884034,34.927563 20.4409664,35.545084 20.1770168,36.0681933 C19.9130672,36.5913025 19.3852941,36.9162605 18.7994118,36.9162605 L16.6338655,36.9162605 C15.6407143,36.9162605 14.7864706,36.2415126 14.5564286,35.2753361 L13.2112185,29.6256303 C12.9141176,28.3781092 12.9951681,27.0839496 13.4454202,25.8833193 C13.7557563,25.0556723 13.8176471,24.1631092 13.6242857,23.3020588 C13.3047479,21.8793277 12.8587815,19.7436555 12.5484454,17.6483193 C12.5238655,17.4820588 12.5091176,17.3159244 12.4987815,17.150042 C11.8971429,17.500084 11.1707143,17.8740756 10.3632353,18.1917227 C9.03529412,18.7142017 7.76697479,18.9746218 6.58298319,18.9746218 C5.02046218,18.9747479 3.60453782,18.5213445 2.38915966,17.6185714 C-0.322184874,15.6044118 0.130462185,9.41647059 0.190966387,8.71764706 C0.222983193,8.34781513 0.468529412,8.03092437 0.818697479,7.90752101 C1.16861345,7.7842437 1.5587395,7.87726891 1.81563025,8.14537815 C5.10113445,11.5768487 10.0730672,12.6510504 14.4821849,10.8819328 L17.4902521,9.67487395 C18.4194958,9.13840336 19.4586555,8.6710084 20.595,8.29222689 C23.7655462,7.23529412 27.852605,8.26777311 31.4585294,9.1787395 C33.5248739,9.70071429 35.4765126,10.1938235 36.8848739,10.1938235 C39.9392017,10.1938235 42.6443697,8.79542017 43.4993697,8.30470588 L44.9089916,3.76273109 C45.5258824,1.77516807 47.2657563,0.396680672 49.3419328,0.251092437 L52.6517647,0.0187815126 C53.8812605,-0.0679411765 54.992395,0.775462185 55.2431092,1.97911765 L55.4737815,3.08634454 L58.0168487,3.23168067 C58.6111765,3.26571429 59.1652941,3.55184874 59.5368908,4.01684874 Z" id="Shape"></path>
        </g>
    </g>
</svg>