<svg id="Layer_1" data-name="Layer 1" xmlns="http://www.w3.org/2000/svg" viewBox="0 0 1024 1024"><title>message</title><g id="Symbols"><g id="icon_line_message" data-name="icon/line/message"><g id="Icon"><path id="path-1" d="M604.54,760.66a17.45,17.45,0,0,1,12.33-5.11H812c25.66,0,49.13-27.13,49.13-57.53V215.16c0-29.06-22.18-52.3-49.13-52.3H213c-27,0-49.13,23.24-49.13,52.3V698c0,30.4,23.47,57.53,49.13,57.53H408.13a17.45,17.45,0,0,1,12.33,5.11l92,92.23ZM213,790.41c-46.13,0-84-43.77-84-92.39V215.16c0-48,37.42-87.16,84-87.16H812c46.57,0,84,39.2,84,87.16V698c0,48.62-37.86,92.39-84,92.39H624.11l-99.27,99.47a17.42,17.42,0,0,1-24.68,0l-99.27-99.47ZM320.75,528.93H529.93c23.24,0,23.24,34.87,0,34.87H320.75C297.51,563.8,297.51,528.93,320.75,528.93Zm0-191.75h383.5c23.24,0,23.24,34.87,0,34.87H320.75C297.51,372.05,297.51,337.18,320.75,337.18Z"/></g></g></g></svg>