<?xml version="1.0" encoding="UTF-8" standalone="no"?>
<!DOCTYPE svg PUBLIC "-//W3C//DTD SVG 1.1//EN" "http://www.w3.org/Graphics/SVG/1.1/DTD/svg11.dtd">
<svg width="100%" height="100%" viewBox="0 0 1024 1024" version="1.1" xmlns="http://www.w3.org/2000/svg" xmlns:xlink="http://www.w3.org/1999/xlink" xml:space="preserve" xmlns:serif="http://www.serif.com/" style="fill-rule:evenodd;clip-rule:evenodd;stroke-linejoin:round;stroke-miterlimit:2;">
    <g id="Symbols">
        <g id="icon_line_message">
            <g id="Icon">
                <path id="path-1" d="M604.54,760.66C607.809,757.391 612.247,755.552 616.87,755.55L812,755.55C837.66,755.55 861.13,728.42 861.13,698.02L861.13,215.16C861.13,186.1 838.95,162.86 812,162.86L213,162.86C186,162.86 163.87,186.1 163.87,215.16L163.87,698C163.87,728.4 187.34,755.53 213,755.53L408.13,755.53C412.753,755.532 417.191,757.371 420.46,760.64L512.46,852.87L604.54,760.66ZM213,790.41C166.87,790.41 129,746.64 129,698.02L129,215.16C129,167.16 166.42,128 213,128L812,128C858.57,128 896,167.2 896,215.16L896,698C896,746.62 858.14,790.39 812,790.39L624.11,790.39L524.84,889.86C521.573,893.139 517.129,894.984 512.5,894.984C507.871,894.984 503.427,893.139 500.16,889.86L400.89,790.39L213,790.41ZM320.75,528.93L529.93,528.93C553.17,528.93 553.17,563.8 529.93,563.8L320.75,563.8C297.51,563.8 297.51,528.93 320.75,528.93ZM320.75,337.18L704.25,337.18C727.49,337.18 727.49,372.05 704.25,372.05L320.75,372.05C297.51,372.05 297.51,337.18 320.75,337.18Z" style="fill:rgb(254,65,100);fill-rule:nonzero;stroke:rgb(254,65,100);stroke-width:1px;"/>
            </g>
        </g>
    </g>
</svg>
