<?xml version="1.0" encoding="UTF-8"?>
<svg width="36px" height="36px" viewBox="0 0 36 36" version="1.1" xmlns="http://www.w3.org/2000/svg" xmlns:xlink="http://www.w3.org/1999/xlink">
    <!-- Generator: Sketch 54.1 (76490) - https://sketchapp.com -->
    <title>icon/line/mypet</title>
    <desc>Created with Sketch.</desc>
    <defs>
        <path d="M16.9725261,28.9695468 L16.9725261,23.8862487 C15.3585378,23.4929927 14.500948,22.1370799 14.500948,20.7173913 C14.500948,19.5298712 16.065416,19 17.9611574,19 C19.8568987,19 21.4213668,19.5298712 21.4213668,20.7173913 C21.4213668,22.1370799 20.563777,23.4929927 18.9497886,23.8862487 L18.9497886,28.9695468 C23.6655251,28.6760669 27.3531543,26.2780446 27.3531543,22.5 C27.3531543,14.495643 24.0596312,7 17.9611574,7 C11.8626835,7 8.5691604,14.495643 8.5691604,22.5 C8.5691604,26.2780446 12.2567896,28.6760669 16.9725261,28.9695468 Z M28.0001272,17.9988273 C28.2275668,19.45395 28.3417856,20.9689975 28.3417856,22.5 C28.3417856,27.2376161 23.6136349,30 17.9611574,30 C12.3086798,30 7.58052914,27.2376161 7.58052914,22.5 C7.58052914,20.9689964 7.69474811,19.4539476 7.9221881,17.9988239 C5.71891715,17.9645853 4.39093315,17.1836512 4.07095811,15.7676624 C3.79657807,14.5534456 4.33079,13.0134336 5.45065355,11.4559142 C7.74832737,8.26028234 11.5394341,6.07523239 14.0764038,6.99219324 C15.22225,6.35402589 16.5176965,6 17.9611574,6 C19.4744623,6 20.8250826,6.38911493 22.0111906,7.0868172 C22.0403393,7.06675264 22.0720722,7.04955333 22.1061594,7.03576165 C24.6472727,6.00762774 28.4412795,8.21858203 30.6652347,11.4652371 C31.7345275,13.026251 32.2192165,14.5694749 31.9062077,15.7825212 C31.5433003,17.1889465 30.1996274,17.9647517 28.0001272,17.9988273 Z M27.8243938,17.0005351 C27.8320414,17.0001797 27.8397344,17 27.8474688,17 C29.7342836,17 30.7107153,16.4558474 30.9496221,15.5299788 C31.1749678,14.6566654 30.773919,13.3797476 29.852606,12.0347629 C28.0412322,9.39041725 25.0807786,7.52058848 23.0525522,7.8106969 C25.466123,9.76490529 27.0634358,13.1233458 27.8243938,17.0005351 Z M8.09792097,17.0005352 C8.86258822,13.1044465 10.4717837,9.73217626 12.9051154,7.7822198 C10.8752897,7.72230709 8.05489486,9.53408847 6.25019532,12.0440858 C5.28178479,13.3909626 4.83746138,14.6718464 5.03473371,15.5448376 C5.24170328,16.4607421 6.19233967,17 8.07484477,17 C8.08257962,17 8.09027297,17.0001797 8.09792097,17.0005352 Z M17.9611574,20 C16.6075624,20 15.4895792,20.3786508 15.4895792,20.7173913 C15.4895792,21.9006633 16.3228222,23 17.9611574,23 C19.5994926,23 20.4327355,21.9006633 20.4327355,20.7173913 C20.4327355,20.3786508 19.3147523,20 17.9611574,20 Z M14.0066323,15.5 C13.4606264,15.5 13.0180011,15.0522847 13.0180011,14.5 C13.0180011,13.9477153 13.4606264,13.5 14.0066323,13.5 C14.5526383,13.5 14.9952636,13.9477153 14.9952636,14.5 C14.9952636,15.0522847 14.5526383,15.5 14.0066323,15.5 Z M21.9156824,15.5 C21.3696764,15.5 20.9270511,15.0522847 20.9270511,14.5 C20.9270511,13.9477153 21.3696764,13.5 21.9156824,13.5 C22.4616884,13.5 22.9043137,13.9477153 22.9043137,14.5 C22.9043137,15.0522847 22.4616884,15.5 21.9156824,15.5 Z" id="path-1"></path>
    </defs>
    <g id="icon/line/mypet" stroke="none" stroke-width="1" fill="none" fill-rule="evenodd">
        <mask id="mask-2" fill="white">
            <use xlink:href="#path-1"></use>
        </mask>
        <use id="Combined-Shape" fill="#FFFFFF" fill-rule="nonzero" xlink:href="#path-1"></use>
    </g>
</svg>