<svg id="Layer_1" data-name="Layer 1" xmlns="http://www.w3.org/2000/svg" viewBox="0 0 1024 1024"><title>mypet</title><g id="Symbols"><g id="icon_line_mypet" data-name="icon/line/mypet"><g id="Combined-Shape"><path id="path-1" d="M483.82,812.88V673.45c-44.27-10.79-67.79-48-67.79-86.92,0-32.57,42.91-47.1,94.9-47.1s94.91,14.53,94.91,47.1c0,38.94-23.52,76.13-67.79,86.92V812.88c129.35-8,230.49-73.83,230.49-177.45,0-219.55-90.33-425.14-257.61-425.14s-257.6,205.59-257.6,425.14C253.33,739.05,354.47,804.83,483.82,812.88ZM786.29,512a802.13,802.13,0,0,1,9.37,123.46c0,129.94-129.69,205.71-284.73,205.71S226.21,765.37,226.21,635.43A802.13,802.13,0,0,1,235.58,512c-60.43-.94-96.86-22.36-105.63-61.2-7.53-33.3,7.12-75.54,37.84-118.26,63-87.66,167-147.59,236.59-122.44,31.43-17.5,67-27.21,106.55-27.21,41.51,0,78.56,10.67,111.09,29.81a13,13,0,0,1,2.61-1.4c69.7-28.2,173.76,32.44,234.76,121.49,29.33,42.82,42.62,85.15,34,118.42C883.47,489.75,846.62,511,786.29,512Zm-4.82-27.38.63,0c51.75,0,78.54-14.92,85.09-40.32,6.18-23.95-4.82-59-30.09-95.87-49.68-72.53-130.88-123.82-186.52-115.86C716.79,286.12,760.6,378.24,781.47,484.59Zm-541.07,0c21-106.87,65.11-199.36,131.85-252.85-55.67-1.64-133,48.05-182.53,116.9-26.56,36.94-38.75,72.07-33.34,96,5.68,25.12,31.75,39.91,83.39,39.91Zm270.53,82.27c-37.12,0-67.79,10.38-67.79,19.67,0,32.46,22.86,62.61,67.79,62.61s67.8-30.15,67.8-62.61C578.73,577.24,548.06,566.86,510.93,566.86ZM402.47,443.43A27.43,27.43,0,1,1,429.58,416,27.27,27.27,0,0,1,402.47,443.43Zm216.93,0A27.43,27.43,0,1,1,646.52,416,27.28,27.28,0,0,1,619.4,443.43Z"/></g></g></g></svg>