<svg height='100px' width='100px'  fill="#A2A2A2" xmlns="http://www.w3.org/2000/svg" xmlns:xlink="http://www.w3.org/1999/xlink" version="1.1" x="0px" y="0px" viewBox="0 0 512 512" style="enable-background:new 0 0 512 512;" xml:space="preserve"><g><path d="M67.4,256.4l172.2,13.4l19.2,178.5c0.8,7.7,6.7,13.8,14.3,15c0.9,0.1,1.7,0.2,2.6,0.2   c6.7,0,12.8-3.9,15.6-10.2L458.9,72.4c2.8-6.5,1.4-14-3.7-19c-5.1-5-12.6-6.3-19.1-3.3L61.5,224c-7,3.3-10.9,10.8-9.6,18.4   S59.7,255.8,67.4,256.4z M409.6,100L285.8,381.3l-13.9-129.2c-0.9-8.1-7.4-14.5-15.6-15.1l-121.5-9.4L409.6,100z"></path></g></svg>