<?xml version="1.0" encoding="UTF-8"?>
<svg width="342px" height="225px" viewBox="0 0 342 225" version="1.1" xmlns="http://www.w3.org/2000/svg" xmlns:xlink="http://www.w3.org/1999/xlink">
    <!-- Generator: Sketch 54.1 (76490) - https://sketchapp.com -->
    <title>Group 2 Copy 5</title>
    <desc>Created with Sketch.</desc>
    <defs>
        <polygon id="path-1" points="0 316.473988 375 316.473988 375 0 0 0"></polygon>
    </defs>
    <g id="New-Design-" stroke="none" stroke-width="1" fill="none" fill-rule="evenodd">
        <g id="Artboard" transform="translate(-20.000000, -16.000000)">
            <g id="Group-2-Copy-5" transform="translate(0.000000, 16.000000)">
                <mask id="mask-2" fill="white">
                    <use xlink:href="#path-1"></use>
                </mask>
                <g id="Clip-26"></g>
                <path d="M281.791908,54.1916108 C281.791908,57.7820793 284.70347,60.6936416 288.295657,60.6936416 C291.886126,60.6936416 294.797688,57.7820793 294.797688,54.1916108 C294.797688,50.5994236 291.886126,47.6878613 288.295657,47.6878613 C284.70347,47.6878613 281.791908,50.5994236 281.791908,54.1916108 Z" id="Fill-1" fill="#FE4164" mask="url(#mask-2)"></path>
                <path d="M287.210983,167.991329 C284.815885,167.991329 282.875723,169.933165 282.875723,172.32659 C282.875723,174.720014 284.815885,176.66185 287.210983,176.66185 C289.604408,176.66185 291.546243,174.720014 291.546243,172.32659 C291.546243,169.933165 289.604408,167.991329 287.210983,167.991329" id="Fill-3" fill="#FE4164" mask="url(#mask-2)"></path>
                <path d="M45.5202312,102.962428 C43.1268064,102.962428 41.1849711,104.904263 41.1849711,107.297688 C41.1849711,109.691113 43.1268064,111.632948 45.5202312,111.632948 C47.9153286,111.632948 49.8554913,109.691113 49.8554913,107.297688 C49.8554913,104.904263 47.9153286,102.962428 45.5202312,102.962428" id="Fill-5" fill="#FE4164" mask="url(#mask-2)"></path>
                <path d="M187.499119,10.8381503 C183.3108,10.8381503 179.913295,14.2356556 179.913295,18.4239749 C179.913295,22.6140553 183.3108,26.0115607 187.499119,26.0115607 C191.6892,26.0115607 195.086705,22.6140553 195.086705,18.4239749 C195.086705,14.2356556 191.6892,10.8381503 187.499119,10.8381503" id="Fill-7" fill="#FE4164" mask="url(#mask-2)"></path>
                <path d="M288.810323,51.023323 C287.699694,51.6598728 286.41434,52.0231214 285.042488,52.0231214 C280.852543,52.0231214 277.456647,48.6258827 277.456647,44.4364162 C277.456647,40.2469497 280.852543,36.849711 285.042488,36.849711 C289.234162,36.849711 292.630058,40.2469497 292.630058,44.4364162" id="Stroke-9" stroke="#363636" stroke-linecap="round" stroke-linejoin="round" mask="url(#mask-2)"></path>
                <path d="M191.83526,14.0895954 C191.83526,13.069433 187.062718,12.2299064 180.841552,12.076796 C180.688432,5.85776218 179.85057,1.08381503 178.82862,1.08381503 C177.80839,1.08381503 176.968808,5.85776218 176.817408,12.076796 C170.596242,12.2299064 165.823699,13.069433 165.823699,14.0895954 C165.823699,15.1097578 170.596242,15.9492843 176.817408,16.1023947 C176.970528,22.3214286 177.80839,27.0953757 178.82862,27.0953757 C179.85057,27.0953757 180.688432,22.3214286 180.841552,16.1023947 C187.062718,15.9492843 191.83526,15.1097578 191.83526,14.0895954 Z" id="Stroke-11" stroke="#363636" mask="url(#mask-2)"></path>
                <polygon id="Fill-19" fill="#FE4164" mask="url(#mask-2)" points="243 194 151 194 171 139 262 139"></polygon>
                <polygon id="Fill-19" fill="#FE4164" mask="url(#mask-2)" points="234 135 169 134 169 91 205 91 225 112 233 112"></polygon>
                <polygon id="Fill-25" fill="#E02E4F" mask="url(#mask-2)" points="169 146 254 146 256 139 171 139"></polygon>
                <polygon id="Fill-25" fill="#E02E4F" mask="url(#mask-2)" points="243 194 262 139 256 139 234 194"></polygon>
                <path d="M182.856214,185.763006 L181.126445,185.763006" id="Stroke-39" stroke="#FFFFFF" stroke-width="2" stroke-linecap="round" stroke-linejoin="round" mask="url(#mask-2)"></path>
                <path d="M172.236994,185.763006 L162.482659,185.763006" id="Stroke-40" stroke="#FFFFFF" stroke-width="2" stroke-linecap="round" stroke-linejoin="round" mask="url(#mask-2)"></path>
                <path d="M223.947616,151.083815 L222.220014,151.083815" id="Stroke-41" stroke="#FFFFFF" stroke-width="2" stroke-linecap="round" stroke-linejoin="round" mask="url(#mask-2)"></path>
                <path d="M239.754335,151.083815 L230,151.083815" id="Stroke-42" stroke="#FFFFFF" stroke-width="2" stroke-linecap="round" stroke-linejoin="round" mask="url(#mask-2)"></path>
                <path d="M199.529055,223.265896 L78.0346821,223.265896" id="Stroke-43" stroke="#363636" stroke-width="2" stroke-linecap="round" stroke-linejoin="round" mask="url(#mask-2)"></path>
                <path d="M62.8612717,223.265896 L56.3583815,223.265896" id="Stroke-44" stroke="#363636" stroke-width="2" stroke-linecap="round" stroke-linejoin="round" mask="url(#mask-2)"></path>
                <path d="M255.780347,223.265896 L264.450867,223.265896" id="Stroke-45" stroke="#363636" stroke-width="2" stroke-linecap="round" stroke-linejoin="round" mask="url(#mask-2)"></path>
                <path d="M215,223.083815 L239.979769,223.083815" id="Stroke-45-Copy" stroke="#363636" stroke-width="2" stroke-linecap="round" stroke-linejoin="round" mask="url(#mask-2)"></path>
                <path d="M280.708092,223.265896 L318.641618,223.265896" id="Stroke-46" stroke="#363636" stroke-width="2" stroke-linecap="round" stroke-linejoin="round" mask="url(#mask-2)"></path>
                <path d="M253.272833,132.85 L246.7,132.85 L246.7,121.045267 C246.7,118.208967 244.391033,115.9 241.554733,115.9 L235.4,115.9 L235.4,111.353633 L234.46775,110.421383 C234.465867,110.421383 234.465867,110.4195 234.465867,110.417617 L220.725067,96.6768167 L206.046367,82 L160.066667,82 L160.066667,102.716667 L150.145267,102.716667 C147.308967,102.716667 145,105.025633 145,107.861933 L145,190.139117 L145.0113,190.139117 C145.001883,191.199433 145.331467,192.23715 145.9944,193.105367 C146.917233,194.3107 148.314667,195 149.83075,195 L234.126867,195 C236.304,195 238.221233,193.532883 238.741033,191.585517 L258,138.780617 L258,138.447267 C258,135.204167 256.0112,132.85 253.272833,132.85 Z M241.554733,119.666667 C242.313717,119.666667 242.933333,120.2844 242.933333,121.045267 L242.933333,132.85 L235.4,132.85 L235.4,119.666667 L241.554733,119.666667 Z M207.15,88.4315833 L228.9703,110.25 L207.15,110.25 L207.15,88.4315833 Z M163.833333,85.7666667 L203.383333,85.7666667 L203.383333,114.016667 L231.633333,114.016667 L231.633333,115.9 L231.633333,132.85 L168.976717,132.85 C168.7074,132.85 168.44185,132.8726 168.18195,132.915917 C166.347583,133.221017 164.818317,134.558183 164.36255,136.264483 L163.833333,137.718417 L163.833333,102.716667 L163.833333,85.7666667 Z M148.766667,107.861933 C148.766667,107.101067 149.386283,106.483333 150.145267,106.483333 L160.066667,106.483333 L160.066667,147.982583 L148.766667,178.80145 L148.766667,107.861933 Z M235.153283,190.447983 C235.028983,190.9094 234.607117,191.233333 234.126867,191.233333 L149.83075,191.233333 C149.3731,191.233333 149.105667,190.97155 148.987017,190.815233 C148.868367,190.6608 148.685683,190.3331 148.755367,190.046833 L160.066667,159.024567 L160.066667,159.033983 L167.901333,137.55645 L167.9503,137.402017 C168.0746,136.9406 168.49835,136.616667 168.976717,136.616667 L231.633333,136.616667 L235.4,136.616667 L246.7,136.616667 L253.272833,136.616667 C253.9885,136.616667 254.171183,137.644967 254.218267,138.159117 L235.153283,190.447983 Z M175.133333,114.016667 C174.093733,114.016667 173.25,113.174817 173.25,112.133333 C173.25,111.09185 174.093733,110.25 175.133333,110.25 L193.966667,110.25 C195.006267,110.25 195.85,111.09185 195.85,112.133333 C195.85,113.174817 195.006267,114.016667 193.966667,114.016667 L175.133333,114.016667 Z M175.133333,100.833333 C174.093733,100.833333 173.25,99.9914833 173.25,98.95 C173.25,97.9085167 174.093733,97.0666667 175.133333,97.0666667 L193.966667,97.0666667 C195.006267,97.0666667 195.85,97.9085167 195.85,98.95 C195.85,99.9914833 195.006267,100.833333 193.966667,100.833333 L175.133333,100.833333 Z M175.133333,127.2 C174.093733,127.2 173.25,126.35815 173.25,125.316667 C173.25,124.275183 174.093733,123.433333 175.133333,123.433333 L220.333333,123.433333 C221.372933,123.433333 222.216667,124.275183 222.216667,125.316667 C222.216667,126.35815 221.372933,127.2 220.333333,127.2 L175.133333,127.2 Z" id="Shape" fill="#000000" fill-rule="nonzero" mask="url(#mask-2)"></path>
                <path d="M97.5433526,57.4421965 C97.5433526,56.5911639 93.5670995,55.8921015 88.3822371,55.7651617 C88.2552974,50.5820872 87.5562349,46.6040462 86.7052023,46.6040462 C85.8541697,46.6040462 85.1568951,50.5820872 85.0281675,55.7651617 C79.845093,55.8921015 75.867052,56.5911639 75.867052,57.4421965 C75.867052,58.2932291 79.845093,58.9922916 85.0281675,59.1192313 C85.1568951,64.3023058 85.8541697,68.2803468 86.7052023,68.2803468 C87.5562349,68.2803468 88.2552974,64.3023058 88.3822371,59.1192313 C93.5670995,58.9922916 97.5433526,58.2932291 97.5433526,57.4421965" id="Fill-47" fill="#FE4164" mask="url(#mask-2)"></path>
                <path d="M337.904624,198.33815 C337.904624,197.487118 333.926583,196.788055 328.743509,196.661115 C328.616569,191.478041 327.917507,187.5 327.066474,187.5 C326.215441,187.5 325.516379,191.478041 325.389439,196.661115 C320.206365,196.788055 316.228324,197.487118 316.228324,198.33815 C316.228324,199.189183 320.206365,199.888245 325.389439,200.015185 C325.518167,205.19826 326.215441,209.176301 327.066474,209.176301 C327.917507,209.176301 328.616569,205.19826 328.743509,200.015185 C333.926583,199.888245 337.904624,199.189183 337.904624,198.33815" id="Fill-48" fill="#FE4164" mask="url(#mask-2)"></path>
                <path d="M34.6820809,170.700867 C34.6820809,170.148056 32.0969804,169.694467 28.7287308,169.611191 C28.6454547,166.24117 28.1900943,163.656069 27.6372832,163.656069 C27.0844722,163.656069 26.6308836,166.24117 26.5476075,169.611191 C23.1775861,169.694467 20.5924855,170.148056 20.5924855,170.700867 C20.5924855,171.253678 23.1775861,171.707267 26.5476075,171.790543 C26.6308836,175.160564 27.0844722,177.745665 27.6372832,177.745665 C28.1900943,177.745665 28.6454547,175.160564 28.7287308,171.790543 C32.0969804,171.707267 34.6820809,171.253678 34.6820809,170.700867" id="Fill-49" fill="#FE4164" mask="url(#mask-2)"></path>
                <path d="M96.4603969,190.751445 C92.8682097,190.751445 89.9566474,193.663007 89.9566474,197.255195 C89.9566474,200.845663 92.8682097,203.757225 96.4603969,203.757225 C100.050865,203.757225 102.962428,200.845663 102.962428,197.255195 C102.962428,193.663007 100.050865,190.751445 96.4603969,190.751445" id="Fill-50" fill="#FE4164" mask="url(#mask-2)"></path>
                <path d="M98.0588783,195.170722 C96.9482491,195.807272 95.6628946,196.17052 94.2910425,196.17052 C90.1010984,196.17052 86.7052023,192.773282 86.7052023,188.583815 C86.7052023,184.394349 90.1010984,180.99711 94.2910425,180.99711 C98.4827166,180.99711 101.878613,184.394349 101.878613,188.583815" id="Stroke-51" stroke="#363636" stroke-linecap="round" stroke-linejoin="round" mask="url(#mask-2)"></path>
                <path d="M298.049133,120.303468 C298.049133,119.452436 294.07288,118.753373 288.888017,118.626433 C288.761078,113.443359 288.062015,109.465318 287.210983,109.465318 C286.35995,109.465318 285.662675,113.443359 285.533948,118.626433 C280.350873,118.753373 276.372832,119.452436 276.372832,120.303468 C276.372832,121.154501 280.350873,121.853563 285.533948,121.980503 C285.662675,127.163578 286.35995,131.141618 287.210983,131.141618 C288.062015,131.141618 288.761078,127.163578 288.888017,121.980503 C294.07288,121.853563 298.049133,121.154501 298.049133,120.303468" id="Fill-52" fill="#FE4164" mask="url(#mask-2)"></path>
                <path d="M241.690751,51.4812139 C241.690751,50.9284028 239.105651,50.4748142 235.737401,50.3915382 C235.654125,47.0215167 235.198765,44.4364162 234.645954,44.4364162 C234.093143,44.4364162 233.639554,47.0215167 233.556278,50.3915382 C230.186257,50.4748142 227.601156,50.9284028 227.601156,51.4812139 C227.601156,52.034025 230.186257,52.4876135 233.556278,52.5708896 C233.639554,55.940911 234.093143,58.5260116 234.645954,58.5260116 C235.198765,58.5260116 235.654125,55.940911 235.737401,52.5708896 C239.105651,52.4876135 241.690751,52.034025 241.690751,51.4812139" id="Fill-53" fill="#FE4164" mask="url(#mask-2)"></path>
                <path d="M354.160969,135.476879 C349.97265,135.476879 346.575145,138.874384 346.575145,143.062703 C346.575145,147.252784 349.97265,150.650289 354.160969,150.650289 C358.35105,150.650289 361.748555,147.252784 361.748555,143.062703 C361.748555,138.874384 358.35105,135.476879 354.160969,135.476879" id="Fill-54" fill="#FE4164" mask="url(#mask-2)"></path>
                <path d="M358.49711,138.728324 C358.49711,137.708161 353.724567,136.868635 347.503402,136.715524 C347.350281,130.496491 346.51242,125.722543 345.490469,125.722543 C344.470239,125.722543 343.630657,130.496491 343.479257,136.715524 C337.258092,136.868635 332.485549,137.708161 332.485549,138.728324 C332.485549,139.748486 337.258092,140.588013 343.479257,140.741123 C343.632378,146.960157 344.470239,151.734104 345.490469,151.734104 C346.51242,151.734104 347.350281,146.960157 347.503402,140.741123 C353.724567,140.588013 358.49711,139.748486 358.49711,138.728324 Z" id="Stroke-55" stroke="#363636" mask="url(#mask-2)"></path>
                <path d="M122.471098,120.303468 C122.471098,119.452436 118.494845,118.753373 113.309983,118.626433 C113.183043,113.443359 112.483981,109.465318 111.632948,109.465318 C110.781915,109.465318 110.084641,113.443359 109.955913,118.626433 C104.772839,118.753373 100.794798,119.452436 100.794798,120.303468 C100.794798,121.154501 104.772839,121.853563 109.955913,121.980503 C110.084641,127.163578 110.781915,131.141618 111.632948,131.141618 C112.483981,131.141618 113.183043,127.163578 113.309983,121.980503 C118.494845,121.853563 122.471098,121.154501 122.471098,120.303468" id="Fill-56" fill="#FE4164" mask="url(#mask-2)"></path>
                <path d="M152.817919,56.3583815 C150.422822,56.3583815 148.482659,58.3002168 148.482659,60.6936416 C148.482659,63.0870665 150.422822,65.0289017 152.817919,65.0289017 C155.211344,65.0289017 157.153179,63.0870665 157.153179,60.6936416 C157.153179,58.3002168 155.211344,56.3583815 152.817919,56.3583815" id="Fill-57" fill="#FE4164" mask="url(#mask-2)"></path>
                <path d="M327.312139,91.0404624 C324.917041,91.0404624 322.976879,92.9822977 322.976879,95.3757225 C322.976879,97.7691474 324.917041,99.7109827 327.312139,99.7109827 C329.705564,99.7109827 331.647399,97.7691474 331.647399,95.3757225 C331.647399,92.9822977 329.705564,91.0404624 327.312139,91.0404624" id="Fill-58" fill="#FE4164" mask="url(#mask-2)"></path>
            </g>
        </g>
    </g>
</svg>