<?xml version="1.0" encoding="UTF-8"?>
<svg width="400px" height="400px" viewBox="0 0 400 400" version="1.1" xmlns="http://www.w3.org/2000/svg" xmlns:xlink="http://www.w3.org/1999/xlink">
    <!-- Generator: Sketch 54.1 (76490) - https://sketchapp.com -->
    <title>Artboard</title>
    <desc>Created with Sketch.</desc>
    <g id="Artboard" stroke="none" stroke-width="1" fill="none" fill-rule="evenodd">
        <rect id="Rectangle" fill-opacity="0.05" fill="#FE4164" x="0" y="0" width="400" height="400"></rect>
        <path d="M139.430848,225.20149 C139.430848,226.273568 139.066594,227.192477 138.338076,227.958247 C137.609558,228.724017 136.735349,229.106896 135.715424,229.106896 L132,229.106896 L132,200.505544 C132,195.145157 133.49344,191.488662 136.480364,189.53595 C139.467289,187.583237 142.709146,186.606896 146.206033,186.606896 C148.027328,186.606896 149.866809,186.970631 151.72453,187.698112 C153.582252,188.425593 155.057479,189.47851 156.150256,190.856896 C158.335811,193.843397 159.428571,197.672188 159.428571,202.343382 C159.428571,207.167731 158.335811,211.073097 156.150256,214.059598 C153.964702,216.969523 151.159949,218.424463 147.735913,218.424463 C145.914618,218.424463 144.311902,218.079872 142.927718,217.390679 C141.470681,216.62491 140.30507,215.437985 139.430848,213.829869 L139.430848,225.20149 Z M153.098901,202.72482 C153.098901,199.597446 152.543672,197.19181 151.433198,195.507839 C150.322724,193.823868 148.731069,192.981896 146.658184,192.981896 C144.659331,192.981896 143.10469,193.823868 141.994216,195.507839 C140.957774,197.031432 140.43956,199.437068 140.43956,202.72482 C140.43956,205.772005 140.994789,208.05736 142.105263,209.580952 C143.215737,211.264923 144.807393,212.106896 146.880278,212.106896 C148.805099,212.106896 150.322724,211.264923 151.433198,209.580952 C152.543672,207.896982 153.098901,205.611627 153.098901,202.72482 Z M182.921552,208.470614 L188.51922,208.470614 C187.698224,211.692652 186.130893,214.147501 183.817179,215.835235 C181.503465,217.599684 178.592706,218.481896 175.084817,218.481896 C170.830569,218.481896 167.509319,217.062686 165.120969,214.224224 C162.732619,211.462478 161.538462,207.511705 161.538462,202.371787 C161.538462,197.462016 162.695301,193.626314 165.009015,190.864567 C167.397366,188.026105 170.718615,186.606896 174.972864,186.606896 C179.45102,186.606896 182.92154,187.987748 185.384526,190.749495 C187.772876,193.587957 188.967033,197.53873 188.967033,202.601932 L188.967033,203.867726 C188.967033,204.251302 188.929716,204.519801 188.85508,204.673231 L169.48715,204.673231 C169.561786,207.051402 170.121547,208.815825 171.16645,209.966553 C172.136717,211.193996 173.592096,211.807708 175.532631,211.807708 C176.801442,211.807708 177.883647,211.539209 178.779278,211.002203 C179.003186,210.925487 179.208431,210.791238 179.395021,210.59945 L180.010765,209.966553 C180.085401,209.736407 180.365281,209.429551 180.850415,209.045975 C181.335549,208.662399 182.025921,208.470614 182.921552,208.470614 Z M169.978022,199.356896 L180.527473,199.356896 C180.389571,197.231885 179.906921,195.657827 179.079509,194.634673 C178.183146,193.532816 176.907571,192.981896 175.252747,192.981896 C173.735825,192.981896 172.494726,193.532816 171.529412,194.634673 C170.564098,195.736531 170.046973,197.310589 169.978022,199.356896 Z M203.736264,218.388218 C201.204383,218.544347 198.461553,218.505316 195.507692,218.271121 C192.553831,218.036926 191.076923,216.124363 191.076923,212.533374 L191.076923,178.106896 L195.21998,178.106896 C196.217388,178.106896 197.099696,178.497215 197.866933,179.277864 C198.63417,180.058514 199.017782,180.99528 199.017782,182.088189 L199.017782,187.357548 L203.736264,187.357548 L203.736264,188.996904 C203.736264,190.167879 203.352651,191.12416 202.585415,191.865777 C201.818178,192.607395 200.897508,192.978198 199.823377,192.978198 L199.017782,192.978198 L199.017782,210.308534 C199.017782,211.635638 199.785007,212.299181 201.319481,212.299181 L203.736264,212.299181 L203.736264,218.388218 Z M225.47426,208.470614 L231.164835,208.470614 C230.330213,211.692652 228.736868,214.147501 226.384752,215.835235 C224.032636,217.599684 221.073567,218.481896 217.507455,218.481896 C213.182597,218.481896 209.806223,217.062686 207.378232,214.224224 C204.950241,211.462478 203.736264,207.511705 203.736264,202.371787 C203.736264,197.462016 204.912304,193.626314 207.26442,190.864567 C209.692411,188.026105 213.068785,186.606896 217.393644,186.606896 C221.946126,186.606896 225.474248,187.987748 227.978113,190.749495 C229.343858,192.437229 230.330214,194.393437 230.937212,196.618177 L222.970407,196.618177 C222.591034,195.851025 222.211666,195.27567 221.832292,194.892094 C220.845921,193.818082 219.44226,193.281083 217.621267,193.281083 C215.952023,193.281083 214.586299,193.818082 213.524053,194.892094 C212.158308,196.426398 211.475446,198.957961 211.475446,202.48686 C211.475446,206.015758 212.158308,208.508964 213.524053,209.966553 C214.510424,211.193996 215.989959,211.807708 217.962701,211.807708 C219.252571,211.807708 220.352738,211.539209 221.263235,211.002203 C221.490859,210.925487 221.699511,210.791238 221.889198,210.59945 L222.515161,209.966553 C222.666911,209.736407 222.970405,209.429551 223.425653,209.045975 C223.880901,208.662399 224.563764,208.470614 225.47426,208.470614 Z M231.164835,178.106896 L235.505181,178.106896 C236.630461,178.106896 237.594972,178.478561 238.398744,179.221903 C239.202516,179.965245 239.604396,180.884628 239.604396,181.980079 L239.604396,218.481896 L231.164835,218.481896 L231.164835,178.106896 Z M243.970576,215.156913 C242.403222,213.776726 241.283699,211.917335 240.611976,209.578685 C239.940252,207.240034 239.604396,204.805574 239.604396,202.27523 C239.604396,200.20495 239.884276,198.1347 240.444046,196.064419 C241.003815,193.994138 241.880774,192.26893 243.07495,190.888743 C245.015484,188.588431 247.515751,187.227433 250.575824,186.805709 C253.635898,186.383985 256.397386,186.633182 258.860372,187.553307 C261.696538,188.703463 263.786313,190.697037 265.12976,193.534088 C266.398571,196.064432 267.032967,199.016454 267.032967,202.390245 C267.032967,204.843912 266.771745,206.952499 266.249294,208.716072 C265.726842,210.479645 265.055129,211.974825 264.234133,213.201658 C262.442871,215.732001 260.166509,217.303858 257.404979,217.917274 C254.941993,218.607368 252.460385,218.664875 249.960081,218.089797 C247.459777,217.514719 245.463295,216.537101 243.970576,215.156913 Z M250.267281,194.589627 C248.643893,196.398073 247.909514,199.091044 248.064123,202.668622 C248.218731,206.2462 248.875807,208.742605 250.03537,210.15791 C250.499195,210.786935 251.310877,211.317667 252.47044,211.750121 C253.630003,212.182576 254.808875,212.221889 256.00709,211.868063 C257.205305,211.514236 258.268222,210.629684 259.195872,209.214378 C260.123523,207.799072 260.625992,205.518892 260.703297,202.373768 C260.703297,199.543157 260.258804,197.420231 259.369806,196.004925 C258.480808,194.589619 257.456542,193.68541 256.296979,193.29227 C255.137416,192.899129 253.97787,192.879472 252.818307,193.233299 C251.658744,193.587125 250.808411,194.03923 250.267281,194.589627 Z M294.461538,186.606896 L294.461538,204.955604 C294.461538,210.522975 293.115588,214.169156 290.423645,215.894257 C287.731703,217.619358 284.785162,218.481896 281.583933,218.481896 C278.45546,218.325068 275.599861,217.384118 273.017052,215.659017 C270.434242,213.933917 269.142857,210.366148 269.142857,204.955604 L269.142857,186.606896 L276.782114,186.606896 L276.782114,206.602283 C276.782114,208.484211 277.291393,209.85643 278.309966,210.718981 C279.328539,211.581531 280.492604,212.0128 281.802198,212.0128 C283.111791,212.0128 284.294046,211.581531 285.348996,210.718981 C286.403946,209.85643 286.931413,208.484211 286.931413,206.602283 L286.931413,190.605973 C286.931413,189.508182 287.276995,188.567232 287.96817,187.783095 C288.659344,186.998958 289.550582,186.606896 290.64191,186.606896 L294.461538,186.606896 Z M316.539429,178.106896 L320.269714,178.106896 C321.293719,178.106896 322.171425,178.510642 322.902857,179.318146 C323.634289,180.12565 324,181.029272 324,182.029039 L324,204.523681 C324,209.983947 322.500586,213.675338 319.501714,215.597967 C316.502842,217.520596 313.248018,218.481896 309.737143,218.481896 C307.835419,218.481896 305.970295,218.155054 304.141714,217.50136 C302.313134,216.847666 300.850291,215.790236 299.753143,214.329039 C297.631989,211.483548 296.571429,207.599897 296.571429,202.677967 C296.571429,197.832943 297.631989,193.949291 299.753143,191.026896 C301.94744,188.027595 304.763411,186.527967 308.201143,186.527967 C310.029723,186.527967 311.63885,186.912487 313.028571,187.681539 C314.491436,188.6044 315.66171,189.796412 316.539429,191.25761 L316.539429,178.106896 Z M302.901099,202.243688 C302.901099,205.451251 303.456328,207.896982 304.566802,209.580952 C305.677276,211.264923 307.268931,212.106896 309.341816,212.106896 C311.340669,212.106896 312.89531,211.264923 314.005784,209.580952 C315.042226,207.896982 315.56044,205.451251 315.56044,202.243688 C315.56044,199.356881 315.005211,197.071527 313.894737,195.387556 C312.710231,193.783774 311.118576,192.981896 309.119722,192.981896 C307.194901,192.981896 305.677276,193.823868 304.566802,195.507839 C303.456328,197.111621 302.901099,199.356881 302.901099,202.243688 Z" id="petcloud" fill-opacity="0.2" fill="#FE4164"></path>
        <path d="M91.3873456,196.363743 C89.2080848,195.104879 86.7228742,195.064603 85.8366565,196.273842 C84.9504388,197.482961 85.998669,199.483815 88.1779298,200.742799 C90.3571907,202.001784 92.8422684,202.04206 93.7284861,200.832821 C94.6148367,199.623582 93.5666065,197.622728 91.3873456,196.363743 L91.3873456,196.363743 Z M106.187739,191.290196 C102.480572,190.918304 99.6228754,191.439097 98.0782734,193.373604 C98.0782734,193.373604 95.2978677,197.614868 96.4562581,201.707233 C97.6147707,205.799597 100.163547,206.097278 101.321938,205.874048 C102.480572,205.650817 103.098413,204.683563 103.484503,203.79064 C103.870836,202.897717 106.033279,200.814429 107.809632,200.665529 C109.585986,200.516749 113.138815,199.103034 113.216106,197.019626 C113.293153,194.936219 109.894906,191.662327 106.187739,191.290196 L106.187739,191.290196 Z M92.6875739,189.134452 C91.2446549,187.09957 89.2512801,186.364853 88.2352589,187.493773 C87.2191266,188.622553 87.5651338,191.187421 89.0080528,193.222304 C90.4509717,195.257186 92.4443466,195.991762 93.4604789,194.862841 C94.4765,193.734062 94.1304928,191.169335 92.6875739,189.134452 L92.6875739,189.134452 Z M116.552677,207.141056 L107.68696,216.394519 C107.732941,216.382648 107.779432,216.37226 107.825031,216.359894 L101.668895,222.785467 L95.6755406,216.542913 C95.6844566,216.544892 95.6933726,216.546623 95.7021613,216.548601 L86.2636533,206.85614 L86.2478592,206.865909 C83.1425337,203.414394 81.2608696,198.899762 81.2608696,193.958374 C81.2608696,183.11314 90.3223569,174.321181 101.500127,174.321181 C112.677898,174.321181 121.73913,183.11314 121.73913,193.958374 C121.73913,199.00475 119.776585,203.605822 116.552677,207.084172 L116.552677,207.141056 Z M126,193.918817 C126,180.767868 115.031,170.106896 101.5,170.106896 C87.969,170.106896 77,180.767868 77,193.918817 C77,199.757295 79.1632593,205.103855 82.751537,209.245832 L82.7376667,209.254404 L83.0262222,209.558733 C83.3159444,209.88172 83.6151296,210.196513 83.9223519,210.503994 L101.557426,229.106896 L119.459019,210.258161 L119.390315,210.185293 C123.489333,205.928468 126,200.209124 126,193.918817 L126,193.918817 Z M100.997359,188.961888 C102.515839,188.437545 103.017982,186.174596 102.118971,183.907504 C101.21996,181.640412 99.2602511,180.227559 97.7417715,180.751903 C96.2232919,181.276246 95.7211489,183.539196 96.6201597,185.806287 C97.5191706,188.073379 99.4788793,189.486232 100.997359,188.961888 L100.997359,188.961888 Z M110.894499,191.152248 C112.59189,190.895692 113.576994,188.812622 113.095087,186.49947 C112.613038,184.186317 110.84628,182.519252 109.149029,182.775808 C107.451638,183.032364 106.466393,185.115555 106.948441,187.428586 C107.430349,189.741738 109.197248,191.408926 110.894499,191.152248 L110.894499,191.152248 Z" id="Fill-3" fill-opacity="0.2" fill="#FE4164"></path>
    </g>
</svg>