<svg height="512" viewBox="0 0 54 60" width="512" xmlns="http://www.w3.org/2000/svg"><g id="Page-1" fill="none" fill-rule="evenodd"><g id="032---alarm-settings" fill="rgb(0,0,0)" fill-rule="nonzero"><path id="Shape" d="m.68 50.23c.472131 1.0845706 1.54717836 1.7815793 2.73 1.77h11.649c.5227105 4.5425323 4.3684924 7.9711565 8.941 7.9711565s8.4182895-3.4286242 8.941-7.9711565h11.649c1.1828216.0115793 2.257869-.6854294 2.73-1.77.4948455-1.1045593.2814461-2.3979488-.542-3.285-2.7918041-2.9982872-4.4772873-6.859236-4.778-10.945v-5.246c.0580303-.1381413.1002974-.282386.126-.43l.745-4.476c.4261491-.2068036.8386554-.4406128 1.235-.7l4.24 1.592c.9142042.3429644 1.9422851-.0265353 2.429-.873l2.168-3.734c.4753276-.8500539.2778517-1.9181043-.47-2.542l-3.509-2.872c.015-.237.036-.473.036-.714s-.021-.477-.036-.714l3.518-2.879c.7449822-.6297994.9353667-1.7010802.453-2.549l-2.152-3.711c-.4840325-.85254866-1.5146829-1.22856246-2.434-.888l-4.243 1.593c-.3963446-.25938718-.8088509-.49319639-1.235-.7l-.744-4.473c-.1553748-.97103636-.9936121-1.68504318-1.977-1.684h-4.3c-.9815055-.00412165-1.8198923.7069797-1.976 1.676l-.745 4.476c-.4262803.20842186-.8387895.44390281-1.235.705l-4.24-1.592c-.9142011-.3434076-1.9425697.02619542-2.429.873l-.516.889c-.237-.01-.471-.027-.709-.027-2.0452784.0039054-4.0747228.35871993-6 1.049 0-.016 0-.032 0-.049.0033074-3.31233757 2.6876624-5.99669262 6-6 1.8322924-.00762268 3.5649895.83306588 4.693 2.277.3407597.43464806.9693519.51075963 1.404.16999995.434648-.34075968.5107596-.96935185.17-1.40399995-1.5058809-1.92907104-3.819777-3.05260477-6.267-3.043-4.4162219.00495988-7.9950401 3.58377808-8 8 .0000935.29268224.0164521.58513313.049.876-6.14437276 3.0252389-10.039586 9.2752557-10.049 16.124v11c-.29001903 4.0896766-1.97773941 7.9551918-4.78 10.948-.8222438.8865401-1.03485641 2.1787523-.54 3.282zm23.32 7.77c-3.478237-.004328-6.4274337-2.5581135-6.929-6h13.858c-.5015663 3.4418865-3.450763 5.995672-6.929 6zm16.15-28h-4.3l-.557-3.348c1.7765261.4693246 3.6444739.4693246 5.421 0zm-10.021-6.332-3.174 1.19-2.162-3.724 2.629-2.151c.4976704 1.7629112 1.4282215 3.3734143 2.707 4.685zm-1.129-7.668c0-4.9705627 4.0294373-9 9-9s9 4.0294373 9 9-4.0294373 9-9 9c-4.9680501-.006061-8.993939-4.0319499-9-9zm22.205 5.138-2.153 3.726-3.182-1.2c1.2790731-1.3115277 2.2099628-2.9220218 2.708-4.685zm-2.16-14 2.162 3.724-2.629 2.151c-.4976704-1.7629112-1.4282215-3.37341426-2.707-4.685zm-13.195-5.138h4.3l.557 3.348c-1.7765261-.46932464-3.6444739-.46932464-5.421 0zm-5.72 6.331c-1.2790731 1.31152774-2.2099628 2.9220218-2.708 4.685l-2.622-2.154 1.33-2.3c.0240507-.03571356.0454417-.0731479.064-.112l.759-1.313zm-27.43 39.969c3.15087677-3.3539313 5.0262931-7.7063126 5.3-12.3v-11c.01321502-8.6531224 6.9004096-15.72943796 15.55-15.977l-.493.849c-.4753276.8500539-.2778517 1.9181043.47 2.542l3.509 2.872c-.015.237-.036.473-.036.714s.021.477.036.714l-3.518 2.879c-.7449822.6297994-.9353667 1.7010802-.453 2.549l2.152 3.706c.3550145.6273575 1.0201584 1.0151352 1.741 1.015.236801.0001615.4716452-.0428763.693-.127l4.243-1.593c.3963446.2593872.8088509.4931964 1.235.7l.744 4.473c.1553748.9710364.9936121 1.6850432 1.977 1.684h4.15v4c.2750432 4.5910076 2.1504032 8.9404274 5.3 12.292.2857513.3032643.3610945.7486174.191 1.129-.1524203.3596872-.5094893.5894016-.9.579h-41.181c-.39051069.0104016-.74757971-.2193128-.9-.579-.1676002-.3779077-.09276664-.8194257.19-1.121z"/><path id="Shape" d="m7 48h4c.5522847 0 1-.4477153 1-1s-.4477153-1-1-1h-4c-.55228475 0-1 .4477153-1 1s.44771525 1 1 1z"/><path id="Shape" d="m14 47c0 .5522847.4477153 1 1 1h26c.5522847 0 1-.4477153 1-1s-.4477153-1-1-1h-26c-.5522847 0-1 .4477153-1 1z"/><path id="Shape" d="m11 26c.5522847 0 1-.4477153 1-1-.00465-3.6464724 1.655319-7.0956582 4.508-9.367.2863768-.2209808.4310919-.5793891.3784392-.9372604-.0526527-.3578712-.2944643-.6594108-.6323526-.7885451s-.7191741-.0657303-.9970866.1658055c-3.3276808 2.6495128-5.2635679 6.673374-5.257 10.927 0 .2652165.1053568.5195704.2928932.7071068s.4418903.2928932.7071068.2928932z"/><path id="Shape" d="m43 16c0-2.7614237-2.2385763-5-5-5s-5 2.2385763-5 5 2.2385763 5 5 5c2.7600532-.0033061 4.9966939-2.2399468 5-5zm-8 0c0-1.6568542 1.3431458-3 3-3s3 1.3431458 3 3-1.3431458 3-3 3-3-1.3431458-3-3z"/></g></g></svg>