<svg id="Layer_1" data-name="Layer 1" xmlns="http://www.w3.org/2000/svg" viewBox="0 0 1024 1024"><title>notification</title><g id="Symbols"><g id="icon_line_notification" data-name="icon/line/notification"><g id="Combined-Shape"><path id="path-1" d="M637.32,813.71c-4.87,52.44-39.19,82.29-115,82.29-85.66,0-125.53-24.07-130.69-82.29H185.36A13.71,13.71,0,0,1,171.64,800V690.29a13.71,13.71,0,0,1,4.87-10.48l81.72-69V306.29l.32-3C284.39,186.66,375.74,128,528.21,128c133.25,0,217.85,58.71,250.38,174.58l.51,3.71v304.9L853,680.27a13.73,13.73,0,0,1,4.35,10V800a13.71,13.71,0,0,1-13.72,13.71Zm-27.55,0H419.23c4.63,40.2,32.1,54.86,103.11,54.86C582.06,868.57,605.5,850.53,609.77,813.71Zm-410.7-27.42H829.93v-90L756,627.16a13.73,13.73,0,0,1-4.35-10V308.2C722.26,205.84,648.9,155.43,528.21,155.43c-140,0-219.37,50.57-242.56,152.38V617.14a13.74,13.74,0,0,1-4.86,10.48l-81.72,69Z"/></g></g></g></svg>