<?xml version="1.0" encoding="UTF-8"?>
<svg width="50px" height="48px" viewBox="0 0 50 48" version="1.1" xmlns="http://www.w3.org/2000/svg" xmlns:xlink="http://www.w3.org/1999/xlink">
    <!-- Generator: Sketch 54.1 (76490) - https://sketchapp.com -->
    <title>paidto</title>
    <desc>Created with Sketch.</desc>
    <g id="New-Design-" stroke="none" stroke-width="1" fill="none" fill-rule="evenodd">
        <g id="Transaction-2" transform="translate(-29.000000, -178.000000)" fill="#52C4BE">
            <g id="ite1" transform="translate(30.000000, 178.000000)">
                <g id="paidto" transform="translate(0.000000, 1.000000)">
                    <ellipse id="Oval" stroke="#52C4BE" fill-opacity="0.1" cx="24" cy="23.1578947" rx="24" ry="23.1578947"></ellipse>
                    <path d="M32.1795492,23.7549949 C35.393091,23.7549949 38.0020963,26.3639746 38.0020963,29.5775036 C38.0020963,32.7910199 35.393091,35.3999996 32.1795492,35.3999996 C28.9660073,35.3999996 26.357002,32.7910199 26.357002,29.5775036 C26.357002,26.3639746 28.9660073,23.7549949 32.1795492,23.7549949 Z M35.1388251,27.0857879 C35.3823528,27.1097699 35.4033179,27.1708372 35.4668524,27.2344612 C35.6591177,27.4267138 35.6830231,27.7268344 35.4668524,27.9576167 L31.6317718,31.7926973 C31.5567321,31.8630071 31.5385794,31.8689131 31.4963935,31.8897376 C31.305023,31.9841189 31.1024029,31.9741094 30.9087313,31.7926973 L29.055109,29.939075 C28.7555892,29.6193188 29.0390017,28.909292 29.5810264,29.0932864 C29.6505692,29.1169232 29.688153,29.1316116 29.7781496,29.2159195 L31.2702516,30.7079703 L34.7438118,27.2344612 C34.7438118,27.2344612 34.9617723,27.0799969 35.1388251,27.0857879 Z M25.8609983,31.4311259 L12.7203505,31.4311259 C11.218942,31.4311259 10,30.2121711 10,28.7107754 L10,20.3093412 L36.5898918,20.3093412 L36.5898918,24.6912403 C35.4222376,23.6365037 33.8754218,22.9939487 32.1795492,22.9939487 C28.5459382,22.9939487 25.5959942,25.943931 25.5959942,29.5775036 C25.5959942,30.2209534 25.6885475,30.8429652 25.8609983,31.4311259 Z M36.5898918,15.8350805 L10,15.8350805 L10,14.7203505 C10,13.2190443 11.2188909,12.0001278 12.7203505,12 L33.8695413,12 C35.3709753,12.0001278 36.5898918,13.2190443 36.5898918,14.7203505 L36.5898918,15.8350805 Z" id="Fill-1"></path>
                </g>
            </g>
        </g>
    </g>
</svg>