<?xml version="1.0" encoding="UTF-8"?>
<svg width="36px" height="36px" viewBox="0 0 36 36" version="1.1" xmlns="http://www.w3.org/2000/svg" xmlns:xlink="http://www.w3.org/1999/xlink">
    <!-- Generator: Sketch 50.2 (55047) - http://www.bohemiancoding.com/sketch -->
    <title>parrot</title>
    <desc>Created with Sketch.</desc>
    <defs></defs>
    <g id="parrot" stroke="none" stroke-width="1" fill="none" fill-rule="evenodd">
        <g transform="translate(0.000000, 3.000000)" fill="#4A4A4A" fill-rule="nonzero" id="Shape">
            <path d="M11.437761,15.9582623 C10.6372987,14.7085481 10.2410649,13.8770182 10.2371377,13.868813 C10.0973688,13.5733558 9.74461558,13.4471221 9.4492987,13.5866104 C9.1537013,13.726239 9.02718701,14.0788519 9.16681558,14.3745195 C9.18392727,14.4107065 9.59537922,15.2766 10.4410052,16.5967247 C10.5539844,16.7731013 10.7449481,16.8694597 10.9399091,16.8694597 C11.0491714,16.8694597 11.1597662,16.8392338 11.2586494,16.7758364 C11.5337688,16.5996 11.6140675,16.2335221 11.437761,15.9582623 Z"></path>
            <path d="M35.7904286,29.7976208 L27.6378312,22.1247117 L23.8689818,18.2896597 C23.6886779,17.6084883 23.4468,16.9224779 23.127639,16.2448831 C21.7394883,13.2978857 19.1853584,11.134239 15.5364312,9.81102857 L14.1342545,8.38423636 L14.1342545,5.89048831 C14.1342545,2.66269091 11.5083117,0.0367480519 8.28051429,0.0367480519 C7.09496883,0.0367480519 6.03755065,0.593228571 5.35364416,1.45807013 C4.40219221,1.48703377 1.60562338,1.73143636 0.508862338,3.57290649 C-0.24292987,4.83517403 -0.0279818182,6.51345195 1.14781558,8.5611039 C1.2535013,8.74512468 1.44944416,8.85824416 1.66102597,8.85824416 C1.66544416,8.85824416 1.66972208,8.85824416 1.67414026,8.8581039 C1.89063117,8.85333506 2.08727532,8.73074805 2.18685974,8.53831169 C2.24913506,8.4178987 2.35026234,8.2411013 2.47937143,8.03947792 C2.85351429,8.32602857 3.33229091,8.54301039 3.91156364,8.68747792 C4.14362338,8.74533506 4.36242857,8.78334545 4.54960519,8.80866234 L4.54960519,12.6895091 C4.54960519,18.3484987 9.07101818,22.9708286 14.6908753,23.1347922 L13.7048494,25.5012545 L10.679026,25.5012545 C10.3520805,25.5012545 10.0871299,25.7662753 10.0871299,26.0930805 C10.0871299,26.4198857 10.3520805,26.6849065 10.679026,26.6849065 L14.0960338,26.6849065 C14.0970857,26.6849065 14.0981377,26.6850468 14.0991896,26.6850468 C14.0998909,26.6850468 14.1005922,26.6849065 14.1012935,26.6849065 L16.8897273,26.6849065 C17.2166727,26.6849065 17.4815532,26.4198857 17.4815532,26.0930805 C17.4815532,25.7662753 17.2166026,25.5012545 16.8897273,25.5012545 L14.9872442,25.5012545 L15.9712364,23.1396312 L15.9872961,23.1396312 C17.8132675,24.7831247 20.0262857,26.3752831 22.6500545,27.6180545 C22.7301429,27.6559948 22.8167532,27.675 22.9034338,27.675 C22.9797351,27.675 23.0560364,27.6602727 23.1282,27.6306779 C23.2821351,27.5674909 23.4024779,27.4423091 23.4594935,27.2858494 C23.4794805,27.2311481 23.6011558,26.8896857 23.7471662,26.3346078 L27.6490519,27.8530597 C27.7196026,27.8805506 27.7921169,27.8935247 27.8635091,27.8935247 C28.1004078,27.8935247 28.3241221,27.7503195 28.4152208,27.5161558 C28.5337403,27.2115818 28.382961,26.8685065 28.0782468,26.749987 L24.0104338,25.1668753 C24.1221506,24.5790468 24.2220857,23.8930364 24.2773481,23.139561 L26.9892,23.139561 L32.7618701,28.5726623 L29.9603922,27.4824234 C29.6557481,27.3637636 29.3127429,27.5146831 29.1942234,27.8193273 C29.0757039,28.1239714 29.2264831,28.4670468 29.5311974,28.5854961 L35.1702,30.78 C35.2403299,30.8072805 35.3129844,30.8203948 35.3846571,30.8203948 C35.5829844,30.8203948 35.7742286,30.7203896 35.8853143,30.5444338 C36.0365143,30.3050104 35.9967506,29.9918104 35.7904286,29.7976208 Z M4.54967532,7.61217662 C4.11122338,7.53657662 3.56897922,7.38137922 3.19259221,7.09167273 C3.51785455,6.73204675 3.88154805,6.4314 4.23093506,6.34717403 C4.34419481,6.31989351 4.44805714,6.31996364 4.54967532,6.34668312 L4.54967532,7.61217662 Z M4.54967532,3.76765714 L4.54967532,5.14935584 C4.35415325,5.13259481 4.15449351,5.14809351 3.95336104,5.19655325 C3.01803896,5.42209091 2.21666494,6.33314805 1.70801299,7.05969351 C1.1710987,5.84644675 1.10896364,4.88054805 1.5249039,4.18037143 C2.00115584,3.37885714 3.06046753,3.00190909 3.86513766,2.82693506 C4.1655039,2.76157403 4.4542987,2.71879481 4.7088,2.69081299 C4.60570909,3.03192468 4.54967532,3.3933039 4.54967532,3.76765714 Z M5.73332727,3.76765714 L5.7333974,3.76765714 C5.7333974,3.02407013 6.05389091,2.35390909 6.56373506,1.88775584 C8.71461818,2.81396104 10.0872,4.59084156 10.0872,6.48771429 C10.0872,8.66622857 8.32995584,10.6065818 5.73332727,11.3903532 L5.73332727,3.76765714 Z M22.5405117,26.2457532 C20.2333792,25.0733922 18.2719169,23.6223351 16.6383117,22.1326364 C16.6235844,22.1176286 16.6080857,22.1033922 16.5917455,22.0899974 C14.8384286,20.4843039 13.4654961,18.8365325 12.4549948,17.4464883 C12.2627688,17.1820286 11.8925532,17.1237506 11.6282338,17.3158364 C11.363774,17.5080623 11.3052857,17.8782078 11.4975818,18.1425974 C12.3348623,19.2943403 13.4126182,20.6167091 14.7397558,21.9521221 C9.75008571,21.8137558 5.73346753,17.712 5.73346753,12.689439 L5.73346753,12.6194494 C9.01708831,11.7612 11.2710623,9.29445195 11.2710623,6.48771429 C11.2710623,5.22755065 10.8204078,4.00764156 9.9676987,2.95983117 C9.42152727,2.28875844 8.72731169,1.70906494 7.92348312,1.2459974 C8.04024935,1.22951688 8.15947013,1.2204 8.28065455,1.2204 C10.8556831,1.2204 12.9506727,3.31531948 12.9506727,5.89041818 L12.9506727,8.62632468 C12.9506727,8.78145195 13.0116857,8.93054805 13.1203169,9.04121299 L14.7842182,10.7342883 C14.7872338,10.737374 14.7905299,10.7399688 14.7936857,10.7429844 C14.8031532,10.7523117 14.8129714,10.7612883 14.8230701,10.7699844 C14.8272078,10.7734208 14.8313455,10.7769273 14.8355532,10.7802935 C14.8472649,10.789761 14.8593273,10.7987377 14.8718104,10.8074338 C14.8750364,10.8096078 14.8783325,10.8118519 14.8816286,10.8139558 C14.8950234,10.8228623 14.9089091,10.8311377 14.9232156,10.8390623 C14.9256701,10.8403948 14.9281247,10.8416571 14.9305792,10.8429896 C14.9457974,10.8511247 14.9615766,10.8585584 14.9777766,10.8654312 C14.9786883,10.8658519 14.9797403,10.8662026 14.9807922,10.8666935 C14.9906805,10.8708312 15.0002182,10.8753195 15.010387,10.8788961 C18.4172961,12.086813 20.786774,14.0590753 22.053039,16.7409117 C22.3548779,17.3802156 22.5789429,18.0320026 22.7433974,18.6813351 C22.7483065,18.7103688 22.7557403,18.7389117 22.7649974,18.767174 C23.5324987,21.9001558 22.8922831,24.9592208 22.5405117,26.2457532 Z M24.3225818,21.9559091 C24.3237039,21.4419974 24.3002805,20.9073974 24.243826,20.3597532 L25.8124208,21.9559091 L24.3225818,21.9559091 Z"></path>
            <path d="M8.0013974,4.00231169 C7.62444935,4.00231169 7.3177013,4.3084987 7.3177013,4.68481558 C7.3177013,5.06113247 7.62444935,5.36731948 8.0013974,5.36731948 C8.37834545,5.36731948 8.68509351,5.06113247 8.68509351,4.68481558 C8.68516364,4.3084987 8.37848571,4.00231169 8.0013974,4.00231169 Z"></path>
        </g>
    </g>
</svg>