<svg id="Layer_1" data-name="Layer 1" xmlns="http://www.w3.org/2000/svg" viewBox="0 0 1024 1024"><title>payment</title><g id="Symbols"><g id="icon_line_payment" data-name="icon/line/payment"><g id="Combined-Shape"><path id="path-1" d="M182.36,225.71c-5.75,0-11.22,5.73-11.22,13.72V788c0,8,5.47,13.71,11.22,13.71H845.64c5.75,0,11.22-5.72,11.22-13.71V239.43c0-8-5.47-13.72-11.22-13.72Zm0-41.14H845.64c28.92,0,52.36,24.56,52.36,54.86V788c0,30.3-23.44,54.86-52.36,54.86H182.36C153.44,842.86,130,818.3,130,788V239.43C130,209.13,153.44,184.57,182.36,184.57ZM171.14,390.29H856.86V349.14H171.14Zm68.57,329.14H502.05V678.29H239.71Z"/></g></g></g></svg>