<svg id="Layer_1" data-name="Layer 1" xmlns="http://www.w3.org/2000/svg" viewBox="0 0 1024 1024"><title>phone</title><g id="Symbols"><g id="icon_line_phone" data-name="icon/line/phone"><g id="Icon"><path id="path-1" d="M315.39,711.4C452.06,845.73,643,886.4,859.32,846.81l2-191a15.62,15.62,0,0,0-14.88-15.51l-148.51-9.75a16.27,16.27,0,0,0-12.48,4.58l-71.91,70.67a51.08,51.08,0,0,1-71.44,0L321.73,489.25a49.7,49.7,0,0,1,0-71.06l71-69.75a15,15,0,0,0,4.44-12.77L375.56,176.14a15.82,15.82,0,0,0-17.08-13.36L177.65,176.43C136.88,388.38,178.46,576.81,315.39,711.4ZM143.72,169.15a33.91,33.91,0,0,1,30.82-27.28l181.33-13.69c26.73-2,50.51,16.92,54.08,43.31L431.51,331A49.74,49.74,0,0,1,417,373.19l-71,69.74a15,15,0,0,0,0,21.57L566.4,681.08a16.39,16.39,0,0,0,22.8,0l71.91-70.68A51,51,0,0,1,700.18,596l148.51,9.74c26.76,1.76,47.58,23.86,47.31,50.5L894,848a33.81,33.81,0,0,1-27.81,32.81c-226.81,41.64-429.33-1.39-575.13-144.69C144.79,592.37,100.68,391.92,143.72,169.15Z"/></g></g></g></svg>