<svg id="Layer_1" data-name="Layer 1" xmlns="http://www.w3.org/2000/svg" viewBox="0 0 1024 1024"><title>postjob</title><g id="Symbols"><g id="icon_line_postjob" data-name="icon/line/postjob"><g id="Combined-Shape"><path id="path-1" d="M622.45,534.33l62.25,97.09a88.48,88.48,0,0,1-54.8,134,89,89,0,0,1-19.8,2.25,87.93,87.93,0,0,1-35.5-7.51,174,174,0,0,0-138.53-.51l-1.14.51A88.48,88.48,0,0,1,324.84,631.43l62.24-97.1a139.78,139.78,0,0,1,235.37,0Zm29.43,180.48a54.52,54.52,0,0,0,4.48-65.23l-62.24-97.1a106.13,106.13,0,0,0-178.7,0l-62.25,97.11a54.82,54.82,0,0,0,67.49,80.09l.75-.33a207.64,207.64,0,0,1,166.73,0A54.52,54.52,0,0,0,651.88,714.81ZM341.6,534.2a64.32,64.32,0,0,1-23.18,4.3c-30.55,0-60.76-21.22-73.72-54.82-16.21-42.21.85-88.17,38.05-102.47,18.48-7.13,38.92-5.48,57.53,4.63,17.71,9.63,31.7,25.92,39.39,45.88s8.23,41.44,1.55,60.46C374.19,512.16,360.12,527.09,341.6,534.2Zm-65.49-62.6c9.58,24.85,33.54,38.85,53.41,31.2h0c9.16-3.52,16.24-11.25,19.94-21.77,4-11.48,3.61-24.69-1.2-37.21s-13.37-22.59-24.06-28.4a37.92,37.92,0,0,0-18.11-4.87,31.31,31.31,0,0,0-11.27,2.07C275,420.26,266.55,446.72,276.11,471.6Zm186.27-13.48c-46.49,0-84.31-43.09-84.31-96.07S415.89,266,462.38,266s84.32,43.11,84.32,96.09S508.87,458.12,462.38,458.12Zm0-158.51c-27.94,0-50.67,28-50.67,62.44s22.73,62.42,50.67,62.42,50.67-28,50.67-62.42S490.32,299.61,462.38,299.61ZM608,481.73c-40.51-13.48-61-61.91-45.72-108,7.25-21.84,21.45-40,40-51.26,19.4-11.75,41.17-14.54,61.29-7.85s35.88,21.95,44.39,43c8.13,20.08,8.61,43.16,1.34,65-12.61,37.92-45.65,62.6-79.56,62.6a68.82,68.82,0,0,1-21.71-3.5Zm-13.78-97.35c-9.46,28.45,1.49,57.79,24.4,65.41s49.28-9.33,58.73-37.78c4.74-14.26,4.53-29.09-.6-41.76-4.75-11.73-13.2-20.13-23.81-23.66s-22.42-1.86-33.24,4.7C608,358.38,599,370.12,594.22,384.38Zm191.36,86.13c32,23.72,36.21,72.56,9.35,108.9-17.11,23.09-42.71,35.66-67.32,35.66A65.9,65.9,0,0,1,688,602.28c-32-23.7-36.22-72.55-9.36-108.88s74.84-46.58,106.91-22.9Zm-17.69,88.88c15.82-21.41,14.78-49.14-2.32-61.82a32.9,32.9,0,0,0-19.79-6.29c-14.17,0-29.54,7.91-40.07,22.13-15.83,21.42-14.79,49.16,2.33,61.83S752,580.82,767.89,559.39Zm-529.32-403a82.19,82.19,0,0,0-82.18,82.18V786.43a82.19,82.19,0,0,0,82.18,82.18H786.43a82.19,82.19,0,0,0,82.18-82.18V238.57a82.19,82.19,0,0,0-82.18-82.18Zm0-27.39H786.43A109.57,109.57,0,0,1,896,238.57V786.43A109.57,109.57,0,0,1,786.43,896H238.57A109.57,109.57,0,0,1,129,786.43V238.57A109.57,109.57,0,0,1,238.57,129Z"/></g></g></g></svg>