<svg id="Layer_1" data-name="Layer 1" xmlns="http://www.w3.org/2000/svg" viewBox="0 0 1024 1024"><title>profile</title><g id="Symbols"><g id="icon_line_profile" data-name="icon/line/profile"><g id="Icon"><path id="path-1" d="M511,581c106,0,192.5-93.72,192.5-210S617,161,511,161,318.5,254.73,318.5,371,405,581,511,581Zm0,35c-126,0-227.5-110-227.5-245S385,126,511,126,738.5,236,738.5,371,637,616,511,616ZM857,861C818.66,696.85,704.87,616,511,616S203.34,696.85,165.05,861ZM511,581c218.13,0,348.08,99,384.69,294.28A17.5,17.5,0,0,1,878.49,896h-735a17.5,17.5,0,0,1-17.2-20.72C162.92,680,292.87,581,511,581Z"/></g></g></g></svg>