<?xml version="1.0" encoding="UTF-8" standalone="no"?>
<!DOCTYPE svg PUBLIC "-//W3C//DTD SVG 1.1//EN" "http://www.w3.org/Graphics/SVG/1.1/DTD/svg11.dtd">
<svg width="100%" height="100%" viewBox="0 0 363 363" version="1.1" xmlns="http://www.w3.org/2000/svg" xmlns:xlink="http://www.w3.org/1999/xlink" xml:space="preserve" xmlns:serif="http://www.serif.com/" style="fill-rule:evenodd;clip-rule:evenodd;stroke-linejoin:round;stroke-miterlimit:2;">
    <g transform="matrix(0.810367,0,0,0.810367,34.4184,34.4184)">
        <path d="M277.73,94.123C277.73,105.12 269.724,111.808 263.878,116.716C261.664,118.575 257.543,121.967 257.554,123.234C257.594,128.204 253.598,132.173 248.627,132.173L248.552,132.173C243.616,132.173 239.594,128.326 239.554,123.381C239.475,113.634 246.588,107.797 252.304,102.998C256.789,99.232 259.73,96.582 259.73,94.157C259.73,89.248 255.736,85.254 250.827,85.254C245.916,85.254 241.921,89.248 241.921,94.157C241.921,99.128 237.892,103.157 232.921,103.157C227.95,103.157 223.921,99.128 223.921,94.157C223.921,79.323 235.99,67.254 250.825,67.254C265.661,67.253 277.73,79.288 277.73,94.123ZM248.801,140.481C243.83,140.481 240,144.51 240,149.481L240,149.55C240,154.521 243.831,158.516 248.801,158.516C253.771,158.516 257.801,154.452 257.801,149.481C257.801,144.51 253.772,140.481 248.801,140.481ZM67.392,203.174C62.421,203.174 58.392,207.203 58.392,212.174C58.392,217.145 62.421,221.174 67.392,221.174L68.142,221.174C73.113,221.174 77.142,217.145 77.142,212.174C77.142,207.203 73.113,203.174 68.142,203.174L67.392,203.174ZM98.671,203.174C93.7,203.174 89.671,207.203 89.671,212.174C89.671,217.145 93.7,221.174 98.671,221.174L99.42,221.174C104.391,221.174 108.42,217.145 108.42,212.174C108.42,207.203 104.391,203.174 99.42,203.174L98.671,203.174ZM363,59.425L363,160.726C363,184.711 343.768,204.174 319.783,204.174L203.066,204.174C200.784,204.174 198.905,204.161 197.333,204.128C195.686,204.094 193.832,204.081 193.109,204.161C192.356,204.661 190.51,206.352 188.731,207.991C188.026,208.64 187.228,209.354 186.367,210.14L153.345,240.238C150.711,242.641 146.814,243.263 143.552,241.825C140.29,240.386 138,237.156 138,233.591L138,138.174L43.72,138.174C29.658,138.174 18,149.697 18,163.757L18,265.058C18,279.119 29.659,290.174 43.72,290.174L174.094,290.174C176.339,290.174 178.439,291.205 180.097,292.719L207,317.523L207,231.984C207,227.013 211.029,222.984 216,222.984C220.971,222.984 225,227.013 225,231.984L225,337.922C225,341.487 222.96,344.669 219.697,346.108C218.53,346.623 217.358,346.826 216.131,346.826C213.927,346.826 211.753,345.921 210.062,344.377L170.605,308.173L43.72,308.173C19.734,308.173 0,289.043 0,265.057L0,163.757C0,139.772 19.734,120.174 43.72,120.174L138,120.174L138,59.425C138,35.439 157.885,16.174 181.871,16.174L319.784,16.174C343.768,16.174 363,35.439 363,59.425ZM345,59.425C345,45.364 333.843,34.174 319.783,34.174L181.871,34.174C167.81,34.174 156,45.364 156,59.425L156,213.192L174.095,196.839C174.933,196.074 175.872,195.374 176.557,194.742C184.82,187.128 186.934,185.911 197.712,186.133C199.182,186.164 200.933,186.175 203.066,186.175L319.783,186.175C333.843,186.175 345,174.787 345,160.727L345,59.425Z" style="fill-rule:nonzero;"/>
    </g>
</svg>
