<?xml version="1.0" encoding="UTF-8"?>
<svg width="36px" height="36px" viewBox="0 0 36 36" version="1.1" xmlns="http://www.w3.org/2000/svg" xmlns:xlink="http://www.w3.org/1999/xlink">
    <!-- Generator: Sketch 50.2 (55047) - http://www.bohemiancoding.com/sketch -->
    <title>rabbit</title>
    <desc>Created with Sketch.</desc>
    <defs></defs>
    <g id="rabbit" stroke="none" stroke-width="1" fill="none" fill-rule="evenodd">
        <g transform="translate(4.000000, 2.000000)" fill="#4A4A4A" fill-rule="nonzero" id="Shape">
            <path d="M17.0019181,29.0018558 L16.5591579,29.0018558 C16.3007251,29.0018558 16.0913216,29.2112593 16.0913216,29.469692 C16.0913216,29.7281248 16.3007251,29.9375283 16.5591579,29.9375283 L17.0019181,29.9375283 C17.2603509,29.9375283 17.4697544,29.7281248 17.4697544,29.469692 C17.4697544,29.2112593 17.2603509,29.0018558 17.0019181,29.0018558 Z"></path>
            <path d="M27.2142222,27.3675478 C26.8945341,26.7163821 26.4266979,26.4978713 26.0904795,26.4291306 C25.7590019,26.3615127 25.3953372,26.409731 25.0469552,26.5583782 C24.6884678,24.6705653 23.8990721,22.9054503 22.6932398,21.3051384 C21.6083587,19.8653879 20.1797739,18.5473996 18.4470955,17.3877271 C15.3837661,15.3375439 12.1611228,14.3115478 10.9177388,13.9655361 C10.7365926,13.9151345 10.597614,13.7775283 10.546152,13.5975049 C10.2607719,12.5997661 9.68539571,10.7118908 9.03815984,9.27844055 C8.97041715,9.12848343 8.99206238,8.94502924 9.09592203,8.78783626 C9.90927096,7.55661598 10.4712982,6.03334113 10.6783938,4.49865107 C10.858729,3.1625731 10.7563041,1.95536842 10.4044912,1.26933333 C9.98817934,0.45754386 9.45933723,0.305840156 9.09130604,0.322120858 C8.78178558,0.335407407 8.47538402,0.474760234 8.17684211,0.734003899 C7.90350097,0.385684211 7.46361014,0 6.855423,0 C6.43848733,0 6.00321248,0.304031189 5.5965692,0.879157895 C4.81272515,1.98811696 3.82128655,4.69395712 4.81646784,8.04740741 C3.77026121,8.20378947 2.99290448,8.50345419 2.45925926,8.95500975 C2.42750877,8.98189474 -0.67505653,11.7169903 0.218510721,13.4054425 C0.223251462,13.4143626 0.228241715,13.4230955 0.23354386,13.4317037 C0.552670565,13.9504405 1.01819883,14.307306 1.60411696,14.492694 C1.89417544,15.1151657 2.33381676,15.5528109 2.90033528,15.7909084 C2.18473294,18.0614737 2.3654425,20.3808187 3.44040546,22.6907446 C4.12818713,24.1686082 5.14807018,25.5850916 6.55831579,27.0212865 C7.43223392,27.9112359 7.82340741,28.5910331 7.99806628,29.0082807 C7.38270565,29.0657934 6.86459259,29.5041248 6.71220273,30.1136842 L6.40155945,31.3563197 C6.36662768,31.4961092 6.3980039,31.6441326 6.48670565,31.7577232 C6.57534503,31.8712515 6.71139181,31.9376842 6.855423,31.9376842 L8.62945809,31.9376842 C9.2805614,31.9376842 9.88775049,31.6180585 10.2535984,31.082729 C10.7810058,30.3111111 11.4389084,29.0487641 11.5783236,27.4167018 C11.6166862,26.9677037 11.9539025,26.6228772 12.3790097,26.5653645 C12.4446316,27.398425 12.7827836,28.2207563 13.3890994,29.0226901 C12.8223314,29.1188772 12.3557427,29.5406784 12.2123977,30.1137466 L11.9018168,31.3563821 C11.866885,31.4961092 11.8982612,31.6441326 11.986963,31.7577232 C12.0756023,31.8712515 12.2116491,31.9376842 12.3556803,31.9376842 L25.8565614,31.9376842 C26.0277271,31.9376842 26.1853567,31.8441793 26.2672593,31.6939103 C26.2832904,31.6645302 26.6624873,30.9660819 26.975501,30.1126238 C27.4320468,28.8681793 27.5100819,27.9702456 27.2142222,27.3675478 Z M6.19246784,1.68134113 C6.52837427,1.10789864 6.80034308,0.94945809 6.86103704,0.935734893 C7.15290448,0.939477583 7.40865497,1.24038986 7.55306043,1.4685692 C7.2911345,1.86180117 7.03862768,2.35302924 6.79934503,2.93888499 C6.31348148,4.128 6.17269396,5.67678752 6.38072515,7.54233138 C6.39139181,7.63739571 6.36269786,7.73015205 6.3000078,7.80344639 C6.23276413,7.88216764 6.13320858,7.92994932 6.0268538,7.93475244 C5.9377154,7.93874464 5.85082261,7.94385965 5.76455361,7.94934893 C4.93012086,5.29983626 5.45890058,2.93376998 6.19246784,1.68134113 Z M12.9550097,31.0018246 L13.1203743,30.340616 C13.1796959,30.1032047 13.3919688,29.9374659 13.6366784,29.9374659 L14.6684756,29.9374659 C14.9269084,29.9374659 15.1363119,29.7280624 15.1363119,29.4696296 C15.1363119,29.2111969 14.9269084,29.0017934 14.6684756,29.0017934 L14.5983002,29.0017934 C13.6794698,28.0271969 13.2447563,27.041809 13.3089435,26.0713294 C13.4087485,24.5632125 14.6865653,23.5410838 14.7059649,23.5258012 C14.9093801,23.3672982 14.946308,23.0739961 14.7881793,22.8700819 C14.6298635,22.6658558 14.3359376,22.6287407 14.1318363,22.7869318 C14.0700195,22.8348382 12.7098012,23.9080546 12.4209903,25.6235789 C11.5022846,25.6670565 10.7263626,26.3981287 10.6462066,27.3369825 C10.5240702,28.7663782 9.94532554,29.8757115 9.48123197,30.5546355 C9.28985575,30.8347135 8.9714152,31.0019493 8.62958285,31.0019493 L7.45469006,31.0019493 L7.62005458,30.340616 C7.67937622,30.1032047 7.89164912,29.9374659 8.1362963,29.9374659 L8.60556725,29.9374659 C8.864,29.9374659 9.07340351,29.7280624 9.07340351,29.4696296 C9.07340351,29.344499 9.02156725,28.1942456 7.2260117,26.3656296 C5.89155556,25.0067836 4.93080702,23.6755712 4.28874854,22.2958908 C3.30398441,20.1798363 3.14604288,18.0614113 3.81729435,15.994885 C3.88054581,15.9985029 3.94398441,16.0005614 4.00792203,16.0005614 C5.64291618,16.0005614 7.44814035,14.8609123 7.80612865,14.2166706 C7.93157115,13.9907992 7.85016764,13.7059181 7.6242963,13.5804756 C7.39848733,13.4549708 7.11360624,13.5363743 6.98816374,13.762308 C6.7997193,14.1015828 5.18861598,15.1481014 3.85153996,15.0598986 C3.42955166,15.0326394 3.09002729,14.8924133 2.82598051,14.6366004 C3.55330994,14.6031657 4.13373879,14.3973177 4.15950097,14.3880234 C4.40258869,14.3005692 4.52884211,14.0325926 4.44145029,13.7894425 C4.35405848,13.5462924 4.08583236,13.4201014 3.8428694,13.5074932 C3.82278363,13.5147914 1.83179727,14.2130526 1.0397193,12.9559454 C0.893692008,12.6544717 1.10477973,12.0418558 1.60723587,11.3115945 C2.10270565,10.591501 2.74969201,9.93490838 3.06376608,9.66917739 C3.61431579,9.20327485 4.62540351,8.93417544 6.06895906,8.86930214 C6.43299805,8.85295906 6.77645224,8.68603509 7.01124366,8.41132164 C7.24403899,8.13910331 7.35045614,7.79352827 7.31078363,7.43840936 C7.12021832,5.73005848 7.23961014,4.33528265 7.66559064,3.2925692 C8.3131384,1.70747758 8.89175828,1.26708772 9.13160234,1.25673294 C9.13403509,1.25667057 9.13646784,1.25660819 9.13890058,1.25660819 C9.32615984,1.25660819 9.50375049,1.56300975 9.57192982,1.69612476 C10.0299103,2.58900585 10.0014035,5.71939181 8.31525926,8.27190643 C8.03330994,8.69876023 7.98477973,9.2188694 8.18538791,9.66325146 C8.80823392,11.0426823 9.36826511,12.8814035 9.64659649,13.8546277 C9.78831969,14.3500351 10.1697622,14.7284834 10.6669162,14.8668382 C11.8667602,15.2007485 14.976,16.1904405 17.9267368,18.165271 C21.5569591,20.5947758 23.6672749,23.6211774 24.2014191,27.1608889 C23.1648187,28.2232515 22.3293879,30.227462 22.0314074,31.0018246 L12.9550097,31.0018246 Z M25.5738635,31.0019493 L23.0388148,31.0019493 C23.1527797,30.7229942 23.3031735,30.3731774 23.4813255,30.0010292 C24.0159688,28.8842105 24.5539181,28.073731 25.0370994,27.657232 C25.319423,27.41377 25.6517739,27.2945029 25.9032827,27.3459649 C26.0962807,27.3853879 26.2502924,27.5272982 26.3743626,27.7798674 C26.6647329,28.3716491 26.1131852,29.9364678 25.5738635,31.0019493 Z"></path>
            <path d="M4.60531774,10.0005926 C3.93375439,10.0005926 3.38744639,10.546963 3.38744639,11.2184639 C3.38744639,11.8899649 3.93381676,12.4363353 4.60531774,12.4363353 C5.27681871,12.4363353 5.82312671,11.8899649 5.82312671,11.2184639 C5.82312671,10.546963 5.27681871,10.0005926 4.60531774,10.0005926 Z M4.60531774,11.5007251 C4.44968421,11.5007251 4.32311891,11.3741598 4.32311891,11.2185263 C4.32311891,11.0628928 4.44968421,10.9363275 4.60531774,10.9363275 C4.76088889,10.9363275 4.88745419,11.0628928 4.88745419,11.2185263 C4.88745419,11.3741598 4.76088889,11.5007251 4.60531774,11.5007251 Z"></path>
        </g>
    </g>
</svg>