<svg id="Layer_1" data-name="Layer 1" xmlns="http://www.w3.org/2000/svg" viewBox="0 0 1024 1024"><title>referance</title><g id="Symbols"><g id="icon_line_reference" data-name="icon/line/reference"><g id="Combined-Shape"><path id="path-1" d="M838.73,587.46l-52.26-57.41a16.4,16.4,0,0,1,0-21.64,13.06,13.06,0,0,1,19.69,0l74.79,82.16a16.4,16.4,0,0,1,0,21.65l-74.79,82.16a13.06,13.06,0,0,1-19.69,0,16.4,16.4,0,0,1,0-21.64l52.26-57.41H679.28c-61.79,0-91.81,40-91.81,127.06a13.93,13.93,0,0,1-27.85,0c0-101,40.47-154.91,119.66-154.91Zm-419,5.38C340.42,554.51,286.61,468.64,286.61,371c0-134,100.65-243,225.39-243,108.56,0,200.84,83.22,221.25,196.37a13.93,13.93,0,0,1-27.41,4.94C687.75,229,606.63,155.85,512,155.85c-108.84,0-197.55,96.09-197.55,215.17,0,103.35,67.36,191.31,159,211.07a18.49,18.49,0,0,1-6,33.46C295.83,627.61,194,711.09,159,868.15H882.08a13.93,13.93,0,0,1,0,27.85H141.93a13.93,13.93,0,0,1-13.69-16.49C159.25,714.13,257.23,618,419.74,592.84Z"/></g></g></g></svg>