<?xml version="1.0" encoding="utf-8"?>
<!-- Generator: Adobe Illustrator 24.0.0, SVG Export Plug-In . SVG Version: 6.00 Build 0)  -->
<svg version="1.1" id="Capa_1" xmlns="http://www.w3.org/2000/svg" xmlns:xlink="http://www.w3.org/1999/xlink" x="0px" y="0px"
	 viewBox="0 0 512 512" style="enable-background:new 0 0 512 512;" xml:space="preserve">
<path d="M448.5,91.8c-0.8-15.3-13-27.5-28.4-28.4c-30.9-1.7-91.5,0-149.4,29.9c-29.5,15.3-60.7,41.1-85.6,71
	c-0.3,0.4-0.6,0.7-0.9,1.1l-56.5,4.4c-9.3,0.7-17.6,5.6-22.7,13.4l-38.6,58.3c-3.9,5.9-4.5,13.3-1.7,19.8c2.9,6.5,8.7,11,15.7,12.1
	l47.6,7.4c-0.2,0.9-0.3,1.9-0.5,2.8c-1.6,9.5,1.6,19.2,8.4,26.1l66.3,66.3c5.7,5.7,13.4,8.8,21.2,8.8c1.6,0,3.2-0.1,4.9-0.4
	c0.9-0.2,1.9-0.3,2.8-0.5l7.4,47.6c1.1,7,5.6,12.9,12.1,15.7c2.7,1.2,5.5,1.8,8.4,1.8c4,0,7.9-1.2,11.4-3.4l58.3-38.6
	c7.8-5.1,12.7-13.4,13.4-22.7l4.4-56.5c0.4-0.3,0.7-0.6,1.1-0.9c29.9-24.9,55.7-56.1,71-85.6C448.6,183.3,450.2,122.8,448.5,91.8
	L448.5,91.8z M316.3,388.1L260.5,425l-7.2-46.4c23.6-6.9,46.9-18,69.1-32.9l-2.8,36.8C319.4,384.8,318.2,386.9,316.3,388.1
	L316.3,388.1z M218.4,360L152,293.6c-1.7-1.7-2.5-4.1-2.1-6.4c2-11.8,5-23,8.8-33.6l99.5,99.5c-12.7,4.5-24.1,7.3-33.6,8.9
	C222.5,362.4,220.1,361.6,218.4,360L218.4,360z M129.5,192.4l36.8-2.8c-14.9,22.2-26,45.6-32.9,69.1L87,251.5l36.9-55.8
	C125.1,193.8,127.2,192.6,129.5,192.4z M333.2,309.5c-18.3,15.2-36,26.3-52.3,34.2L168.3,231.2c10.4-21.3,23.2-39.1,34.2-52.3
	c23.1-27.6,51.7-51.5,78.7-65.4C334.3,86,390.3,84.5,419,86c3.8,0.2,6.8,3.2,7,7c1.6,28.6,0.1,84.6-27.4,137.7
	C384.6,257.7,360.8,286.4,333.2,309.5L333.2,309.5z"/>
<path d="M327.4,241.1c14.5,0,29-5.5,40-16.5c10.7-10.7,16.6-24.9,16.6-40s-5.9-29.3-16.6-40c-22-22-57.9-22-80,0
	c-10.7,10.7-16.6,24.9-16.6,40s5.9,29.3,16.6,40C298.5,235.6,312.9,241.1,327.4,241.1L327.4,241.1z M303.4,160.6
	c6.6-6.6,15.3-9.9,24-9.9c8.7,0,17.4,3.3,24,9.9c6.4,6.4,9.9,14.9,9.9,24c0,9.1-3.5,17.6-9.9,24c-13.2,13.2-34.7,13.2-48,0
	c-6.4-6.4-9.9-14.9-9.9-24C293.5,175.5,297,167,303.4,160.6z"/>
<path d="M74.5,381.1c2.9,0,5.8-1.1,8-3.3l36.9-36.9c4.4-4.4,4.4-11.6,0-16c-4.4-4.4-11.6-4.4-16,0l-36.9,36.9
	c-4.4,4.4-4.4,11.6,0,16C68.7,380,71.6,381.1,74.5,381.1z"/>
<path d="M153.3,358.7c-4.4-4.4-11.6-4.4-16,0l-71,71c-4.4,4.4-4.4,11.6,0,16c2.2,2.2,5.1,3.3,8,3.3c2.9,0,5.8-1.1,8-3.3l71-71
	C157.7,370.3,157.7,363.1,153.3,358.7L153.3,358.7z"/>
<path d="M171.1,392.5l-36.9,36.9c-4.4,4.4-4.4,11.6,0,16c2.2,2.2,5.1,3.3,8,3.3c2.9,0,5.8-1.1,8-3.3l36.9-36.9
	c4.4-4.4,4.4-11.6,0-16C182.7,388.1,175.5,388.1,171.1,392.5z"/>
</svg>
