<svg id="Layer_1" data-name="Layer 1" xmlns="http://www.w3.org/2000/svg" viewBox="0 0 1024 1024"><title>settings</title><g id="Symbols"><g id="icon_line_settings" data-name="icon/line/settings"><g id="Icon"><path id="path-1" d="M250.73,600.29a52.37,52.37,0,0,1,10.57,73.3l-25.77,34.47a17.45,17.45,0,0,0,1.63,22.79l56,56a17.45,17.45,0,0,0,22.79,1.63l34.47-25.77a52.36,52.36,0,0,1,81.21,25.92L451,849a17.45,17.45,0,0,0,16.61,12.11h88.74A17.45,17.45,0,0,0,573,849l19.4-60.36a52.33,52.33,0,0,1,81.21-25.92l34.47,25.77a17.45,17.45,0,0,0,22.79-1.63l56-56a17.45,17.45,0,0,0,1.63-22.79L762.7,673.59a52.36,52.36,0,0,1,25.92-81.21L849,573a17.45,17.45,0,0,0,12.11-16.61V467.63A17.45,17.45,0,0,0,849,451l-60.36-19.4a52.33,52.33,0,0,1-25.92-81.21l25.77-34.47a17.45,17.45,0,0,0-1.63-22.79l-56-56a17.45,17.45,0,0,0-22.79-1.63L673.59,261.3a52.36,52.36,0,0,1-81.21-25.92L573,175a17.45,17.45,0,0,0-16.61-12.11H467.63A17.45,17.45,0,0,0,451,175l-19.4,60.36a52.33,52.33,0,0,1-81.21,25.92l-34.47-25.77a17.45,17.45,0,0,0-22.79,1.63l-56,56a17.45,17.45,0,0,0-1.63,22.79l25.77,34.47a52.36,52.36,0,0,1-25.92,81.21L175,451a17.45,17.45,0,0,0-12.11,16.61v88.74A17.45,17.45,0,0,0,175,573l60.36,19.4A52.41,52.41,0,0,1,250.73,600.29Zm-86.38,5.93A52.36,52.36,0,0,1,128,556.37V467.63a52.36,52.36,0,0,1,36.35-49.85l60.36-19.39a17.47,17.47,0,0,0,11.28-22,17.72,17.72,0,0,0-2.64-5.11l-25.78-34.47a52.36,52.36,0,0,1,4.91-68.39l56-56a52.36,52.36,0,0,1,68.39-4.91l34.47,25.78a17.46,17.46,0,0,0,27.07-8.64l19.39-60.36A52.36,52.36,0,0,1,467.63,128h88.74a52.36,52.36,0,0,1,49.85,36.35l19.39,60.36a17.47,17.47,0,0,0,22,11.28,17.72,17.72,0,0,0,5.11-2.64l34.47-25.78a52.36,52.36,0,0,1,68.39,4.91l56,56a52.36,52.36,0,0,1,4.91,68.39l-25.78,34.47a17.46,17.46,0,0,0,8.64,27.07l60.36,19.39A52.36,52.36,0,0,1,896,467.63v88.74a52.36,52.36,0,0,1-36.35,49.85l-60.36,19.39a17.47,17.47,0,0,0-11.28,22,17.72,17.72,0,0,0,2.64,5.11l25.78,34.47a52.36,52.36,0,0,1-4.91,68.39l-56,56a52.36,52.36,0,0,1-68.39,4.91l-34.47-25.78a17.46,17.46,0,0,0-27.07,8.64l-19.39,60.36A52.36,52.36,0,0,1,556.37,896H467.63a52.36,52.36,0,0,1-49.85-36.35l-19.39-60.36a17.47,17.47,0,0,0-22-11.28,17.72,17.72,0,0,0-5.11,2.64l-34.47,25.78a52.36,52.36,0,0,1-68.39-4.91l-56-56a52.36,52.36,0,0,1-4.91-68.39l25.78-34.47a17.46,17.46,0,0,0-8.64-27.07ZM598.4,598.4a122.19,122.19,0,1,1,0-172.8A122.2,122.2,0,0,1,598.4,598.4ZM450.29,450.29a87.27,87.27,0,1,0,123.42,0A87.27,87.27,0,0,0,450.29,450.29Z"/></g></g></g></svg>