<svg id="Layer_1" data-name="Layer 1" xmlns="http://www.w3.org/2000/svg" viewBox="0 0 1024 1024"><title>signout</title><g id="Symbols"><g id="icon_line_signout" data-name="icon/line/signout"><g id="Icon"><path id="path-1" d="M494.59,859.43a18.29,18.29,0,0,1,0,36.57H181.12c-30,0-53.12-27-53.12-58.92V186.92c0-32,23.1-58.92,53.12-58.92H494.59a18.29,18.29,0,0,1,0,36.57H181.12c-8.46,0-16.55,9.44-16.55,22.35V837.08c0,12.91,8.09,22.35,16.55,22.35ZM355.27,530.29a18.29,18.29,0,1,1,0-36.58H877.71a18.29,18.29,0,0,1,0,36.58ZM622.27,325a18.28,18.28,0,1,1,23.27-28.21L889.35,497.89a18.29,18.29,0,0,1,0,28.22L645.54,727.25A18.28,18.28,0,1,1,622.27,699L849,512Z"/></g></g></g></svg>