<svg width="1024" height="1024" viewBox="0 0 1024 1024" fill="none" xmlns="http://www.w3.org/2000/svg">
<g clip-path="url(#clip0)">
<path d="M762.188 698.861C762.188 714.185 762.188 726.217 762.188 738.306C761.281 798.92 724.252 837.174 662.896 838.592C610.953 839.728 558.953 838.592 506.954 838.592C463.517 838.592 420.023 838.592 376.53 838.592C298.672 838.592 263.628 803.745 263.117 726.671C263.117 718.385 263.117 710.099 263.117 698.634C210.04 698.634 159.288 697.783 108.593 698.634C68.8985 699.599 29.828 696.307 12.1923 655.273C-6.52069 611.628 -4.8195 566.111 24.1006 525.928C57.8408 479.559 107.742 459.297 162.35 451.749C228.697 442.271 293.171 450.614 348.97 490.967C369.838 506.007 385.829 527.801 404.089 546.587C438.112 542.671 475.482 535.236 512.738 535.236C549.086 535.236 585.492 542.444 624.392 546.587C699.925 450.103 821.446 419.512 933.384 472.465C994.57 501.41 1028.99 546.7 1023.43 618.155C1019.8 665.375 989.863 698.01 942.173 698.748C883.653 699.542 825.075 698.861 762.188 698.861ZM512.227 806.015C562.299 806.015 612.314 806.526 662.329 806.015C699.188 805.504 724.195 784.391 728.278 752.495C737.861 677.124 713.194 628.712 644.353 596.361C558.386 555.781 470.662 555.611 384.242 594.488C324.87 621.163 290.563 664.467 296.007 734.503C299.693 782.461 319.54 805.561 367.74 805.958C415.94 806.355 464.084 806.015 512.227 806.015ZM369.498 563.443C355.435 530.695 331.165 512.988 302.982 501.012C272.218 487.574 239.013 480.638 205.447 480.638C171.881 480.638 138.676 487.574 107.912 501.012C51.2062 524.85 31.0755 560.378 35.8388 621.106C37.9369 647.895 53.9281 664.751 81.2038 665.148C138.704 666 196.204 665.716 253.647 665.148C260.168 665.148 270.659 662.027 272.587 657.43C292.094 613.728 327.592 586.77 369.498 563.443ZM655.07 563.443C697.657 586.145 731.964 613.274 751.811 655.5C753.857 658.316 756.509 660.634 759.572 662.285C762.634 663.935 766.029 664.875 769.503 665.035C828.875 665.716 888.586 666 947.674 665.035C970.016 664.638 984.249 650.619 988.786 628.825C999.73 576.1 981.698 536.711 934.348 509.639C883.709 480.127 828.534 475.756 772.679 485.802C724.479 494.202 680.815 512.988 655.07 563.386V563.443Z" fill="black"/>
<path d="M649.853 347.943C649.641 374.404 641.612 400.211 626.777 422.114C611.942 444.018 590.964 461.04 566.484 471.037C542.005 481.034 515.117 483.56 489.207 478.296C463.296 473.033 439.52 460.215 420.872 441.456C402.224 422.697 389.537 398.837 384.409 372.877C379.281 346.918 381.94 320.02 392.052 295.57C402.164 271.12 419.277 250.211 441.237 235.474C463.196 220.737 489.021 212.831 515.46 212.752C533.166 212.752 550.698 216.253 567.048 223.056C583.398 229.858 598.243 239.827 610.732 252.389C623.22 264.952 633.105 279.861 639.819 296.259C646.533 312.657 649.943 330.222 649.853 347.943V347.943ZM617.134 348.454C617.536 334.979 615.243 321.559 610.391 308.983C605.539 296.407 598.226 284.929 588.88 275.221C579.534 265.513 568.344 257.772 555.968 252.453C543.592 247.133 530.278 244.342 516.809 244.244C503.34 244.146 489.987 246.742 477.535 251.88C465.082 257.018 453.781 264.595 444.295 274.165C434.808 283.736 427.328 295.107 422.294 307.61C417.259 320.114 414.771 333.499 414.976 346.978C414.575 360.453 416.867 373.872 421.719 386.448C426.571 399.024 433.885 410.503 443.231 420.211C452.576 429.919 463.766 437.659 476.142 442.979C488.519 448.298 501.832 451.089 515.301 451.188C528.77 451.286 542.123 448.69 554.575 443.551C567.028 438.413 578.329 430.836 587.816 421.266C597.302 411.696 604.782 400.325 609.817 387.821C614.851 375.318 617.339 361.933 617.134 348.454V348.454Z" fill="black"/>
<path d="M933.213 297.26C933.123 326.422 921.478 354.358 900.832 374.936C880.186 395.514 852.227 407.055 823.09 407.024C808.42 406.987 793.901 404.058 780.362 398.405C766.822 392.752 754.528 384.485 744.181 374.076C733.834 363.667 725.637 351.321 720.057 337.741C714.478 324.162 711.625 309.616 711.662 294.933C712.236 265.78 724.132 237.996 744.827 217.473C765.523 196.951 793.391 185.302 822.523 184.998C837.195 184.958 851.727 187.846 865.271 193.492C878.815 199.138 891.099 207.43 901.405 217.882C911.71 228.334 919.831 240.737 925.293 254.366C930.754 267.995 933.447 282.577 933.213 297.26V297.26ZM900.324 294.99C899.972 279.623 895.074 264.707 886.25 252.127C877.426 239.548 865.073 229.87 850.753 224.318C836.432 218.767 820.789 217.591 805.801 220.939C790.813 224.288 777.154 232.011 766.552 243.13C755.95 254.25 748.881 268.267 746.24 283.408C743.598 298.549 745.503 314.134 751.714 328.192C757.924 342.249 768.16 354.147 781.128 362.381C794.096 370.614 809.212 374.813 824.564 374.447C845.091 373.823 864.547 365.137 878.724 350.268C892.902 335.398 900.661 315.54 900.324 294.99V294.99Z" fill="black"/>
<path d="M97.4779 297.034C97.2437 282.357 99.9395 267.781 105.407 254.161C110.875 240.54 119.005 228.149 129.319 217.715C139.634 207.28 151.927 199.011 165.476 193.393C179.026 187.776 193.559 184.922 208.225 184.999C237.354 185.39 265.192 197.092 285.865 217.634C306.537 238.177 318.429 265.954 319.029 295.104C318.969 324.739 307.18 353.143 286.243 374.098C265.306 395.053 236.927 406.852 207.318 406.912C192.896 406.919 178.614 404.083 165.288 398.564C151.962 393.046 139.853 384.953 129.653 374.749C119.452 364.546 111.361 352.43 105.84 339.096C100.319 325.761 97.4779 311.468 97.4779 297.034V297.034ZM130.084 294.026C129.618 314.572 137.198 334.487 151.206 349.514C165.214 364.542 184.538 373.49 205.05 374.448C225.547 374.805 245.388 367.211 260.418 353.258C275.448 339.304 284.503 320.072 285.686 299.588C286.178 289.292 284.625 279 281.115 269.309C277.606 259.618 272.21 250.72 265.24 243.131C258.271 235.541 249.867 229.411 240.514 225.096C231.16 220.78 221.045 218.365 210.753 217.989C200.46 217.614 190.196 219.286 180.554 222.909C170.912 226.531 162.084 232.033 154.581 239.094C147.078 246.156 141.05 254.637 136.845 264.047C132.64 273.456 130.342 283.608 130.084 293.912V294.026Z" fill="black"/>
</g>
<defs>
<clipPath id="clip0">
<rect width="1024" height="654.161" fill="white" transform="translate(0 185)"/>
</clipPath>
</defs>
</svg>
