<svg width="1024" height="1024" viewBox="0 0 1024 1024" fill="none" xmlns="http://www.w3.org/2000/svg">
<g clip-path="url(#clip0)">
<path d="M762.188 698.418C762.188 713.728 762.188 725.75 762.188 737.828C761.281 798.391 724.252 836.611 662.896 838.028C610.953 839.162 558.953 838.028 506.954 838.028C463.517 838.028 420.023 838.028 376.529 838.028C298.672 838.028 263.627 803.211 263.117 726.204C263.117 717.925 263.117 709.645 263.117 698.191C210.04 698.191 159.288 697.34 108.593 698.191C68.8985 699.155 29.828 695.866 12.1923 654.867C-6.52069 611.26 -4.8195 565.782 24.1006 525.634C57.8408 479.305 107.742 459.061 162.35 451.519C228.696 442.049 293.171 450.385 348.97 490.703C369.838 505.73 385.829 527.505 404.089 546.275C438.112 542.362 475.482 534.934 512.738 534.934C549.086 534.934 585.492 542.135 624.392 546.275C699.925 449.874 821.446 419.31 933.384 472.217C994.57 501.137 1028.99 546.388 1023.43 617.781C1019.8 664.961 989.863 697.567 942.173 698.304C883.653 699.098 825.075 698.418 762.188 698.418ZM512.227 805.479C562.299 805.479 612.314 805.989 662.329 805.479C699.188 804.969 724.195 783.874 728.278 752.005C737.861 676.699 713.194 628.329 644.353 596.006C558.386 555.461 470.662 555.291 384.242 594.135C324.87 620.787 290.563 664.054 296.007 734.029C299.693 781.946 319.54 805.025 367.74 805.422C415.94 805.819 464.084 805.479 512.227 805.479ZM369.498 563.117C355.435 530.397 331.165 512.705 302.982 500.74C272.218 487.313 239.013 480.383 205.447 480.383C171.881 480.383 138.676 487.313 107.912 500.74C51.2062 524.557 31.0755 560.055 35.8388 620.73C37.9369 647.495 53.9281 664.337 81.2037 664.734C138.704 665.585 196.204 665.301 253.647 664.734C260.168 664.734 270.659 661.615 272.587 657.022C292.094 613.358 327.592 586.423 369.498 563.117ZM655.07 563.117C697.656 585.799 731.964 612.905 751.811 655.094C753.857 657.907 756.509 660.224 759.572 661.873C762.634 663.522 766.029 664.461 769.503 664.621C828.875 665.301 888.586 665.585 947.674 664.621C970.016 664.224 984.249 650.217 988.786 628.442C999.73 575.762 981.698 536.408 934.348 509.359C883.709 479.872 828.534 475.506 772.679 485.543C724.478 493.935 680.815 512.705 655.07 563.06V563.117Z" fill="#FE4164"/>
<path d="M649.853 347.802C649.641 374.24 641.612 400.024 626.777 421.909C611.942 443.794 590.964 460.801 566.484 470.79C542.005 480.778 515.117 483.302 489.207 478.043C463.296 472.783 439.52 459.976 420.872 441.234C402.224 422.492 389.537 398.651 384.409 372.715C379.281 346.778 381.94 319.903 392.052 295.474C402.164 271.046 419.277 250.154 441.237 235.43C463.196 220.706 489.021 212.807 515.46 212.728C533.166 212.727 550.698 216.226 567.048 223.022C583.398 229.819 598.243 239.779 610.732 252.331C623.22 264.883 633.105 279.778 639.819 296.162C646.533 312.546 649.943 330.096 649.853 347.802V347.802ZM617.134 348.312C617.536 334.849 615.243 321.441 610.391 308.876C605.539 296.311 598.226 284.842 588.88 275.142C579.534 265.443 568.344 257.709 555.968 252.394C543.592 247.079 530.278 244.291 516.809 244.192C503.34 244.094 489.987 246.688 477.535 251.822C465.082 256.956 453.781 264.526 444.295 274.088C434.808 283.65 427.328 295.011 422.294 307.504C417.259 319.997 414.771 333.37 414.976 346.838C414.575 360.301 416.867 373.709 421.719 386.274C426.571 398.839 433.885 410.308 443.231 420.007C452.576 429.707 463.766 437.441 476.142 442.756C488.519 448.071 501.832 450.859 515.301 450.957C528.77 451.055 542.123 448.461 554.575 443.328C567.028 438.194 578.329 430.624 587.816 421.062C597.302 411.5 604.782 400.139 609.817 387.646C614.851 375.153 617.339 361.78 617.134 348.312V348.312Z" fill="#FE4164"/>
<path d="M933.214 297.163C933.123 326.3 921.478 354.211 900.832 374.772C880.186 395.332 852.227 406.863 823.09 406.832C808.42 406.795 793.901 403.869 780.362 398.221C766.822 392.572 754.528 384.312 744.181 373.913C733.834 363.513 725.637 351.177 720.057 337.609C714.478 324.042 711.625 309.508 711.662 294.838C712.236 265.71 724.132 237.95 744.827 217.445C765.523 196.94 793.391 185.302 822.523 184.998C837.195 184.958 851.727 187.844 865.271 193.485C878.815 199.126 891.099 207.41 901.405 217.853C911.711 228.296 919.831 240.688 925.293 254.306C930.755 267.923 933.447 282.493 933.214 297.163V297.163ZM900.324 294.895C899.972 279.542 895.074 264.638 886.25 252.069C877.426 239.5 865.073 229.831 850.753 224.284C836.433 218.738 820.789 217.563 805.801 220.908C790.813 224.254 777.154 231.97 766.552 243.08C755.95 254.19 748.881 268.195 746.24 283.323C743.598 298.451 745.503 314.023 751.714 328.068C757.924 342.113 768.16 354.001 781.128 362.227C794.096 370.454 809.212 374.649 824.564 374.283C845.091 373.66 864.547 364.982 878.725 350.125C892.902 335.268 900.661 315.428 900.324 294.895V294.895Z" fill="#FE4164"/>
<path d="M97.4779 296.937C97.2437 282.273 99.9395 267.71 105.407 254.101C110.875 240.492 119.005 228.112 129.319 217.686C139.634 207.261 151.927 198.999 165.476 193.386C179.026 187.773 193.559 184.922 208.225 184.999C237.354 185.39 265.192 197.081 285.865 217.606C306.537 238.131 318.429 265.884 319.029 295.009C318.969 324.618 307.18 352.998 286.243 373.935C265.306 394.872 236.927 406.66 207.318 406.72C192.896 406.728 178.614 403.894 165.288 398.38C151.962 392.866 139.853 384.781 129.653 374.586C119.452 364.39 111.361 352.286 105.84 338.962C100.319 325.639 97.4779 311.359 97.4779 296.937V296.937ZM130.084 293.932C129.618 314.46 137.198 334.358 151.206 349.372C165.214 364.386 184.538 373.327 205.05 374.284C225.547 374.641 245.388 367.054 260.418 353.112C275.448 339.171 284.503 319.955 285.686 299.489C286.178 289.202 284.625 278.919 281.115 269.236C277.606 259.553 272.21 250.663 265.241 243.08C258.271 235.498 249.867 229.373 240.514 225.061C231.16 220.749 221.045 218.336 210.753 217.961C200.46 217.586 190.196 219.256 180.554 222.876C170.912 226.495 162.084 231.992 154.581 239.048C147.078 246.103 141.05 254.577 136.845 263.978C132.64 273.38 130.342 283.522 130.084 293.818V293.932Z" fill="#FE4164"/>
</g>
<defs>
<clipPath id="clip0">
<rect width="1024" height="653.595" fill="white" transform="translate(0 185)"/>
</clipPath>
</defs>
</svg>
