<?xml version="1.0" encoding="UTF-8"?>
<svg width="60px" height="60px" viewBox="0 0 60 60" version="1.1" xmlns="http://www.w3.org/2000/svg" xmlns:xlink="http://www.w3.org/1999/xlink">
    <!-- Generator: Sketch 54.1 (76490) - https://sketchapp.com -->
    <title>small_dog</title>
    <desc>Created with Sketch.</desc>
    <g id="small_dog" stroke="none" stroke-width="1" fill="none" fill-rule="evenodd">
        <g id="dachshund" transform="translate(30.000000, 30.000000) scale(-1, 1) translate(-30.000000, -30.000000) translate(5.000000, 15.000000)" fill="#000000" fill-rule="nonzero">
            <path d="M49.9100207,3.43409091 C50.0230372,3.6678719 50.0114669,3.9428719 49.8789256,4.16621901 L48.961157,5.71497934 C48.021281,7.30072314 46.2910124,8.23264463 44.4527893,8.14793388 L43.6214876,8.10950413 C43.2644628,8.0928719 42.9325413,8.30072314 42.790186,8.62613636 L42.4538223,9.39483471 C42.0021694,10.4274793 41.2868802,11.311157 40.3758264,11.9664256 L39.1920455,16.0815083 C38.1090909,19.8456612 35.2661157,22.8617769 31.5777893,24.168595 C31.4835744,24.8019628 31.4255165,25.4376033 31.4496901,25.8991736 C31.6400826,25.9474174 31.8489669,25.9905992 32.075,26.0283058 C33.0433884,26.1896694 33.7203512,27.0774793 33.616219,28.0494835 C33.5207645,28.9417355 32.7719008,29.6146694 31.8743802,29.6146694 L29.3804752,29.6146694 C28.569938,29.6146694 27.8657025,29.0661157 27.6676653,28.2806818 C27.4544421,27.4354339 27.1366736,26.0159091 26.9518595,24.4509298 C25.2307851,24.4240702 23.9645661,23.9504132 21.5367769,23.0421488 C20.8248967,22.7758264 20.0181818,22.4739669 19.0612603,22.1311983 C15.3307851,20.794938 10.7988636,20.3372934 9.39535124,20.2221074 C8.68491736,21.252686 7.86797521,22.2100207 6.95495868,23.0737603 C6.59483471,23.4143595 6.48739669,23.943905 6.68440083,24.3972107 L7.60020661,26.1366736 L7.81838843,26.1366736 C8.81838843,26.1366736 9.62964876,26.9195248 9.66549587,27.918905 C9.68150826,28.3670455 9.51890496,28.7915289 9.20754132,29.1142562 C8.89617769,29.4369835 8.47768595,29.6146694 8.02923554,29.6146694 L4.85971074,29.6146694 C4.64969008,29.6146694 4.44876033,29.5294421 4.30278926,29.3785124 C4.15681818,29.2275826 4.07840909,29.0238636 4.08533058,28.8140496 C4.13512397,27.3202479 2.74793388,24.7988636 2.20919421,23.9534091 C2.02190083,23.6594008 2.05371901,23.2761364 2.2875,23.0174587 L3.26735537,21.9326446 C3.61167355,21.5514463 3.68646694,21.0084711 3.45785124,20.5492769 C2.45082645,18.5267562 1.91002066,16.8959711 1.66487603,15.585124 C1.61549587,16.3464876 1.74783058,17.193905 2.18409091,18.1063017 C2.69834711,19.1818182 2.91849174,20.2629132 2.83863636,21.3196281 C2.80785124,21.7264463 2.46818182,22.0360537 2.06683884,22.0360537 C2.04731405,22.0360537 2.02747934,22.0353306 2.00764463,22.033781 C1.58088843,22.0015496 1.26115702,21.6294421 1.29349174,21.2027893 C1.35268595,20.4197314 1.18202479,19.6028926 0.786053719,18.7748967 C-0.172004132,16.7711777 -0.12107438,14.6877066 0.93357438,12.7495868 C1.60464876,11.5164256 2.48367769,10.7182851 2.74214876,10.4988636 C3.34783058,9.80506198 4.15454545,9.23367769 5.15495868,8.79194215 C6.59907025,8.15423554 8.22902893,7.91694215 9.86869835,8.10599174 C13.5887397,8.53460744 22.4989669,9.57355372 24.8879132,9.9625 C26.9785124,10.3027893 30.2305785,8.78047521 31.5450413,8.03719008 C32.0862603,6.98192149 34.5261364,2.41983471 37.0219008,0.843491736 C39.9922521,-1.03264463 43.5161157,0.876239669 43.6646694,0.958367769 C43.8527893,1.06239669 43.9891529,1.23987603 44.0413223,1.44845041 C44.1732438,1.97582645 44.606405,2.36394628 45.1452479,2.43708678 L49.3167355,3.0036157 C49.5741736,3.03863636 49.7969008,3.20020661 49.9100207,3.43409091 Z" id="Shape"></path>
        </g>
    </g>
</svg>