<svg width="36px" height="36px" viewBox="0 0 36 36" version="1.1" xmlns="http://www.w3.org/2000/svg" xmlns:xlink="http://www.w3.org/1999/xlink">
    <title>speaker</title>
    <defs>
        <path d="M29.0562267,13.9998087 L29.047567,13.970943 C28.2681918,11.289315 27.1684068,8.96562235 26.0253232,7.37511967 C24.778323,5.64317483 23.427406,4.73967693 22.2439103,5.06585988 L22.2294775,5.06585988 C21.9157789,5.15967356 21.6314513,5.33265155 21.4039171,5.56812388 L4.66178359,16.3004088 C4.01208778,16.6861273 3.46695814,17.2252673 3.07416748,17.8707054 C2.85716923,18.2522384 2.74560311,18.6845752 2.75087111,19.1234789 L2.19664876,19.2851271 C1.76048732,19.4114869 1.3927377,19.706567 1.1748013,20.1049143 C0.652331275,21.0834631 1.38840783,23.2541673 2.23128766,23.7073596 C2.62797519,23.9260176 3.09523948,23.9779038 3.53024629,23.8516883 L4.07869549,23.6929267 C4.30911632,24.0803772 4.64164973,24.3968901 5.03992488,24.6079709 C5.71682666,24.9414424 6.46509899,25.1039566 7.21928881,25.0813691 L9.20525223,25.0813691 L10.6831785,30.1819467 C11.0069079,31.3030923 12.1782799,31.9495407 13.2994255,31.6258114 C13.300075,31.6255949 13.3007245,31.6254506 13.3013018,31.6252341 C14.4129939,31.3010717 15.0566279,30.1424728 14.7445892,29.0273168 L13.6101653,25.1073483 L27.0904693,25.1708529 C27.4107348,25.2493678 27.7459383,25.2433781 28.063245,25.1535335 C29.2467407,24.8100311 29.9135394,23.3147854 30.0376621,21.1729469 C30.1502385,19.224509 29.8327153,16.6785501 29.0562267,13.9998087 Z M3.22138279,22.7865422 C3.0684665,22.830346 2.90443689,22.8116554 2.76530399,22.7345839 C2.47664651,22.5815954 1.91665101,21.0892363 2.15912329,20.6475903 C2.22717429,20.5144471 2.34249295,20.4115407 2.48241966,20.3589329 L2.56324375,20.3358403 L2.99045682,20.2117175 L3.69766763,22.6479866 L3.22138279,22.7865422 Z M13.6621236,29.2524696 C13.6674638,29.2819127 13.6751854,29.3108506 13.6852162,29.3390669 C13.8073905,29.8467432 13.5237124,30.3641617 13.0299638,30.5341088 L12.9549128,30.5572014 C12.4324428,30.6841385 11.9021068,30.3796049 11.7483246,29.8644235 L10.3627687,25.095802 L12.458422,25.095802 L13.6621236,29.2524696 Z M7.22506196,23.9700379 C6.65554076,23.992048 6.08905047,23.8762242 5.57394121,23.6323086 C5.24133563,23.4589698 4.99489431,23.1560959 4.89270957,22.7952019 L3.93148018,19.4843007 C3.8251099,19.1249943 3.87100644,18.7378325 4.05848947,18.4133815 C4.36273445,17.9319008 4.7786177,17.5308834 5.27085086,17.2443187 L20.4686669,7.49346924 C20.353276,8.00605275 20.2818333,8.52751247 20.2550603,9.0522196 C20.1424839,11.0064307 20.4628937,13.5581628 21.2422689,16.2455638 C22.0216441,18.9329649 23.1214291,21.2624307 24.2673992,22.8529334 C24.5714999,23.281229 24.9113941,23.682968 25.2834735,24.0537485 L7.22506196,23.9700379 Z M22.3218479,15.9338138 C22.0620561,15.090934 21.8628825,14.2596004 21.709894,13.4600192 L22.8327716,13.1511557 C24.0947099,12.8120554 25.3939572,13.5544102 25.7424389,14.8138228 C26.0815393,16.0757611 25.3391844,17.3750084 24.0797719,17.7234901 L23.0030795,18.0121476 L23.0030795,17.9775087 C22.7577206,17.3280294 22.5267947,16.6439112 22.3218479,15.9338138 Z M28.932104,21.1123289 L28.9263309,21.1152154 C28.8310739,22.7692228 28.42984,23.8921003 27.7514949,24.091274 C27.0731499,24.2904477 26.1321265,23.5543711 25.1535777,22.2092273 C24.4680162,21.22173 23.8875982,20.1652437 23.4216328,19.0570876 L24.3684293,18.7972959 C26.2182186,18.288465 27.3086222,16.3800061 26.807585,14.5280519 C26.298754,12.6782626 24.3902951,11.587859 22.538341,12.0888962 L21.5280398,12.3775537 C21.3668968,11.296315 21.3117632,10.2019423 21.363505,9.10995109 C21.458762,7.48192294 21.845563,6.37059166 22.5181349,6.14543883 L22.5902993,6.12523281 C23.2686444,5.96358462 24.1923483,6.70254776 25.1420314,8.01882584 C26.2187238,9.51407155 27.2550041,11.7194147 27.9997404,14.2855796 C28.7329303,16.8632908 29.0389073,19.2764673 28.932104,21.1123289 Z M31.9854876,13.124535 L34.5585262,12.4350914 C34.816899,12.3658607 35.0824741,12.5191905 35.1517048,12.7775632 C35.2209356,13.035936 35.0676057,13.3015111 34.809233,13.3707418 L32.2361944,14.0601855 C31.9778217,14.1294162 31.7122465,13.9760864 31.6430158,13.7177136 C31.573785,13.4593409 31.7271149,13.1937658 31.9854876,13.124535 Z M29.5845107,8.72212695 L31.4681057,6.83853194 C31.6572476,6.64938997 31.9639074,6.64938997 32.1530493,6.83853194 C32.3421913,7.0276739 32.3421913,7.33433361 32.1530493,7.52347558 L30.2694543,9.40707059 C30.0803123,9.59621255 29.7736526,9.59621255 29.5845107,9.40707059 C29.3953687,9.21792863 29.3953687,8.91126891 29.5845107,8.72212695 Z M32.5280652,17.8363214 L35.1011039,18.525765 C35.3594766,18.5949958 35.5128065,18.8605709 35.4435757,19.1189436 C35.3743449,19.3773163 35.1087698,19.5306462 34.8503971,19.4614154 L32.2773585,18.7719718 C32.0189857,18.702741 31.8656559,18.4371659 31.9348867,18.1787932 C32.0041174,17.9204205 32.2696925,17.7670906 32.5280652,17.8363214 Z" id="path-1"></path>
    </defs>
    <g id="icon/line/speaker" stroke="none" stroke-width="1" fill="none" fill-rule="evenodd">
        <mask id="mask-2" fill="white">
            <use xlink:href="#path-1"></use>
        </mask>
        <use id="Shape" fill="#000000" fill-rule="nonzero" transform="translate(18.230100, 18.354645) rotate(9.000000) translate(-18.230100, -18.354645) " xlink:href="#path-1"></use>
    </g>
</svg>