<?xml version="1.0" encoding="UTF-8" standalone="no"?>
<!DOCTYPE svg PUBLIC "-//W3C//DTD SVG 1.1//EN" "http://www.w3.org/Graphics/SVG/1.1/DTD/svg11.dtd">
<svg width="100%" height="100%" viewBox="0 0 36 36" version="1.1" xmlns="http://www.w3.org/2000/svg" xmlns:xlink="http://www.w3.org/1999/xlink" xml:space="preserve" xmlns:serif="http://www.serif.com/" style="fill-rule:evenodd;clip-rule:evenodd;stroke-linejoin:round;stroke-miterlimit:2;">
    <g transform="matrix(0.987688,0.156434,-0.156434,0.987688,3.09574,-2.62584)">
        <g id="icon-line-speaker" serif:id="icon/line/speaker">
            <path id="Shape" d="M29.056,14L29.048,13.971C28.268,11.289 27.168,8.966 26.025,7.375C24.778,5.643 23.427,4.74 22.244,5.066L22.229,5.066C21.916,5.16 21.631,5.333 21.404,5.568L4.662,16.3C4.012,16.686 3.467,17.225 3.074,17.871C2.857,18.252 2.746,18.685 2.751,19.123L2.197,19.285C1.76,19.411 1.393,19.707 1.175,20.105C0.652,21.083 1.388,23.254 2.231,23.707C2.628,23.926 3.095,23.978 3.53,23.852L4.079,23.693C4.309,24.08 4.642,24.397 5.04,24.608C5.717,24.941 6.465,25.104 7.219,25.081L9.205,25.081L10.683,30.182C11.007,31.303 12.178,31.95 13.299,31.626C13.3,31.626 13.301,31.625 13.301,31.625C14.413,31.301 15.057,30.142 14.745,29.027L13.61,25.107L27.09,25.171C27.411,25.249 27.746,25.243 28.063,25.154C29.247,24.81 29.914,23.315 30.038,21.173C30.15,19.225 29.833,16.679 29.056,14ZM3.221,22.787C3.068,22.83 2.904,22.812 2.765,22.735C2.477,22.582 1.917,21.089 2.159,20.648C2.227,20.514 2.342,20.412 2.482,20.359L2.563,20.336L2.99,20.212L3.698,22.648L3.221,22.787ZM13.662,29.252C13.667,29.282 13.675,29.311 13.685,29.339C13.807,29.847 13.524,30.364 13.03,30.534L12.955,30.557C12.432,30.684 11.902,30.38 11.748,29.864L10.363,25.096L12.458,25.096L13.662,29.252ZM7.225,23.97C6.656,23.992 6.089,23.876 5.574,23.632C5.241,23.459 4.995,23.156 4.893,22.795L3.931,19.484C3.825,19.125 3.871,18.738 4.058,18.413C4.363,17.932 4.779,17.531 5.271,17.244L20.469,7.493C20.353,8.006 20.282,8.528 20.255,9.052C20.142,11.006 20.463,13.558 21.242,16.246C22.022,18.933 23.121,21.262 24.267,22.853C24.571,23.281 24.911,23.683 25.283,24.054L7.225,23.97ZM22.322,15.934C22.062,15.091 21.863,14.26 21.71,13.46L22.833,13.151C24.095,12.812 25.394,13.554 25.742,14.814C26.082,16.076 25.339,17.375 24.08,17.723L23.003,18.012L23.003,17.978C22.758,17.328 22.527,16.644 22.322,15.934ZM28.932,21.112L28.926,21.115C28.831,22.769 28.43,23.892 27.751,24.091C27.073,24.29 26.132,23.554 25.154,22.209C24.468,21.222 23.888,20.165 23.422,19.057L24.368,18.797C26.218,18.288 27.309,16.38 26.808,14.528C26.299,12.678 24.39,11.588 22.538,12.089L21.528,12.378C21.367,11.296 21.312,10.202 21.364,9.11C21.459,7.482 21.846,6.371 22.518,6.145L22.59,6.125C23.269,5.964 24.192,6.703 25.142,8.019C26.219,9.514 27.255,11.719 28,14.286C28.733,16.863 29.039,19.276 28.932,21.112ZM31.985,13.125L34.559,12.435C34.817,12.366 35.082,12.519 35.152,12.778C35.221,13.036 35.068,13.302 34.809,13.371L32.236,14.06C31.978,14.129 31.712,13.976 31.643,13.718C31.574,13.459 31.727,13.194 31.985,13.125ZM29.585,8.722L31.468,6.839C31.657,6.649 31.964,6.649 32.153,6.839C32.342,7.028 32.342,7.334 32.153,7.523L30.269,9.407C30.08,9.596 29.774,9.596 29.585,9.407C29.395,9.218 29.395,8.911 29.585,8.722ZM32.528,17.836L35.101,18.526C35.359,18.595 35.513,18.861 35.444,19.119C35.374,19.377 35.109,19.531 34.85,19.461L32.277,18.772C32.019,18.703 31.866,18.437 31.935,18.179C32.004,17.92 32.27,17.767 32.528,17.836Z" style="fill:rgb(254,65,100);fill-rule:nonzero;"/>
        </g>
    </g>
</svg>
