<svg width="64" height="64" viewBox="0 0 64 64" fill="none" xmlns="http://www.w3.org/2000/svg">
<path fill-rule="evenodd" clip-rule="evenodd" d="M32 3.01465C30.472 3.32294 28.0335 8.38799 25.8314 12.9618C24.1712 16.4101 22.6455 19.5791 21.7458 20.22C20.846 20.8609 17.3451 21.2724 13.5357 21.7201C8.31604 22.3336 2.51718 23.0152 2.0374 24.4483C1.55762 25.8814 5.78278 29.9004 9.58595 33.5179C12.3615 36.1581 14.9123 38.5844 15.2455 39.6358C15.5787 40.6872 14.8893 44.1347 14.1391 47.886C13.1113 53.0261 11.9693 58.7365 13.1878 59.6344C14.4063 60.5323 19.5448 57.7669 24.1701 55.2778C27.5457 53.4612 30.6479 51.7917 31.7536 51.8006C31.8272 51.8012 31.9095 51.8094 32 51.8247V3.01465Z" fill="url(#paint0_linear)"/>
<path d="M39.2806 55.3996C43.865 57.9628 48.9581 60.8104 50.1909 59.9323C51.4237 59.0541 50.3744 53.3261 49.4298 48.1702C48.7404 44.4073 48.1069 40.9491 48.4571 39.9032C48.8072 38.8574 51.397 36.4724 54.2149 33.8772C58.0761 30.3213 62.3658 26.3708 61.9092 24.9302C61.4527 23.4896 55.6657 22.7148 50.4566 22.0174C46.6549 21.5084 43.1611 21.0406 42.2719 20.3853C41.3827 19.7301 39.9084 16.5369 38.3042 13.0623C36.1061 8.30137 33.6642 3.01221 32.1492 3.00002C32.1007 2.99963 32.0512 3.00462 32.0007 3.01481V51.8247C31.9102 51.8094 32.0743 51.8252 32.0007 51.8247C33.1064 51.8336 35.9348 53.5289 39.2806 55.3996Z" fill="#C4C4C4"/>
<defs>
<linearGradient id="paint0_linear" x1="1.99999" y1="31.4111" x2="32" y2="31.4111" gradientUnits="userSpaceOnUse">
<stop stop-color="#FCD635"/>
<stop offset="1" stop-color="#F7A928"/>
</linearGradient>
</defs>
</svg>
