<svg width="64" height="64" viewBox="0 0 64 64" fill="none" xmlns="http://www.w3.org/2000/svg">
<path d="M50.1902 59.9323C48.0576 61.4513 34.3742 51.8219 31.7536 51.8008C29.1329 51.7797 15.2955 61.1877 13.1878 59.6345C11.0801 58.0814 16.0352 42.128 15.2455 39.636C14.4558 37.144 1.20747 26.9274 2.0374 24.4484C2.86733 21.9695 19.6132 21.7392 21.7458 20.2202C23.8783 18.7011 29.5278 2.97893 32.1484 3.00002C34.7691 3.02111 40.1635 18.8322 42.2712 20.3853C44.3789 21.9385 61.1188 22.4383 61.9085 24.9302C62.6982 27.4222 49.2863 37.4243 48.4563 39.9032C47.6264 42.3822 52.3227 58.4132 50.1902 59.9323Z" fill="url(#paint0_linear)"/>
<defs>
<linearGradient id="paint0_linear" x1="1.99999" y1="31.5474" x2="61.942" y2="31.5474" gradientUnits="userSpaceOnUse">
<stop stop-color="#FCD635"/>
<stop offset="1" stop-color="#F7A928"/>
</linearGradient>
</defs>
</svg>
