<svg id="Layer_1" data-name="Layer 1" xmlns="http://www.w3.org/2000/svg" viewBox="0 0 1024 1024"><title>switch</title><g id="Symbols"><g id="icon_line_switch" data-name="icon/line/switch"><g id="Icon"><path id="path-1" d="M146.21,297.24a13.21,13.21,0,0,1,0-26.42H607.84c.61,0,1.86,0,6.21-.15,44.93-1.12,89.29,3,135,18.22C840.35,319.43,896,385.72,896,495.59a13.21,13.21,0,0,1-26.41,0c0-97.64-47.68-154.49-128.9-181.64-42.16-14.1-83.8-17.92-125.93-16.87-4.18.11-5.85.16-6.87.16Zm211,116.8a13.21,13.21,0,1,1-15,21.71L138.75,294.89a13.21,13.21,0,0,1,0-21.72L342.12,132.31a13.21,13.21,0,1,1,15,21.71L169.46,284ZM879.75,728.72a13.21,13.21,0,0,1,0,26.41H455.09c-.6,0-2,0-6.71.16-50.12,1.13-100.79-3-152.58-18.4C192.89,706.34,130,640.25,130,530.37a13.21,13.21,0,1,1,26.42,0c0,96.71,54.21,153.68,146.89,181.2C351.93,726,400.18,730,447.78,728.88c4.56-.12,6.33-.16,7.31-.16Zm-207.9-116.8a13.21,13.21,0,0,1,15-21.72L890.27,731.07a13.21,13.21,0,0,1,0,21.71L686.89,893.65a13.21,13.21,0,0,1-15-21.72l187.7-130Z"/></g></g></g></svg>