<?xml version="1.0" encoding="UTF-8"?>
<svg width="48px" height="48px" viewBox="0 0 48 48" version="1.1" xmlns="http://www.w3.org/2000/svg" xmlns:xlink="http://www.w3.org/1999/xlink">
    <!-- Generator: Sketch 54.1 (76490) - https://sketchapp.com -->
    <title>t1</title>
    <desc>Created with Sketch.</desc>
    <defs>
        <path d="M29.3518662,25.0623561 L32.3815722,29.788544 C32.8842493,30.5730443 33.1161885,31.4788437 33.0522347,32.4085192 C32.9882809,33.3379815 32.634403,34.2037031 32.0289734,34.9118852 C31.4231175,35.6200672 30.6228419,36.1039845 29.7144844,36.3114081 C29.3945021,36.3843155 29.0715353,36.4207692 28.750487,36.4207692 C28.1599801,36.4207692 27.5748025,36.2979778 27.0224546,36.0551664 C24.8808541,35.1133398 22.4269458,35.1050258 20.2800157,36.0304376 L20.2243759,36.0551664 C19.3712318,36.4301491 18.4400641,36.5186185 17.5317066,36.3111949 C16.6233491,36.1035582 15.8230735,35.6196409 15.2174307,34.9114588 C14.6122143,34.2030636 14.2585496,33.3375551 14.194809,32.4080928 C14.1310684,31.4788437 14.3630076,30.5730443 14.8656847,29.7887572 L17.8953907,25.0623561 C19.1525098,23.1008922 21.2941103,21.9296845 23.6235219,21.9296845 C25.9531466,21.9296845 28.094534,23.1008922 29.3518662,25.0623561 Z M30.7842188,33.8472671 C31.5544361,32.946584 31.6422659,31.6707052 31.0025145,30.672386 L27.9730217,25.9461981 C27.018191,24.4569266 25.3922715,23.5677552 23.6235219,23.5677552 C21.8547721,23.5677552 20.2290658,24.4569266 19.2744484,25.9461981 L16.2445292,30.6725991 C15.6049909,31.670492 15.6926077,32.9461577 16.4623986,33.8472671 C17.224515,34.738144 18.4528549,35.0265757 19.5296242,34.5712245 L19.566291,34.5550228 C20.8551738,33.9883919 22.2393479,33.7050764 23.6228823,33.7050764 C25.0076959,33.7050764 26.3920831,33.9886051 27.6818186,34.5558756 C28.7669018,35.0329711 30.0135751,34.7481634 30.7842188,33.8472671 Z M15.6817355,25.0561739 C15.3137878,25.1979383 14.9330494,25.2653029 14.5533768,25.2653029 C13.0664503,25.2653029 11.5957255,24.232875 10.9651407,22.5973625 C10.1757373,20.542526 11.0064975,18.305421 12.8168172,17.6093902 C13.7166476,17.2625473 14.711556,17.3427028 15.6173553,17.8349341 C16.4792397,18.3037156 17.1601348,19.0967431 17.5344779,20.0682018 C17.9086078,21.0402999 17.9352552,22.0853055 17.6099434,23.0109306 C17.2677904,23.9836683 16.5830581,24.7099706 15.6817355,25.0561739 Z M12.4936372,22.0089872 C12.960287,23.2187805 14.1265916,23.9003151 15.0933603,23.5276775 L15.094213,23.5272511 C15.539758,23.3560681 15.8844691,22.9795932 16.0646057,22.4675362 C16.2611572,21.9087929 16.2402656,21.2658437 16.0059814,20.6567901 C15.771484,20.0481629 15.355571,19.5569975 14.8349868,19.2741084 C14.5454892,19.1165688 14.244693,19.0370528 13.9534899,19.0370528 C13.7648261,19.0370528 13.5799995,19.070522 13.4051924,19.1378867 C12.4371446,19.510098 12.0284797,20.7981281 12.4936372,22.0089872 Z M21.5603714,21.3532473 C19.2974718,21.3532473 17.4564542,19.2555618 17.4564542,16.6771566 C17.4564542,14.0981119 19.2974718,12 21.5603714,12 C23.8234841,12 25.6647148,14.0981119 25.6647148,16.6771566 C25.6647148,19.2555618 23.8234841,21.3532473 21.5603714,21.3532473 Z M21.5603714,13.6378575 C20.2004998,13.6378575 19.0943117,15.0013532 19.0943117,16.6771566 C19.0943117,18.3523206 20.2004998,19.7153898 21.5603714,19.7153898 C22.9202429,19.7153898 24.0268573,18.3523206 24.0268573,16.6771566 C24.0268573,15.0013532 22.9202429,13.6378575 21.5603714,13.6378575 Z M28.6485873,22.5020712 C26.6764644,21.8463313 25.6781451,19.4889932 26.4232073,17.2471984 C26.7760192,16.1844989 27.4671469,15.2985252 28.3691091,14.7521464 C29.3132807,14.1803992 30.3729957,14.0448171 31.3523419,14.3701289 C32.3316882,14.695867 33.098921,15.4385841 33.5129154,16.4616322 C33.9085764,17.4390599 33.931813,18.5627286 33.5783615,19.625428 C32.9646179,21.4715619 31.3561792,22.672828 29.7057441,22.672828 C29.3520794,22.672828 28.9969225,22.6176145 28.6488005,22.5020712 L28.6485873,22.5020712 Z M27.9774985,17.7637321 C27.5172441,19.1485457 28.0501926,20.5768478 29.1653342,20.94778 C30.2813285,21.3184991 31.5638159,20.4934947 32.0240703,19.1086811 C32.2549436,18.4147821 32.2442846,17.6929566 31.9946516,17.0760153 C31.7635651,16.5051208 31.3521288,16.0962427 30.8358082,15.92442 C30.3192744,15.7528106 29.7445427,15.834032 29.2177763,16.1531616 C28.6483741,16.4980859 28.2079454,17.0698331 27.9774985,17.7637321 Z M37.2919471,21.9563319 C38.8505019,23.1104854 39.0547278,25.4880755 37.7472984,27.256612 C36.9144063,28.3809203 35.6681594,28.9923189 34.4703042,28.9923189 C33.7830138,28.9923189 33.1114986,28.7910775 32.5431622,28.3700482 C30.9848206,27.216321 30.7803816,24.8387309 32.087811,23.0701944 C33.3965195,21.3025106 35.730621,20.802818 37.2913076,21.9556924 L37.2919471,21.9563319 Z M36.4309154,26.2821688 C37.2009195,25.240361 37.150396,23.8905088 36.3179303,23.2731412 C36.0373862,23.0657177 35.7035472,22.9672288 35.3547857,22.9672288 C34.6651503,22.9672288 33.9168904,23.3522308 33.4046203,24.0442112 C32.6339767,25.0866586 32.6847134,26.4369371 33.5178186,27.0536652 C34.3515633,27.671246 35.65814,27.3252558 36.4309154,26.2821688 Z M10.6666667,6.66666667 C8.45752767,6.66666667 6.66666667,8.45752767 6.66666667,10.6666667 L6.66666667,37.3333333 C6.66666667,39.5424723 8.45752767,41.3333333 10.6666667,41.3333333 L37.3333333,41.3333333 C39.5424723,41.3333333 41.3333333,39.5424723 41.3333333,37.3333333 L41.3333333,10.6666667 C41.3333333,8.45752767 39.5424723,6.66666667 37.3333333,6.66666667 L10.6666667,6.66666667 Z M10.6666667,5.33333333 L37.3333333,5.33333333 C40.278852,5.33333333 42.6666667,7.721148 42.6666667,10.6666667 L42.6666667,37.3333333 C42.6666667,40.278852 40.278852,42.6666667 37.3333333,42.6666667 L10.6666667,42.6666667 C7.721148,42.6666667 5.33333333,40.278852 5.33333333,37.3333333 L5.33333333,10.6666667 C5.33333333,7.721148 7.721148,5.33333333 10.6666667,5.33333333 Z" id="path-1"></path>
    </defs>
    <g id="t1" stroke="none" stroke-width="1" fill="none" fill-rule="evenodd">
        <g id="icon/line/postjob">
            <mask id="mask-2" fill="white">
                <use xlink:href="#path-1"></use>
            </mask>
            <use id="Combined-Shape" fill="#000000" fill-rule="evenodd" xlink:href="#path-1"></use>
            <g id="color/secondary" mask="url(#mask-2)" fill="#888888" fill-rule="evenodd">
                <polygon id="Shape" points="0 0 48 0 48 48 0 48"></polygon>
            </g>
        </g>
    </g>
</svg>