<?xml version="1.0" encoding="UTF-8"?>
<svg width="48px" height="48px" viewBox="0 0 48 48" version="1.1" xmlns="http://www.w3.org/2000/svg" xmlns:xlink="http://www.w3.org/1999/xlink">
    <!-- Generator: Sketch 54.1 (76490) - https://sketchapp.com -->
    <title>t2</title>
    <desc>Created with Sketch.</desc>
    <defs>
        <path d="M7.66666667,9.33333333 L11.6666667,9.33333333 C13,9.33333333 13,12 11.6666667,12 L7.66666667,12 C6.33333333,12 6.33333333,9.33333333 7.66666667,9.33333333 Z M7.66666667,36 L11.6666667,36 C13,36 13,38.6666667 11.6666667,38.6666667 L7.66666667,38.6666667 C6.33333333,38.6666667 6.33333333,36 7.66666667,36 Z M7.66666667,22.6666667 L11.6666667,22.6666667 C13,22.6666667 13,25.3333333 11.6666667,25.3333333 L7.66666667,25.3333333 C6.33333333,25.3333333 6.33333333,22.6666667 7.66666667,22.6666667 Z M17,9.33333333 L41,9.33333333 C42.3333333,9.33333333 42.3333333,12 41,12 L17,12 C15.6666667,12 15.6666667,9.33333333 17,9.33333333 Z M17,36 L41,36 C42.3333333,36 42.3333333,38.6666667 41,38.6666667 L17,38.6666667 C15.6666667,38.6666667 15.6666667,36 17,36 Z M17,22.6666667 L41,22.6666667 C42.3333333,22.6666667 42.3333333,25.3333333 41,25.3333333 L17,25.3333333 C15.6666667,25.3333333 15.6666667,22.6666667 17,22.6666667 Z" id="path-1"></path>
    </defs>
    <g id="t2" stroke="none" stroke-width="1" fill="none" fill-rule="evenodd">
        <g id="icon/line/list">
            <mask id="mask-2" fill="white">
                <use xlink:href="#path-1"></use>
            </mask>
            <use id="Combined-Shape" fill="#000000" fill-rule="nonzero" xlink:href="#path-1"></use>
            <g id="color/secondary" mask="url(#mask-2)" fill="#888888" fill-rule="evenodd">
                <polygon id="Shape" points="0 0 48 0 48 48 0 48"></polygon>
            </g>
        </g>
    </g>
</svg>