<?xml version="1.0" encoding="UTF-8"?>
<svg width="48px" height="48px" viewBox="0 0 48 48" version="1.1" xmlns="http://www.w3.org/2000/svg" xmlns:xlink="http://www.w3.org/1999/xlink">
    <!-- Generator: Sketch 54.1 (76490) - https://sketchapp.com -->
    <title>t3</title>
    <desc>Created with Sketch.</desc>
    <defs>
        <path d="M31.7164319,30.5169846 L42.4029623,41.2035149 C43.2025938,42.0031465 42.0031465,43.2025938 41.2035149,42.4029623 L30.5169846,31.7164319 C29.717353,30.9168003 30.9168003,29.717353 31.7164319,30.5169846 Z M20.4301778,33.8307477 C27.8311082,33.8307477 33.8307477,27.8311082 33.8307477,20.4301778 C33.8307477,13.0292475 27.8311082,7.029608 20.4301778,7.029608 C13.0292475,7.029608 7.029608,13.0292475 7.029608,20.4301778 C7.029608,27.8311082 13.0292475,33.8307477 20.4301778,33.8307477 Z M20.4301778,35.5270223 C12.0924208,35.5270223 5.33333333,28.7679348 5.33333333,20.4301778 C5.33333333,12.0924208 12.0924208,5.33333333 20.4301778,5.33333333 C28.7679348,5.33333333 35.5270223,12.0924208 35.5270223,20.4301778 C35.5270223,28.7679348 28.7679348,35.5270223 20.4301778,35.5270223 Z" id="path-1"></path>
    </defs>
    <g id="t3" stroke="none" stroke-width="1" fill="none" fill-rule="evenodd">
        <g id="icon/line/explore">
            <mask id="mask-2" fill="white">
                <use xlink:href="#path-1"></use>
            </mask>
            <use id="Icon" fill="#000000" fill-rule="nonzero" xlink:href="#path-1"></use>
            <g id="color/secondary" mask="url(#mask-2)" fill="#888888" fill-rule="evenodd">
                <polygon id="Shape" points="0 0 48 0 48 48 0 48"></polygon>
            </g>
        </g>
    </g>
</svg>