<?xml version="1.0" encoding="UTF-8"?>
<svg width="48px" height="48px" viewBox="0 0 48 48" version="1.1" xmlns="http://www.w3.org/2000/svg" xmlns:xlink="http://www.w3.org/1999/xlink">
    <!-- Generator: Sketch 54.1 (76490) - https://sketchapp.com -->
    <title>t4</title>
    <desc>Created with Sketch.</desc>
    <defs>
        <path d="M28.4798012,36.1279241 C28.6389731,35.9684226 28.8550544,35.8787879 29.0803907,35.8787879 L38.5785124,35.8787879 C39.8275692,35.8787879 40.969697,34.5583003 40.969697,33.0787879 L40.969697,9.57575758 C40.969697,8.16133998 39.8900708,7.03030303 38.5785124,7.03030303 L9.4214876,7.03030303 C8.10992921,7.03030303 7.03030303,8.16133998 7.03030303,9.57575758 L7.03030303,33.0787879 C7.03030303,34.5583003 8.17243083,35.8787879 9.4214876,35.8787879 L18.9196093,35.8787879 C19.1449456,35.8787879 19.3610269,35.9684226 19.5201988,36.1279241 L24,40.6170002 L28.4798012,36.1279241 Z M9.4214876,37.5757576 C7.17609397,37.5757576 5.33333333,35.4452232 5.33333333,33.0787879 L5.33333333,9.57575758 C5.33333333,7.24133323 7.15460596,5.33333333 9.4214876,5.33333333 L38.5785124,5.33333333 C40.845394,5.33333333 42.6666667,7.24133323 42.6666667,9.57575758 L42.6666667,33.0787879 C42.6666667,35.4452232 40.823906,37.5757576 38.5785124,37.5757576 L29.4323587,37.5757576 L24.6005895,42.4175304 C24.2690942,42.7497121 23.7309058,42.7497121 23.3994105,42.4175304 L18.5676413,37.5757576 L9.4214876,37.5757576 Z M14.6666667,24.8484848 L24.8484848,24.8484848 C25.979798,24.8484848 25.979798,26.5454545 24.8484848,26.5454545 L14.6666667,26.5454545 C13.5353535,26.5454545 13.5353535,24.8484848 14.6666667,24.8484848 Z M14.6666667,15.5151515 L33.3333333,15.5151515 C34.4646465,15.5151515 34.4646465,17.2121212 33.3333333,17.2121212 L14.6666667,17.2121212 C13.5353535,17.2121212 13.5353535,15.5151515 14.6666667,15.5151515 Z" id="path-1"></path>
    </defs>
    <g id="t4" stroke="none" stroke-width="1" fill="none" fill-rule="evenodd">
        <g id="icon/line/message">
            <mask id="mask-2" fill="white">
                <use xlink:href="#path-1"></use>
            </mask>
            <use id="Icon" fill="#000000" fill-rule="nonzero" xlink:href="#path-1"></use>
            <g id="color/secondary" mask="url(#mask-2)" fill="#888888" fill-rule="evenodd">
                <polygon id="Shape" points="0 0 48 0 48 48 0 48"></polygon>
            </g>
        </g>
    </g>
</svg>