<?xml version="1.0" encoding="UTF-8"?>
<svg width="48px" height="48px" viewBox="0 0 48 48" version="1.1" xmlns="http://www.w3.org/2000/svg" xmlns:xlink="http://www.w3.org/1999/xlink">
    <!-- Generator: Sketch 54.1 (76490) - https://sketchapp.com -->
    <title>t5</title>
    <desc>Created with Sketch.</desc>
    <defs>
        <path d="M24.000258,27.3939394 C29.1390747,27.3939394 33.3335913,22.8498797 33.3335913,17.2121212 C33.3335913,11.5743627 29.1390747,7.03030303 24.000258,7.03030303 C18.8614413,7.03030303 14.6669247,11.5743627 14.6669247,17.2121212 C14.6669247,22.8498797 18.8614413,27.3939394 24.000258,27.3939394 Z M24.000258,29.0909091 C17.8925489,29.0909091 12.969955,23.758099 12.969955,17.2121212 C12.969955,10.6661434 17.8925489,5.33333333 24.000258,5.33333333 C30.1079671,5.33333333 35.030561,10.6661434 35.030561,17.2121212 C35.030561,23.758099 30.1079671,29.0909091 24.000258,29.0909091 Z M40.7735827,40.969697 C38.9173819,33.0108539 33.4003013,29.0909091 24.000258,29.0909091 C14.6002148,29.0909091 9.08313412,33.0108539 7.22693334,40.969697 L40.7735827,40.969697 Z M24.000258,27.3939394 C34.5763569,27.3939394 40.8772999,32.1946578 42.652392,41.6618158 C42.7502987,42.1839849 42.3497084,42.6666667 41.8184398,42.6666667 L6.18207619,42.6666667 C5.6508076,42.6666667 5.25021732,42.1839849 5.34812403,41.6618158 C7.12321615,32.1946578 13.4241591,27.3939394 24.000258,27.3939394 Z" id="path-1"></path>
    </defs>
    <g id="t5" stroke="none" stroke-width="1" fill="none" fill-rule="evenodd">
        <g id="icon/line/profile">
            <mask id="mask-2" fill="white">
                <use xlink:href="#path-1"></use>
            </mask>
            <use id="Icon" fill="#000000" fill-rule="nonzero" xlink:href="#path-1"></use>
            <g id="color/secondary" mask="url(#mask-2)" fill="#888888" fill-rule="evenodd">
                <polygon id="Shape" points="0 0 48 0 48 48 0 48"></polygon>
            </g>
        </g>
    </g>
</svg>