<?xml version="1.0" encoding="UTF-8"?>
<svg width="50px" height="48px" viewBox="0 0 50 48" version="1.1" xmlns="http://www.w3.org/2000/svg" xmlns:xlink="http://www.w3.org/1999/xlink">
    <!-- Generator: Sketch 54.1 (76490) - https://sketchapp.com -->
    <title>tobepaid</title>
    <desc>Created with Sketch.</desc>
    <g id="New-Design-" stroke="none" stroke-width="1" fill="none" fill-rule="evenodd">
        <g id="Transaction" transform="translate(-29.000000, -178.000000)" fill="#52C4BE">
            <g id="ite1" transform="translate(30.000000, 178.000000)">
                <g id="tobepaid" transform="translate(0.000000, 1.000000)">
                    <ellipse id="Oval" stroke="#52C4BE" fill-opacity="0.1" cx="24" cy="23.1578947" rx="24" ry="23.1578947"></ellipse>
                    <path d="M11.5893664,28.0079062 C11.8817796,28.0079214 12.1191552,28.245297 12.1191552,28.537695 L12.1191552,36.5602113 C12.1191552,36.8526094 11.8817796,37.089985 11.5893664,37.0900002 L10.5297888,37.0900002 C10.2373908,37.0900002 10,36.8526094 10,36.5602113 L10,28.537695 C10,28.245297 10.2373757,28.0079214 10.5297888,28.0079062 L11.5893664,28.0079062 Z M12.7246282,35.5763178 L12.7315154,29.2188521 C12.7315154,29.2188521 15.6006246,27.4024333 16.8115704,27.0996968 C17.8895696,26.8302008 18.8983934,26.7423013 19.9903033,26.9483286 C21.3273843,27.200614 22.7605539,28.1091716 24.5313503,28.3106427 C25.8316034,28.4585749 28.3155561,28.2601917 29.0723972,28.6133792 C29.6684853,28.8915788 29.5087918,30.5512104 28.921029,30.5811662 C27.8055965,30.638005 22.412195,30.5811662 22.412195,30.5811662 C22.0551022,30.7692563 22.0572517,31.1304058 22.412195,31.3380073 L29.0723972,31.3380073 C29.8813091,31.2886764 30.1115401,29.9198384 30.7374478,29.6239892 C31.8606001,29.0930651 35.429863,27.5538015 35.429863,27.5538015 C36.7833977,27.3245392 37.5859521,27.9501744 38.0031229,28.9161156 C38.0031229,28.9161156 30.3632655,33.2492432 28.0128196,34.5167402 C26.5203288,35.3215802 24.2921279,35.1966863 22.7149315,34.8194767 C21.1979342,34.4566622 18.7589682,33.9047282 17.1143069,33.9112673 C14.7441831,33.9206824 12.7246282,35.5763178 12.7246282,35.5763178 Z M16.9629387,26.1914875 C17.3069684,22.4030282 18.7983542,18.4158527 21.9580903,15.5957112 C21.56753,14.6187807 20.6851743,12.5401921 20.444408,11.2746023 L22.8662997,11.2746023 C22.9640533,11.2859549 23.2302949,12.6906521 23.3204044,12.871083 C23.4131931,13.0568119 24.0094931,13.0604447 23.924515,12.871083 C23.752258,12.4872132 23.2937182,10.3383898 23.4717726,10.2978231 C24.956801,9.91546695 26.0047686,9.88625288 26.8018737,10.2978231 C26.9868457,10.3797133 26.7006084,12.5677411 26.4991373,12.871083 C26.3807673,13.0493948 27.0561724,13.2310367 27.1046102,13.0224513 C27.145631,12.8459559 27.3115306,11.2487183 27.4073467,11.2746023 C28.2504677,11.0629895 29.2107478,11.0658655 30.2833431,11.2746023 C30.1274338,12.6073996 28.9491835,14.8267606 28.6182925,15.444343 C31.2166796,17.6438748 33.6508321,21.7744111 33.6134442,25.888751 C33.6780784,26.832214 33.2017226,27.8712964 32.5538666,28.1592745 L30.1319748,29.0674839 C30.0205678,28.4429839 29.4886599,27.8832696 28.6182925,27.856538 C27.5007409,27.8222228 24.6598013,27.778538 23.3204044,27.4024333 C21.4276052,26.870934 19.4924229,26.1149103 16.9629387,26.1914875 Z M25.3059015,21.4347408 C24.1782082,21.4410982 23.2226811,20.6058483 23.0783969,19.4873885 C22.9341278,18.3692313 23.6463153,17.3185844 24.7387702,17.0387046 L24.7387702,16.4642621 C24.7387702,16.2040601 24.9495353,15.9932042 25.2096313,15.9932042 C25.4698333,15.9932042 25.6806892,16.2040601 25.6806892,16.4642621 L25.6806892,17.010096 C26.7491976,17.1908296 27.5291981,18.1197765 27.5223865,19.2038758 C27.5223865,19.460899 27.3139525,19.6693331 27.0569292,19.6693331 C26.799906,19.6693331 26.5914719,19.460899 26.5914719,19.2038758 C26.5907151,18.4924451 26.013548,17.916489 25.3022687,17.9172458 C24.5908077,17.9180026 24.0147608,18.4953211 24.0158052,19.2067518 C24.0165923,19.9178797 24.5939713,20.4939872 25.305296,20.4929276 C26.458722,20.4994365 27.4167315,21.3846379 27.5142126,22.5340828 C27.6116938,23.6833007 26.8164051,24.7171609 25.6806892,24.9179357 L25.6806892,25.4792848 C25.6806892,25.7394565 25.4698333,25.9502216 25.2096313,25.9502216 C24.9495353,25.9502216 24.7387702,25.7394565 24.7387702,25.4792848 L24.7387702,24.8890395 C23.754589,24.6291251 23.0668323,23.7419105 23.060263,22.7240954 C23.060263,22.4610325 23.2736619,22.2476336 23.5367247,22.2476336 C23.7997876,22.2476336 24.0131714,22.4610325 24.0131714,22.7240954 C24.0147608,23.3818812 24.5104009,23.9334973 25.1642208,24.0052307 C25.1884398,24.0012951 25.2131128,23.9994484 25.2377858,23.9991911 C25.2733573,23.9991911 25.3084748,24.0033991 25.3431381,24.0112854 C26.0495736,23.9939386 26.6100902,23.4110498 26.5999485,22.7046445 C26.5896555,21.9979668 26.012337,21.4317134 25.3059015,21.4347408 Z" id="Fill-1"></path>
                </g>
            </g>
        </g>
    </g>
</svg>