<?xml version="1.0" encoding="UTF-8" standalone="no"?>
<!DOCTYPE svg PUBLIC "-//W3C//DTD SVG 1.1//EN" "http://www.w3.org/Graphics/SVG/1.1/DTD/svg11.dtd">
<svg width="100%" height="100%" viewBox="0 0 512 512" version="1.1" xmlns="http://www.w3.org/2000/svg" xmlns:xlink="http://www.w3.org/1999/xlink" xml:space="preserve" xmlns:serif="http://www.serif.com/" style="fill-rule:evenodd;clip-rule:evenodd;stroke-linejoin:round;stroke-miterlimit:2;">
    <g transform="matrix(0.863081,0,0,0.863081,35.0513,35.0513)">
        <path d="M256,386C298.239,386 341,372.261 341,346L341,289.165L381,271.387L381,376C381,381.522 385.478,386 391,386C396.522,386 401,381.522 401,376L401,256C401,251.566 398.229,248.188 394.877,246.78L260.061,186.862C257.475,185.712 254.524,185.712 251.938,186.862L116.938,246.862C113.328,248.467 111,252.048 111,256C111,259.951 113.327,263.533 116.938,265.138L171,289.165L171,346C171,372.261 213.76,386 256,386ZM321,346C321,351.981 298.885,366 256,366C213.115,366 191,351.981 191,346L191,298.055L251.938,325.139C253.231,325.713 254.616,326 256,326C257.384,326 258.769,325.713 260.062,325.139L321,298.054L321,346ZM145.621,256.001L256,206.943L366.379,256.001L256,305.057L145.621,256.001Z" style="fill-rule:nonzero;"/>
        <path d="M502,36L10,36C4.477,36 0,40.477 0,46L0,466C0,471.522 4.477,476 10,476L211,476C216.523,476 221,471.522 221,466C221,460.478 216.523,456 211,456L20,456L20,146L492,146L492,456L301,456C295.478,456 291,460.478 291,466C291,471.522 295.478,476 301,476L502,476C507.522,476 512,471.522 512,466L512,46C512,40.477 507.522,36 502,36ZM492,126L20,126L20,56L306,56L306,76C306,81.522 310.478,86 316,86C321.522,86 326,81.522 326,76L326,56L366,56L366,76C366,81.522 370.478,86 376,86C381.522,86 386,81.522 386,76L386,56L426,56L426,76C426,81.522 430.478,86 436,86C441.522,86 446,81.522 446,76L446,56L492,56L492,126Z" style="fill-rule:nonzero;"/>
        <circle cx="256" cy="466" r="10"/>
    </g>
</svg>
