<svg id="Layer_1" data-name="Layer 1" xmlns="http://www.w3.org/2000/svg" viewBox="0 0 1024 1024"><title>trash</title><g id="Symbols"><g id="icon_line_trash" data-name="icon/line/trash"><g id="Icon"><path id="path-1" d="M254.15,381.09V808.73a52.17,52.17,0,0,0,52,52.36H721.88a52.17,52.17,0,0,0,52-52.36V381.09Zm-17.32-34.91H791.17a17.4,17.4,0,0,1,17.33,17.46V808.73c0,48.2-38.78,87.27-86.62,87.27H306.12c-47.84,0-86.62-39.07-86.62-87.27V363.64A17.4,17.4,0,0,1,236.83,346.18ZM612,174.16a17.34,17.34,0,0,0-16.2-11.25H432.23A17.34,17.34,0,0,0,416,174.16l-15.5,41.11H627.47Zm213.85,41.11c23.1,0,23.1,34.91,0,34.91H202.18c-23.1,0-23.1-34.91,0-34.91H363.46l20.19-53.51A52,52,0,0,1,432.23,128H595.77a52,52,0,0,1,48.58,33.76l20.19,53.51Zm-462.36,0"/></g></g></g></svg>