<?xml version="1.0" encoding="UTF-8"?>
<svg width="36px" height="36px" viewBox="0 0 36 36" version="1.1" xmlns="http://www.w3.org/2000/svg" xmlns:xlink="http://www.w3.org/1999/xlink">
    <!-- Generator: Sketch 54.1 (76490) - https://sketchapp.com -->
    <title>turtle</title>
    <desc>Created with Sketch.</desc>
    <g id="turtle" stroke="none" stroke-width="1" fill="none" fill-rule="evenodd">
        <g id="turtle-(1)" transform="translate(0.000000, 5.000000)" fill="#4A4A4A" fill-rule="nonzero">
            <path d="M35.796843,11.8712859 L34.3156698,9.15532148 C33.5436732,7.74013832 32.5688076,6.43618726 31.440926,5.28323518 L31.4452484,5.27776001 L31.4072106,5.24779075 C30.6366547,4.46397927 29.7960746,3.74817497 28.8932505,3.12314297 C25.9418545,1.08004611 22.4841509,0 18.8936027,0 C15.2788486,0 11.7773438,0.758452869 8.48648818,2.25374614 L7.98306226,2.48283811 C7.07735656,2.89520366 6.49180328,3.8046555 6.49180328,4.79969262 C6.49180328,4.95674307 6.51139857,5.11264092 6.54021516,5.26594515 L6.34195697,5.16681605 C5.75870902,4.8754803 5.10601308,4.72131148 4.45446974,4.72131148 C3.32745263,4.72131148 2.26728996,5.16047643 1.47022289,5.95783173 L0.67286759,6.7548988 C0.238889582,7.18887681 2.84217094e-14,7.76549693 2.84217094e-14,8.37929051 C2.84217094e-14,8.79511397 0.112672918,9.20373337 0.327644705,9.5619237 L0.568839689,9.96420334 C1.46762934,11.4626665 3.11190448,12.3934426 4.859343,12.3934426 C5.63249228,12.3934426 6.406218,12.2104572 7.09723999,11.864658 L8.16604761,11.3312628 C8.32021643,11.2537461 8.49311602,11.2131148 8.66543931,11.2131148 L11.1742123,11.2131148 C11.4822618,11.4643955 11.7980917,11.7058786 12.1208376,11.9366996 L11.4208824,12.8118596 C10.5255508,13.9302318 10.0327869,15.3359055 10.0327869,16.7695312 C10.0327869,17.8700371 10.321241,18.9572874 10.8678919,19.9122695 C11.9586002,21.8213691 13.4809811,23.5062756 15.2710681,24.7851562 L16.538134,25.6902856 C16.7920082,25.871542 17.0899718,25.9672131 17.4009029,25.9672131 C18.2195824,25.9672131 18.8852459,25.3015497 18.8852459,24.4828701 L18.8852459,22.3700371 C18.8852459,20.7459336 18.3126601,19.1644787 17.2729572,17.91672 C16.4101883,16.8810515 15.9344262,15.5684554 15.9344262,14.2201268 L15.9344262,14.0259029 C18.0596504,14.8785861 20.3548924,15.3442623 22.7155482,15.3442623 C23.6019467,15.3442623 24.489498,15.3235143 25.3770492,15.2886463 L25.3770492,16.4727203 C25.3770492,17.8034708 26.0239818,19.0604508 27.1074859,19.8341765 L29.5223168,21.5591381 C29.7756148,21.7403945 30.0735783,21.8360656 30.3845095,21.8360656 C31.203189,21.8360656 31.8688525,21.1704021 31.8688525,20.3517226 L31.8688525,17.704918 C31.8688525,16.6444672 31.4481301,15.6263768 30.727427,14.8650422 C31.8097785,14.7376729 32.8892482,14.5918609 33.9609375,14.4129098 L34.6124808,14.3042713 C35.4164639,14.1705623 36,13.4818455 36,12.666624 C36,12.3894083 35.9296875,12.1142098 35.796843,11.8712859 Z M33.8718942,10.8070889 C32.126761,11.1641266 30.3608799,11.4249168 28.5857774,11.5897477 L26.557377,7.53294696 L26.557377,6.9580558 C26.557377,6.43388193 26.7611104,5.94169443 27.1316918,5.57168931 C27.838563,4.8648181 28.9612577,4.80084529 29.741323,5.42760632 L30.6136014,6.12525615 C31.6587795,7.19694546 32.5627561,8.40695444 33.279425,9.72070311 L33.8718942,10.8070889 Z M17.4836066,2.49177128 C17.5910925,3.02747179 17.4239562,3.578157 17.0375256,3.96401127 L16.7752946,4.22681865 L11.9070184,6.39036885 C10.9995838,5.38409324 10.2175013,4.26572107 9.58497698,3.07069672 C11.7992443,2.13588627 14.1065894,1.54139983 16.4802126,1.30366291 C16.9908427,1.50595539 17.3743916,1.94742575 17.4836066,2.49177128 Z M17.2403945,5.31147541 L17.6334529,5.31147541 C18.2731814,5.31147541 18.8999424,5.57111294 19.3532275,6.02382172 C19.8122759,6.48287011 20.0655738,7.093782 20.0655738,7.74359631 L20.0655738,8.12311089 L18.6852587,10.8831647 C17.0326268,10.3076972 15.4693263,9.47518569 14.0748912,8.40205557 C13.625064,8.05625639 13.1954086,7.68336964 12.7836193,7.2920402 L17.2403945,5.31147541 Z M21.1136334,8.66659198 L21.6501985,8.30897793 C22.7607902,7.5678151 24.2508965,7.47444925 25.4485143,8.07297005 L25.5268955,8.11244877 L27.3164062,11.6911821 C26.2363602,11.7626473 25.154585,11.8032787 24.0733863,11.8032787 C22.6374552,11.8032787 21.2110336,11.6027152 19.8312948,11.2312692 L21.1136334,8.66659198 Z M18.8941791,1.18032787 C22.1135694,1.18032787 25.2142354,2.12032534 27.895908,3.88678279 C27.3086258,4.00550717 26.7492956,4.28531636 26.2965869,4.73773692 C25.748207,5.2861168 25.4277664,6.00076844 25.3822361,6.76728996 C24.0053791,6.29123975 22.4464012,6.45117189 21.2041176,7.19464013 C21.0894275,6.43820444 20.7384414,5.74055454 20.1871799,5.18986933 C19.671939,4.67462862 19.0287525,4.33488091 18.3293737,4.1982902 C18.6593238,3.61821209 18.774302,2.9326652 18.6397285,2.26037398 C18.5625,1.87192623 18.4031442,1.5131596 18.1829854,1.19992316 C18.420146,1.19214266 18.6561539,1.18032787 18.8941791,1.18032787 Z M8.66543931,10.0327869 C8.31013067,10.0327869 7.95482196,10.1172195 7.63783938,10.2754226 L6.56903176,10.8088179 C6.04139983,11.0739306 5.45008323,11.2131148 4.859343,11.2131148 C3.5239818,11.2131148 2.26728996,10.5019211 1.5805904,9.3564613 L1.33968364,8.95504611 C1.23507944,8.78099385 1.18032787,8.58158299 1.18032787,8.37929051 C1.18032787,8.08046233 1.29645878,7.80007684 1.50797257,7.5888512 L2.30503972,6.7914959 C2.87935451,6.21804556 3.64241803,5.90163934 4.45446974,5.90163934 C4.92360403,5.90163934 5.39417907,6.01258323 5.81432503,6.22265621 L7.40845925,7.02001151 L7.40903562,7.01828255 C8.12138193,8.11821209 8.94524843,9.12564037 9.85815826,10.0327869 L8.66543931,10.0327869 Z M16.3663871,18.6734439 C17.229156,19.7091125 17.704918,21.0217085 17.704918,22.3700371 L17.704918,24.4828701 C17.704918,24.713691 17.4127177,24.8635374 17.2245453,24.7301166 L15.9569032,23.8249872 C14.3042713,22.6446594 12.8985976,21.0888512 11.892322,19.3267162 C11.44797,18.5495325 11.2131148,17.6654393 11.2131148,16.7695312 C11.2131148,15.6033235 11.61453,14.4595927 12.3427254,13.5495645 L13.107518,12.5934299 C13.6409131,12.9245325 14.189293,13.2302766 14.7540984,13.5046107 L14.7540984,14.2195504 C14.7540984,15.8442303 15.3266842,17.4251088 16.3663871,18.6734439 L16.3663871,18.6734439 Z M29.5081967,15.3442623 C30.2470543,15.8984055 30.6885246,16.7813461 30.6885246,17.704918 L30.6885246,20.3517226 C30.6885246,20.5825435 30.3963242,20.7329662 30.2081519,20.598969 L27.7933209,18.8740074 C27.0195953,18.3210169 26.557377,17.4228035 26.557377,16.4727203 L26.557377,15.2220799 C27.4042969,15.1742443 28.2506404,15.112865 29.0949667,15.0339075 L29.5081967,15.3442623 Z M34.4182569,13.1412334 L33.7667136,13.2498719 C30.1271773,13.8564613 26.4092598,14.1639344 22.7155482,14.1639344 C16.5611873,14.1639344 10.864434,10.8318711 7.84733607,5.46852585 C7.73293419,5.26479256 7.67213115,5.03339525 7.67213115,4.79969262 C7.67213115,4.26629737 7.98623203,3.77872052 8.47179177,3.55740905 L8.4994557,3.54501797 C9.67517292,5.79242442 11.345383,7.79258449 13.3553406,9.3388832 C16.411341,11.6894531 20.2171491,12.9836066 24.0733863,12.9836066 C27.5636527,12.9836066 31.0585297,12.6124488 34.4626345,11.8900166 L34.7605981,12.4366676 C34.7989242,12.5066918 34.8196721,12.5865139 34.8196721,12.666624 C34.8196721,12.9020556 34.6502305,13.1017546 34.4182569,13.1412334 L34.4182569,13.1412334 Z" id="Shape"></path>
            <polygon id="Path" points="4.13114754 7.08196721 5.31147541 7.08196721 5.31147541 8.26229508 4.13114754 8.26229508"></polygon>
        </g>
    </g>
</svg>