<svg id="Layer_1" data-name="Layer 1" xmlns="http://www.w3.org/2000/svg" viewBox="0 0 1024 1024"><title>verified</title><g id="Symbols"><g id="icon_line_verified" data-name="icon/line/verified"><g id="Combined-Shape"><path id="path-1" d="M574.69,813.83c69.14-36.46,118.79-86.78,149.46-151.24a17.45,17.45,0,0,1,31.52,15c-34,71.42-89,127.22-163.92,166.68a472.77,472.77,0,0,1-126.88,52.21,17.59,17.59,0,0,1-8.47,0C267.8,849.3,129,692.17,129,521.94V271.62a17.46,17.46,0,0,1,11-16.22L454.17,130.24a17.47,17.47,0,0,1,12.63-.11l122.68,46.33,192,79a17.45,17.45,0,0,1,10.81,16.14V425.73a17.46,17.46,0,0,1-34.91,0V283.31L576.67,208.93,460.8,165.18,163.91,283.45V521.94c0,152,125.06,294.84,296.72,339.59A440.39,440.39,0,0,0,574.69,813.83ZM870.56,445.67a17.45,17.45,0,1,1,18,29.93L539.43,685.06a17.45,17.45,0,0,1-22.94-4.5L411.76,540.93A17.46,17.46,0,1,1,439.69,520L535,647Z"/></g></g></g></svg>