<?xml version="1.0" encoding="UTF-8" standalone="no"?>
<!DOCTYPE svg PUBLIC "-//W3C//DTD SVG 1.1//EN" "http://www.w3.org/Graphics/SVG/1.1/DTD/svg11.dtd">
<svg width="100%" height="100%" viewBox="0 0 512 512" version="1.1" xmlns="http://www.w3.org/2000/svg" xmlns:xlink="http://www.w3.org/1999/xlink" xml:space="preserve" xmlns:serif="http://www.serif.com/" style="fill-rule:evenodd;clip-rule:evenodd;stroke-linejoin:round;stroke-miterlimit:2;">
    <g transform="matrix(0.85188,0,0,0.85188,37.9188,37.9188)">
        <path d="M483.2,252.686L483.2,150.933C483.2,127.407 464.06,108.267 440.533,108.267L426.071,108.267L429.277,97.13C434.497,79.002 424.049,60.106 405.919,54.885L309.097,27.013C304.566,25.71 299.839,28.324 298.537,32.853C297.232,37.382 299.847,42.11 304.377,43.414L365.245,60.937C357.715,75.605 357.44,93.102 365.056,108.267L186.667,108.267L186.667,41.067C186.667,36.354 182.846,32.533 178.133,32.533C173.421,32.533 169.6,36.354 169.6,41.067L169.6,108.267L140.8,108.267L140.8,41.067C140.8,36.354 136.979,32.533 132.267,32.533C127.554,32.533 123.733,36.354 123.733,41.067L123.733,108.267L86.4,108.267L86.4,34.667C86.4,25.257 94.057,17.6 103.467,17.6L247.467,17.6C256.877,17.6 264.533,25.257 264.533,34.667L264.533,81.6C264.533,86.313 268.354,90.133 273.067,90.133C277.779,90.133 281.6,86.313 281.6,81.6L281.6,34.667C281.6,15.845 266.288,0.533 247.467,0.533L103.467,0.533C84.645,0.533 69.333,15.845 69.333,34.667L69.333,108.267L42.667,108.267C19.14,108.267 0,127.407 0,150.933L0,468.8C0,492.326 19.14,511.467 42.667,511.467L440.533,511.467C464.06,511.467 483.2,492.326 483.2,468.8L483.2,406.4C483.2,401.687 479.379,397.867 474.667,397.867C469.954,397.867 466.133,401.687 466.133,406.4L466.133,468.8C466.133,482.915 454.649,494.4 440.533,494.4L42.667,494.4C28.551,494.4 17.067,482.915 17.067,468.8L17.067,150.933C17.067,136.818 28.551,125.333 42.667,125.333L440.533,125.333C454.649,125.333 466.133,136.818 466.133,150.933L466.133,252.267L395.733,252.267C376.912,252.267 361.6,267.579 361.6,286.4L361.6,333.333C361.6,352.155 376.912,367.467 395.733,367.467L477.889,367.467C496.628,367.467 512,352.206 512,333.333L512,286.4C512,269.393 499.497,255.254 483.2,252.686ZM382.112,65.793L401.198,71.287C410.263,73.898 415.485,83.344 412.877,92.409L408.311,108.267L385.502,108.267C374.726,96.282 373.728,78.852 382.112,65.793ZM494.933,333.333C494.933,342.743 487.277,350.4 477.867,350.4L395.733,350.4C386.323,350.4 378.667,342.743 378.667,333.333L378.667,286.4C378.667,276.99 386.323,269.333 395.733,269.333L477.867,269.333C487.277,269.333 494.933,276.99 494.933,286.4L494.933,333.333ZM427.733,309.867C427.733,314.579 423.913,318.4 419.2,318.4L406.4,318.4C401.687,318.4 397.867,314.579 397.867,309.867C397.867,305.154 401.687,301.333 406.4,301.333L419.2,301.333C423.913,301.333 427.733,305.154 427.733,309.867Z" style="fill-rule:nonzero;"/>
    </g>
</svg>
