<svg xmlns="http://www.w3.org/2000/svg" xmlns:xlink="http://www.w3.org/1999/xlink" width="30.185" height="31.446" viewBox="0 0 30.185 31.446">
  <defs>
    <clipPath id="clip-path">
      <rect id="Rectangle_1" data-name="Rectangle 1" width="11.348" height="11.348" fill="#fff"/>
    </clipPath>
  </defs>
  <g id="Adopt_Shelters" data-name="Adopt+ Shelters" transform="translate(-2.7 -2.167)">
    <path id="Path_1" data-name="Path 1" d="M3.2,20.5c0-8.572.935-7.974,5.966-12.64,2.2-1.772,5.626-5.191,8.584-5.191s6.45,3.4,8.671,5.191c5.031,4.666,5.964,4.068,5.964,12.64,0,12.615-2.982,12.615-14.593,12.615S3.2,33.113,3.2,20.5Z" transform="translate(0)" fill="#fff" stroke="#130f26" stroke-linecap="round" stroke-linejoin="round" stroke-width="1" fill-rule="evenodd"/>
    <g id="Group_1" data-name="Group 1" transform="translate(11.378 13.845)" clip-path="url(#clip-path)">
      <path id="Path_2" data-name="Path 2" d="M18.7,17.648a.887.887,0,1,0-.887-.887A.887.887,0,0,0,18.7,17.648Z" transform="translate(-9.306 -11.974)" fill="none" stroke="#ff3763" stroke-linecap="round" stroke-linejoin="round" stroke-width="1"/>
      <path id="Path_3" data-name="Path 3" d="M12.181,17.648a.887.887,0,1,0-.887-.887A.887.887,0,0,0,12.181,17.648Z" transform="translate(-10.23 -11.974)" fill="none" stroke="#ff3763" stroke-linecap="round" stroke-linejoin="round" stroke-width="1"/>
      <path id="Path_4" data-name="Path 4" d="M14.045,15.784a.887.887,0,1,0-.887-.887A.887.887,0,0,0,14.045,15.784Z" transform="translate(-9.966 -12.238)" fill="none" stroke="#ff3763" stroke-linecap="round" stroke-linejoin="round" stroke-width="1"/>
      <path id="Path_5" data-name="Path 5" d="M16.84,15.784a.887.887,0,1,0-.887-.887A.886.886,0,0,0,16.84,15.784Z" transform="translate(-9.57 -12.238)" fill="none" stroke="#ff3763" stroke-linecap="round" stroke-linejoin="round" stroke-width="1"/>
      <path id="Path_6" data-name="Path 6" d="M18.177,18.794a1.931,1.931,0,0,1-.916-1.148h0a1.6,1.6,0,0,0-3.065,0h0a1.93,1.93,0,0,1-.916,1.148,1.419,1.419,0,0,0,1.229,2.554,3.215,3.215,0,0,1,2.439,0,1.419,1.419,0,0,0,1.229-2.554Z" transform="translate(-10.054 -11.886)" fill="none" stroke="#ff3763" stroke-linecap="round" stroke-linejoin="round" stroke-width="1"/>
    </g>
  </g>
</svg>
