<svg xmlns="http://www.w3.org/2000/svg" width="33.411" height="32" viewBox="0 0 33.411 32">
  <g id="Dog_Parks_Beaches" data-name="Dog Parks &amp; Beaches" transform="translate(-0.294 -0.41)">
    <path id="Path_14" data-name="Path 14" d="M25.778,5.388c1.616.209,4.657,1.458,3.9,4.784" fill="none" stroke="#000" stroke-linecap="round" stroke-width="1"/>
    <path id="Path_15" data-name="Path 15" d="M33,29.377l-1.6,1.811a2.135,2.135,0,0,1-3.2,0h0a2.135,2.135,0,0,0-3.2,0h0a2.135,2.135,0,0,1-3.2,0h0a2.135,2.135,0,0,0-3.2,0h0a2.135,2.135,0,0,1-3.2,0h0a2.135,2.135,0,0,0-3.2,0h0a2.135,2.135,0,0,1-3.2,0H9a2.135,2.135,0,0,0-3.2,0h0a2.135,2.135,0,0,1-3.2,0L1,29.377" fill="none" stroke="#000" stroke-linecap="round" stroke-width="1"/>
    <path id="Path_16" data-name="Path 16" d="M25.3,5.226c-.2-1.208,0-3.743,2.37-4.226" fill="none" stroke="#000" stroke-linecap="round" stroke-width="1"/>
    <path id="Path_17" data-name="Path 17" d="M33,25.755l-1.6,1.207a2.656,2.656,0,0,1-3.2,0h0a2.656,2.656,0,0,0-3.2,0h0a2.656,2.656,0,0,1-3.2,0h0a2.656,2.656,0,0,0-3.2,0h0a2.656,2.656,0,0,1-3.2,0h0a2.656,2.656,0,0,0-3.2,0h0a2.656,2.656,0,0,1-3.2,0H9a2.656,2.656,0,0,0-3.2,0h0a2.656,2.656,0,0,1-3.2,0L1,25.755" fill="none" stroke="#000" stroke-linecap="round" stroke-width="1"/>
    <path id="Path_18" data-name="Path 18" d="M25.3,23.944V4.623" fill="none" stroke="#000" stroke-linecap="round" stroke-width="1"/>
    <path id="Path_19" data-name="Path 19" d="M25.3,5.83a4.353,4.353,0,0,0-5.333,2.415" fill="none" stroke="#000" stroke-linecap="round" stroke-width="1"/>
    <path id="Path_20" data-name="Path 20" d="M25.3,5.226c.765-1.465,2.963-2.415,5.41-.891" fill="none" stroke="#000" stroke-linecap="round" stroke-width="1"/>
    <path id="Path_21" data-name="Path 21" d="M25.4,5.315a4.341,4.341,0,0,0-5.666-1.428" fill="none" stroke="#000" stroke-linecap="round" stroke-width="1"/>
    <path id="Path_22" data-name="Path 22" d="M8.5,5.044a3.363,3.363,0,0,1,3.167-2.232h0a3.363,3.363,0,0,1,3.167,2.232L16.387,9.4a5.012,5.012,0,0,1-4.721,6.7h0A5.012,5.012,0,0,1,6.946,9.4Z" fill="#fff"/>
    <path id="Path_23" data-name="Path 23" d="M6.946,9.4l-.679-.242Zm9.442,0,.679-.242ZM14.834,5.044l-.679.242Zm-6.334,0,.679.242Zm5.656.242,1.554,4.353,1.357-.484L15.512,4.8ZM7.624,9.639,9.178,5.286,7.821,4.8,6.267,9.155Zm4.042,5.734A4.292,4.292,0,0,1,7.624,9.639L6.267,9.155a5.733,5.733,0,0,0,5.4,7.66Zm4.042-5.734a4.292,4.292,0,0,1-4.042,5.734v1.441a5.733,5.733,0,0,0,5.4-7.66ZM11.667,3.532a2.642,2.642,0,0,1,2.488,1.754L15.512,4.8a4.083,4.083,0,0,0-3.846-2.711Zm0-1.441A4.083,4.083,0,0,0,7.821,4.8l1.357.484a2.642,2.642,0,0,1,2.488-1.754Z"/>
    <path id="Path_24" data-name="Path 24" d="M11.667,23.34V10.057" fill="none" stroke="#ff3763" stroke-linecap="round" stroke-width="1"/>
    <path id="Path_25" data-name="Path 25" d="M25.778,5.388c1.616.209,4.657,1.458,3.9,4.784M25.3,5.83a4.353,4.353,0,0,0-5.333,2.415" fill="none" stroke="#000" stroke-linecap="round" stroke-width="1"/>
    <path id="Path_26" data-name="Path 26" d="M11.667,12.472l2.37-2.415" fill="none" stroke="#ff3763" stroke-linecap="round" stroke-width="1"/>
    <path id="Path_27" data-name="Path 27" d="M33,29.377l-1.6,1.811a2.135,2.135,0,0,1-3.2,0h0a2.135,2.135,0,0,0-3.2,0h0a2.135,2.135,0,0,1-3.2,0h0a2.135,2.135,0,0,0-3.2,0h0a2.135,2.135,0,0,1-3.2,0h0a2.135,2.135,0,0,0-3.2,0h0a2.135,2.135,0,0,1-3.2,0H9a2.135,2.135,0,0,0-3.2,0h0a2.135,2.135,0,0,1-3.2,0L1,29.377" fill="none" stroke="#000" stroke-linecap="round" stroke-width="1"/>
  </g>
</svg>
