<svg xmlns="http://www.w3.org/2000/svg" width="20.349" height="20.603" viewBox="0 0 20.349 20.603">
  <g id="Group_227" data-name="Group 227" transform="translate(-99.038 -753.25)">
    <g id="Jobs" transform="translate(97.25 751.55)">
      <path id="Path_87" data-name="Path 87" d="M11.961,16.517V13.889" fill="none" stroke="#000" stroke-linecap="round" stroke-linejoin="round" stroke-width="1.5"/>
      <path id="Path_88" data-name="Path 88" d="M21.09,11.478l-.029.021c-2.422,1.492-6.077,2-9.561,2s-6.216-.509-8.637-2l-.03-.021" fill="none" stroke="#000" stroke-linecap="round" stroke-linejoin="round" stroke-width="1.5"/>
      <path id="Path_89" data-name="Path 89" d="M2.75,13.351c0-6.152,2.3-8.2,9.211-8.2s9.211,2.051,9.211,8.2-2.3,8.2-9.211,8.2S2.75,19.5,2.75,13.351Z" fill="none" stroke="#000" stroke-linecap="round" stroke-linejoin="round" stroke-width="1.5" fill-rule="evenodd"/>
      <path id="Path_90" data-name="Path 90" d="M15.224,5.369v-.63a2.184,2.184,0,0,0-2.06-2.289H10.759A2.184,2.184,0,0,0,8.7,4.739v.63" fill="none" stroke="#000" stroke-linecap="round" stroke-linejoin="round" stroke-width="1.5"/>
    </g>
  </g>
</svg>
