<svg xmlns="http://www.w3.org/2000/svg" width="37.296" height="37.617" viewBox="0 0 37.296 37.617">
  <g id="Pet_Services" data-name="Pet Services" transform="translate(-0.203 -0.494)">
    <path id="Path_44" data-name="Path 44" d="M31.91,22c-.183.648-.282,1.9.789,1.715" transform="translate(3.849 2.625)" fill="none" stroke="#000" stroke-width="1"/>
    <path id="Path_45" data-name="Path 45" d="M27.613,22.839a1.972,1.972,0,0,1,1.829-1.722c.934,0,.676,1.722.139,2.877S27.315,24.521,27.613,22.839Z" transform="translate(3.322 2.515)" fill="none" stroke="#000" stroke-width="1"/>
    <path id="Path_46" data-name="Path 46" d="M21.3,21.732c-.563.82-1.352,2.764,0,3.981a2.687,2.687,0,0,1,2.012-.813c1.234.063,4.4.25,5.164-1.042s.93-3.189,2.677-2.939a2.169,2.169,0,0,1,1.557,1.042c.563.09,1.709.346,1.785.646a.962.962,0,0,1-.228,1.084c-.361.271-.057.792-1.063.938s-1.367-.208-1.576.729A17.594,17.594,0,0,1,30.239,29.4c-.949,2.084-1.025,3.543-.7,3.814s.683.75.266,1.1A1.039,1.039,0,0,1,28.15,33.4c0-1.23,0-3.918-.8-5" transform="translate(2.444 2.487)" fill="none" stroke="#000" stroke-width="1"/>
    <path id="Path_47" data-name="Path 47" d="M27.378,23.978a2.826,2.826,0,0,0,3.389,1.576" transform="translate(3.297 2.872)" fill="none" stroke="#ff3763" stroke-linecap="round" stroke-width="1"/>
    <path id="Path_48" data-name="Path 48" d="M27.654,28.986a6.1,6.1,0,0,1-4.292-.607" transform="translate(2.795 3.422)" fill="none" stroke="#000" stroke-width="1"/>
    <path id="Path_49" data-name="Path 49" d="M24.239,27.7c.031.754-.514,2.487-2.943,3.391v1.562c-.006.055.045.185.3.267.319.1.769.247.787.575s.075.719-.787.658S20.471,34,20.34,33.1c-.1-.723-.256-1.945-.319-2.466a3.349,3.349,0,0,0,.937-1.582,21.176,21.176,0,0,0,0-2.322c-.762-.658-1.83-2.5,0-4.6l.412-.349" transform="translate(2.369 2.597)" fill="none" stroke="#000" stroke-width="1"/>
    <ellipse id="Ellipse_1" data-name="Ellipse 1" cx="0.226" cy="0.248" rx="0.226" ry="0.248" transform="translate(34.289 24.869)"/>
    <path id="Path_50" data-name="Path 50" d="M28.976,25.158l-13.831-9" transform="translate(1.768 1.895)" fill="none" stroke="#ff3763" stroke-width="1"/>
    <path id="Path_51" data-name="Path 51" d="M9.24,5.467V4.556l2.259.912-.323.982c1.755,3.254,1.893,9.117,1.743,11.642-.568.842-3.679.351-5.163,0-.108-2.782-.31-8.612-.258-9.678A5.653,5.653,0,0,1,9.24,5.467Z" transform="translate(0.811 0.444)" fill="#fff" stroke="#000" stroke-width="1"/>
    <path id="Path_52" data-name="Path 52" d="M8.527,7.63a1.072,1.072,0,0,1,1.4.4l1.8,4.725c1.847,1.17,5.38,3.726,4.739,4.59s-4.628-1.8-6.541-3.24L8.26,9.587C8.037,9.07,7.779,7.954,8.527,7.63Z" transform="translate(0.879 0.815)" fill="#fff" stroke="#000" stroke-width="1"/>
    <path id="Path_53" data-name="Path 53" d="M7.738,23.544,8.4,16.407a37.311,37.311,0,0,0,3.954.424L9.8,25.24l-5.927,6.5L2.622,30.469Z" transform="translate(0.203 1.926)" fill="#fff" stroke="#000" stroke-width="1"/>
    <path id="Path_54" data-name="Path 54" d="M12.594,16.407l-1.327.349-1.074,3.7,1.959,3.7,1.327,8.245h1.58l-.442-9.013Z" transform="translate(1.149 1.926)" fill="#fff" stroke="#000" stroke-width="1"/>
    <path id="Path_55" data-name="Path 55" d="M14.653,14.63l-1.217,1.333" transform="translate(1.555 1.704)" fill="none" stroke="#000" stroke-width="1"/>
    <path id="Path_56" data-name="Path 56" d="M1,30.8l1.521-1.355,1.673,1.1.456,2.9Z" transform="translate(0 3.556)" fill="#fff" stroke="#000" stroke-width="1"/>
    <path id="Path_57" data-name="Path 57" d="M13.437,33.222v-2h1.556l2.094,2Z" transform="translate(1.555 3.778)" fill="#fff" stroke="#000" stroke-width="1"/>
    <path id="Path_58" data-name="Path 58" d="M12.543,5.015a2.518,2.518,0,0,0,0-2.537c0-1.821-2.083-1.583-3.125-1.236-1.017.13-1.453.716-1.381,1.886.058.937,1.817,1.995,2.689,2.407A1.459,1.459,0,0,0,12.543,5.015Z" transform="translate(0.879 0)" fill="#fff" stroke="#000" stroke-width="1"/>
    <path id="Path_59" data-name="Path 59" d="M12.153,2.185A1.96,1.96,0,0,0,10.6,3.211c-.315-.137-.919-.246-.811.41a1.219,1.219,0,0,1-.676,1.231" transform="translate(1.014 0.148)" fill="none" stroke="#000" stroke-width="1"/>
  </g>
</svg>
