<svg xmlns="http://www.w3.org/2000/svg" width="34.716" height="32.64" viewBox="0 0 34.716 32.64">
  <g id="Pet_Shop" data-name="Pet Shop" transform="translate(-3.475 -0.5)">
    <path id="Path_60" data-name="Path 60" d="M8.6,13.212H32.176a2.522,2.522,0,0,1,2.494,2.9L32.5,30.494A2.522,2.522,0,0,1,30,32.64H11.5a2.522,2.522,0,0,1-2.473-2.024l-2.9-14.383A2.522,2.522,0,0,1,8.6,13.212Z" fill="#fff" stroke="#000" stroke-width="1"/>
    <path id="Path_61" data-name="Path 61" d="M6.538,12.027H35.133a2.522,2.522,0,0,1,2.081,3.948l-.11.161a2.522,2.522,0,0,1-2.081,1.1H6.685a2.522,2.522,0,0,1-1.862-.821l-.147-.161A2.522,2.522,0,0,1,6.538,12.027Z" fill="#fff" stroke="#000" stroke-width="1"/>
    <path id="Path_62" data-name="Path 62" d="M17.256,19.963v9.481" fill="none" stroke="#ff3763" stroke-width="1"/>
    <path id="Path_63" data-name="Path 63" d="M20.3,19.963v9.481" fill="none" stroke="#ff3763" stroke-width="1"/>
    <path id="Path_64" data-name="Path 64" d="M23.346,19.963v9.481" fill="none" stroke="#ff3763" stroke-width="1"/>
    <path id="Path_65" data-name="Path 65" d="M30.451,12.259C30.451,6.041,26.134,1,20.809,1s-9.643,5.041-9.643,11.259" fill="none" stroke="#000" stroke-width="1"/>
  </g>
</svg>
