<svg xmlns="http://www.w3.org/2000/svg" width="26.918" height="25" viewBox="0 0 26.918 25">
  <g id="Pet_Insurance" data-name="Pet Insurance" transform="translate(-2.541 -3.5)">
    <path id="Path_38" data-name="Path 38" d="M22,25a3,3,0,0,1-6,0V17" fill="none" stroke="#000" stroke-linecap="round" stroke-linejoin="round" stroke-width="1"/>
    <path id="Path_39" data-name="Path 39" d="M4.042,17a1,1,0,0,1-1-1.089,13,13,0,0,1,25.91,0,1,1,0,0,1-1,1.089Z" fill="#fff" stroke="#000" stroke-linecap="round" stroke-linejoin="round" stroke-width="1"/>
    <path id="Path_40" data-name="Path 40" d="M15.5,8.094v.688" fill="none" stroke="#ff3763" stroke-linecap="round" stroke-linejoin="round" stroke-width="1"/>
    <path id="Path_41" data-name="Path 41" d="M15.5,12.219v.687" fill="none" stroke="#ff3763" stroke-linecap="round" stroke-linejoin="round" stroke-width="1"/>
    <path id="Path_42" data-name="Path 42" d="M15.5,14.625A4.125,4.125,0,1,0,11.375,10.5,4.125,4.125,0,0,0,15.5,14.625Z" fill="none" stroke="#ff3763" stroke-linecap="round" stroke-linejoin="round" stroke-width="1"/>
    <path id="Path_43" data-name="Path 43" d="M14.469,12.219h1.547a.859.859,0,1,0,0-1.719H14.984a.859.859,0,1,1,0-1.719h1.547" fill="none" stroke="#ff3763" stroke-linecap="round" stroke-linejoin="round" stroke-width="1"/>
  </g>
</svg>
