<svg xmlns="http://www.w3.org/2000/svg" width="30.064" height="30.008" viewBox="0 0 30.064 30.008">
  <g id="Rewards_Offers" data-name="Rewards &amp; Offers" transform="translate(-3.524 -3.5)">
    <path id="Path_66" data-name="Path 66" d="M18.556,4c-3.293,0-3.6,5.736-5.565,7.763s-8.056-.291-8.9,3.307,4.638,4.82,5.314,7.908-2.67,7.426.192,9.585,5.944-2.726,8.962-2.726,6.1,4.883,8.962,2.726-.486-6.5.192-9.585,6.159-4.309,5.314-7.908-6.942-1.28-8.9-3.307S21.849,4,18.556,4Z" transform="translate(0)" fill="#fff" stroke="#130f26" stroke-linecap="round" stroke-linejoin="round" stroke-width="1" fill-rule="evenodd"/>
    <path id="Path_67" data-name="Path 67" d="M18.981,14.835,14.066,19.75" transform="translate(2.144 2.308)" fill="none" stroke="#ff3763" stroke-linecap="round" stroke-linejoin="round" stroke-width="1"/>
    <path id="Path_68" data-name="Path 68" d="M14.8,16.521a.956.956,0,1,0-.956-.956A.956.956,0,0,0,14.8,16.521Z" transform="translate(2.096 2.26)" fill="none" stroke="#ff3763" stroke-miterlimit="10" stroke-width="1"/>
    <path id="Path_69" data-name="Path 69" d="M17.723,19.447a.956.956,0,1,0-.956-.956A.956.956,0,0,0,17.723,19.447Z" transform="translate(2.72 2.883)" fill="none" stroke="#ff3763" stroke-miterlimit="10" stroke-width="1"/>
  </g>
</svg>
