<svg xmlns="http://www.w3.org/2000/svg" width="21.945" height="18.118" viewBox="0 0 21.945 18.118">
  <g id="Group_234" data-name="Group 234" transform="translate(-246.25 -755.25)">
    <g id="Sitters" transform="translate(245.25 752.25)">
      <path id="Path_97" data-name="Path 97" d="M11.972,20.368c-3.239,0-6.006-.49-6.006-2.452s2.749-3.67,6.006-3.67c3.239,0,6.006,1.692,6.006,3.653S15.229,20.368,11.972,20.368Z" fill="none" stroke="#ff3763" stroke-linecap="round" stroke-linejoin="round" stroke-width="1.5" fill-rule="evenodd"/>
      <path id="Path_98" data-name="Path 98" d="M11.972,11.449a3.837,3.837,0,1,0-.027,0Z" fill="none" stroke="#ff3763" stroke-linecap="round" stroke-linejoin="round" stroke-width="1.5" fill-rule="evenodd"/>
      <path id="Path_99" data-name="Path 99" d="M18.362,10.392A2.9,2.9,0,0,0,18.2,4.749" fill="none" stroke="#ff3763" stroke-linecap="round" stroke-linejoin="round" stroke-width="1.5"/>
      <path id="Path_100" data-name="Path 100" d="M18.943,13.544c1.754,0,3.252,1.189,3.252,2.251a1.64,1.64,0,0,1-1.3,1.49" fill="none" stroke="#ff3763" stroke-linecap="round" stroke-linejoin="round" stroke-width="1.5"/>
      <path id="Path_101" data-name="Path 101" d="M5.584,10.392a2.9,2.9,0,0,1,.165-5.643" fill="none" stroke="#ff3763" stroke-linecap="round" stroke-linejoin="round" stroke-width="1.5"/>
      <path id="Path_102" data-name="Path 102" d="M5,13.544c-1.754,0-3.252,1.189-3.252,2.251a1.64,1.64,0,0,0,1.3,1.49" fill="none" stroke="#ff3763" stroke-linecap="round" stroke-linejoin="round" stroke-width="1.5"/>
    </g>
  </g>
</svg>
