<svg xmlns="http://www.w3.org/2000/svg" width="25.754" height="29.432" viewBox="0 0 25.754 29.432">
  <g id="Vets" transform="translate(1.633 0.993)">
    <path id="Path_71" data-name="Path 71" d="M21.585,18.968a2.036,2.036,0,1,0-2.036-2.036A2.036,2.036,0,0,0,21.585,18.968Z" fill="#fff" stroke="#000" stroke-linecap="round" stroke-linejoin="round" stroke-width="1"/>
    <path id="Path_72" data-name="Path 72" d="M4.48,18.968a2.036,2.036,0,1,0-2.036-2.036A2.036,2.036,0,0,0,4.48,18.968Z" fill="#fff" stroke="#000" stroke-linecap="round" stroke-linejoin="round" stroke-width="1"/>
    <path id="Path_73" data-name="Path 73" d="M9.367,14.08a2.036,2.036,0,1,0-2.036-2.036A2.036,2.036,0,0,0,9.367,14.08Z" fill="#fff" stroke="#000" stroke-linecap="round" stroke-linejoin="round" stroke-width="1"/>
    <path id="Path_74" data-name="Path 74" d="M16.7,14.08a2.036,2.036,0,1,0-2.036-2.036A2.036,2.036,0,0,0,16.7,14.08Z" fill="#fff" stroke="#000" stroke-linecap="round" stroke-linejoin="round" stroke-width="1"/>
    <path id="Path_75" data-name="Path 75" d="M18.656,21.8a4.433,4.433,0,0,1-2.1-2.637h0a3.665,3.665,0,0,0-7.039,0h0a4.433,4.433,0,0,1-2.1,2.637,3.259,3.259,0,0,0,2.823,5.866,7.384,7.384,0,0,1,5.6,0A3.259,3.259,0,0,0,18.656,21.8Z" fill="#fff" stroke="#000" stroke-linecap="round" stroke-linejoin="round" stroke-width="1"/>
    <g id="Union_1" data-name="Union 1" transform="translate(1506.143 728.728)" fill="#fff">
      <path d="M -1500.774780273438 -719.22021484375 L -1503.775390625 -719.22021484375 L -1503.775390625 -722.2203369140625 L -1503.775390625 -722.7203369140625 L -1504.275390625 -722.7203369140625 L -1507.275390625 -722.7203369140625 L -1507.275390625 -725.7208251953125 L -1504.275390625 -725.7208251953125 L -1503.775390625 -725.7208251953125 L -1503.775390625 -726.2208251953125 L -1503.775390625 -729.220947265625 L -1500.774780273438 -729.220947265625 L -1500.774780273438 -726.2208251953125 L -1500.774780273438 -725.7208251953125 L -1500.274780273438 -725.7208251953125 L -1497.275634765625 -725.7208251953125 L -1497.275634765625 -722.7203369140625 L -1500.274780273438 -722.7203369140625 L -1500.774780273438 -722.7203369140625 L -1500.774780273438 -722.2203369140625 L -1500.774780273438 -719.22021484375 Z" stroke="none"/>
      <path d="M -1501.274780273438 -719.72021484375 L -1501.274780273438 -722.2203369140625 L -1501.274780273438 -723.2203369140625 L -1500.274780273438 -723.2203369140625 L -1497.775634765625 -723.2203369140625 L -1497.775634765625 -725.2208251953125 L -1500.274780273438 -725.2208251953125 L -1501.274780273438 -725.2208251953125 L -1501.274780273438 -726.2208251953125 L -1501.274780273438 -728.720947265625 L -1503.275390625 -728.720947265625 L -1503.275390625 -726.2208251953125 L -1503.275390625 -725.2208251953125 L -1504.275390625 -725.2208251953125 L -1506.775390625 -725.2208251953125 L -1506.775390625 -723.2203369140625 L -1504.275390625 -723.2203369140625 L -1503.275390625 -723.2203369140625 L -1503.275390625 -722.2203369140625 L -1503.275390625 -719.72021484375 L -1501.274780273438 -719.72021484375 M -1500.274780273438 -718.72021484375 L -1504.275390625 -718.72021484375 L -1504.275390625 -722.2203369140625 L -1507.775390625 -722.2203369140625 L -1507.775390625 -726.2208251953125 L -1504.275390625 -726.2208251953125 L -1504.275390625 -729.720947265625 L -1500.274780273438 -729.720947265625 L -1500.274780273438 -726.2208251953125 L -1496.775634765625 -726.2208251953125 L -1496.775634765625 -722.2203369140625 L -1500.274780273438 -722.2203369140625 L -1500.274780273438 -718.72021484375 Z" stroke="none" fill="#ff3763"/>
    </g>
  </g>
</svg>
