<svg width="60" height="60" viewBox="0 0 60 60" fill="none" xmlns="http://www.w3.org/2000/svg">
<path d="M26.9746 37.8489V39.0421C26.9746 39.4474 27.3032 39.776 27.7085 39.776C28.1138 39.776 28.4424 39.4474 28.4424 39.0421V37.8489C28.4424 37.4436 28.1139 37.115 27.7085 37.115C27.3031 37.115 26.9746 37.4436 26.9746 37.8489Z" fill="#FE4164"/>
<path d="M51.9259 39.6696C51.6442 39.4075 51.2079 39.4075 50.9262 39.6696L49.32 41.1638V32.4834L50.2543 33.3632C51.0896 34.1517 52.2668 34.3471 53.3008 33.8982C55.1412 33.1774 55.5746 30.573 54.1146 29.2641L49.3201 24.7488V15.6972C49.3201 14.7531 48.552 13.9849 47.6078 13.9849H44.4131C43.469 13.9849 42.7008 14.7531 42.7008 15.6972V18.5149L32.6503 9.04978C31.1641 7.65007 28.8356 7.65007 27.3494 9.04978L22.646 13.4793C22.351 13.7571 22.337 14.2215 22.615 14.5166C22.8928 14.8117 23.3573 14.8256 23.6524 14.5477L28.3558 10.1182C29.2776 9.24997 30.7222 9.24997 31.644 10.1182L53.1084 30.3326C53.3777 30.5862 53.5321 30.9437 53.5321 31.3137C53.5321 31.8684 53.228 32.3308 52.7189 32.5508C52.2097 32.7706 51.6644 32.675 51.2607 32.2946L45.227 26.6123C44.932 26.3345 44.4675 26.3484 44.1896 26.6434C43.9118 26.9384 43.9256 27.4028 44.2206 27.6808L47.8524 31.1011V42.8487V44.1861H44.2867V42.8487C44.2867 42.6449 44.2019 42.4502 44.0527 42.3114L41.2128 39.6695C40.9312 39.4074 40.4949 39.4074 40.2131 39.6695L37.3733 42.3114C37.2241 42.4502 37.1393 42.6449 37.1393 42.8487V44.1861H36.0903V38.3876C36.0903 37.9823 35.7618 37.6537 35.3564 37.6537C34.9512 37.6537 34.6225 37.9823 34.6225 38.3876V44.1861H33.5735V42.8487C33.5735 42.6449 33.4888 42.4502 33.3395 42.3114L30.4997 39.6695C30.218 39.4074 29.7817 39.4074 29.5 39.6695L26.6602 42.3114C26.5109 42.4502 26.4262 42.6449 26.4262 42.8487V44.1861H25.3772V32.1343H34.6225V35.4523C34.6225 35.8576 34.9512 36.1862 35.3564 36.1862C35.7617 36.1862 36.0903 35.8576 36.0903 35.4523V31.4005C36.0903 30.9952 35.7618 30.6666 35.3564 30.6666H24.6434C24.2381 30.6666 23.9095 30.9952 23.9095 31.4005V44.1863H22.8605V42.8489C22.8605 42.6451 22.7757 42.4504 22.6265 42.3116L19.7867 39.6697C19.5049 39.4076 19.0687 39.4076 18.787 39.6697L15.9471 42.3116C15.7979 42.4504 15.7131 42.6451 15.7131 42.8489V44.1863H12.1474V42.8489V31.1012L29.9999 14.2882L42.0847 25.6693C42.3798 25.9473 42.8443 25.9332 43.1221 25.6383C43.3999 25.3432 43.3861 24.8788 43.091 24.6009L30.503 12.746C30.2203 12.4798 29.7794 12.4798 29.4968 12.746L8.73924 32.2947C8.33534 32.6751 7.79013 32.7708 7.28105 32.5509C6.77177 32.3309 6.46777 31.8684 6.46777 31.3138C6.46777 30.9438 6.62216 30.5863 6.8915 30.3327L21.5164 16.5594C21.8115 16.2816 21.8254 15.8171 21.5475 15.522C21.2697 15.227 20.8052 15.213 20.5101 15.4909L5.88515 29.2642C4.4251 30.5733 4.85889 33.1775 6.69911 33.8982C7.733 34.3472 8.91034 34.1516 9.74559 33.3632L10.6799 32.4833V41.1637L9.07371 39.6695C8.79207 39.4074 8.35575 39.4074 8.07401 39.6695L5.23418 42.3114C5.08477 42.4503 5 42.645 5 42.8488V51.5514C5 51.9566 5.32861 52.2853 5.73388 52.2853H11.4135C11.8188 52.2853 12.1474 51.9566 12.1474 51.5514V49.6168H15.7131V51.5514C15.7131 51.9566 16.0418 52.2853 16.447 52.2853H22.1267C22.532 52.2853 22.8606 51.9566 22.8606 51.5514V49.6168H26.4263V51.5514C26.4263 51.9566 26.7549 52.2853 27.1602 52.2853H32.8398C33.2451 52.2853 33.5737 51.9566 33.5737 51.5514V49.6168H37.1394V51.5514C37.1394 51.9566 37.468 52.2853 37.8733 52.2853H43.553C43.9582 52.2853 44.2869 51.9566 44.2869 51.5514V49.6168H47.8526V51.5514C47.8526 51.9566 48.1812 52.2853 48.5864 52.2853H54.2661C54.6714 52.2853 55 51.9566 55 51.5514V42.8488C55 42.645 54.9152 42.4503 54.766 42.3115L51.9259 39.6696ZM44.1684 15.6972C44.1684 15.5623 44.2782 15.4526 44.413 15.4526H47.6077C47.7426 15.4526 47.8524 15.5623 47.8524 15.6972V23.3666L44.1684 19.8972V15.6972ZM10.6797 50.8176H6.46767V43.1684L8.57362 41.2092L10.6797 43.1684V44.92V50.8176ZM12.1474 48.1492V45.6539H15.7131V48.1492H12.1474ZM21.3928 50.8176H17.1808V43.1684L19.2869 41.2092L21.3929 43.1684V50.8176H21.3928ZM22.8605 48.1492V45.6539H26.4262V48.1492H22.8605ZM32.1059 50.8176H27.894V43.1684L29.9999 41.2092L32.1059 43.1684V50.8176ZM33.5736 48.1492V45.6539H37.1393V48.1492H33.5736ZM42.819 50.8176H38.607V43.1684L40.713 41.2092L42.8191 43.1684V50.8176H42.819ZM44.2867 48.1492V45.6539H47.8524V48.1492H44.2867ZM53.5321 50.8176H49.3201V44.92V43.1684L51.4262 41.2092L53.5322 43.1684V50.8176H53.5321Z" fill="#FE4164"/>
</svg>
