<svg width="60" height="60" viewBox="0 0 60 60" fill="none" xmlns="http://www.w3.org/2000/svg">
<path d="M54.8876 38.5236C54.8541 38.3073 54.8162 38.0621 54.7801 37.7861L53.4272 27.4032C53.2974 25.5823 52.8331 24.0861 52.0074 22.8311C50.9555 21.2324 49.3144 20.0406 47.1243 19.2831C46.0237 15.6001 42.7019 13.0744 38.8624 13.0744C36.7514 13.0744 34.7578 13.8506 33.126 15.2857C31.5619 12.5771 28.9215 11 25.8356 11C22.4901 11 19.5923 12.8986 18.5426 15.6448C18.1805 15.568 17.8044 15.5296 17.4169 15.5296C15.6407 15.5296 13.7496 16.3693 12.3582 17.7758C11.115 19.0327 10.3689 20.6169 10.2147 22.2988C8.3631 22.9979 7.16877 24.3952 7.17668 25.929L7.18 26.5561L6.20462 31.6519C6.20413 31.654 6.20374 31.6561 6.20335 31.6582L5.18363 36.9857C4.94213 38.2471 4.8852 39.2075 5.34652 40.0972C5.74564 40.867 6.43528 41.4017 7.47902 42.2112L7.68918 42.3744C10.2697 44.3793 13.7761 45.8995 18.1119 46.8923C21.6692 47.7069 25.7097 48.1317 29.8646 48.1317C30.2564 48.1317 30.6494 48.1279 31.0431 48.1203C40.3407 47.9411 48.8641 45.6965 53.2868 42.2625C55.0816 40.869 55.1484 40.2074 54.8876 38.5236ZM11.409 23.9677C11.8433 23.8546 12.1448 23.4602 12.1398 23.0113C12.1243 21.5858 12.6955 20.2144 13.7481 19.1501C14.7801 18.1067 16.1518 17.4838 17.4173 17.4838C17.9158 17.4838 18.3765 17.581 18.7872 17.7725C19.06 17.8997 19.3758 17.8942 19.644 17.7576C19.912 17.6209 20.1022 17.3686 20.1595 17.0733C20.6847 14.3691 23.4126 12.9543 25.836 12.9543C28.5619 12.9543 30.8461 14.5863 31.9466 17.32C32.0743 17.6373 32.3587 17.8646 32.6963 17.9196C33.0342 17.9746 33.3755 17.8489 33.5974 17.5883C35.0019 15.9378 36.8719 15.0287 38.8628 15.0287C41.9746 15.0287 44.6485 17.1838 45.3654 20.2696C45.4445 20.61 45.6994 20.8823 46.034 20.9837C50.3433 22.2888 51.2398 24.9594 51.4539 27.2408C50.3298 28.7651 47.7862 30.3495 44.5526 31.5261C41.6622 32.578 36.8159 33.8316 30.1434 33.8316C18.116 33.8316 9.6002 30.0932 9.13526 26.5839L9.13174 25.9188C9.12745 25.1456 10.1065 24.3068 11.409 23.9677ZM53.0317 39.8135C52.9371 40.0599 52.3207 40.5387 52.0884 40.719C47.6109 44.1956 38.7309 46.1871 29.8494 46.1868C21.7492 46.1866 13.6475 44.5296 8.88907 40.8313L8.67716 40.6669C6.79065 39.204 6.75462 39.1761 7.10354 37.3531L7.80187 33.7046C8.98682 34.6298 10.3786 35.4361 12.017 36.1468C12.1436 36.2018 12.2756 36.2278 12.4054 36.2278C12.7828 36.2278 13.1425 36.0078 13.3023 35.6393C13.5171 35.1442 13.2898 34.5687 12.7948 34.354C10.9247 33.5428 9.42461 32.6069 8.22345 31.5029L8.57775 29.6517C9.82481 31.0674 11.8669 32.3315 14.5979 33.3461C18.8325 34.9194 24.3531 35.7858 30.1432 35.7858C37.1005 35.7858 42.1825 34.4681 45.2206 33.3626C47.954 32.3681 50.2225 31.1045 51.7622 29.7486L52.8424 38.0386C52.8815 38.3378 52.9212 38.5953 52.9565 38.8224C53.0325 39.3137 53.0874 39.6685 53.0317 39.8135Z" fill="#FE4164"/>
<path d="M15.4366 35.343C15.419 35.3375 15.3999 35.3321 15.3823 35.3277C14.8592 35.1969 14.3282 35.5151 14.1974 36.0387C14.0697 36.5495 14.3696 37.0669 14.8705 37.2133C14.9631 37.2407 15.0566 37.2538 15.1486 37.2538C15.5691 37.2538 15.9571 36.9805 16.0842 36.5572C16.2384 36.043 15.9488 35.5011 15.4366 35.343Z" fill="#FE4164"/>
<path d="M43.9383 20.6014C43.5153 18.7808 42.2311 17.3465 40.5033 16.7645C40.2398 16.6758 39.9706 16.6077 39.7028 16.5622C39.6011 16.5449 39.4978 16.5305 39.3955 16.5195C38.8588 16.4624 38.3771 16.8498 38.3192 17.3863C38.2613 17.9228 38.6493 18.4046 39.1859 18.4626C39.2487 18.4693 39.3124 18.4782 39.3749 18.4888C39.5423 18.5173 39.7121 18.5602 39.8792 18.6167C40.9766 18.9861 41.7621 19.8707 42.0346 21.0436C42.1394 21.495 42.5413 21.7998 42.9856 21.7998C43.0587 21.7998 43.1332 21.7915 43.2074 21.7743C43.7332 21.6521 44.0604 21.127 43.9383 20.6014Z" fill="#FE4164"/>
<path d="M37.45 17.6208C37.1615 17.1648 36.5579 17.029 36.1018 17.3176L36.07 17.3381C35.6202 17.6332 35.4965 18.2344 35.7897 18.6854C35.9765 18.9729 36.2902 19.129 36.6103 19.129C36.7923 19.129 36.9766 19.0785 37.1408 18.9728L37.1469 18.9689C37.603 18.6804 37.7387 18.0767 37.45 17.6208Z" fill="#FE4164"/>
<path d="M18.0515 23.075C16.4351 23.075 15.1201 24.39 15.1201 26.0064C15.1201 27.6228 16.4351 28.9378 18.0515 28.9378C19.6679 28.9378 20.983 27.6228 20.983 26.0064C20.983 24.39 19.6679 23.075 18.0515 23.075ZM18.0515 26.9836C17.5128 26.9836 17.0744 26.5452 17.0744 26.0065C17.0744 25.4677 17.5129 25.0293 18.0515 25.0293C18.5903 25.0293 19.0287 25.4677 19.0287 26.0065C19.0287 26.5452 18.5903 26.9836 18.0515 26.9836Z" fill="#FE4164"/>
<path d="M37.3705 23.2615C35.4834 23.2615 33.9482 24.7968 33.9482 26.6838C33.9482 28.5709 35.4836 30.1062 37.3705 30.1062C39.2577 30.1062 40.7928 28.5708 40.7928 26.6838C40.7928 24.7967 39.2575 23.2615 37.3705 23.2615ZM37.3705 28.152C36.561 28.152 35.9025 27.4934 35.9025 26.6839C35.9025 25.8744 36.561 25.2159 37.3705 25.2159C38.1799 25.2159 38.8385 25.8744 38.8385 26.6839C38.8385 27.4934 38.1799 28.152 37.3705 28.152Z" fill="#FE4164"/>
<path d="M27.4949 17.3057C25.8785 17.3057 24.5635 18.6207 24.5635 20.2371C24.5635 21.8535 25.8785 23.1685 27.4949 23.1685C29.1113 23.1685 30.4263 21.8535 30.4263 20.2371C30.4263 18.6207 29.1113 17.3057 27.4949 17.3057ZM27.4949 21.2143C26.9561 21.2143 26.5178 20.7759 26.5178 20.2372C26.5178 19.6984 26.9561 19.26 27.4949 19.26C28.0337 19.26 28.472 19.6984 28.472 20.2372C28.472 20.7759 28.0337 21.2143 27.4949 21.2143Z" fill="#FE4164"/>
</svg>
