<?xml version="1.0" encoding="UTF-8"?>
<svg width="60px" height="60px" viewBox="0 0 60 60" version="1.1" xmlns="http://www.w3.org/2000/svg" xmlns:xlink="http://www.w3.org/1999/xlink">
    <!-- Generator: Sketch 54.1 (76490) - https://sketchapp.com -->
    <title>filter_b_10</title>
    <desc>Created with Sketch.</desc>
    <g id="filter_b_10" stroke="none" stroke-width="1" fill="none" fill-rule="evenodd">
        <path d="M53.9972813,41.3855 L53.268375,40.9849063 C53.2221562,40.9595 48.65625,38.4073438 48.65625,34.71875 L48.65625,32.6110625 C48.65625,30.9448437 48.1988437,29.3764063 47.3952187,28.032875 C49.0350938,27.1686875 50.15625,25.447625 50.15625,23.46875 L47.34375,23.46875 C47.34375,24.6041562 46.5320625,25.5532813 45.458625,25.7672188 C44.2853438,24.7896875 42.8479687,24.1044687 41.2465312,23.8314687 L25.5957187,21.1637188 C24.2529375,20.934875 23.0976562,20.0658125 22.5053437,18.8390938 L16.8201563,8 L14.53125,8 L14.53125,13.080125 L10.78125,14.017625 L10.78125,15.0096875 L6,16.8846875 L6,18.4262188 L8.79253125,21.21875 L14.53125,21.21875 L14.53125,26.0674063 C14.53125,29.7427813 16.2699375,33.1274375 19.21875,35.2671875 L19.21875,49.25 L16.40625,49.25 L16.40625,52.0625 L22.03125,52.0625 L22.03125,49.7569063 L25.4181563,37.3536875 C25.7725313,37.3093437 38.8767188,34.8513125 38.8767188,34.8513125 C39.5877188,36.8823125 40.7509687,38.74325 42.3164062,40.3085938 C44.7257812,42.7179687 47.8347188,44.1761562 51.1875,44.4954687 L51.1875,49.25 L48.375,49.25 L48.375,52.0625 L54,52.0625 L54,42.21875 L53.9972813,41.3855 Z" id="Shape" fill="#4A4A4A" fill-rule="nonzero"></path>
    </g>
</svg>