<svg width="60" height="60" viewBox="0 0 60 60" fill="none" xmlns="http://www.w3.org/2000/svg">
<path d="M37.3261 48.7742C37.3044 48.634 37.2798 48.4751 37.2564 48.2963L36.3798 41.5684C36.2957 40.3885 35.9948 39.419 35.4598 38.6057C34.7782 37.5699 33.7148 36.7975 32.2956 36.3067C31.5825 33.9202 29.43 32.2836 26.9421 32.2836C25.5742 32.2836 24.2824 32.7866 23.225 33.7165C22.2116 31.9614 20.5006 30.9395 18.501 30.9395C16.3332 30.9395 14.4555 32.1697 13.7753 33.9492C13.5407 33.8994 13.297 33.8745 13.0459 33.8745C11.8949 33.8745 10.6695 34.4186 9.76794 35.33C8.96241 36.1444 8.47896 37.171 8.37904 38.2609C7.17921 38.7138 6.40532 39.6193 6.41044 40.6131L6.41259 41.0195L5.78057 44.3214C5.78025 44.3228 5.78 44.3242 5.77974 44.3255L5.11899 47.7776C4.9625 48.595 4.92561 49.2173 5.22454 49.7938C5.48316 50.2926 5.93003 50.6391 6.60635 51.1636L6.74253 51.2694C8.41467 52.5685 10.6868 53.5536 13.4962 54.1969C15.8013 54.7248 18.4195 55 21.1117 55C21.3656 55 21.6203 54.9976 21.8754 54.9926C27.9 54.8765 33.423 53.422 36.2888 51.1968C37.4518 50.2939 37.4951 49.8652 37.3261 48.7742ZM9.15288 39.3422C9.43434 39.2689 9.62968 39.0134 9.62645 38.7225C9.61639 37.7988 9.98651 36.9102 10.6686 36.2206C11.3373 35.5444 12.2261 35.1408 13.0462 35.1408C13.3691 35.1408 13.6677 35.2038 13.9338 35.3279C14.1106 35.4103 14.3152 35.4067 14.489 35.3182C14.6627 35.2297 14.7859 35.0662 14.823 34.8748C15.1633 33.1226 16.931 32.2058 18.5013 32.2058C20.2676 32.2058 21.7477 33.2633 22.4608 35.0347C22.5436 35.2402 22.7279 35.3876 22.9466 35.4232C23.1656 35.4588 23.3867 35.3774 23.5305 35.2085C24.4406 34.139 25.6523 33.55 26.9423 33.55C28.9587 33.55 30.6913 34.9464 31.1559 36.9459C31.2072 37.1665 31.3723 37.343 31.5891 37.4087C34.3815 38.2543 34.9624 39.9848 35.1011 41.4631C34.3727 42.4509 32.7245 43.4775 30.6292 44.2399C28.7563 44.9215 25.616 45.7338 21.2924 45.7338C13.4989 45.7338 7.98083 43.3114 7.67956 41.0375L7.67728 40.6065C7.6745 40.1055 8.30893 39.562 9.15288 39.3422ZM36.1235 49.61C36.0622 49.7697 35.6628 50.0799 35.5123 50.1967C32.611 52.4495 26.8569 53.7399 21.1018 53.7398C15.8531 53.7396 10.6034 52.6659 7.52003 50.2695L7.38272 50.1629C6.1603 49.215 6.13695 49.1969 6.36305 48.0157L6.81555 45.6515C7.58338 46.251 8.48522 46.7735 9.54685 47.234C9.62892 47.2696 9.71441 47.2865 9.79851 47.2865C10.0431 47.2865 10.2761 47.144 10.3797 46.9052C10.5189 46.5844 10.3716 46.2114 10.0509 46.0724C8.83908 45.5467 7.86705 44.9402 7.08873 44.2249L7.3183 43.0254C8.12637 43.9427 9.44959 44.7618 11.2192 45.4193C13.9631 46.4387 17.5404 47.0001 21.2922 47.0001C25.8004 47.0001 29.0934 46.1463 31.0621 45.4299C32.8333 44.7855 34.3032 43.9668 35.3009 43.0881L36.0009 48.4599C36.0262 48.6537 36.0519 48.8206 36.0748 48.9678C36.124 49.2861 36.1596 49.516 36.1235 49.61Z" fill="#FE4164"/>
<path d="M12.0838 47.6087C12.0718 47.605 12.0588 47.6013 12.0469 47.5983C11.6918 47.5095 11.3314 47.7255 11.2426 48.0809C11.1559 48.4276 11.3595 48.7788 11.6995 48.8781C11.7623 48.8968 11.8258 48.9056 11.8883 48.9056C12.1736 48.9056 12.437 48.7201 12.5233 48.4328C12.6279 48.0838 12.4314 47.716 12.0838 47.6087Z" fill="#FE4164"/>
<path d="M31.4291 37.603C31.1421 36.3673 30.2704 35.3937 29.0976 34.9987C28.9188 34.9385 28.7361 34.8923 28.5543 34.8614C28.4853 34.8496 28.4152 34.8399 28.3457 34.8324C27.9815 34.7936 27.6545 35.0566 27.6152 35.4207C27.5759 35.7849 27.8393 36.1119 28.2035 36.1512C28.2461 36.1558 28.2893 36.1618 28.3317 36.1691C28.4454 36.1884 28.5606 36.2175 28.6741 36.2558C29.4189 36.5066 29.9521 37.107 30.137 37.9031C30.2081 38.2095 30.481 38.4164 30.7825 38.4164C30.8321 38.4164 30.8827 38.4108 30.9331 38.3991C31.2899 38.3161 31.512 37.9597 31.4291 37.603Z" fill="#FE4164"/>
<path d="M27.0258 35.5797C26.8299 35.2702 26.4202 35.178 26.1107 35.3739L26.0891 35.3878C25.7838 35.5881 25.6998 35.9962 25.8988 36.3023C26.0256 36.4974 26.2385 36.6033 26.4558 36.6033C26.5794 36.6033 26.7044 36.5691 26.8159 36.4974L26.82 36.4947C27.1296 36.2989 27.2217 35.8891 27.0258 35.5797Z" fill="#FE4164"/>
<path d="M13.8588 39.282C12.7617 39.282 11.8691 40.1746 11.8691 41.2717C11.8691 42.3688 12.7617 43.2614 13.8588 43.2614C14.9559 43.2614 15.8485 42.3688 15.8485 41.2717C15.8485 40.1746 14.9559 39.282 13.8588 39.282ZM13.8588 41.935C13.4931 41.935 13.1956 41.6374 13.1956 41.2717C13.1956 40.9061 13.4932 40.6085 13.8588 40.6085C14.2245 40.6085 14.5221 40.9061 14.5221 41.2717C14.5221 41.6374 14.2245 41.935 13.8588 41.935Z" fill="#FE4164"/>
<path d="M26.9713 39.4084C25.6904 39.4084 24.6484 40.4506 24.6484 41.7313C24.6484 43.0122 25.6905 44.0542 26.9713 44.0542C28.2522 44.0542 29.2942 43.0121 29.2942 41.7313C29.2942 40.4505 28.2521 39.4084 26.9713 39.4084ZM26.9713 42.7278C26.4218 42.7278 25.9749 42.2808 25.9749 41.7314C25.9749 41.182 26.4218 40.735 26.9713 40.735C27.5207 40.735 27.9677 41.182 27.9677 41.7314C27.9677 42.2808 27.5207 42.7278 26.9713 42.7278Z" fill="#FE4164"/>
<path d="M20.268 35.3662C19.1709 35.3662 18.2783 36.2588 18.2783 37.3559C18.2783 38.453 19.1709 39.3456 20.268 39.3456C21.3651 39.3456 22.2577 38.453 22.2577 37.3559C22.2577 36.2588 21.3651 35.3662 20.268 35.3662ZM20.268 38.0192C19.9023 38.0192 19.6048 37.7216 19.6048 37.356C19.6048 36.9903 19.9023 36.6927 20.268 36.6927C20.6337 36.6927 20.9312 36.9903 20.9312 37.356C20.9312 37.7216 20.6337 38.0192 20.268 38.0192Z" fill="#FE4164"/>
<path d="M54.0615 22.8347C54.0398 22.6945 54.0151 22.5357 53.9918 22.3568L53.1151 15.6289C53.031 14.449 52.7301 13.4795 52.1951 12.6663C51.5135 11.6304 50.4501 10.8581 49.031 10.3673C48.3178 7.98074 46.1654 6.34416 43.6774 6.34416C42.3095 6.34416 41.0178 6.8471 39.9604 7.77705C38.9469 6.02195 37.236 5 35.2364 5C33.0686 5 31.1909 6.23026 30.5107 8.00972C30.276 7.95998 30.0323 7.93505 29.7813 7.93505C28.6303 7.93505 27.4049 8.47919 26.5033 9.39059C25.6978 10.205 25.2143 11.2316 25.1144 12.3214C23.9146 12.7744 23.1407 13.6798 23.1458 14.6737L23.1479 15.08L22.5159 18.382C22.5156 18.3834 22.5153 18.3847 22.5151 18.3861L21.8543 21.8382C21.6979 22.6555 21.661 23.2778 21.9599 23.8544C22.2185 24.3531 22.6654 24.6997 23.3417 25.2242L23.4779 25.3299C25.15 26.6291 27.4221 27.6141 30.2315 28.2574C32.5367 28.7853 35.1548 29.0606 37.8471 29.0606C38.1009 29.0606 38.3556 29.0581 38.6107 29.0532C44.6353 28.937 50.1583 27.4826 53.0241 25.2574C54.1871 24.3545 54.2304 23.9258 54.0615 22.8347ZM25.8882 13.4028C26.1697 13.3295 26.365 13.0739 26.3618 12.7831C26.3517 11.8593 26.7219 10.9707 27.4039 10.2811C28.0727 9.60498 28.9615 9.20139 29.7815 9.20139C30.1045 9.20139 30.403 9.26435 30.6692 9.38844C30.8459 9.47083 31.0506 9.46728 31.2243 9.37876C31.398 9.29023 31.5212 9.12672 31.5584 8.93536C31.8987 7.18311 33.6663 6.26633 35.2366 6.26633C37.0029 6.26633 38.4831 7.32385 39.1962 9.0952C39.2789 9.3008 39.4632 9.44811 39.682 9.48374C39.9009 9.51936 40.1221 9.43792 40.2658 9.26909C41.1759 8.19956 42.3876 7.6105 43.6777 7.6105C45.6941 7.6105 47.4267 9.00699 47.8913 11.0065C47.9425 11.2271 48.1077 11.4035 48.3245 11.4692C51.1169 12.3149 51.6977 14.0454 51.8365 15.5237C51.1081 16.5114 49.4599 17.538 47.3646 18.3005C45.4916 18.982 42.3514 19.7944 38.0277 19.7944C30.2342 19.7944 24.7162 17.372 24.4149 15.098L24.4126 14.6671C24.4098 14.166 25.0443 13.6225 25.8882 13.4028ZM52.8588 23.6706C52.7975 23.8302 52.3981 24.1405 52.2476 24.2573C49.3463 26.5101 43.5923 27.8005 37.8372 27.8003C32.5885 27.8002 27.3388 26.7265 24.2554 24.33L24.1181 24.2235C22.8957 23.2756 22.8723 23.2575 23.0984 22.0762L23.5509 19.7121C24.3187 20.3116 25.2206 20.8341 26.2822 21.2946C26.3643 21.3302 26.4498 21.3471 26.5339 21.3471C26.7784 21.3471 27.0115 21.2045 27.1151 20.9657C27.2542 20.6449 27.107 20.272 26.7862 20.1329C25.5744 19.6072 24.6024 19.0008 23.8241 18.2854L24.0537 17.0859C24.8617 18.0033 26.1849 18.8223 27.9546 19.4798C30.6985 20.4993 34.2757 21.0607 38.0276 21.0607C42.5358 21.0607 45.8288 20.2068 47.7974 19.4905C49.5686 18.8461 51.0386 18.0273 52.0362 17.1487L52.7362 22.5204C52.7615 22.7143 52.7873 22.8812 52.8101 23.0283C52.8594 23.3467 52.8949 23.5766 52.8588 23.6706Z" fill="#FE4164"/>
<path d="M28.8191 21.6692C28.8071 21.6655 28.7942 21.6619 28.7823 21.6589C28.4272 21.5701 28.0668 21.7861 27.978 22.1414C27.8913 22.4881 28.0948 22.8393 28.4349 22.9387C28.4977 22.9573 28.5611 22.9662 28.6236 22.9662C28.909 22.9662 29.1724 22.7807 29.2586 22.4934C29.3633 22.1443 29.1668 21.7765 28.8191 21.6692Z" fill="#FE4164"/>
<path d="M48.1645 11.6635C47.8774 10.4278 47.0057 9.45424 45.833 9.05926C45.6542 8.99901 45.4714 8.95281 45.2897 8.92192C45.2207 8.91019 45.1505 8.90044 45.0811 8.89295C44.7168 8.85418 44.3899 9.11712 44.3506 9.48128C44.3113 9.84544 44.5746 10.1725 44.9388 10.2118C44.9814 10.2164 45.0247 10.2224 45.0671 10.2296C45.1808 10.249 45.296 10.2781 45.4094 10.3164C46.1543 10.5671 46.6874 11.1676 46.8724 11.9637C46.9435 12.27 47.2163 12.4769 47.5178 12.4769C47.5675 12.4769 47.6181 12.4713 47.6684 12.4596C48.0253 12.3767 48.2473 12.0203 48.1645 11.6635Z" fill="#FE4164"/>
<path d="M43.7602 9.64045C43.5643 9.33098 43.1546 9.23877 42.845 9.43464L42.8234 9.44856C42.5181 9.64887 42.4342 10.057 42.6332 10.3631C42.76 10.5582 42.9729 10.6641 43.1902 10.6641C43.3137 10.6641 43.4388 10.6299 43.5502 10.5581L43.5544 10.5555C43.864 10.3597 43.9561 9.94993 43.7602 9.64045Z" fill="#FE4164"/>
<path d="M30.5942 13.3425C29.4971 13.3425 28.6045 14.2351 28.6045 15.3322C28.6045 16.4293 29.4971 17.3219 30.5942 17.3219C31.6913 17.3219 32.5839 16.4293 32.5839 15.3322C32.5839 14.2351 31.6913 13.3425 30.5942 13.3425ZM30.5942 15.9955C30.2285 15.9955 29.931 15.698 29.931 15.3323C29.931 14.9666 30.2286 14.6691 30.5942 14.6691C30.9599 14.6691 31.2574 14.9666 31.2574 15.3323C31.2574 15.698 30.9599 15.9955 30.5942 15.9955Z" fill="#FE4164"/>
<path d="M43.7066 13.469C42.4258 13.469 41.3838 14.5111 41.3838 15.7919C41.3838 17.0727 42.4259 18.1148 43.7066 18.1148C44.9875 18.1148 46.0295 17.0727 46.0295 15.7919C46.0295 14.511 44.9874 13.469 43.7066 13.469ZM43.7066 16.7884C43.1572 16.7884 42.7102 16.3414 42.7102 15.792C42.7102 15.2425 43.1572 14.7955 43.7066 14.7955C44.256 14.7955 44.7031 15.2425 44.7031 15.792C44.7031 16.3414 44.256 16.7884 43.7066 16.7884Z" fill="#FE4164"/>
<path d="M37.0034 9.42676C35.9062 9.42676 35.0137 10.3193 35.0137 11.4164C35.0137 12.5136 35.9062 13.4061 37.0034 13.4061C38.1005 13.4061 38.993 12.5136 38.993 11.4164C38.993 10.3193 38.1005 9.42676 37.0034 9.42676ZM37.0034 12.0797C36.6377 12.0797 36.3401 11.7822 36.3401 11.4165C36.3401 11.0508 36.6377 10.7533 37.0034 10.7533C37.369 10.7533 37.6666 11.0508 37.6666 11.4165C37.6666 11.7822 37.369 12.0797 37.0034 12.0797Z" fill="#FE4164"/>
</svg>
