<svg width="60" height="60" viewBox="0 0 60 60" fill="none" xmlns="http://www.w3.org/2000/svg">
<path d="M18.4106 39.5835C16.7519 39.5835 15.4023 40.933 15.4023 42.5918C15.4023 44.2506 16.7519 45.6001 18.4106 45.6001C20.0693 45.6001 21.4189 44.2506 21.4189 42.5918C21.419 40.9331 20.0694 39.5835 18.4106 39.5835ZM18.4106 43.6471C17.8288 43.6471 17.3555 43.1737 17.3555 42.5919C17.3555 42.0101 17.8288 41.5367 18.4106 41.5367C18.9925 41.5367 19.4658 42.0101 19.4658 42.5919C19.4658 43.1737 18.9926 43.6471 18.4106 43.6471Z" fill="#FE4164"/>
<path d="M39.1989 19.9153H22.1089C21.7042 19.9153 21.3415 20.1649 21.1968 20.5428L18.125 28.5702C18.0102 28.8703 18.0503 29.2078 18.2327 29.4727C18.4149 29.7374 18.7157 29.8956 19.0371 29.8956H44.9483C45.4876 29.8956 45.9249 29.4584 45.9249 28.9191V26.641C45.925 22.9325 42.9077 19.9153 39.1989 19.9153ZM29.7468 27.9427H20.4565L22.7809 21.8685H29.7468V27.9427ZM38.7559 27.9427H31.6999V21.8685H38.7559V27.9427ZM43.9718 27.9427H40.7091V22.1147C42.6026 22.7481 43.9718 24.5371 43.9718 26.6411V27.9427V27.9427Z" fill="#FE4164"/>
<path d="M41.7642 39.5835C40.1055 39.5835 38.7559 40.933 38.7559 42.5918C38.7559 44.2506 40.1054 45.6001 41.7642 45.6001C43.4228 45.6001 44.7725 44.2506 44.7725 42.5918C44.7725 40.9331 43.4228 39.5835 41.7642 39.5835ZM41.7642 43.6471C41.1823 43.6471 40.709 43.1737 40.709 42.5919C40.709 42.0101 41.1823 41.5367 41.7642 41.5367C42.346 41.5367 42.8193 42.0101 42.8193 42.5919C42.8193 43.1737 42.346 43.6471 41.7642 43.6471Z" fill="#FE4164"/>
<path d="M45.3204 33.1401C45.3075 33.0776 45.289 33.0161 45.2645 32.9575C45.2401 32.8979 45.2099 32.8413 45.1747 32.7886C45.1386 32.7349 45.0985 32.6851 45.0536 32.6401C45.0087 32.5952 44.958 32.5542 44.9052 32.519C44.8515 32.4839 44.7948 32.4536 44.7362 32.4292C44.6776 32.4048 44.6162 32.3862 44.5537 32.3735C44.4277 32.3481 44.2978 32.3481 44.1719 32.3735C44.1093 32.3862 44.0478 32.4048 43.9893 32.4292C43.9306 32.4536 43.8739 32.4839 43.8203 32.519C43.7676 32.5542 43.7169 32.5952 43.6719 32.6401C43.627 32.6852 43.5869 32.7349 43.5508 32.7886C43.5156 32.8413 43.4854 32.8979 43.4609 32.9575C43.4365 33.0161 43.418 33.0776 43.4053 33.1401C43.3926 33.2026 43.3857 33.2671 43.3857 33.3306C43.3857 33.5874 43.4902 33.8393 43.672 34.021C43.8546 34.2026 44.1056 34.3071 44.3634 34.3071C44.4268 34.3071 44.4903 34.3013 44.5538 34.2886C44.6163 34.2759 44.6778 34.2573 44.7363 34.2329C44.795 34.2085 44.8517 34.1782 44.9053 34.1431C44.958 34.1069 45.0088 34.0659 45.0537 34.021C45.2353 33.8393 45.3399 33.5874 45.3399 33.3306C45.3399 33.2671 45.3331 33.2026 45.3204 33.1401Z" fill="#FE4164"/>
<path d="M54.0238 37.656L53.8436 37.6559V33.3309V32.7666C53.8436 30.7697 52.5441 29.0421 50.7068 28.4441V25.0993C50.7068 20.2055 46.7254 16.2243 41.8319 16.2243H41.4062V11.9766C41.4062 11.4372 40.969 11 40.4296 11H23.5553C23.0161 11 22.5788 11.4372 22.5788 11.9766V16.2243H19.8517C18.5534 16.2243 17.3689 17.0391 16.9042 18.2521L13.3588 27.5153L6.80898 30.1317C6.43799 30.2798 6.19472 30.6391 6.19472 31.0386V33.331V37.6555H5.97656C5.4373 37.6555 5 38.0927 5 38.6321C5 39.1714 5.4373 39.6086 5.97656 39.6086H6.19472V42.3158C6.19472 42.8551 6.63203 43.2923 7.17128 43.2923H11.7618C12.1131 46.6503 14.9603 49.2767 18.4097 49.2767C21.8591 49.2767 24.7063 46.6503 25.0576 43.2923H35.1163C35.4675 46.6503 38.3147 49.2767 41.7641 49.2767C45.2136 49.2767 48.0608 46.6503 48.412 43.2923H52.8671C53.4064 43.2923 53.8437 42.8551 53.8437 42.3158V39.6091L54.023 39.6092C54.0231 39.6092 54.0232 39.6092 54.0234 39.6092C54.5626 39.6092 54.9997 39.1722 55 38.6331C55.0002 38.0936 54.5632 37.6562 54.0238 37.656ZM24.5319 12.9531H39.4531V16.2243H24.5319V12.9531ZM8.14785 34.3076H10.3072V37.6555H9.42968H8.14785V34.3076ZM18.4097 47.3236C15.8008 47.3236 13.6781 45.201 13.6781 42.592C13.6781 42.5154 13.6803 42.4392 13.6839 42.3634C13.6839 42.363 13.684 42.3626 13.684 42.3622C13.687 42.2996 13.6921 42.2377 13.6974 42.1758C13.699 42.1581 13.6998 42.1404 13.7014 42.1228C13.7055 42.082 13.7112 42.0417 13.7162 42.0012C13.7212 41.9613 13.7255 41.9211 13.7314 41.8816C13.7346 41.8607 13.7387 41.8403 13.7421 41.8195C13.7519 41.7596 13.762 41.6997 13.7741 41.6407C13.7745 41.6386 13.7751 41.6366 13.7755 41.6345C14.1866 39.6417 15.8549 38.103 17.9115 37.8868C17.9171 37.8862 17.9226 37.8853 17.9282 37.8847C17.999 37.8775 18.0703 37.8724 18.142 37.8684C18.1508 37.8679 18.1593 37.8669 18.1681 37.8665C18.2482 37.8624 18.3287 37.8603 18.4097 37.8603C18.4908 37.8603 18.5713 37.8623 18.6513 37.8665C18.6601 37.8669 18.6687 37.8679 18.6775 37.8684C18.7491 37.8724 18.8205 37.8775 18.8913 37.8847C18.8968 37.8853 18.9023 37.8862 18.908 37.8868C21.0317 38.11 22.7408 39.744 23.0795 41.8318C23.082 41.8477 23.0852 41.8634 23.0877 41.8794C23.0946 41.9251 23.0997 41.9714 23.1052 42.0175C23.1093 42.0519 23.1144 42.0861 23.1177 42.1207C23.1203 42.1467 23.1215 42.1731 23.1237 42.1992C23.1281 42.2533 23.1329 42.3074 23.1354 42.362C23.1391 42.4383 23.1413 42.5149 23.1413 42.592C23.1414 45.2009 21.0188 47.3236 18.4097 47.3236ZM41.7641 47.3236C39.1551 47.3236 37.0326 45.201 37.0326 42.592C37.0326 42.5149 37.0347 42.4383 37.0384 42.362C37.0411 42.3067 37.0458 42.252 37.0503 42.1971C37.0525 42.1718 37.0537 42.1462 37.0562 42.121C37.0597 42.0855 37.0648 42.0504 37.0691 42.0151C37.0746 41.97 37.0795 41.9246 37.0864 41.8799C37.0889 41.8629 37.0923 41.8462 37.0951 41.8293C37.4347 39.743 39.1429 38.1103 41.2657 37.887C41.2714 37.8864 41.2771 37.8854 41.2828 37.8848C41.3534 37.8777 41.4247 37.8726 41.4962 37.8685C41.5051 37.868 41.5138 37.867 41.5228 37.8665C41.6028 37.8624 41.6833 37.8604 41.7644 37.8604C41.8454 37.8604 41.9259 37.8624 42.006 37.8665C42.0149 37.8669 42.0236 37.868 42.0325 37.8685C42.1039 37.8725 42.1752 37.8776 42.2458 37.8848C42.2515 37.8854 42.2572 37.8863 42.2628 37.8869C44.3863 38.1103 46.0953 39.7441 46.4341 41.8318C46.4366 41.8478 46.4399 41.8635 46.4423 41.8795C46.4492 41.9252 46.4543 41.9715 46.4599 42.0176C46.464 42.052 46.469 42.0862 46.4724 42.1208C46.475 42.1468 46.4762 42.1732 46.4783 42.1993C46.4827 42.2534 46.4875 42.3075 46.4901 42.3621C46.4938 42.4384 46.4959 42.515 46.4959 42.5921C46.4957 45.2009 44.3731 47.3236 41.7641 47.3236ZM51.8904 41.3392H48.3317C48.3271 41.315 48.3212 41.2913 48.3164 41.267C48.3127 41.2489 48.3087 41.2309 48.305 41.2128C48.2852 41.1176 48.2633 41.0233 48.2395 40.9296C48.2384 40.9254 48.2373 40.9211 48.2361 40.9169C47.6044 38.456 45.617 36.5617 43.1274 36.0474C43.114 36.0447 43.1006 36.042 43.0872 36.0393C42.9992 36.0217 42.9106 36.0058 42.8214 35.9917C42.7975 35.9879 42.7737 35.984 42.7496 35.9805C42.6693 35.9687 42.5885 35.9585 42.5073 35.9497C42.478 35.9464 42.4488 35.9427 42.4194 35.9398C42.3388 35.932 42.2576 35.9262 42.1762 35.9212C42.1481 35.9195 42.1201 35.9169 42.0918 35.9156C41.9831 35.9104 41.874 35.9072 41.764 35.9072C41.654 35.9072 41.5449 35.9103 41.4362 35.9156C41.4079 35.9169 41.38 35.9195 41.3519 35.9212C41.2705 35.9262 41.1893 35.932 41.1087 35.9398C41.0793 35.9427 41.0502 35.9463 41.0209 35.9496C40.9397 35.9585 40.8587 35.9686 40.7783 35.9805C40.7544 35.984 40.7306 35.9879 40.7068 35.9917C40.6174 36.0059 40.5287 36.0217 40.4406 36.0394C40.4273 36.042 40.414 36.0447 40.4008 36.0474C37.9113 36.5616 35.9238 38.4559 35.292 40.9169C35.291 40.9211 35.2898 40.9254 35.2887 40.9296C35.2649 41.0232 35.2431 41.1176 35.2232 41.2128C35.2194 41.2309 35.2154 41.249 35.2118 41.267C35.207 41.2912 35.2011 41.315 35.1965 41.3392H24.9773C24.9727 41.3149 24.9669 41.2912 24.9621 41.267C24.9584 41.249 24.9545 41.231 24.9506 41.213C24.9307 41.1176 24.9088 41.0231 24.885 40.9293C24.884 40.9253 24.883 40.9214 24.882 40.9175C24.2504 38.4562 22.2628 36.5616 19.7727 36.0475C19.7596 36.0448 19.7466 36.0422 19.7336 36.0396C19.6453 36.0219 19.5563 36.006 19.4669 35.9918C19.4431 35.988 19.4194 35.9842 19.3957 35.9807C19.3152 35.9689 19.2342 35.9587 19.1528 35.9498C19.1236 35.9465 19.0945 35.9428 19.0652 35.94C18.9845 35.9322 18.9033 35.9264 18.8218 35.9214C18.7937 35.9197 18.7659 35.9171 18.7377 35.9158C18.629 35.9105 18.5198 35.9074 18.4098 35.9074C18.2999 35.9074 18.1907 35.9105 18.082 35.9158C18.0538 35.9171 18.0259 35.9197 17.9977 35.9214C17.9163 35.9264 17.8351 35.9322 17.7545 35.94C17.7251 35.9429 17.696 35.9465 17.6667 35.9498C17.5854 35.9587 17.5045 35.9688 17.4241 35.9807C17.4002 35.9842 17.3764 35.9881 17.3526 35.9919C17.2633 36.0061 17.1745 36.022 17.0863 36.0396C17.073 36.0422 17.0598 36.0449 17.0467 36.0476C14.5581 36.5616 12.5712 38.4544 11.9386 40.914C11.9369 40.9204 11.9353 40.9267 11.9337 40.933C11.9105 41.0241 11.8893 41.1159 11.87 41.2083C11.8656 41.2289 11.8611 41.2495 11.8569 41.2702C11.8523 41.2933 11.8467 41.3162 11.8423 41.3394H8.14785V39.6086H9.42968H11.2839C11.8231 39.6086 12.2604 39.1714 12.2604 38.6321V34.3076H40.6026C41.1418 34.3076 41.5791 33.8704 41.5791 33.331C41.5791 32.7917 41.1418 32.3545 40.6026 32.3545H11.284H10.762H8.14785V31.7001L14.3403 29.2264C14.649 29.1526 14.9082 28.931 15.0252 28.6256L18.728 18.9507C18.9051 18.4883 19.3567 18.1775 19.8516 18.1775H23.5553H40.4297H41.8319C45.6487 18.1775 48.7537 21.2827 48.7537 25.0994V29.224C48.7537 29.7178 49.1224 30.1339 49.6126 30.1934C50.7723 30.3341 51.6766 31.2316 51.8569 32.3545H48.9385C48.3992 32.3545 47.9619 32.7917 47.9619 33.331V38.6321C47.9619 39.1714 48.3992 39.6086 48.9385 39.6086H51.8904V41.3392V41.3392ZM51.8904 37.655L50.6098 37.6544C50.6096 37.6544 50.6095 37.6544 50.6093 37.6544C50.6026 37.6544 50.5961 37.6553 50.5895 37.6554H49.9151V34.3075H51.8904V37.655V37.655Z" fill="#FE4164"/>
</svg>
