<?xml version="1.0" encoding="UTF-8"?>
<svg width="60px" height="60px" viewBox="0 0 60 60" version="1.1" xmlns="http://www.w3.org/2000/svg" xmlns:xlink="http://www.w3.org/1999/xlink">
    <!-- Generator: Sketch 54.1 (76490) - https://sketchapp.com -->
    <title>filter_b_15</title>
    <desc>Created with Sketch.</desc>
    <g id="filter_b_15" stroke="none" stroke-width="1" fill="none" fill-rule="evenodd">
        <path d="M52.3997923,21.8497369 C49.5387748,19.5113367 44.896961,17.5969609 38.3093313,20.3311867 C37.213924,19.0852236 35.9626085,18.0951372 34.6029671,17.3922595 C35.0828405,16.264313 35.3602357,14.9515086 35.3602357,13.5426199 C35.3602357,9.37757308 32.9598561,6 30.0006366,6 L30.0006366,6 L30.0006366,6 C27.0383799,6 24.6390127,9.37757308 24.6390127,13.5426199 C24.6390127,14.9504642 24.9184327,16.2632686 25.3952689,17.3922595 C24.0376523,18.0951372 22.7853244,19.0852236 21.6899171,20.3311867 C15.101275,17.5948721 10.4594612,19.5102923 7.59844365,21.8486925 C7.06592587,22.2842052 6.86344763,23.0236367 7.09427282,23.6826499 C7.32611041,24.3416631 7.9386071,24.775087 8.618934,24.7583767 C11.8555487,24.6790027 15.3766454,25.8999003 18.0230361,27.0905105 C17.3791552,29.1897442 17.0207687,31.4915905 17.0207687,33.9083203 C17.0207687,38.0326357 18.0655565,41.8175228 19.8028198,44.8253801 C17.8974995,47.3256615 17.2404576,50.008712 17.1290946,52.288626 C17.0946733,52.9883706 17.5006422,53.6327623 18.1333867,53.8865502 C18.7661312,54.1434714 19.4859414,53.9523471 19.922282,53.4165725 C21.0885567,51.9784407 22.6172674,50.7429216 24.1935605,49.7089706 C25.9429726,50.9058472 27.9110611,51.5961922 30.001649,51.5961922 C32.0912245,51.5961922 34.0603254,50.9068916 35.808725,49.7089706 C37.3860305,50.7429216 38.9127165,51.9784407 40.0789912,53.4165725 C40.518369,53.9544359 41.2381791,54.1434714 41.8709236,53.8865502 C42.5036682,53.6338066 42.9065999,52.989415 42.873191,52.288626 C42.7638527,50.008712 42.104786,47.3256615 40.1994657,44.8253801 C41.9367291,41.8175228 42.9815168,38.0326357 42.9815168,33.9083203 C42.9815168,31.4926349 42.6231303,29.1876554 41.9792495,27.0905105 C44.6246278,25.8988559 48.1467368,24.6790027 51.3833516,24.7573323 C52.0626661,24.775087 52.6761751,24.3416631 52.9070003,23.6816055 C53.1358008,23.0246811 52.9333225,22.2852496 52.3997923,21.8497369 Z" id="Shape" fill="#4A4A4A" fill-rule="nonzero" transform="translate(30.000000, 30.000000) rotate(-37.000000) translate(-30.000000, -30.000000) "></path>
    </g>
</svg>