<?xml version="1.0" encoding="UTF-8"?>
<svg width="60px" height="60px" viewBox="0 0 60 60" version="1.1" xmlns="http://www.w3.org/2000/svg" xmlns:xlink="http://www.w3.org/1999/xlink">
    <!-- Generator: Sketch 54.1 (76490) - https://sketchapp.com -->
    <title>filter_b_11</title>
    <desc>Created with Sketch.</desc>
    <g id="filter_b_11" stroke="none" stroke-width="1" fill="none" fill-rule="evenodd">
        <g id="halloween-black-cat" transform="translate(14.000000, 6.000000)" fill="#4A4A4A" fill-rule="nonzero">
            <path d="M31.753322,45.4881891 C31.5223976,43.5655672 29.3976917,43.3475504 28.1623976,43.4798529 C26.847238,38.5277857 31.4346665,31.1468782 31.7045153,29.3985084 C31.9945321,27.520458 30.3617254,16.5917857 30.1892884,11.0580714 C30.0120111,5.37733194 21.7614565,-0.893928564 20.3839775,0.105802528 C19.0190027,1.61518068 22.3499607,3.65235715 20.5965489,5.39891177 C18.9028346,7.08637396 18.4611539,8.22042438 17.2034733,10.1303403 C13.9814228,15.022105 22.7129859,15.0832143 22.7129859,15.0832143 C22.7129859,15.0832143 15.8796413,20.1478193 14.3591707,22.7002899 C12.9589018,25.0510798 12.3718094,27.6809958 10.6821287,29.8978698 C6.83123796,34.9501723 7.6990699,43.7591807 7.6990699,43.7591807 C7.6990699,43.7591807 0.404279979,41.3714832 4.41893544,33.0432815 C7.47500267,26.7038529 8.98034721,17.3486933 2.10485141,19.7547437 C-0.555114979,20.6857017 2.69960771,22.6438193 3.26128838,23.2710462 C5.14054889,25.3685252 3.55191023,28.8971303 2.41947326,30.9373319 C-0.613199012,36.401063 -1.7141738,42.1255672 4.66901948,45.655584 C7.50525477,47.2238529 11.3355741,47.6118866 15.1907001,47.6687605 L25.000448,47.6969958 C28.2321791,47.8577353 31.8876413,47.2535 31.753322,45.4881891 Z" id="Shape"></path>
        </g>
    </g>
</svg>