<svg width="60" height="60" viewBox="0 0 60 60" fill="none" xmlns="http://www.w3.org/2000/svg">
<path fill-rule="evenodd" clip-rule="evenodd" d="M27.3489 42.3346C31.0691 41.4963 32.5572 44.0111 32.5572 46.7354C32.5572 49.6692 33.0532 52.3936 29.829 53.2318C26.1088 54.4892 24.6207 51.7649 24.6207 49.0406C24.6207 45.8971 24.1247 43.1728 27.3489 42.3346ZM13.9561 5.45154L13.7081 5.24198C13.212 4.82286 13.7081 5.03242 13.46 5.24198C12.964 6.70892 11.2279 9.85236 10.2359 11.3193C9.2438 12.7862 10.9799 16.7679 11.2279 18.654C12.468 23.6835 13.212 28.9226 16.6842 31.6469C16.6842 32.6947 15.6922 32.9042 16.1882 34.5807C16.6842 35.6286 17.4283 35.8381 17.9243 36.4668L16.1882 43.3824C15.1961 42.5441 15.4442 42.3346 14.2041 41.4963C10.9799 39.8198 7.25969 40.8676 5.7716 43.3824C4.77954 45.0589 5.02756 47.7832 5.02756 49.8788C5.02756 54.6987 10.9799 56.1657 14.4521 54.0701C16.1882 53.0222 16.6842 51.3457 16.6842 49.0406C16.6842 47.3641 18.9164 39.1911 19.6604 37.5146C20.1564 38.5624 22.8846 47.5736 22.8846 48.831C22.8846 51.5553 23.3806 52.8127 25.1167 54.0701C28.3409 56.1657 34.2933 54.6987 34.2933 49.8788C34.5413 47.9927 34.7893 45.0589 33.7972 43.3824C31.5651 39.6102 24.8687 40.0294 23.3806 43.3824L21.3965 36.4668C21.8925 35.8381 22.6366 35.8381 23.1326 34.5807C23.6286 33.3234 22.8846 32.6947 22.6366 31.8564C24.1247 29.9704 25.3647 28.9226 26.3568 25.9887C26.8528 23.4739 27.5969 20.9592 28.0929 18.4444C28.3409 17.187 28.5889 15.9297 28.8369 14.8819C29.333 13.2054 29.829 12.5767 29.085 11.1097C27.8449 9.22367 26.8528 7.12804 25.6128 5.03242L19.9084 29.1321L19.4124 28.9226L13.9561 5.45154ZM48.6781 52.184V7.75673C51.6543 7.33761 53.1424 8.17586 53.1424 10.481V49.4597C53.1424 51.7649 51.9023 52.8127 48.6781 52.184ZM41.4857 7.75673H46.942V10.0619H41.4857L41.7337 11.5289H46.942V13.834H41.4857L41.7337 15.301H46.942V17.8157H41.4857L41.7337 19.2827H46.942V21.5879H41.4857L41.7337 23.0548H46.942V25.5695H41.4857L41.7337 27.0365H46.942V29.3417H41.4857L41.7337 30.8086H46.942V33.3234H41.4857L41.7337 34.7903H46.942V37.0955H41.4857L41.7337 38.5624H46.942V41.0772H41.4857L41.7337 42.5441H46.942V44.8493H41.4857L41.7337 46.3162H46.942V48.831H41.4857L41.7337 50.2979H46.942V52.184H41.7337L41.4857 53.8605C44.4618 53.8605 47.686 53.8605 50.6622 53.8605C53.3904 53.6509 54.8785 52.184 54.8785 49.8788V10.2715C54.8785 4.82286 47.438 6.28979 41.4857 6.28979V7.75673ZM9.73983 42.3346C11.4759 41.9154 12.964 42.5441 13.7081 43.3824C14.9481 44.2206 14.9481 45.2684 14.9481 46.7354C14.9481 49.6692 15.1961 52.6031 11.972 53.4414C8.49976 54.2796 7.01167 51.7649 7.01167 49.0406C7.01167 45.8971 6.51564 43.1728 9.73983 42.3346ZM19.1644 32.2756C21.1485 31.6469 22.3886 34.3712 20.4045 34.9999C18.1723 35.8381 16.6842 33.1138 19.1644 32.2756ZM26.3568 10.0619C28.0929 11.7384 27.5969 13.2054 26.8528 15.301C26.6048 17.187 26.1088 19.0731 25.6128 20.9592C24.8687 24.3122 23.8767 28.9226 21.3965 30.5991L26.3568 10.0619ZM17.9243 30.5991C15.1961 28.5034 14.4521 24.5217 13.7081 20.7496C13.212 18.8635 12.716 16.9775 12.22 15.0914C11.7239 12.1575 11.4759 12.5767 12.964 10.0619L17.9243 30.5991Z" fill="#FE4164"/>
</svg>
