<?xml version="1.0" encoding="UTF-8"?>
<svg width="60px" height="60px" viewBox="0 0 60 60" version="1.1" xmlns="http://www.w3.org/2000/svg" xmlns:xlink="http://www.w3.org/1999/xlink">
    <!-- Generator: Sketch 54.1 (76490) - https://sketchapp.com -->
    <title>filter_b_13</title>
    <desc>Created with Sketch.</desc>
    <g id="filter_b_13" stroke="none" stroke-width="1" fill="none" fill-rule="evenodd">
        <path d="M46.8993571,46.1506811 C46.0852462,45.8837111 45.3161988,45.6315012 44.666803,45.38445 C43.7903942,45.0511316 43.5854185,44.898086 43.5400724,44.837613 C43.5876788,44.7931896 43.7382674,44.7254082 43.8413909,44.6791219 C44.1993567,44.5180515 44.6895467,44.297511 44.7170934,43.7958138 C44.7501495,43.1909398 44.1876317,42.0276213 38.9434465,38.9225726 C34.8802376,36.5166901 33.5911934,34.2968124 32.098586,31.7262769 C31.262579,30.2865306 30.3980365,28.7976319 28.9682921,27.1008034 C28.5707721,26.6290561 28.0639128,26.0976955 27.4770974,25.4825038 C25.0467722,22.9346099 21.3741615,19.0841088 21.1163526,14.4769778 C20.790454,8.63000546 16.5705821,6 13.6783199,6 L13.606981,6.0004299 C11.7397386,6.02722721 10.4607242,7.2666386 9.71653947,8.3019892 C9.3708637,8.78419747 8.73446431,9.39466024 8.31137526,9.72425282 C7.79589881,10.1244928 7.39032664,10.6036918 7.106525,11.1479495 C6.97543096,11.3964336 6.96497734,11.637896 7.07714185,11.8279133 C7.21925457,12.0685158 7.53300441,12.1907517 7.92289616,12.1443221 C8.22859389,12.1084969 8.50844011,12.0910141 8.77839777,12.0910141 C10.0483712,12.0910141 10.9675834,12.4719085 11.5101828,13.223093 C12.2834681,14.293409 12.280219,16.1051651 11.500718,18.6076326 C9.28455071,25.7228198 8.64165312,30.9832606 9.53515505,34.6898874 C10.6849119,39.461958 12.2730145,42.3698244 17.763001,45.0207518 C18.2889311,45.2746814 18.8723561,45.495795 19.5018335,45.6939805 C19.1044547,46.9222144 18.6659677,48.1362615 18.2726856,48.9049287 C18.2431612,48.9628223 18.2256443,49.0310336 18.2085513,49.0969522 C18.2013467,49.1246093 18.1911756,49.1640171 18.1811458,49.1942536 C18.0951154,49.1445281 17.9299764,49.0172767 17.781083,48.9024925 C17.5368356,48.7141949 17.232833,48.4798975 16.910466,48.2822853 C16.3119257,47.9154344 15.8474459,47.7446195 15.448937,47.7446195 C15.1432393,47.7446195 14.9189103,47.8452169 14.7396448,47.9436647 C14.695005,47.9681692 14.5901863,48.0257763 14.6164616,48.1428533 C14.6428782,48.2605035 14.7500984,48.265949 14.8636756,48.2715377 C15.154823,48.2858678 15.9110152,48.323556 16.6362704,49.1052636 C16.3091004,49.0956625 15.5902021,48.950785 14.4421405,48.6623199 C14.3085037,48.6287874 14.1762795,48.612881 14.0489996,48.612881 C13.0985679,48.612881 12.628155,49.5311546 12.4510085,49.8760804 C12.427841,49.9212202 12.4114543,49.9596249 12.401707,49.9738117 L12.3378551,50.0636615 L12.4154097,50.2472303 L12.5052543,50.2472303 C12.5484815,50.2472303 12.5736266,50.2147009 12.6407276,50.1755797 C13.7010636,49.5586684 14.9398175,49.4547751 16.1706605,49.9164913 C16.5296152,50.051051 16.7343084,50.2207196 16.8467554,50.3535597 C16.8132756,50.3794972 16.7816322,50.4068677 16.7505539,50.4346681 C16.4324248,50.4211978 16.1789952,50.4147493 15.9690752,50.4147493 C15.6321579,50.4147493 15.448937,50.4310856 15.2367568,50.4501446 C15.0324874,50.4683439 14.8009539,50.4891225 14.372073,50.4982938 C14.0649626,50.5048857 13.7756516,50.5528915 13.5355009,50.6372959 C12.8492349,50.8783284 12.5239013,51.3323063 12.508786,51.3536582 L12.0741132,51.996507 L12.0613993,52.0194352 C12.0105439,52.1360823 12.0060234,52.2285115 12.0481204,52.2941435 C12.1015186,52.3774014 12.2071849,52.3974636 12.3264127,52.3209408 C13.2440709,51.7322598 13.9899508,51.4576948 14.6739565,51.4576948 C15.1145625,51.4576948 15.4829819,51.5716192 15.8392526,51.6822477 C16.184222,51.7894369 16.5410577,51.8992056 16.9487489,51.8992056 C17.1072483,51.8992056 17.2619336,51.8812929 17.421987,51.8483337 C17.6477287,51.8016175 17.8592026,51.7473064 18.0637545,51.6982974 C18.5826213,51.5737687 19.0308556,51.4591278 19.520198,51.4591278 C19.752014,51.4591278 19.9859491,51.4852086 20.2260998,51.5375135 C20.4185029,51.660036 20.5295373,51.7852812 20.5866084,51.8747011 C20.1899359,51.8562152 19.886781,51.8476172 19.6419685,51.8476172 C19.3050512,51.8476172 19.1218303,51.8639535 18.9096501,51.8830125 C18.7053807,51.9012118 18.4738472,51.9219905 18.0449662,51.9311617 C17.7378559,51.9377536 17.4485449,51.9857595 17.2083942,52.0701638 C16.5221282,52.3111963 16.1967946,52.7651742 16.1816792,52.7865261 L15.7470064,53.4293749 L15.7342926,53.4523031 C15.6834371,53.5689502 15.6789166,53.6613795 15.7210137,53.7270114 C15.7744119,53.8102693 15.8800782,53.8303315 15.999306,53.7538087 C16.9169642,53.1651277 17.6628441,52.8905627 18.3468498,52.8905627 C18.7874557,52.8905627 19.1558752,53.0044871 19.5121458,53.1151156 C19.8571153,53.2223048 20.213951,53.3320735 20.6216421,53.3320735 C20.7801416,53.3320735 20.9348269,53.3141608 21.0948803,53.2812016 C21.320622,53.2344854 21.5320959,53.1801743 21.7366478,53.1311653 C22.2555146,53.0066366 22.7037488,52.8919957 23.1930912,52.8919957 C24.0258491,52.8919957 24.8831872,53.2145666 25.9730476,53.9697635 L26.0216429,53.9724862 L26.0652938,53.9724862 L26.1555622,54 L26.1942688,53.9479817 C26.2394737,53.8538329 26.2394737,53.8538329 25.8945042,53.4064468 C25.4959953,52.8895596 24.4372132,51.5165916 24.5051617,51.1460149 C24.6900778,50.1394678 25.1580891,48.4890688 25.6348589,46.9243639 C26.5626883,47.0547679 27.5268228,47.1801564 28.5237308,47.3091274 C30.8106719,47.6050442 33.402887,47.9406554 36.0776009,48.413979 C37.3187563,48.6338029 38.6265888,48.8795644 39.8913355,49.1171576 C43.970366,49.8838186 48.1884014,50.6764171 50.6404814,50.6764171 C51.7703199,50.6764171 52.4756567,50.5100445 52.7964698,50.1678414 C52.9415491,50.0130762 53.0096389,49.8242054 52.9989027,49.6063876 C52.9257274,48.1268036 49.7240946,47.0768363 46.8993571,46.1506811 Z M21.8817271,50.5301067 C21.8745225,50.5577638 21.8643515,50.5971716 21.8543216,50.6274081 C21.7682912,50.5776826 21.6031522,50.4504312 21.4542588,50.335647 C21.2802202,50.2015172 21.0749619,50.0441726 20.8552947,49.8931332 C20.8328335,49.8206228 20.8237925,49.7595765 20.8321272,49.7138635 C20.9866712,48.8728292 21.3388452,47.5819727 21.7285957,46.2674715 C22.2480275,46.3772402 22.7904856,46.4782675 23.3507431,46.5739926 C22.9099959,47.9806364 22.3980511,49.453772 21.9457202,50.3380832 C21.9161958,50.3959768 21.8986789,50.4641882 21.8817271,50.5301067 Z" id="Shape" fill="#4A4A4A" fill-rule="nonzero"></path>
    </g>
</svg>