<svg width="60" height="60" viewBox="0 0 60 60" fill="none" xmlns="http://www.w3.org/2000/svg">
<path d="M54.6292 36.8078L50.5145 33.5522V30.001C50.5145 29.7393 50.4096 29.4887 50.2234 29.3052C50.0373 29.1217 49.7836 29.0229 49.5234 29.0244C47.8193 29.05 46.2705 30.0727 45.5773 31.6296L45.0497 32.8148L43.1625 35.903C42.4495 37.0699 41.1571 37.7944 39.7898 37.7944H33.4671C31.7432 37.7944 30.1703 38.5062 29.0426 39.6644C27.5453 40.9439 25.6146 41.5714 23.6652 41.4261L23.8014 40.5983C24.1127 38.708 23.9712 36.7438 23.3917 34.918L21.474 28.873V24.9345C23.8003 26.1877 26.402 26.8435 29.0922 26.8435H31.4654C31.8458 26.8435 32.2147 26.7763 32.5595 26.6478L37.6703 31.7589C37.861 31.9496 38.1109 32.045 38.3608 32.045C38.6106 32.045 38.8609 31.9496 39.0513 31.7589C39.4327 31.3774 39.4327 30.759 39.0513 30.3779L34.0897 25.4159C34.4364 24.883 34.6115 24.2577 34.5883 23.6054C34.5284 21.9166 33.134 20.5932 31.4139 20.5932H29.6591C29.6564 20.56 29.6526 20.5272 29.6526 20.4936C29.6526 19.8482 30.1779 19.3229 30.8234 19.3229H32.6026C33.1421 19.3229 33.5792 18.8857 33.5792 18.3463C33.5792 17.8068 33.1421 17.3697 32.6026 17.3697H30.8234C29.1025 17.3697 27.7025 18.7682 27.6994 20.4887C25.441 20.0935 23.6 18.3249 23.0499 15.97C22.9404 15.5023 22.7638 15.0643 22.5314 14.6645C24.6773 14.1431 26.2757 12.2063 26.2757 9.90208C26.2761 7.19926 24.0768 5 21.374 5C18.6708 5 16.4719 7.19926 16.4719 9.90208C16.4719 10.8505 16.7435 11.7359 17.2116 12.487C15.9317 12.8407 14.822 13.7257 14.2185 14.9545C12.6258 18.1967 11.7842 21.8197 11.7842 25.432V29.0244C11.7842 30.7834 12.1547 32.5119 12.8474 34.0997L11.7186 40.2767L7.08282 46.2435C7.08282 46.2439 7.08244 46.2446 7.08205 46.245C7.06527 46.2664 7.05001 46.2897 7.03513 46.3125C7.03132 46.3183 7.02712 46.3236 7.02369 46.3293C7.0233 46.3293 7.0233 46.3297 7.0233 46.3297L5.21392 49.2614C4.79734 49.9363 5.00792 50.8244 5.68277 51.2406L11.5405 54.8563C11.7003 54.9551 11.8777 55.002 12.0524 55.002C12.3801 55.002 12.6998 54.8372 12.8844 54.5385C13.5696 53.4284 13.7817 52.1184 13.4811 50.8488C13.3941 50.481 13.2655 50.1297 13.1019 49.7989L15.2107 47.4246L14.8827 49.9954C14.8823 49.9988 14.8823 50.0026 14.8819 50.0061C14.88 50.0255 14.8788 50.045 14.8777 50.0648C14.8769 50.0797 14.8758 50.0946 14.8754 50.1095C14.8754 50.1125 14.875 50.1156 14.875 50.119V54.0254C14.875 54.5648 15.3122 55.002 15.8516 55.002H23.1975C23.7369 55.002 24.1741 54.5648 24.1741 54.0254C24.1741 52.4365 23.4111 51.0227 22.2324 50.1304L23.3471 43.3583C23.6381 43.3854 23.9284 43.4003 24.2184 43.4003C25.3075 43.4003 26.3821 43.2095 27.3965 42.8437C27.3721 42.9772 27.35 43.1123 27.334 43.2492L26.1884 52.9969C26.1285 53.5054 26.2894 54.0166 26.6297 54.3996C26.9704 54.7823 27.4595 55.002 27.9714 55.002H30.2756C30.6906 55.002 31.0603 54.7395 31.1972 54.3478C31.3243 53.985 31.4631 53.5886 31.6077 53.1777L31.7969 53.7607C32.038 54.503 32.7243 55.0016 33.5049 55.0016H35.3322C35.8979 55.0016 36.419 54.7434 36.7616 54.2932C37.1038 53.8427 37.2137 53.272 37.0626 52.7265L35.9662 48.7724H40.0492L38.9059 52.7051C38.7468 53.2525 38.8517 53.8282 39.1939 54.2841C39.5365 54.7403 40.0599 55.002 40.6302 55.002H42.4404C43.2251 55.002 43.9125 54.4996 44.151 53.7523L44.215 53.5512L44.5473 54.1158C44.8681 54.6625 45.4614 55.0016 46.0954 55.0016H47.9341C48.5258 55.0016 49.079 54.7109 49.4139 54.223C49.7489 53.7355 49.8221 53.1148 49.61 52.5624L47.4851 47.032C48.2546 46.139 48.7829 45.0494 49.0073 43.8512C49.0088 43.844 49.0107 43.8367 49.0118 43.8291C49.0126 43.8253 49.0137 43.8214 49.0145 43.8176L49.5154 41.0648H51.1291C52.6863 41.0648 54.0627 40.1291 54.6357 38.6809L54.9313 37.9328C55.09 37.5323 54.9672 37.0753 54.6292 36.8078V36.8078ZM21.374 6.9532C22.9999 6.9532 24.3229 8.27619 24.3229 9.90208C24.3229 11.528 22.9999 12.851 21.374 12.851C19.7481 12.851 18.4251 11.528 18.4251 9.90208C18.4251 8.27619 19.7477 6.9532 21.374 6.9532ZM13.7374 25.432C13.7374 22.1169 14.5099 18.7911 15.9714 15.8155C16.4735 14.7939 17.5714 14.1774 18.7059 14.2812C19.8938 14.3903 20.8754 15.2475 21.1478 16.4144C21.9222 19.728 24.6456 22.1699 27.9253 22.4899C28.2613 22.5228 28.6028 22.5407 28.9427 22.5449C28.9503 22.5453 28.9579 22.5464 28.9656 22.5464C28.9709 22.5464 28.9762 22.5453 28.9816 22.5453C29.0182 22.5456 31.4139 22.5468 31.4139 22.5468C32.0659 22.5468 32.6145 23.053 32.6366 23.6752C32.648 23.9972 32.5317 24.3016 32.3089 24.5324C32.0861 24.7636 31.7863 24.8906 31.4654 24.8906H29.0922C26.199 24.8906 23.4241 24.0285 21.0673 22.398C21.0639 22.3953 21.0597 22.3938 21.0562 22.3911C20.3581 21.9074 19.6966 21.3543 19.0893 20.7473C18.7078 20.3658 18.0894 20.3658 17.7083 20.7473C17.3268 21.1288 17.3268 21.7472 17.7083 22.1283C18.2741 22.6944 18.8825 23.2182 19.5208 23.6924V23.7263V28.0478H13.7374V25.432ZM11.5943 52.5941L7.14652 49.8489L8.17234 48.1868L10.2682 49.4804C10.9339 49.8916 11.4001 50.5371 11.5805 51.2989C11.6828 51.7315 11.6858 52.1722 11.5943 52.5941V52.5941ZM11.9174 48.191L9.29429 46.5807L13.4075 41.2865C13.504 41.1625 13.5688 41.0171 13.5971 40.863L14.3604 36.6865C14.7911 37.2572 15.271 37.794 15.7982 38.288L16.3136 38.771L15.6483 43.9901L11.9174 48.191ZM16.8282 53.0488V51.0956H19.2911C20.5645 51.0956 21.6506 51.912 22.0538 53.0488H16.8282ZM16.9606 49.1424L17.5466 44.5444C17.547 44.5428 17.547 44.5413 17.5473 44.5398L18.3145 38.5234C18.3538 38.2125 18.242 37.9016 18.0135 37.6872L17.1338 36.8628C15.2138 35.0637 14.0232 32.6043 13.7828 30.001H19.7825L21.5297 35.5085C22.0164 37.0425 22.1355 38.6928 21.8738 40.2809L20.4153 49.1424H16.9606ZM43.9453 38.0339L47.4451 41.5337L47.2387 42.6659H42.3267V39.1692C42.9237 38.8843 43.4719 38.5005 43.9453 38.0339V38.0339ZM35.125 53.0488H33.6197L32.6801 50.1545C32.8762 49.6082 33.0501 49.1271 33.1814 48.7724H33.9394L35.125 53.0488ZM32.5115 46.8192C32.1227 46.8192 31.771 47.0496 31.6157 47.4063C31.3724 47.967 30.1218 51.5133 29.5832 53.0484H28.1488L29.2738 43.477C29.3841 42.5377 29.798 41.7012 30.4095 41.0591C30.4122 41.0564 30.4148 41.0538 30.4175 41.0507C31.19 40.2443 32.2757 39.7476 33.4671 39.7476H39.7898C39.9855 39.7476 40.1805 39.7376 40.3735 39.7178V46.8192H32.5115ZM42.3252 53.0488H40.8404L42.2824 48.0872C42.2828 48.0861 42.2832 48.0845 42.2836 48.083L42.2878 48.0681C42.2897 48.0624 42.2905 48.0567 42.292 48.051C42.2988 48.0243 42.3053 47.9976 42.3103 47.9701C42.3126 47.9583 42.3141 47.9461 42.316 47.9339C42.3191 47.9113 42.3217 47.8888 42.3233 47.8656C42.3244 47.8515 42.3252 47.8373 42.3256 47.8228C42.3256 47.8137 42.3267 47.8049 42.3267 47.7958V44.6191H46.7306C46.483 45.1612 46.1393 45.6514 45.7128 46.0661C45.6925 46.0833 45.6735 46.1012 45.6552 46.1199C45.3393 46.4167 44.9818 46.6746 44.587 46.8825C44.36 47.0019 44.1895 47.2056 44.1117 47.4498L42.3252 53.0488ZM46.1854 53.0488L45.0124 51.0525L45.8562 48.408C45.8741 48.3974 45.8909 48.3852 45.9085 48.3745L47.7045 53.0488H46.1854ZM52.8194 37.9626C52.5432 38.6607 51.8798 39.1116 51.1291 39.1116H48.7005C48.4491 39.1116 48.2172 39.2085 48.0421 39.3684L45.1199 36.4458L46.7493 33.7792C46.7714 33.7434 46.7912 33.7056 46.8084 33.6671L47.3615 32.4238C47.6045 31.8779 48.0375 31.4503 48.5613 31.2057V34.0249C48.5613 34.3236 48.6979 34.6055 48.9321 34.7909L52.8484 37.8894L52.8194 37.9626Z" fill="#FE4164"/>
<path d="M47.9404 35.6968C47.7588 35.8783 47.6543 36.1301 47.6543 36.3872C47.6543 36.644 47.7588 36.8958 47.9404 37.0777C48.1224 37.2593 48.3742 37.3639 48.6309 37.3639C48.888 37.3639 49.1398 37.2593 49.3214 37.0777C49.503 36.8958 49.6075 36.644 49.6075 36.3872C49.6075 36.1301 49.503 35.8783 49.3214 35.6968C49.1398 35.5152 48.888 35.4106 48.6309 35.4106C48.3742 35.4106 48.1224 35.5152 47.9404 35.6968Z" fill="#FE4164"/>
<path d="M41.1231 34.807C41.3798 34.807 41.632 34.7032 41.8136 34.5209C41.9952 34.3389 42.0997 34.0879 42.0997 33.8304C42.0997 33.5732 41.9952 33.3215 41.8136 33.1399C41.632 32.9583 41.3798 32.8538 41.1231 32.8538C40.8652 32.8538 40.6142 32.9583 40.4326 33.1399C40.251 33.3215 40.1465 33.5732 40.1465 33.8304C40.1465 34.0879 40.251 34.34 40.4326 34.5209C40.6142 34.7032 40.8652 34.807 41.1231 34.807Z" fill="#FE4164"/>
</svg>
