<svg width="60" height="60" viewBox="0 0 60 60" fill="none" xmlns="http://www.w3.org/2000/svg">
<path d="M17.7932 10.2703C17.3261 10.54 17.166 11.1372 17.4356 11.6043L20.3653 16.6795C20.6357 17.1481 21.2335 17.3059 21.6993 17.037C22.1664 16.7674 22.3265 16.1701 22.0568 15.703L19.1272 10.6278C18.8575 10.1608 18.2604 10.0008 17.7932 10.2703V10.2703Z" fill="#FE4164"/>
<path d="M51.1438 19.2069C50.8741 18.7399 50.2769 18.5799 49.8098 18.8494L44.7346 21.7791C44.2675 22.0487 44.1074 22.646 44.3771 23.1131C44.6475 23.5817 45.2452 23.7395 45.711 23.4706L50.7862 20.5409C51.2533 20.2713 51.4134 19.6741 51.1438 19.2069Z" fill="#FE4164"/>
<path d="M15.6232 23.1134C15.8929 22.6463 15.7328 22.0491 15.2657 21.7794L10.1905 18.8498C9.72344 18.58 9.12618 18.7402 8.85655 19.2073C8.58692 19.6744 8.74698 20.2716 9.21407 20.5413L14.2893 23.4709C14.7533 23.7389 15.352 23.5833 15.6232 23.1134Z" fill="#FE4164"/>
<path d="M40.8731 10.6279L37.9435 15.7031C37.6738 16.1702 37.8339 16.7674 38.301 17.0371C38.7651 17.305 39.3637 17.1495 39.635 16.6795L42.5647 11.6044C42.8343 11.1373 42.6742 10.54 42.2071 10.2704C41.74 10.0007 41.1428 10.1608 40.8731 10.6279V10.6279Z" fill="#FE4164"/>
<path d="M29.0234 7.97656V13.8359C29.0234 14.3753 29.4606 14.8125 30 14.8125C30.5394 14.8125 30.9766 14.3753 30.9766 13.8359V7.97656C30.9766 7.43721 30.5394 7 30 7C29.4606 7 29.0234 7.43721 29.0234 7.97656Z" fill="#FE4164"/>
<path d="M47.5781 32.3906H54.0234C54.5628 32.3906 55 31.9534 55 31.4141C55 30.8747 54.5628 30.4375 54.0234 30.4375H47.5781C47.0388 30.4375 46.6016 30.8747 46.6016 31.4141C46.6016 31.9534 47.0388 32.3906 47.5781 32.3906Z" fill="#FE4164"/>
<path d="M5.97656 30.4375C5.43721 30.4375 5 30.8747 5 31.4141C5 31.9534 5.43721 32.3906 5.97656 32.3906H12.4219C12.9612 32.3906 13.3984 31.9534 13.3984 31.4141C13.3984 30.8747 12.9612 30.4375 12.4219 30.4375H5.97656Z" fill="#FE4164"/>
<path d="M30 52.8984C30.5393 52.8984 30.9766 52.4612 30.9766 51.9219C30.9766 51.3825 30.5393 50.9453 30 50.9453C29.4607 50.9453 29.0234 51.3825 29.0234 51.9219C29.0234 52.4612 29.4607 52.8984 30 52.8984Z" fill="#FE4164"/>
<path d="M5.97656 52.8984H25.6055C26.1448 52.8984 26.582 52.4612 26.582 51.9219C26.582 51.3825 26.1448 50.9453 25.6055 50.9453H6.95312V44.5929C8.58105 45.2244 11.4612 46.2169 14.6053 46.7225C19.1526 48.8911 23.2714 49.9685 27.0657 49.9683C33.9943 49.9679 38.4422 46.4713 42.8043 42.7726C45.3879 40.5819 47.6331 38.6792 50.07 38.4336C51.4637 39.3464 52.5397 40.2188 53.047 40.6483V50.9453H34.3945C33.8552 50.9453 33.418 51.3825 33.418 51.9219C33.418 52.4612 33.8552 52.8984 34.3945 52.8984H54.0234C54.5628 52.8984 55 52.4612 55 51.9219V40.2031C55 39.928 54.884 39.6656 54.6804 39.4806C51.9353 36.9848 46.8801 33.7442 42.5402 33.4007C42.6432 32.7458 42.6953 32.0812 42.6953 31.4141C42.6953 24.4139 37.0002 18.7188 30 18.7188C22.9998 18.7188 17.3047 24.4139 17.3047 31.4141C17.3047 33.2624 17.697 35.0494 18.4495 36.6908C17.3666 36.4293 16.3306 36.2969 15.3516 36.2969C10.744 36.2969 5.69414 39.2362 5.48145 39.3614C5.18311 39.5368 5 39.8571 5 40.2031V51.9219C5 52.4612 5.43721 52.8984 5.97656 52.8984V52.8984ZM41.5411 41.283C36.5267 45.5348 30.9257 50.283 20.1894 46.8622C24.241 46.1345 28.5685 43.0216 30.6901 40.894C33.2163 38.3746 37.8798 35.3203 41.7188 35.3203C43.7378 35.3203 45.8676 36.1067 47.6835 37.0389C45.5445 37.8886 43.5836 39.5512 41.5411 41.283ZM30 20.6719C35.9232 20.6719 40.7422 25.4908 40.7422 31.4141C40.7422 32.095 40.6783 32.7723 40.5523 33.4354C34.7952 34.089 29.5397 39.2823 29.3099 39.5121C29.3029 39.519 28.6853 40.1324 27.6735 40.9434C25.9193 40.2065 24.695 39.3989 24.682 39.3904C24.6214 39.35 23.231 38.4302 21.2203 37.6019C19.9367 35.7864 19.2578 33.6535 19.2578 31.4141C19.2578 25.4908 24.0768 20.6719 30 20.6719V20.6719ZM15.3516 38.25C18.1062 38.25 21.5338 39.6465 23.5989 41.0156C23.6477 41.0481 24.5184 41.6244 25.8654 42.2712C23.8862 43.5962 21.0464 45.0859 18.2812 45.0859C14.6505 45.0859 10.3016 43.8648 6.95312 42.4875V40.7803C8.26807 40.0828 12.0393 38.25 15.3516 38.25V38.25Z" fill="#FE4164"/>
</svg>
