<svg width="60" height="60" viewBox="0 0 60 60" fill="none" xmlns="http://www.w3.org/2000/svg">
<path fill-rule="evenodd" clip-rule="evenodd" d="M27.6679 27.5645C27.0801 28.1523 26.7862 28.1523 26.7862 27.2706C27.0801 27.2706 26.4923 26.9767 27.374 27.5645C27.374 27.5645 27.374 27.5645 27.6679 27.5645ZM38.5419 31.679C35.8969 32.2668 37.0725 35.2058 39.4236 35.7936C40.8931 36.0875 40.5992 34.3241 40.5992 33.1485C40.3053 32.2668 39.7175 31.3852 38.5419 31.679ZM21.79 21.3928L24.1411 18.7477C25.0228 19.0416 25.3167 19.3355 25.0228 19.9233C24.435 20.5111 22.6717 21.0989 21.79 21.3928ZM32.3702 10.8126L31.7824 9.63699C32.3702 9.04921 33.5457 8.46142 34.4274 8.16752C35.3091 7.57974 35.8969 6.69805 37.0725 6.69805C37.6603 8.16752 33.2518 10.2248 32.3702 10.8126ZM5.03802 16.6905C4.74413 18.4538 6.2136 18.4538 7.38918 18.7477C11.2098 19.6294 15.0304 18.1599 18.2633 16.3966C20.0266 15.5149 22.0839 14.6332 24.1411 13.4576C25.6106 12.8698 28.8434 10.8126 30.3129 10.8126C30.019 13.7515 27.0801 14.9271 25.0228 15.8088C23.8472 16.6905 20.6144 19.6294 19.4388 20.805C17.0877 22.5683 15.0304 25.2134 12.3854 26.9767C10.622 27.8584 7.97696 26.0951 5.33192 26.9767C5.62581 28.4462 6.80139 28.4462 8.27086 28.7401C12.6793 30.2096 13.2671 28.7401 17.0877 25.8012C17.3816 25.8012 17.3816 25.5073 17.6755 25.5073C18.5571 24.6256 17.3816 24.6256 20.6144 23.7439C22.3778 23.1561 26.1984 22.5683 27.0801 20.805C27.9618 18.4538 25.6106 17.2782 25.6106 17.2782C31.1946 15.221 31.1946 12.8698 32.0763 12.5759C33.5457 11.6943 34.7213 11.4004 36.7786 10.2248C37.6603 9.63699 38.248 9.04921 38.8358 7.87363C39.7175 5.52248 37.6603 3.75911 34.1335 6.11027C33.2518 6.69805 32.3702 7.28584 31.1946 7.57974C29.4312 8.75531 27.0801 9.93089 25.3167 10.8126C23.5533 11.9881 21.2022 12.8698 19.4388 14.0454C17.6755 14.9271 11.5037 17.2782 9.15254 16.9843C7.68307 16.9843 6.2136 16.1027 5.03802 16.6905ZM25.6106 29.034C26.1984 29.6218 27.374 30.5035 28.5495 29.3279C28.8434 29.034 28.8434 29.034 29.1373 28.7401C30.6068 29.3279 32.0763 30.5035 34.1335 30.7974C38.8358 31.679 39.4236 27.8584 47.6526 33.7363C48.8282 34.618 48.5343 33.7363 49.416 35.4997C50.0038 36.9691 50.5916 38.7325 51.1794 40.202C51.7672 41.6714 53.2366 44.0226 52.9427 45.4921C52.6488 47.5493 49.7099 46.9615 47.9465 46.9615C45.5954 46.9615 43.2442 47.5493 41.4809 47.2554C40.5992 44.6104 43.832 41.9653 44.7137 40.7898C45.5954 39.9081 49.1221 36.0875 47.9465 34.3241C46.1832 34.0302 46.771 35.4997 45.0076 37.8508L40.5992 44.0226C40.0114 44.9043 39.4236 46.0799 39.7175 47.2554C40.0114 50.4883 44.1259 49.3127 45.5954 49.0188C46.771 49.0188 49.1221 49.0188 50.5916 49.0188C50.5916 50.1944 50.5916 51.3699 50.8855 52.5455C50.8855 53.4272 50.8855 55.1906 52.0611 54.6028C53.5305 54.3089 52.355 49.9005 52.355 48.7249C53.8244 48.1371 55 46.9615 55 45.1982C55 43.4348 54.1183 41.6714 53.5305 40.4959C52.355 38.4386 50.5916 33.4424 48.8282 32.5607C48.2404 32.2668 48.5343 32.5607 47.9465 32.2668C45.8893 30.7974 44.7137 29.034 40.5992 28.4462C35.603 27.8584 36.4847 30.7974 30.9007 27.2706C29.4312 26.389 27.6679 24.9195 26.7862 24.9195C25.3167 25.2134 24.1411 27.2706 23.5533 28.1523C20.6144 32.8546 22.6717 35.7936 25.0228 39.3203C25.9045 40.7898 27.0801 41.6714 28.8434 44.6104C29.4312 46.0799 30.019 47.5493 30.019 49.6066C29.7251 50.7822 29.1373 54.8967 30.6068 54.8967C31.1946 54.6028 30.9007 54.8967 31.1946 54.015C31.7824 52.5455 32.3702 48.7249 32.0763 47.2554C31.4885 44.3165 29.7251 41.9653 28.2556 39.9081C27.9618 39.3203 27.6679 39.0264 27.374 38.4386C25.0228 35.7936 22.9656 32.5607 25.6106 29.034Z" fill="#FE4164"/>
</svg>
