<?xml version="1.0" encoding="UTF-8"?>
<svg width="60px" height="60px" viewBox="0 0 60 60" version="1.1" xmlns="http://www.w3.org/2000/svg" xmlns:xlink="http://www.w3.org/1999/xlink">
    <!-- Generator: Sketch 54.1 (76490) - https://sketchapp.com -->
    <title>filter_b_14</title>
    <desc>Created with Sketch.</desc>
    <g id="filter_b_14" stroke="none" stroke-width="1" fill="none" fill-rule="evenodd">
        <path d="M49.1218905,25.4195526 C48.6094679,24.1717302 48.158783,22.9016737 47.5989198,21.668921 C47.1140355,20.6011941 46.300398,19.9652189 45.3827001,19.4218854 C44.8583362,19.1117621 44.2713409,18.9109148 43.7122901,18.6918686 C43.5415368,18.6250018 43.4322773,18.4193783 43.4680202,18.2375535 C43.5594894,17.7728625 43.6612753,17.2817378 43.7269122,16.7858369 C43.7666355,16.4841131 43.6923879,16.1686371 43.6887324,15.8591725 C43.6837771,15.4391143 43.6877575,15.0188914 43.7046542,14.5992449 C43.734142,13.8721925 43.5488478,13.1863966 43.376551,12.4899778 C43.2661543,12.0434035 43.3467382,11.5447851 43.217414,11.1074337 C43.0832158,10.6527893 43.2435713,10.1017974 42.8144133,9.73930059 C42.8048277,9.73123046 42.7994663,9.71105515 42.8008473,9.697303 C42.8694086,8.99108475 42.3553613,8.49716019 42.1206769,7.90919397 C41.8824183,7.31249885 41.4909527,6.74339037 40.8307659,6.45846556 C40.5967314,6.35758901 40.3826804,6.20952693 40.1417411,6.04886557 C39.9889403,5.94675379 39.8162373,6.0104913 39.7562868,6.18589299 C39.5494656,6.79230521 39.3406949,7.34165011 39.2183568,7.90985276 C39.097481,8.47369095 38.803171,8.9843322 38.8935842,9.63076565 C38.9585712,10.0933979 38.6754715,10.6000864 38.5783972,11.0935992 C38.5269762,11.3546431 38.5001691,11.6203807 38.4726308,11.8881771 C38.4537846,12.0726371 38.3381077,12.1092821 38.2240555,11.9637728 C37.9506226,11.6143693 37.7100082,11.2632366 37.3808489,11.0576131 C36.8140809,10.7038452 36.3928838,10.1773931 35.8377323,9.84338872 C34.970643,9.32195986 34.0896628,8.7796969 33.1458076,8.44709248 C32.2100758,8.1171232 31.1940039,7.99722421 30.2027082,7.86678465 C29.9417853,7.83252779 29.6630722,7.93636888 29.349185,8.03551613 C29.1745324,8.09060708 29.0993099,8.25892682 29.183793,8.42354089 C29.4757472,8.99240233 29.7375636,9.52354828 30.0332545,10.0345189 C30.5228505,10.8808938 31.0312926,11.7171399 31.5615054,12.5379045 C31.8621516,13.0032542 32.2269725,13.4255358 32.5551569,13.8730984 C32.8925207,14.3337543 33.2040522,14.8149148 33.5577441,15.2620656 C33.8026639,15.5715302 34.1055846,15.8332328 34.3714627,16.1264748 C34.6643917,16.4497738 34.964388,16.7689555 35.2265294,17.116959 C35.9447171,18.070469 36.2237551,19.1906517 36.3732253,20.3548083 C36.3788304,20.3991116 36.3854916,20.4467912 36.4053938,20.4858243 C36.7819936,21.2183116 36.3862227,21.6866259 35.875181,22.1274359 C35.8032079,22.1896088 35.7972778,22.3286949 35.7571484,22.430889 C35.6885871,22.6048908 35.6504884,22.8041734 35.5410665,22.9463065 C35.2019968,23.3853871 35.1387157,23.8927344 35.0966366,24.4212452 C35.0704793,24.7488264 34.9746235,25.069655 34.9286452,25.3965774 C34.9213341,25.4490332 34.9253146,25.503136 34.9329505,25.5531214 C34.9458667,25.6388459 34.8895717,25.8394461 34.8136181,26.0083423 C34.5314933,26.6369885 34.3344201,27.3280547 33.7523802,27.7518186 C33.6035599,27.8599418 33.5614808,27.9100095 33.6784574,27.895928 C33.7954341,27.8818464 33.8929958,27.8811053 33.8966514,27.8941986 C33.9003069,27.907292 33.7636717,27.9704531 33.5923497,28.0353435 C33.5665173,28.0450606 33.5402788,28.0547776 33.5141215,28.0648241 C33.3424746,28.1297145 33.2827678,28.2039103 33.3805732,28.2308381 C33.4782974,28.257766 33.418022,28.329656 33.245319,28.3918289 C33.0918684,28.4469198 32.9440229,28.4999521 32.7929281,28.5544666 C32.6202251,28.6162277 32.5463836,28.6999759 32.6275362,28.7409029 C32.7087699,28.7819123 32.6474384,28.8474615 32.4909822,28.8874004 C32.334526,28.9273393 32.2251853,29.0006292 32.2470372,29.0503675 C32.2689703,29.1001058 32.1409459,29.1692783 31.9619879,29.2076526 C31.6398148,29.2764957 31.317073,29.3477269 30.9901883,29.3779487 C30.8845032,29.3876658 30.7708571,29.3708667 30.6587545,29.3385862 C30.4828022,29.2878597 30.2034393,29.2048527 30.0204196,29.2088878 C28.9505708,29.23211 27.1226486,29.5704788 26.3829339,29.7151646 C26.203326,29.750492 25.9103158,29.7957835 25.7280272,29.8149706 C25.4801018,29.840828 25.2156046,29.8684146 24.9428216,29.8969894 C24.760858,29.9160942 24.6365703,29.9537274 24.6657332,29.9812317 C24.6945712,30.0088183 24.5772697,30.0787319 24.4035106,30.1374462 C23.604739,30.4082071 22.7911015,30.6837442 21.9741335,30.9605989 C21.8004557,31.0193955 21.7063058,31.0932619 21.7643067,31.1255424 C21.8223076,31.1578229 21.7318132,31.2410769 21.5595164,31.3043204 C21.0985147,31.4729695 20.6371069,31.6110674 20.2758603,31.8852046 C19.884801,32.1822346 19.4502003,32.4187387 19.0644211,32.7322383 C18.6299017,33.085018 18.0250351,33.2217161 17.4940912,33.4525381 C17.4437262,33.4744427 17.3933613,33.4961826 17.3270745,33.5254986 C17.2345493,33.5657669 17.2332495,33.6319748 17.3243938,33.6733136 C17.4155381,33.7146524 17.3701284,33.8379277 17.2232578,33.9488508 C16.9040903,34.1894722 16.5885783,34.4276232 16.2697358,34.6681624 C16.1228651,34.7790854 16.0476427,34.8942906 16.1016631,34.9258299 C16.1556836,34.9574516 16.0694945,35.055199 15.9090578,35.1445468 C15.8010169,35.204661 15.6946007,35.263787 15.5889156,35.3229953 C15.4284789,35.4123431 15.3058971,35.4997146 15.3147516,35.5181606 C15.3240122,35.5366889 15.4304285,35.5336421 15.5530915,35.5110786 C15.6753483,35.4885976 15.6674686,35.5745691 15.53522,35.7026206 C14.9518803,36.2670352 14.3877931,36.8136626 13.8216749,37.3583137 C13.7633491,37.4143928 13.7013677,37.4664369 13.6237895,37.5313273 C13.512093,37.6244631 13.5419058,37.6670371 13.6894263,37.6256983 C13.8369469,37.5847713 13.8739895,37.6767542 13.7742344,37.8323923 C13.4921907,38.2704848 13.2184329,38.703554 12.9250978,39.1225417 C12.7368792,39.3909969 12.4969146,39.6224777 12.2834323,39.8730633 C12.2767711,39.8812158 12.2781521,39.8962855 12.2810765,39.9130022 C12.284732,39.9354833 12.3457386,39.9425652 12.4176304,39.9291424 C12.4895223,39.9157197 12.4603594,40.026231 12.3526434,40.1764341 C12.1740104,40.424714 11.9996827,40.6676412 11.8100831,40.9314025 C11.7023671,41.0811939 11.7331547,41.1387553 11.8786444,41.059454 C12.0242153,40.9801526 12.083191,41.0543484 12.0052878,41.2224211 C11.717964,41.8416796 11.4182926,42.3795781 11.372558,43.0283173 C11.3500563,43.3478284 11.1843394,43.6566342 11.0229279,44.0020025 C10.9446997,44.1696635 10.9536355,44.2623876 11.0331633,44.2045791 C11.1126912,44.1467707 11.1524957,44.2485531 11.121302,44.4313661 C10.9741064,45.2924813 10.8306475,46.1334213 10.6884884,46.9650558 C10.6572947,47.1478689 10.6798777,47.2757556 10.7391783,47.2506394 C10.798479,47.2255232 10.8051401,47.3493749 10.7541253,47.5278235 C10.7136709,47.6685566 10.6745975,47.8045958 10.6357677,47.9407998 C10.5847529,48.1188366 10.5966943,48.2491938 10.661925,48.231736 C10.7275619,48.2141958 10.7265058,48.3415885 10.6947434,48.5244015 C10.611885,49.0017741 10.6659055,49.5074745 10.3209056,49.8998637 C10.1992174,50.038291 10.1392669,50.1162748 10.2267557,50.1162748 C10.3142445,50.1162748 10.2979977,50.2381501 10.1909316,50.389012 C10.1617687,50.4300214 10.1329307,50.4709485 10.1031179,50.5126167 C9.99605179,50.6631492 9.96786367,50.765261 10.0398368,50.7401448 C10.1118099,50.7150286 10.1760658,50.7039116 10.1833769,50.7149463 C10.1884134,50.7222752 10.1923126,50.7293572 10.1926375,50.7364391 C10.1949933,50.7807425 10.1972678,50.8257869 10.1923126,50.8694315 C10.1001935,51.6740559 10.3566485,52.2980906 11.1126912,52.6444472 C11.6609379,52.8957739 12.0566276,53.4609297 12.7725408,53.3920042 C12.9969085,53.3705113 13.2454838,53.6150855 13.4844735,53.7344081 C13.4937342,53.7391019 13.5077064,53.7347374 13.5225722,53.7286437 C13.5431243,53.7205736 13.5440991,53.676929 13.524928,53.6308964 C13.5056756,53.5847814 13.6352434,53.5781112 13.8146076,53.6164031 C13.9432006,53.6439897 14.0721186,53.671494 14.2023364,53.6994101 C14.3817005,53.737702 14.5033075,53.7182678 14.4747944,53.6560949 C14.4462814,53.5942514 14.5609834,53.6006746 14.7346612,53.6588124 C16.2340742,54.1603953 17.7623251,53.9521367 19.2779035,53.9809586 C19.4608419,53.9843349 19.5891913,53.9621009 19.5649836,53.9265264 C19.540451,53.8905403 19.669369,53.8617184 19.8527136,53.8620478 C20.3739907,53.8631183 20.8997357,53.8650947 21.4249932,53.8594126 C21.6692632,53.8566951 21.9148329,53.8415431 22.156747,53.8083567 C22.695002,53.7347374 23.2326071,53.6560949 23.7675314,53.5620533 C24.3542017,53.4589533 24.9468021,53.6941398 25.5515875,53.3359251 C25.905523,53.1263489 26.2273712,52.9673345 26.352065,52.6908915 C26.4279374,52.5222424 26.5482446,52.3266654 26.7265527,52.284009 C27.0579865,52.2043783 27.3712239,52.1318295 27.6774752,52.036388 C28.1066332,51.9027368 28.4775466,51.744793 28.568366,51.1700025 C28.6327031,50.76172 28.6005345,50.387118 28.2353075,50.1698011 C28.1994834,50.1486376 28.1799061,50.0998875 28.16634,50.0488316 C28.1464378,49.9724948 27.9867322,49.8965697 27.8043624,49.8811706 C27.7639079,49.8777944 27.7224787,49.8740887 27.6800747,49.870383 C27.4977861,49.8549015 27.4262192,49.7135097 27.520694,49.5542482 C27.5753644,49.4621829 27.6264604,49.3762114 27.6754444,49.2932044 C27.7699192,49.1342724 27.8683746,49.0173379 27.8955067,49.0317488 C27.9226387,49.0462421 27.9525328,49.1681998 27.9617934,49.3043214 C27.9710541,49.440443 28.0446519,49.4164797 28.1255607,49.2498893 C28.165284,49.1682822 28.2033826,49.089969 28.2402628,49.0137146 C28.3211716,48.8473712 28.4066295,48.7194021 28.4308372,48.7280486 C28.4550449,48.7367776 28.4855075,48.8520651 28.4985049,48.984728 C28.5114211,49.1174733 28.577058,49.0856046 28.6453756,48.9131674 C28.6672275,48.8577471 28.6891606,48.8026561 28.7113374,48.7462476 C28.7792488,48.5738928 28.8442358,48.5588231 28.8565021,48.7119907 C28.8687684,48.8651584 28.9141781,48.842348 28.9897255,48.6729577 C29.1404954,48.3352477 29.3765607,48.0810388 29.747068,47.9213656 C30.2591656,47.7010018 30.7520109,47.4341936 31.2641086,47.2128416 C31.3502976,47.1755379 31.5351857,47.2293112 31.597492,47.3055657 C31.847692,47.6106658 32.0604432,47.9469759 32.3014638,48.2608049 C32.5542633,48.5904448 32.8168109,48.9129204 33.0872381,49.2277376 C33.431588,49.6281969 33.7882855,50.0176216 34.1388905,50.4127283 C34.1587927,50.4352094 34.1763392,50.4594198 34.1946168,50.4853594 C34.2233736,50.5270276 34.2731699,50.5182164 34.3052572,50.4665017 C34.3373445,50.414787 34.4236148,50.5101463 34.4981874,50.6798659 C34.5243447,50.7393213 34.5508269,50.7997649 34.5780402,50.8623495 C34.6522066,51.0319869 34.7264543,51.0763725 34.7433509,50.9614144 C34.7602476,50.8464563 34.858053,50.8770899 34.9614636,51.0299282 C35.2373335,51.4377988 35.5044301,51.8329879 35.7649468,52.2179658 C35.8682762,52.3712158 35.9521906,52.3993789 35.9521906,52.2814562 C35.9521906,52.1635336 36.035374,52.1927672 36.1378098,52.3462643 C36.2909355,52.5757687 36.4364251,52.7934974 36.5919066,53.0262958 C36.6946673,53.1798752 36.7619289,53.1865454 36.7430014,53.0411185 C36.7238302,52.8956092 36.7317099,52.7606405 36.7602229,52.7398064 C36.788736,52.7186429 36.8994576,52.8231428 37.0071736,52.9729342 C37.0685051,53.0579175 37.1294304,53.1429009 37.190437,53.2279666 C37.298153,53.3778403 37.4214658,53.4621649 37.4579398,53.4104502 C37.4957135,53.3570886 37.499369,53.3314783 37.5009937,53.305868 C37.5019685,53.2917864 37.4897022,53.2767167 37.4910019,53.2626352 C37.4914081,53.2572825 37.498313,53.2528357 37.5105793,53.2444362 C37.5227643,53.2360367 37.6527384,53.3166556 37.8012337,53.4251905 C37.9026134,53.4990569 38.0054554,53.5746525 38.1113842,53.6519775 C38.2598796,53.7604301 38.3732819,53.7806054 38.3645899,53.6973514 C38.3560603,53.614015 38.4862781,53.6038861 38.6539446,53.6782466 C38.7987032,53.7423958 38.9365569,53.7992161 39.079772,53.8220266 C39.4467049,53.8811526 39.8428008,53.8099214 40.1930808,53.9117038 C40.894047,54.1150215 41.4807173,53.80251 41.9474053,53.4259317 C42.2400905,53.189757 42.514417,53.1258548 42.8329346,53.0967035 C43.0152232,53.0799045 43.2713532,52.9707108 43.4043329,52.8429887 C43.5866215,52.667587 43.7735404,52.4875738 43.9502239,52.3178542 C44.0827974,52.1902144 44.1272322,51.9506635 44.0450237,51.7846495 C43.8399084,51.3700263 43.6151346,51.0091764 43.1759848,50.8770899 C43.0006823,50.8243047 42.9178239,50.766908 43.0019821,50.6953474 C43.0861403,50.6237868 43.0059625,50.5656489 42.8230241,50.5656489 C42.771928,50.5656489 42.7226191,50.5656489 42.6745287,50.5656489 C42.4915903,50.5656489 42.343095,50.5562613 42.34277,50.5444855 C42.3424451,50.5327097 42.414337,50.5038054 42.5037754,50.4796774 C42.593295,50.455467 42.5313136,50.37246 42.3652718,50.2942292 C42.3155567,50.2710071 42.2668165,50.2478672 42.2180762,50.2249744 C42.0520344,50.147073 41.9820921,50.0677717 42.0619449,50.0485845 C42.1417977,50.029068 42.0759171,49.9416966 41.9147493,49.8533369 C41.6108538,49.6860877 41.3059022,49.5173562 40.9973763,49.3547185 C40.9323893,49.3204617 40.8624471,49.2959219 40.7799135,49.2690764 C40.6569256,49.2291375 40.6354799,49.1723172 40.7311733,49.1437424 C40.8269479,49.115497 40.8193119,49.0513477 40.7146016,49.0007036 C40.6098913,48.9499771 40.625082,48.8928274 40.7490447,48.8733109 C40.8730074,48.8538767 40.8362085,48.7805868 40.6672423,48.709685 C40.525002,48.6502296 40.3838177,48.5911859 40.2489696,48.5346951 C40.0799222,48.4637932 40.001694,48.3260247 40.0799222,48.231983 C40.1501894,48.1473291 40.2016103,48.0830975 40.1869883,48.0448056 C40.1479148,47.9423644 40.0914574,47.8470052 40.0282575,47.7491755 C39.9274464,47.5942785 39.8959277,47.4723208 39.9599399,47.4750383 C40.0238709,47.4776734 40.0523839,47.4011719 40.0241958,47.3040011 C40.0069742,47.2452044 39.9911336,47.1864078 39.9791111,47.1269524 C39.9062444,46.7651144 39.9095749,46.3667137 39.7544184,46.0467909 C39.5423171,45.6090279 39.5836651,45.2700003 39.8220049,44.9663001 C39.9359759,44.8211202 40.080897,44.7680879 40.1123344,44.8174145 C40.1441781,44.8668234 40.2263054,44.7952628 40.2955978,44.6575766 C40.3651339,44.5198081 40.438488,44.4499768 40.4593651,44.5013621 C40.4802422,44.5527474 40.5929946,44.4791281 40.7109461,44.3374068 C40.8090765,44.2194842 40.9090752,44.0991734 41.0108612,43.9768863 C41.1288126,43.8350827 41.2452206,43.7769449 41.2699969,43.8472703 C41.2952606,43.9175133 41.3681273,43.8334358 41.4509857,43.6677512 C41.8656029,42.8365283 42.5662441,42.1767545 42.7283867,41.2285972 C42.7290366,41.2245621 42.7369975,41.2215152 42.7459332,41.2188801 C42.7568998,41.2155038 42.8055588,41.2500901 42.8543803,41.2964521 C42.9031206,41.3427318 42.9842731,41.2360085 43.0356128,41.0578894 C43.3219619,40.0600761 43.5990503,39.0937199 43.8817438,38.1087529 C43.9328398,37.9306337 44.0680128,37.6689311 44.1754039,37.518728 C44.7063478,36.7793234 44.8422519,36.2783169 44.8605295,35.9830162 C44.8721459,35.7978975 44.699118,35.5586759 44.6016375,35.4014732 C44.4097633,35.0916792 44.4508676,34.7611335 44.4259288,34.437505 C44.3921356,34.0034476 44.4395761,33.562967 44.4753189,33.1312977 C44.4905909,32.9465083 44.5186978,32.8053635 44.5575275,32.8232331 C44.5960323,32.8410203 44.5946513,32.706628 44.5979819,32.5211798 C44.611548,31.7259432 45.3052031,31.5246018 45.8955289,31.274675 C46.0645764,31.2031144 46.3273676,31.0931795 46.4885354,31.0414649 C46.5902401,31.008855 46.6864209,30.9695749 46.7609935,30.9050962 C46.9714702,30.7233537 47.1255707,30.4733446 47.2985174,30.2479575 C47.4565983,30.0420046 47.6472539,29.8897428 47.8573245,29.7322107 C48.2162965,29.4634261 48.4745386,29.0599199 48.7946809,28.7333269 C49.0603966,28.462566 49.3355353,28.1930403 49.6411368,27.9723471 C50.0302465,27.6917867 50.1134299,27.1589115 49.8390223,26.733583 C49.5703822,26.3145953 49.3105153,25.8794673 49.1218905,25.4195526 Z" id="Shape" fill="#4A4A4A" fill-rule="nonzero" transform="translate(30.000000, 30.000000) scale(-1, 1) translate(-30.000000, -30.000000) "></path>
    </g>
</svg>