<?xml version="1.0" encoding="UTF-8"?>
<svg width="60px" height="60px" viewBox="0 0 60 60" version="1.1" xmlns="http://www.w3.org/2000/svg" xmlns:xlink="http://www.w3.org/1999/xlink">
    <!-- Generator: Sketch 54.1 (76490) - https://sketchapp.com -->
    <title>filter_b_12</title>
    <desc>Created with Sketch.</desc>
    <g id="filter_b_12" stroke="none" stroke-width="1" fill="none" fill-rule="evenodd">
        <path d="M7.54706031,9.21857478 L9.10530271,11.2631051 L8.9515867,9 L10.5871988,11.1182616 C20.0136136,9.43936552 23.2770599,20.3946961 23.2770599,20.3946961 C28.1750949,24.9241296 35.5235803,23.3894727 35.5235803,23.3894727 C41.6114305,22.2933756 44.7968931,26.3109211 44.7968931,26.3109211 C51.0286346,26.6753467 51.3286981,33.9793704 51.3286981,33.9793704 C51.2513284,37.9991318 54,40.4806103 54,40.4806103 C47.9135825,40.5543415 46.8754365,32.8860936 46.8754365,32.8860936 C46.3551355,27.1141078 45.2410525,27.9898171 45.2410525,27.9898171 C46.4312771,32.5182433 40.5661206,37.1179834 40.5661206,37.1179834 C40.7912706,37.8490505 41.8316681,38.0682297 41.8316681,38.0682297 C44.6495222,39.6018793 43.0186177,40.1866927 43.0186177,40.1866927 C42.05559,41.7239684 40.6414435,41.4310581 40.6414435,41.4310581 C40.7890191,43.1836853 38.8592793,44.4983572 38.8592793,44.4983572 C37.7474478,47.1274996 35.3749813,49.0995074 35.3749813,49.0995074 C34.9310265,49.0995074 34.7071046,49.6113954 34.7071046,49.6113954 C34.7071046,51 32.8502315,51 32.8502315,51 C31.5846841,51 31.4405881,50.6333584 31.4405881,50.6333584 C31.6632819,48.8067985 34.4082692,48.296925 34.4082692,48.296925 C35.5213288,47.494544 34.7071046,47.2729475 34.7071046,47.2729475 C32.9988305,47.7098956 34.039228,45.3736636 34.039228,45.3736636 C34.1143462,42.600282 36.4118992,42.0132526 36.4118992,42.0132526 C37.3761551,41.7930662 37.4522967,41.2833942 37.4522967,41.2833942 C35.9665116,40.0414462 35.2998631,36.0966247 35.2998631,36.0966247 C34.4082692,36.2420726 33.1513184,35.2942438 33.1513184,35.2942438 C28.6217106,37.6304758 19.8650146,34.7821543 19.8650146,34.7821543 C19.8650146,36.8992071 18.751341,39.7497446 18.751341,39.7497446 C19.2691859,44.9367155 18.6025374,46.760858 18.6025374,46.760858 C18.0091649,48.0753284 17.9352748,48.0040146 17.9352748,48.0040146 C19.0464922,49.463933 17.4900919,49.6831121 17.4900919,49.6831121 L16.0806531,49.6831121 C13.704707,49.5354483 15.1896734,48.3684402 15.1896734,48.3684402 C17.4878404,46.9087233 17.1930986,45.0106481 17.1930986,45.0106481 C17.1200272,43.8412227 16.8199637,38.4352741 16.8199637,38.4352741 C16.6717741,36.0990421 15.85755,35.3643489 15.85755,35.3643489 C15.0396416,36.4610503 10.2185669,36.9709238 10.2185669,36.9709238 C8.65971048,39.6725887 12.2946542,42.2292085 12.2946542,42.2292085 C12.963759,41.0597831 14.0041565,42.4483877 14.0041565,42.4483877 C15.0398463,44.5678579 14.3719696,44.6391717 14.3719696,44.6391717 C13.4813992,44.7118957 12.0001172,43.398634 12.0001172,43.398634 C9.18001157,42.8152307 7.69258906,37.8450215 7.69258906,37.8450215 C6.80140458,35.142148 11.1091374,34.4872294 11.1091374,34.4872294 C14.6720331,33.172759 13.3352564,32.0746473 13.3352564,32.0746473 C11.3310124,29.2269302 12.963759,27.5452139 12.963759,27.5452139 C13.7816674,26.6686988 13.7049117,24.9887955 13.7049117,24.9887955 C12.2203547,21.8475636 12.2948589,17.9776821 12.2948589,17.9776821 C11.8525416,19.58466 9.84563672,20.8260035 9.84563672,20.8260035 C9.84563672,20.8260035 10.2902055,18.0510104 9.84563672,21.1183095 C9.40168193,24.1854072 6.87672748,22.5774221 6.87672748,22.5774221 C5.09640534,21.4849511 6.57850612,18.7814732 6.57850612,18.7814732 C6.50175045,15.7854878 8.06347245,12.3545689 8.06347245,12.3545689 L7.54706031,9.21857478 Z" id="Shape" fill="#4A4A4A" fill-rule="nonzero"></path>
    </g>
</svg>