<svg width="60" height="60" viewBox="0 0 60 60" fill="none" xmlns="http://www.w3.org/2000/svg">
<path d="M29.4917 37.843C26.5384 37.843 24.1357 40.0797 24.1357 42.8289C24.1357 44.1345 24.9051 44.9139 26.1938 44.9139C26.7855 44.9139 27.435 44.7635 28.063 44.6181C28.5827 44.4977 29.1201 44.3731 29.4917 44.3731C29.8153 44.3731 30.3259 44.4922 30.8195 44.6073C31.4662 44.758 32.1349 44.9139 32.7517 44.9139C34.0642 44.9138 34.8479 44.1345 34.8479 42.8289C34.8478 40.0797 32.4452 37.843 29.4917 37.843ZM33.0848 43.1494C33.0841 43.1499 33.0116 43.2018 32.7515 43.2018C32.3317 43.2018 31.7605 43.0687 31.2083 42.9399C30.5933 42.7964 30.0122 42.6609 29.4917 42.6609C28.9244 42.6609 28.2901 42.8079 27.6767 42.95C27.1424 43.0738 26.5899 43.2017 26.1938 43.2017C25.9739 43.2017 25.9015 43.1585 25.9004 43.1625C25.8966 43.1566 25.8478 43.0761 25.8478 42.8286C25.8478 41.0233 27.4824 39.5547 29.4917 39.5547C31.5011 39.5547 33.1358 41.0233 33.1358 42.8286C33.1358 43.0389 33.0968 43.1343 33.0848 43.1494Z" fill="#FE4164"/>
<path d="M26.8273 36.2081C26.8273 34.7012 25.7821 33.4753 24.4972 33.4753C23.2123 33.4753 22.167 34.7012 22.167 36.2081C22.167 37.715 23.2123 38.9409 24.4972 38.9409C25.7821 38.9408 26.8273 37.7149 26.8273 36.2081ZM23.8791 36.2081C23.8791 35.6239 24.2055 35.1874 24.4973 35.1874C24.7891 35.1874 25.1154 35.6239 25.1154 36.2081C25.1154 36.7923 24.7891 37.2289 24.4973 37.2289C24.2054 37.2288 23.8791 36.7922 23.8791 36.2081Z" fill="#FE4164"/>
<path d="M29.6484 37.251C30.9332 37.251 31.9786 36.0251 31.9786 34.5182C31.9786 33.0113 30.9332 31.7854 29.6484 31.7854C28.3636 31.7854 27.3184 33.0113 27.3184 34.5182C27.3184 36.0251 28.3636 37.251 29.6484 37.251ZM29.6484 33.4975C29.9403 33.4975 30.2665 33.9341 30.2665 34.5183C30.2665 35.1025 29.9403 35.539 29.6484 35.539C29.3567 35.539 29.0304 35.1025 29.0304 34.5183C29.0304 33.9341 29.3567 33.4975 29.6484 33.4975Z" fill="#FE4164"/>
<path d="M34.798 33.4753C33.5131 33.4753 32.4678 34.7012 32.4678 36.2081C32.4678 37.715 33.5131 38.9409 34.798 38.9409C36.0829 38.9409 37.1283 37.715 37.1283 36.2081C37.1283 34.7012 36.0829 33.4753 34.798 33.4753ZM34.798 37.2288C34.5063 37.2288 34.1798 36.7922 34.1798 36.208C34.1798 35.6238 34.5062 35.1873 34.798 35.1873C35.0898 35.1873 35.4163 35.6238 35.4163 36.208C35.4163 36.7922 35.0898 37.2288 34.798 37.2288Z" fill="#FE4164"/>
<path d="M53.5175 22.0258L31.4662 5.53546C30.9978 5.1853 30.4398 5.0001 29.8525 5.0001L29.8413 5.0002C29.836 5.0001 29.831 5 29.827 5L29.8096 5.0003C29.8032 5.0001 29.7969 5.0002 29.7906 5.0002L29.7714 5C29.7674 5 29.7625 5.0001 29.7572 5.0002L29.746 5.0001C29.1587 5.0001 28.6007 5.1853 28.1323 5.53546L6.08117 22.0259C4.89001 22.9166 4.64539 24.6106 5.53604 25.8022L7.38361 28.2727C7.89047 28.9505 8.69864 29.3549 9.54558 29.3549C9.9757 29.3549 10.3906 29.2539 10.7671 29.0616V52.3021C10.7671 53.7897 11.9774 55 13.4651 55H46.1336C47.6212 55 48.8316 53.7897 48.8316 52.3021V29.0615C49.208 29.2539 49.6228 29.355 50.0531 29.355C50.0532 29.355 50.0531 29.355 50.0532 29.355C50.9 29.355 51.7083 28.9503 52.2149 28.2727L54.0626 25.802C54.9531 24.6106 54.7086 22.9166 53.5175 22.0258ZM46.1336 53.288H13.4651C12.9214 53.288 12.4791 52.8457 12.4791 52.3021V27.831L29.7994 14.8788L47.1196 27.8309V52.3021C47.1196 52.8458 46.6772 53.288 46.1336 53.288ZM52.6915 24.7768L50.8438 27.2474C50.6559 27.4988 50.3677 27.643 50.053 27.643C49.8396 27.643 49.6358 27.575 49.4639 27.4464L30.312 13.1243C30.1601 13.0107 29.9797 12.9539 29.7994 12.9539C29.6192 12.9539 29.4388 13.0107 29.2868 13.1243L10.1346 27.4465C9.96271 27.575 9.75898 27.6429 9.54558 27.6429C9.23097 27.6429 8.94265 27.4987 8.75463 27.2473L6.90717 24.777C6.58168 24.3415 6.67101 23.7224 7.10636 23.3969L29.1576 6.90668C29.3277 6.77939 29.5311 6.71222 29.7552 6.71222C29.7553 6.71222 29.7553 6.71222 29.7555 6.71222C29.7621 6.71222 29.7685 6.71232 29.7751 6.71212L29.7925 6.71232C29.7974 6.71242 29.8025 6.71242 29.8063 6.71232L29.8257 6.71212C29.8354 6.71212 29.8451 6.71222 29.8525 6.71212C30.0673 6.71212 30.2708 6.77939 30.4409 6.90668L52.4922 23.3968C52.9275 23.7224 53.0168 24.3415 52.6915 24.7768Z" fill="#FE4164"/>
<path d="M36.138 25.9819C33.7106 25.9819 31.4527 26.9521 29.8002 28.6754C28.1477 26.9521 25.8897 25.9819 23.4624 25.9819C18.6105 25.9819 14.6631 29.9292 14.6631 34.7813C14.6631 37.0442 15.467 39.3236 17.0526 41.5565C18.2864 43.2941 19.9973 45.01 22.1377 46.6565C25.746 49.432 29.2996 51.0434 29.4492 51.1106C29.5606 51.1607 29.6804 51.1859 29.8002 51.1859C29.9057 51.1859 30.0114 51.1665 30.1116 51.1273C30.2617 51.0687 33.8296 49.6607 37.4498 46.9831C39.5979 45.3944 41.3147 43.6862 42.5526 41.9062C44.135 39.631 44.9373 37.2339 44.9373 34.7813C44.9373 29.9292 40.99 25.9819 36.138 25.9819ZM29.8223 49.3932C27.7277 48.376 16.3751 42.5036 16.3751 34.7813C16.3751 30.8733 19.5544 27.6939 23.4624 27.6939C25.7025 27.6939 27.7636 28.72 29.1176 30.5093C29.2794 30.7231 29.532 30.8488 29.8002 30.8488C30.0684 30.8488 30.321 30.7231 30.4828 30.5093C31.8367 28.72 33.898 27.6939 36.138 27.6939C40.046 27.6939 43.2253 30.8733 43.2253 34.7813C43.2253 43.2272 31.9263 48.4875 29.8223 49.3932Z" fill="#FE4164"/>
</svg>
