<svg width="31" height="31" viewBox="0 0 31 31" fill="none" xmlns="http://www.w3.org/2000/svg">
<path d="M25.0118 10.4732H23.0395V17.9402L25.0118 18.0604C26.573 18.0604 27.8386 16.7948 27.8386 15.2336V13.2999C27.8385 11.7388 26.573 10.4732 25.0118 10.4732V10.4732Z" fill="#EFE2DD"/>
<path d="M23.4598 5.11522V23.7666L22.4923 22.8087C22.4923 22.8087 17.4548 18.3573 14.0922 18.2378L9.24059 18.0446L4.98471 18.1418V10.6097H9.24059L14.0922 10.4165C17.4548 10.297 22.4923 5.84556 22.4923 5.84556L23.4598 5.11522Z" fill="#F9F3F1"/>
<path d="M23.4599 5.11522V23.7666L22.4923 22.8087C22.4923 22.8087 21.4721 21.9063 20.0422 20.9038L20.0419 7.75071C21.4718 6.74816 22.4923 5.84556 22.4923 5.84556L23.4599 5.11522Z" fill="#F3EAE6"/>
<path d="M3.31206 16.4633H2.58697C1.40823 16.4633 0.452698 15.5078 0.452698 14.329C0.452698 13.1503 1.40823 12.1947 2.58697 12.1947H3.31206V16.4633Z" fill="#CBC4CC"/>
<path d="M8.67263 15.4136V25.6739C8.67263 26.0777 8.34488 26.4049 7.94108 26.4049H5.31971C4.91531 26.4049 4.58817 26.0777 4.58817 25.6739V15.4136H8.67263Z" fill="#F9F3F1"/>
<path d="M8.67261 15.4136V24.6816H6.97111C6.78279 24.6816 6.63008 24.5289 6.63008 24.3406V15.4136H8.67261Z" fill="#EFE2DD"/>
<path d="M23.0235 20.894C23.0235 20.894 17.9859 16.4425 14.6234 16.323L13.6213 16.2831C11.7312 16.2078 10.2377 14.6537 10.2377 12.7622V10.57L9.2406 10.6097H5.99391V18.1188L9.2406 18.0447L10.2377 18.0844L14.0922 18.2378C17.4548 18.3573 22.4923 22.8088 22.4923 22.8088L23.4599 23.7667V21.326L23.0235 20.894Z" fill="#F3EAE6"/>
<path d="M20.0422 18.6252L20.0422 20.9038C21.4721 21.9063 22.4923 22.8087 22.4923 22.8087L23.4599 23.7666V21.3259L23.0235 20.8939C23.0235 20.894 21.7428 19.7625 20.0422 18.6252V18.6252Z" fill="#EFE2DD"/>
<path d="M7.20108 9.58717H5.17907C3.84816 9.58717 2.76895 10.6664 2.76895 11.9973V16.657C2.76895 17.9879 3.84816 19.0671 5.17907 19.0671H7.20108L8.26278 18.1417V11.1456L7.20108 9.58717Z" fill="#D4E1F4"/>
<path d="M7.31455 17.4204C5.98365 17.4204 4.90444 16.3412 4.90444 15.0103V10.3507C4.90444 10.0857 4.94862 9.83067 5.02769 9.59213C3.7677 9.67078 2.76895 10.7175 2.76895 11.9973V16.657C2.76895 17.9879 3.84816 19.0671 5.17907 19.0671H7.20108L8.26278 18.1417V17.4204H7.31455Z" fill="#EF414C"/>
<path d="M9.03055 9.94148V18.7128C9.03055 18.9083 8.8718 19.0671 8.67624 19.0671H7.20108V9.58717H8.67624C8.8718 9.58717 9.03055 9.74592 9.03055 9.94148Z" fill="#D4E1F4"/>
<path d="M8.63037 17.4205H7.20108V19.0671H8.67624C8.8718 19.0671 9.03055 18.9084 9.03055 18.7128V17.4205H8.63037Z" fill="#FE646F"/>
<path d="M23.4831 24.0593H24.0209C24.5682 24.0593 25.0119 23.6156 25.0119 23.0684V5.58595C25.0119 5.03868 24.5682 4.59499 24.0209 4.59499H23.4831C22.9358 4.59499 22.4921 5.03868 22.4921 5.58595V23.0684C22.4921 23.6157 22.9358 24.0593 23.4831 24.0593V24.0593Z" fill="#D4E1F4"/>
<path d="M25.4645 10.0525V5.58594C25.4645 4.78993 24.8169 4.14229 24.0209 4.14229H23.4831C22.6871 4.14229 22.0395 4.78987 22.0395 5.58594V5.69954C20.1979 8.26043 17.2322 9.85202 14.074 9.96399L12.7597 10.0164C12.5098 10.0263 12.3154 10.2369 12.3254 10.4867C12.3351 10.7304 12.5357 10.9214 12.7774 10.9214C12.7835 10.9214 12.7897 10.9213 12.7958 10.921L14.1081 10.8687C15.8277 10.8077 17.5356 10.3408 19.0471 9.51836C19.2308 9.41841 19.4115 9.31302 19.5892 9.20268V19.4515C19.4114 19.3412 19.2307 19.2358 19.047 19.1358C17.5356 18.3134 15.8277 17.8464 14.1101 17.7855L9.48328 17.6011V11.0531L10.8665 10.9979C11.1163 10.988 11.3108 10.7774 11.3008 10.5276C11.2908 10.2777 11.0787 10.0842 10.8304 10.0933L9.48328 10.147V9.94177C9.48328 9.49663 9.12113 9.13454 8.67605 9.13454H5.17906C3.68211 9.13454 2.45068 10.2896 2.32712 11.7551C1.02223 11.8859 0 12.9902 0 14.329C0 15.6678 1.02241 16.7719 2.32736 16.9026C2.4217 18.0062 3.14431 18.9325 4.1354 19.3219V22.8086C4.1354 23.0586 4.33808 23.2613 4.58809 23.2613C4.83809 23.2613 5.04078 23.0586 5.04078 22.8086V19.5162C5.08665 19.5184 6.17763 19.5197 6.17763 19.5197V24.3404C6.17763 24.778 6.53369 25.134 6.97128 25.134H8.21986V25.6736C8.21986 25.8272 8.09486 25.9522 7.94118 25.9522H5.31945C5.16578 25.9522 5.04078 25.8272 5.04078 25.6736V24.7378C5.04078 24.4877 4.83809 24.2851 4.58809 24.2851C4.33808 24.2851 4.1354 24.4877 4.1354 24.7378V25.6736C4.1354 26.3264 4.66656 26.8576 5.31945 26.8576H7.94124C8.59414 26.8576 9.1253 26.3264 9.1253 25.6736V22.0089H10.4082C10.8302 22.0089 11.2215 21.8183 11.4816 21.4861C11.7418 21.1538 11.833 20.7283 11.7319 20.3185L11.3025 18.5797L14.076 18.6903C17.2322 18.8022 20.1979 20.3938 22.0395 22.9547V23.0682C22.0395 23.8642 22.6871 24.5119 23.4831 24.5119H24.0209C24.8169 24.5119 25.4645 23.8643 25.4645 23.0682V18.481C27.0593 18.2597 28.2913 16.8882 28.2913 15.2335V13.2998C28.2913 11.6453 27.0593 10.2737 25.4645 10.0525V10.0525ZM0.905377 14.329C0.905377 13.494 1.51723 12.7991 2.31614 12.6692V15.9887C1.51723 15.8588 0.905377 15.164 0.905377 14.329V14.329ZM3.22151 16.6568V11.9975C3.22151 10.9181 4.09967 10.0399 5.17906 10.0399H6.74856V15.4987C6.74856 15.7487 6.95124 15.9514 7.20125 15.9514C7.45125 15.9514 7.65394 15.7487 7.65394 15.4987V10.0399H8.57791V18.6144H7.65394V17.4279C7.65394 17.1779 7.45125 16.9752 7.20125 16.9752C6.95124 16.9752 6.74856 17.1779 6.74856 17.4279V18.6144H5.17906C4.09961 18.6144 3.22151 17.7362 3.22151 16.6568V16.6568ZM7.08301 24.2287V19.5198H8.21986V24.2287H7.08301ZM10.8529 20.5357C10.8869 20.6734 10.8563 20.8164 10.7689 20.928C10.6815 21.0397 10.55 21.1037 10.4082 21.1037H9.1253V19.3829C9.34102 19.2378 9.48328 18.9916 9.48328 18.7126V18.5074L10.3607 18.5423L10.8529 20.5357ZM20.4945 20.0783V8.57598C21.0526 8.14828 21.571 7.66855 22.0395 7.14446V21.5099C21.571 20.9858 21.0526 20.5061 20.4945 20.0783ZM24.5591 23.0684C24.5591 23.3651 24.3176 23.6066 24.0209 23.6066H23.4831C23.1863 23.6066 22.9449 23.3652 22.9449 23.0684V5.58594C22.9449 5.28916 23.1863 5.04767 23.4831 5.04767H24.0209C24.3176 5.04767 24.5591 5.2891 24.5591 5.58594V23.0684ZM27.3859 15.2336C27.3859 16.3879 26.5578 17.3525 25.4645 17.5644V10.9691C26.5578 11.1811 27.3859 12.1456 27.3859 13.2999V15.2336Z" fill="#0F6CAB"/>
<path d="M29.9012 12.3123C29.9821 12.3123 30.064 12.2906 30.138 12.2451L30.7242 11.8843C30.9371 11.7533 31.0035 11.4745 30.8725 11.2615C30.7414 11.0485 30.4626 10.9822 30.2497 11.1132L29.6635 11.474C29.4506 11.605 29.3842 11.8838 29.5152 12.0968C29.6007 12.2358 29.7491 12.3123 29.9012 12.3123Z" fill="#0F6CAB"/>
<path d="M30.7242 16.7699L30.138 16.4092C29.9251 16.2781 29.6462 16.3445 29.5152 16.5575C29.3841 16.7704 29.4506 17.0492 29.6635 17.1803L30.2497 17.541C30.3237 17.5865 30.4056 17.6083 30.4865 17.6083C30.6385 17.6083 30.787 17.5317 30.8725 17.3928C31.0035 17.1798 30.9371 16.901 30.7242 16.7699V16.7699Z" fill="#0F6CAB"/>
<path d="M30.5473 13.8141H29.9611C29.711 13.8141 29.5084 14.0168 29.5084 14.2668C29.5084 14.5168 29.711 14.7195 29.9611 14.7195H30.5473C30.7974 14.7195 31 14.5168 31 14.2668C31 14.0168 30.7973 13.8141 30.5473 13.8141V13.8141Z" fill="#0F6CAB"/>
</svg>
